<svg width="17" height="17" viewBox="0 0 17 17" fill="none" xmlns="http://www.w3.org/2000/svg">
<rect x="0.46582" y="0.48291" width="15.6883" height="15.6883" rx="7.84414" fill="#A9B4BF"/>
<path d="M12.3502 7.46038C12.2069 7.08889 12.0104 6.75707 11.7659 6.47381C11.5157 6.18417 11.2157 5.9539 10.8743 5.78938C10.5286 5.62264 10.1554 5.53829 9.76522 5.53829C9.42406 5.53829 9.10256 5.59711 8.8096 5.71336C8.79157 5.72047 8.77182 5.70733 8.77176 5.68795L8.76436 3.59208C8.76409 3.48388 8.67873 3.39648 8.57372 3.39648H6.94763C6.89701 3.39648 6.84854 3.41729 6.813 3.45391L5.2281 5.08718C5.19229 5.12408 5.17236 5.17402 5.17236 5.2259V10.1421C5.17236 10.5677 5.24587 10.9736 5.39074 11.3486C5.53614 11.7251 5.74294 12.0592 6.00547 12.341C6.26908 12.6246 6.58708 12.8504 6.95032 13.0124C7.31491 13.175 7.72123 13.2577 8.15771 13.2577C8.59418 13.2577 8.99081 13.175 9.35567 13.0122C9.71702 12.8504 10.0339 12.6254 10.297 12.3433L10.4518 12.1837C11.7257 10.8715 11.7295 10.8676 11.7354 10.8609C11.9977 10.5785 12.2045 10.2442 12.3499 9.86714C12.4948 9.49149 12.5683 9.08477 12.5683 8.65862C12.5683 8.23248 12.495 7.83602 12.3502 7.46038Z" fill="#75818D"/>
<path d="M12.1216 8.65876C12.1217 8.65885 12.1218 8.65902 12.1218 8.6592C12.1218 9.02836 12.0596 9.3745 11.935 9.69735C11.8103 10.0203 11.6363 10.3022 11.4129 10.5427C11.1891 10.7832 10.9225 10.9727 10.6129 11.1114C10.3029 11.2499 9.96286 11.319 9.59262 11.319C9.22238 11.319 8.8726 11.2499 8.56268 11.1117C8.25276 10.9736 7.98618 10.7843 7.76269 10.5441C7.5392 10.3038 7.36526 10.0228 7.24059 9.70012C7.11592 9.37774 7.05372 9.03233 7.05372 8.66362V4.49007C7.05372 4.1403 7.33727 3.85675 7.68704 3.85675C8.03596 3.85675 8.31916 4.13897 8.32036 4.48789L8.32488 5.80296C8.32585 6.08281 8.70938 6.24595 8.96954 6.14283C9.21215 6.04656 9.47737 5.99856 9.76468 5.99856C10.0905 5.99856 10.3969 6.06792 10.6842 6.20636C10.9715 6.3448 11.2206 6.53596 11.4314 6.77982C11.6423 7.02369 11.8097 7.30723 11.9344 7.63017C12.0588 7.95301 12.1213 8.29582 12.1213 8.65832C12.1213 8.65851 12.1214 8.65868 12.1216 8.65876Z" fill="white"/>
</svg>
