<svg width="44" height="43" viewBox="0 0 44 43" fill="none" xmlns="http://www.w3.org/2000/svg">
<ellipse cx="21.9976" cy="21.212" rx="21.9976" ry="21.212" fill="#CF9709" fill-opacity="0.66"/>
<path d="M31 20V28C31 29.105 30.105 30 29 30H15C13.895 30 13 29.105 13 28V14C13 12.895 13.895 12 15 12H22" stroke="white" stroke-width="1.5" stroke-linecap="round" stroke-linejoin="round"/>
<path fill-rule="evenodd" clip-rule="evenodd" d="M19 24L22.15 23.611C22.371 23.584 22.577 23.483 22.735 23.326L30.366 15.695C31.211 14.85 31.211 13.48 30.366 12.634V12.634C29.521 11.789 28.151 11.789 27.305 12.634L19.745 20.194C19.592 20.347 19.493 20.545 19.462 20.76L19 24Z" stroke="white" stroke-width="1.5" stroke-linecap="round" stroke-linejoin="round"/>
</svg>
