<svg width="25" height="25" viewBox="0 0 25 25" fill="none" xmlns="http://www.w3.org/2000/svg">
<path d="M20.6628 8.9613C19.6114 4.33519 15.576 2.25244 12.0314 2.25244C12.0314 2.25244 12.0314 2.25244 12.0214 2.25244C8.48669 2.25244 4.44135 4.32518 3.38996 8.95129C2.21841 14.1181 5.38259 18.4939 8.24637 21.2475C9.30777 22.2689 10.6696 22.7795 12.0314 22.7795C13.3932 22.7795 14.755 22.2689 15.8064 21.2475C18.6701 18.4939 21.8343 14.1281 20.6628 8.9613ZM12.0314 13.9779C10.2891 13.9779 8.8772 12.5661 8.8772 10.8238C8.8772 9.08146 10.2891 7.66959 12.0314 7.66959C13.7737 7.66959 15.1855 9.08146 15.1855 10.8238C15.1855 12.5661 13.7737 13.9779 12.0314 13.9779Z" fill="#1D2939"/>
</svg>
