<svg width="15" height="9" viewBox="0 0 15 9" fill="none" xmlns="http://www.w3.org/2000/svg">
<path d="M8.4095 1.14998C8.58113 0.986587 8.80952 0.896256 9.04648 0.898049C9.28344 0.899842 9.51043 0.993619 9.67957 1.15959C9.8487 1.32557 9.94675 1.55075 9.95301 1.78764C9.95927 2.02452 9.87327 2.25458 9.71314 2.42925L4.8519 8.50884C4.76831 8.59888 4.66743 8.67113 4.55527 8.72128C4.44312 8.77144 4.32201 8.79846 4.19917 8.80073C4.07634 8.80301 3.95431 8.78049 3.84037 8.73452C3.72644 8.68856 3.62295 8.62009 3.53608 8.53321L0.312316 5.30944C0.222539 5.22579 0.150532 5.12491 0.100589 5.01282C0.050646 4.90073 0.0237913 4.77973 0.0216266 4.65704C0.0194618 4.53435 0.0420314 4.41248 0.087989 4.2987C0.133947 4.18492 0.202351 4.08156 0.28912 3.99479C0.37589 3.90802 0.479248 3.83962 0.593027 3.79366C0.706807 3.7477 0.828678 3.72513 0.95137 3.7273C1.07406 3.72946 1.19506 3.75632 1.30715 3.80626C1.41924 3.8562 1.52012 3.92821 1.60377 4.01799L4.15501 6.568L8.38513 1.17679C8.39272 1.16738 8.40086 1.15843 8.4095 1.14998ZM7.28861 7.41232L8.4095 8.53321C8.49635 8.6199 8.59976 8.68821 8.71358 8.73406C8.8274 8.77991 8.94929 8.80237 9.07197 8.8001C9.19466 8.79783 9.31563 8.77086 9.42767 8.72082C9.53971 8.67078 9.64053 8.59869 9.7241 8.50884L14.5878 2.42925C14.6751 2.343 14.7442 2.24002 14.7909 2.12646C14.8376 2.01291 14.8609 1.89111 14.8595 1.76835C14.8581 1.64558 14.8319 1.52436 14.7826 1.41193C14.7333 1.29949 14.6618 1.19815 14.5724 1.11395C14.4831 1.02976 14.3777 0.964431 14.2625 0.921877C14.1473 0.879323 14.0248 0.860413 13.9021 0.866277C13.7795 0.872142 13.6593 0.902661 13.5487 0.95601C13.4382 1.00936 13.3395 1.08445 13.2585 1.17679L9.02721 6.568L8.4363 5.97588L7.28739 7.41232H7.28861Z" fill="#BAC1C7"/>
</svg>
