<svg width="299" height="299" viewBox="0 0 299 299" fill="none" xmlns="http://www.w3.org/2000/svg">
<path d="M247.615 137.994C247.615 136.951 246.77 136.105 245.728 136.105C244.686 136.105 243.841 136.951 243.841 137.994C243.841 139.037 244.686 139.882 245.728 139.882C246.77 139.882 247.615 139.037 247.615 137.994Z" fill="white"/>
<path d="M245.716 140.455C245.066 140.455 244.443 140.197 243.984 139.738C243.525 139.278 243.267 138.655 243.267 138.006C243.261 137.514 243.402 137.031 243.672 136.619C243.942 136.207 244.329 135.885 244.783 135.694C245.237 135.503 245.737 135.451 246.221 135.546C246.704 135.641 247.148 135.877 247.496 136.225C247.844 136.574 248.081 137.018 248.176 137.501C248.27 137.984 248.219 138.485 248.028 138.939C247.837 139.393 247.515 139.779 247.103 140.049C246.691 140.319 246.208 140.46 245.716 140.455ZM245.716 136.681C245.369 136.688 245.039 136.831 244.797 137.079C244.555 137.327 244.419 137.659 244.419 138.006C244.466 138.32 244.624 138.607 244.865 138.815C245.105 139.022 245.412 139.136 245.73 139.136C246.048 139.136 246.355 139.022 246.595 138.815C246.836 138.607 246.994 138.32 247.041 138.006C247.041 137.655 246.901 137.317 246.653 137.069C246.404 136.82 246.067 136.681 245.716 136.681Z" fill="#282928"/>
<path d="M64.5626 160.104C62.4595 140.139 53.5286 132.562 53.5286 132.562C46.067 136.769 42.5234 158.318 42.3506 158.981L52.5779 176.698L64.5626 160.104Z" fill="#FBBC1B"/>
<path d="M70.2969 227.231H34.4869L31.75 188.454H75.3673L70.2969 227.231ZM35.5528 226.079H69.2886L74.0421 189.606H32.9888L35.5528 226.079Z" fill="#282928"/>
<path d="M53.4698 160.537H53.441C53.3855 160.537 53.3306 160.525 53.2797 160.503C53.2288 160.481 53.183 160.449 53.1451 160.408C53.1072 160.368 53.0782 160.32 53.0597 160.268C53.0412 160.215 53.0337 160.16 53.0377 160.104L53.1241 137.259C53.1241 137.144 53.1696 137.034 53.2507 136.953C53.3317 136.872 53.4416 136.826 53.5562 136.826C53.6708 136.826 53.7808 136.872 53.8618 136.953C53.9428 137.034 53.9884 137.144 53.9884 137.259L53.9019 160.104C53.8951 160.217 53.8474 160.323 53.7678 160.402C53.6882 160.482 53.5822 160.53 53.4698 160.537Z" fill="white"/>
<path d="M52.1768 176.179C52.1768 176.179 58.7741 150.913 73.4092 148.176C73.4092 148.176 82.7435 159.93 67.9355 185.052H52.1768V176.179Z" fill="white"/>
<path d="M68.2783 185.628H51.5977V176.035C52.9012 171.518 54.6379 167.138 56.7833 162.955C61.4216 154.082 67.1259 148.781 73.3199 147.629L73.6368 147.542L73.8673 147.83C73.9537 147.945 76.3161 150.97 76.8058 157.136C77.238 162.782 76.172 172.232 68.4511 185.34L68.2783 185.628ZM52.75 184.476H67.6157C80.6087 162.264 74.3858 150.711 73.147 148.81C59.6643 151.719 53.1534 174.825 52.75 176.265V184.476Z" fill="#282928"/>
<path d="M62.806 175.084L62.5755 175.026C62.4343 174.969 62.3217 174.857 62.2623 174.717C62.2029 174.577 62.2016 174.418 62.2586 174.277C65.6293 166.038 70.6997 153.505 70.9302 152.555C70.9339 152.483 70.9517 152.412 70.9827 152.347C71.0137 152.282 71.0572 152.224 71.1107 152.176C71.1642 152.128 71.2267 152.091 71.2946 152.067C71.3625 152.043 71.4345 152.032 71.5064 152.036C71.6592 152.036 71.8058 152.097 71.9138 152.205C72.0219 152.313 72.0826 152.46 72.0826 152.612C72.0826 153.217 67.3291 164.972 63.3246 174.709C63.2848 174.816 63.2143 174.908 63.122 174.975C63.0297 175.042 62.9198 175.079 62.806 175.084Z" fill="#282928"/>
<path d="M227.536 228.9C227.012 228.904 226.492 228.804 226.006 228.606C225.52 228.408 225.079 228.115 224.706 227.746C224.334 227.376 224.039 226.937 223.837 226.453C223.636 225.968 223.532 225.449 223.532 224.924V216.685C223.617 215.685 224.074 214.754 224.813 214.075C225.552 213.396 226.519 213.02 227.522 213.02C228.525 213.02 229.492 213.396 230.231 214.075C230.97 214.754 231.427 215.685 231.512 216.685V224.924C231.512 225.446 231.409 225.963 231.209 226.446C231.009 226.928 230.717 227.366 230.347 227.736C229.978 228.105 229.54 228.398 229.058 228.597C228.575 228.797 228.058 228.9 227.536 228.9ZM227.536 213.862C227.163 213.858 226.793 213.928 226.447 214.068C226.101 214.208 225.786 214.416 225.521 214.678C225.256 214.941 225.045 215.253 224.902 215.598C224.758 215.942 224.684 216.312 224.684 216.685V224.924C224.755 225.628 225.085 226.28 225.609 226.754C226.133 227.228 226.815 227.49 227.522 227.49C228.229 227.49 228.91 227.228 229.435 226.754C229.959 226.28 230.289 225.628 230.36 224.924V216.685C230.36 215.936 230.062 215.218 229.533 214.689C229.003 214.159 228.285 213.862 227.536 213.862Z" fill="#282928"/>
<path d="M261.329 228.9C260.275 228.9 259.264 228.481 258.518 227.736C257.772 226.99 257.354 225.979 257.354 224.924V216.685C257.439 215.685 257.896 214.754 258.635 214.075C259.374 213.396 260.34 213.02 261.344 213.02C262.347 213.02 263.314 213.396 264.053 214.075C264.791 214.754 265.249 215.685 265.334 216.685V224.924C265.334 225.449 265.23 225.968 265.028 226.453C264.827 226.937 264.531 227.376 264.159 227.746C263.787 228.115 263.345 228.408 262.859 228.606C262.374 228.804 261.854 228.904 261.329 228.9ZM261.329 213.862C260.58 213.862 259.862 214.159 259.333 214.689C258.803 215.218 258.506 215.936 258.506 216.685V224.924C258.577 225.628 258.906 226.28 259.431 226.754C259.955 227.228 260.637 227.49 261.344 227.49C262.05 227.49 262.732 227.228 263.256 226.754C263.781 226.28 264.11 225.628 264.181 224.924V216.685C264.181 216.312 264.107 215.942 263.964 215.598C263.82 215.253 263.609 214.941 263.344 214.678C263.079 214.416 262.764 214.208 262.419 214.068C262.073 213.928 261.702 213.858 261.329 213.862Z" fill="#282928"/>
<path d="M266.573 165.317H223.359C221.45 165.317 219.902 166.865 219.902 168.774V214.293C219.902 216.202 221.45 217.75 223.359 217.75H266.573C268.483 217.75 270.031 216.202 270.031 214.293V168.774C270.031 166.865 268.483 165.317 266.573 165.317Z" fill="white"/>
<path d="M266.572 218.327H223.358C222.288 218.327 221.262 217.902 220.506 217.146C219.75 216.39 219.325 215.364 219.325 214.294V168.775C219.325 167.706 219.75 166.68 220.506 165.923C221.262 165.167 222.288 164.742 223.358 164.742H266.572C267.642 164.742 268.668 165.167 269.424 165.923C270.18 166.68 270.605 167.706 270.605 168.775V214.294C270.605 215.364 270.18 216.39 269.424 217.146C268.668 217.902 267.642 218.327 266.572 218.327ZM223.358 165.894C222.594 165.894 221.861 166.198 221.321 166.738C220.781 167.278 220.477 168.011 220.477 168.775V214.294C220.477 215.058 220.781 215.791 221.321 216.331C221.861 216.871 222.594 217.175 223.358 217.175H266.572C267.336 217.175 268.069 216.871 268.609 216.331C269.149 215.791 269.453 215.058 269.453 214.294V168.775C269.453 168.011 269.149 167.278 268.609 166.738C268.069 166.198 267.336 165.894 266.572 165.894H223.358Z" fill="#282928"/>
<path d="M257.87 184.016H232.633C231.564 184.016 230.538 183.591 229.781 182.835C229.025 182.078 228.6 181.053 228.6 179.983V176.324C228.6 175.254 229.025 174.228 229.781 173.472C230.538 172.716 231.564 172.291 232.633 172.291H257.87C258.94 172.291 259.966 172.716 260.722 173.472C261.479 174.228 261.904 175.254 261.904 176.324V179.983C261.908 180.514 261.806 181.04 261.604 181.531C261.403 182.022 261.106 182.468 260.731 182.843C260.356 183.219 259.909 183.516 259.418 183.717C258.927 183.918 258.401 184.02 257.87 184.016ZM232.633 173.443C231.869 173.443 231.137 173.747 230.596 174.287C230.056 174.827 229.752 175.56 229.752 176.324V179.983C229.752 180.747 230.056 181.48 230.596 182.02C231.137 182.56 231.869 182.864 232.633 182.864H257.87C258.25 182.868 258.626 182.796 258.977 182.652C259.329 182.509 259.648 182.297 259.916 182.029C260.184 181.76 260.396 181.441 260.54 181.09C260.683 180.739 260.755 180.362 260.751 179.983V176.324C260.751 175.56 260.448 174.827 259.908 174.287C259.367 173.747 258.634 173.443 257.87 173.443H232.633Z" fill="#282928"/>
<path d="M226.241 193.495C225.685 193.512 225.137 193.363 224.666 193.066C224.195 192.77 223.824 192.34 223.599 191.831C223.374 191.322 223.306 190.757 223.404 190.21C223.502 189.662 223.761 189.156 224.148 188.757C224.535 188.357 225.033 188.082 225.577 187.967C226.121 187.852 226.688 187.902 227.203 188.111C227.719 188.32 228.161 188.678 228.472 189.139C228.783 189.6 228.949 190.144 228.949 190.7C228.957 191.062 228.893 191.422 228.76 191.758C228.628 192.095 228.43 192.403 228.179 192.662C227.927 192.922 227.626 193.13 227.293 193.273C226.961 193.415 226.603 193.491 226.241 193.495ZM226.241 189.058C225.818 189.073 225.418 189.253 225.127 189.561C224.836 189.868 224.678 190.277 224.686 190.7C224.686 191.113 224.849 191.508 225.141 191.8C225.433 192.092 225.829 192.256 226.241 192.256C226.654 192.256 227.05 192.092 227.341 191.8C227.633 191.508 227.797 191.113 227.797 190.7C227.805 190.277 227.646 189.868 227.355 189.561C227.064 189.253 226.664 189.073 226.241 189.058Z" fill="#282928"/>
<path d="M94.3507 186.032C94.3507 186.032 67.558 189.921 53.4414 218.875C39.3248 247.828 51.2807 270.242 67.0106 276.176C82.7405 282.111 199.534 291.301 212.008 271.567C224.482 251.833 197.891 201.099 180.519 193.868" fill="#282928"/>
<path d="M113.278 232.127L153.208 237.313L157.529 236.506L160.496 254.685L110.829 252.956L113.278 232.127Z" fill="white"/>
<path d="M155.11 237.889H155.023L110.743 232.387C110.595 232.365 110.462 232.287 110.37 232.169C110.279 232.051 110.237 231.901 110.254 231.753C110.26 231.678 110.283 231.605 110.319 231.54C110.355 231.474 110.404 231.416 110.464 231.37C110.523 231.324 110.592 231.291 110.664 231.273C110.737 231.254 110.813 231.251 110.887 231.263L155.167 236.737C155.32 236.765 155.457 236.848 155.552 236.97C155.648 237.092 155.695 237.245 155.686 237.399C155.665 237.537 155.595 237.662 155.489 237.752C155.383 237.842 155.249 237.891 155.11 237.889Z" fill="#282928"/>
<path d="M162.169 255.319L108.987 253.475C108.834 253.461 108.691 253.392 108.585 253.281C108.479 253.169 108.417 253.023 108.411 252.87C108.414 252.794 108.433 252.72 108.465 252.651C108.498 252.583 108.543 252.521 108.6 252.471C108.656 252.42 108.721 252.381 108.793 252.355C108.864 252.33 108.94 252.319 109.016 252.322L160.844 254.109L158.597 236.823C155.658 237.63 143.443 241.029 137.652 243.939C130.94 247.31 110.283 250.853 109.39 251.026C109.237 251.049 109.082 251.01 108.957 250.918C108.833 250.827 108.75 250.689 108.728 250.536C108.705 250.383 108.743 250.228 108.835 250.104C108.927 249.979 109.064 249.897 109.217 249.874C109.419 249.845 130.565 246.186 137.134 242.902C143.702 239.618 158.308 235.699 158.913 235.527L159.547 235.383L162.169 255.319Z" fill="#282928"/>
<path d="M175.969 103.205C174.895 103.201 173.824 103.095 172.771 102.888C172.589 102.85 172.424 102.759 172.295 102.625C172.167 102.491 172.081 102.322 172.051 102.139C172.01 101.957 172.024 101.767 172.091 101.593C172.157 101.419 172.273 101.268 172.425 101.16C174.643 99.6616 177.092 95.0809 178.014 93.1795C178.135 92.9416 178.178 92.6714 178.137 92.4075C178.096 92.1437 177.972 91.8996 177.784 91.7102C174.686 88.5989 172.298 84.8545 170.783 80.7339C169.745 77.8887 169.399 74.8371 169.775 71.8318C170.783 64.1973 174.269 58.6659 180.175 55.4105C186.081 52.155 193.197 51.8957 198.094 52.2702C206.276 52.8752 220.998 59.7895 226.154 70.737C229.064 76.8734 228.344 83.3267 224.08 89.4055C219.039 96.6366 212.182 100.497 203.712 100.929C196.913 101.275 190.949 99.1719 188.702 98.2788C188.466 98.1854 188.209 98.1601 187.959 98.206C187.71 98.2518 187.478 98.3669 187.291 98.5381C183.344 102.341 179.051 103.205 175.969 103.205ZM173.462 101.822C176.026 102.254 181.529 102.456 186.513 97.7026C186.856 97.3763 187.286 97.1564 187.751 97.0695C188.216 96.9826 188.697 97.0324 189.134 97.2128C194.263 99.2871 211.865 104.818 223.13 88.7429C227.22 82.9522 227.883 77.0463 225.117 71.2268C220.133 60.6826 205.902 53.9988 198.008 53.4226C188.875 52.7312 173.232 54.2293 170.927 71.9758C170.576 74.7967 170.902 77.6607 171.878 80.3305C173.318 84.2934 175.61 87.8925 178.59 90.8748C178.953 91.2377 179.193 91.7055 179.276 92.2121C179.359 92.7187 179.28 93.2386 179.051 93.6981C177.899 96.0316 175.709 100.036 173.462 101.822Z" fill="#282928"/>
<path d="M175.969 103.205C174.895 103.201 173.824 103.095 172.771 102.888C172.589 102.85 172.424 102.759 172.295 102.625C172.167 102.491 172.081 102.322 172.051 102.139C172.01 101.957 172.024 101.767 172.091 101.593C172.157 101.419 172.273 101.268 172.425 101.16C174.643 99.6616 177.092 95.0809 178.014 93.1795C178.135 92.9416 178.178 92.6714 178.137 92.4075C178.096 92.1437 177.972 91.8996 177.784 91.7102C174.686 88.5989 172.298 84.8545 170.783 80.7339C169.745 77.8887 169.399 74.8371 169.775 71.8318C170.783 64.1973 174.269 58.6659 180.175 55.4105C186.081 52.155 193.197 51.8957 198.094 52.2702C206.276 52.8752 220.998 59.7895 226.154 70.737C229.064 76.8734 228.344 83.3267 224.08 89.4055C219.039 96.6366 212.182 100.497 203.712 100.929C196.913 101.275 190.949 99.1719 188.702 98.2788C188.466 98.1854 188.209 98.1601 187.959 98.206C187.71 98.2518 187.478 98.3669 187.291 98.5381C183.344 102.341 179.051 103.205 175.969 103.205ZM173.462 101.822C176.026 102.254 181.529 102.456 186.513 97.7026C186.856 97.3763 187.286 97.1564 187.751 97.0695C188.216 96.9826 188.697 97.0324 189.134 97.2128C194.263 99.2871 211.865 104.818 223.13 88.7429C227.22 82.9522 227.883 77.0463 225.117 71.2268C220.133 60.6826 205.902 53.9988 198.008 53.4226C188.875 52.7312 173.232 54.2293 170.927 71.9758C170.576 74.7967 170.902 77.6607 171.878 80.3305C173.318 84.2934 175.61 87.8925 178.59 90.8748C178.953 91.2377 179.193 91.7055 179.276 92.2121C179.359 92.7187 179.28 93.2386 179.051 93.6981C177.899 96.0316 175.709 100.036 173.462 101.822Z" fill="#282928"/>
<path d="M110.915 109.112C100.313 109.112 96.7123 103.782 95.8192 102.025H95.6752C76.4593 105.482 66.1168 100.498 63.4375 98.9133C62.602 98.3947 61.7377 97.9337 60.9311 97.5016C55.7742 94.6495 52.4035 90.9907 50.9054 86.6981C49.4073 82.4055 49.8683 78.4298 51.8273 74.1084C55.1692 66.7044 62.9189 59.9918 72.5701 56.2178C83.4633 51.9417 95.5332 51.7371 106.565 55.6416C117.426 59.5021 123.476 64.803 124.542 71.4003C126.472 83.3274 111.434 95.4273 109.705 96.7526H109.676C108.063 100.469 113.076 105.05 115.323 106.836C115.492 106.97 115.618 107.15 115.684 107.355C115.751 107.56 115.756 107.781 115.698 107.988C115.614 108.233 115.46 108.449 115.255 108.607C115.05 108.766 114.804 108.861 114.545 108.881C113.34 109.025 112.129 109.102 110.915 109.112ZM95.704 100.872C95.932 100.861 96.1584 100.915 96.3573 101.027C96.5561 101.139 96.7191 101.305 96.8275 101.506C97.7494 103.292 101.725 109.054 114.43 107.758H114.545C112.096 105.77 106.68 100.786 108.611 96.3492C108.704 96.1642 108.843 96.0057 109.014 95.8883C110.656 94.5919 125.234 82.8953 123.39 71.6308C122.41 65.4656 116.62 60.4528 106.191 56.7652C95.4218 52.9512 83.6393 53.1455 73.0022 57.3126C63.6104 61.0002 56.0911 67.4534 52.8645 74.5982C48.9464 83.3274 52.0866 91.3364 61.5073 96.5221L64.0137 97.9337C66.6353 99.4894 76.6322 104.301 95.4735 100.901L95.704 100.872ZM114.603 107.758L114.949 107.297L114.603 107.758Z" fill="#282928"/>
<path d="M156.696 50.0807C149.58 50.0807 136.846 49.4757 134.916 49.0148C132.986 48.5538 131.805 44.8374 131.43 41.8989C131.374 41.4455 131.434 40.9851 131.605 40.5615C131.777 40.1379 132.054 39.7653 132.41 39.4789C132.899 39.0771 133.454 38.7649 134.052 38.557C134.124 38.5303 134.2 38.519 134.277 38.5238C134.353 38.5285 134.427 38.5492 134.495 38.5844C134.563 38.6197 134.623 38.6688 134.67 38.7286C134.718 38.7884 134.753 38.8575 134.772 38.9315C134.799 39.0032 134.81 39.0797 134.805 39.156C134.801 39.2324 134.78 39.3069 134.745 39.3747C134.709 39.4426 134.66 39.5023 134.601 39.55C134.541 39.5977 134.472 39.6324 134.398 39.6517C133.939 39.8341 133.511 40.0868 133.13 40.4008C132.931 40.561 132.776 40.7696 132.68 41.0066C132.584 41.2436 132.551 41.5012 132.583 41.7548C133.015 45.2408 134.023 47.6031 135.176 47.8912C137.855 48.525 159.519 49.2741 160.931 48.7843C161.45 48.525 162.141 47.315 162.516 46.0186C162.89 44.7222 162.746 44.3189 162.66 44.1748C161.536 42.4463 159.03 41.8989 159.001 41.8989C158.856 41.8582 158.731 41.7648 158.651 41.6369C158.571 41.509 158.542 41.3558 158.569 41.2075C158.582 41.1317 158.611 41.0595 158.654 40.9956C158.697 40.9318 158.753 40.8777 158.818 40.837C158.883 40.7962 158.956 40.7696 159.032 40.759C159.109 40.7484 159.186 40.7539 159.26 40.7753C159.375 40.8041 162.228 41.4379 163.61 43.541C164.1 44.2612 163.812 45.5865 163.61 46.3355C163.236 47.6319 162.458 49.3317 161.421 49.8214C161.018 50.0231 159.203 50.0807 156.696 50.0807Z" fill="#282928"/>
<path d="M158.828 45.4427C158.754 45.4466 158.68 45.4353 158.61 45.4096C158.54 45.3838 158.476 45.3441 158.422 45.2929C158.369 45.2417 158.326 45.18 158.296 45.1117C158.267 45.0433 158.252 44.9697 158.252 44.8953C158.252 44.8377 158.194 39.8249 157.301 36.1373C156.956 34.668 155.659 33.1987 153.815 32.1904C150.877 30.5483 147.16 30.3178 143.617 31.499C139.18 32.9682 137.221 38.2692 137.308 42.5906C137.312 42.6648 137.3 42.7391 137.275 42.8089C137.249 42.8787 137.209 42.9425 137.158 42.9964C137.107 43.0503 137.045 43.0932 136.977 43.1225C136.908 43.1518 136.835 43.1669 136.76 43.1668C136.607 43.1604 136.461 43.0984 136.349 42.9925C136.238 42.8865 136.169 42.7436 136.155 42.5906C136.069 37.8946 138.258 32.0752 143.242 30.4042C147.103 29.1078 151.165 29.3959 154.363 31.1821C156.523 32.3632 157.993 34.063 158.425 35.878C159.347 39.6808 159.404 44.6648 159.404 44.8665C159.408 44.9408 159.397 45.0151 159.371 45.0848C159.346 45.1546 159.306 45.2184 159.255 45.2723C159.203 45.3262 159.142 45.3692 159.073 45.3984C159.005 45.4277 158.931 45.4428 158.857 45.4427H158.828Z" fill="#282928"/>
<path d="M158.28 46.0485C156.061 46.0485 153.036 45.8756 149.81 45.5875C144.307 45.0977 136.817 44.1182 133.82 42.937C133.302 42.7066 131.66 42.0728 131.717 40.8052C131.833 38.9902 135.779 37.7226 137.018 37.3768C137.163 37.3414 137.316 37.3636 137.445 37.4388C137.574 37.5141 137.669 37.6365 137.71 37.7802C137.731 37.8539 137.738 37.9313 137.73 38.0078C137.721 38.0843 137.698 38.1582 137.66 38.2254C137.622 38.2925 137.572 38.3514 137.511 38.3987C137.45 38.4459 137.381 38.4805 137.306 38.5004C135.261 39.0766 132.927 40.2002 132.87 40.8916C132.87 41.0644 133.215 41.439 134.253 41.8711C139.496 43.9454 160.383 45.6451 162.082 44.5216C162.121 44.4512 162.131 44.3688 162.111 44.2911C161.881 43.5132 159.893 42.3609 158.596 41.8135C158.453 41.7501 158.34 41.6336 158.281 41.4885C158.222 41.3434 158.221 41.1811 158.28 41.0356C158.308 40.9657 158.35 40.9023 158.403 40.8494C158.457 40.7965 158.521 40.7552 158.591 40.7282C158.662 40.7011 158.737 40.6889 158.812 40.6922C158.887 40.6956 158.961 40.7144 159.029 40.7475C159.662 41.0068 162.745 42.3897 163.206 43.9742C163.266 44.1827 163.279 44.402 163.244 44.6162C163.209 44.8304 163.127 45.0342 163.004 45.213C162.716 45.6451 161.938 46.0196 158.366 46.0485H158.28Z" fill="#282928"/>
<path d="M146.238 147.832C142.954 147.832 139.295 145.815 135.319 141.753C135.212 141.642 135.154 141.493 135.156 141.339C135.159 141.185 135.223 141.039 135.334 140.932C135.444 140.825 135.593 140.766 135.747 140.769C135.901 140.772 136.048 140.835 136.155 140.946C140.822 145.728 144.942 147.515 148.399 146.333C156.955 143.366 159.26 123.113 159.26 122.911C159.281 122.761 159.358 122.625 159.476 122.529C159.593 122.433 159.742 122.384 159.894 122.393C159.969 122.4 160.043 122.422 160.11 122.458C160.177 122.494 160.237 122.543 160.285 122.602C160.333 122.661 160.369 122.728 160.391 122.801C160.413 122.874 160.42 122.951 160.412 123.027C160.326 123.891 158.021 144.202 148.773 147.428C147.953 147.691 147.099 147.827 146.238 147.832Z" fill="#282928"/>
<path d="M153.228 128.914C153.433 128.212 153.228 127.534 152.77 127.4C152.312 127.266 151.774 127.727 151.569 128.429C151.363 129.132 151.568 129.81 152.026 129.944C152.484 130.078 153.022 129.617 153.228 128.914Z" fill="#282928"/>
<path d="M143.941 126.58C144.147 125.878 143.942 125.2 143.484 125.066C143.025 124.932 142.488 125.392 142.282 126.095C142.077 126.797 142.282 127.476 142.74 127.61C143.198 127.743 143.736 127.283 143.941 126.58Z" fill="#282928"/>
<path d="M155.973 128.125C155.839 128.127 155.708 128.087 155.598 128.01L151.738 125.676C151.574 125.577 151.456 125.416 151.41 125.23C151.364 125.043 151.394 124.846 151.493 124.682C151.592 124.518 151.753 124.4 151.939 124.354C152.126 124.308 152.323 124.338 152.487 124.437L156.347 126.8C156.511 126.896 156.63 127.053 156.678 127.236C156.727 127.419 156.701 127.615 156.607 127.779C156.541 127.887 156.448 127.976 156.336 128.037C156.225 128.098 156.1 128.128 155.973 128.125Z" fill="#282928"/>
<path d="M141.366 122.449C141.185 122.45 141.01 122.382 140.876 122.259C140.743 122.136 140.661 121.968 140.646 121.787C140.638 121.593 140.706 121.403 140.835 121.258C140.964 121.113 141.144 121.024 141.338 121.009L145.832 120.721C145.929 120.713 146.026 120.725 146.119 120.756C146.211 120.787 146.296 120.836 146.368 120.9C146.441 120.965 146.5 121.044 146.541 121.132C146.583 121.22 146.606 121.315 146.61 121.412C146.614 121.507 146.599 121.601 146.566 121.69C146.533 121.779 146.483 121.861 146.419 121.93C146.355 122 146.278 122.056 146.192 122.096C146.106 122.135 146.013 122.158 145.918 122.161L141.424 122.449H141.366Z" fill="#282928"/>
<path d="M147.501 135.011L146.781 134.925C146.708 134.911 146.639 134.883 146.578 134.842C146.516 134.801 146.464 134.748 146.423 134.686C146.383 134.624 146.356 134.554 146.343 134.482C146.33 134.409 146.332 134.334 146.349 134.262C146.383 134.111 146.474 133.98 146.603 133.894C146.731 133.808 146.888 133.775 147.04 133.801C147.53 133.916 147.789 133.859 147.847 133.772C147.905 133.686 147.761 132.332 147.328 131.525C147.284 131.459 147.253 131.383 147.239 131.304C147.225 131.225 147.228 131.144 147.247 131.066C147.266 130.989 147.302 130.916 147.351 130.852C147.4 130.789 147.461 130.736 147.532 130.698C147.602 130.659 147.68 130.636 147.76 130.63C147.84 130.623 147.92 130.634 147.996 130.66C148.072 130.686 148.141 130.728 148.2 130.783C148.259 130.838 148.305 130.904 148.337 130.978C148.538 131.381 149.575 133.398 148.769 134.464C148.617 134.65 148.422 134.797 148.202 134.892C147.981 134.987 147.741 135.028 147.501 135.011Z" fill="#282928"/>
<path d="M145.231 140.716H145.116C143.387 140.37 140.16 138.872 140.304 135.674C140.319 135.524 140.389 135.385 140.501 135.283C140.613 135.182 140.759 135.126 140.909 135.127C140.985 135.131 141.059 135.149 141.128 135.182C141.196 135.214 141.258 135.26 141.309 135.316C141.36 135.372 141.399 135.438 141.424 135.509C141.45 135.581 141.461 135.656 141.457 135.732C141.313 138.728 145.173 139.535 145.346 139.564C145.42 139.581 145.49 139.612 145.551 139.656C145.613 139.7 145.665 139.756 145.706 139.82C145.746 139.884 145.773 139.955 145.785 140.03C145.798 140.105 145.795 140.181 145.778 140.255C145.758 140.385 145.691 140.503 145.59 140.587C145.49 140.672 145.362 140.718 145.231 140.716Z" fill="#282928"/>
<path d="M155.686 120.116L155.426 120.059L153.64 119.194C153.572 119.161 153.511 119.114 153.46 119.056C153.41 118.999 153.372 118.932 153.348 118.86C153.324 118.787 153.314 118.711 153.32 118.635C153.326 118.559 153.346 118.484 153.381 118.416C153.412 118.349 153.456 118.289 153.511 118.239C153.565 118.189 153.63 118.151 153.7 118.126C153.77 118.102 153.844 118.092 153.918 118.098C153.992 118.103 154.064 118.123 154.13 118.157L155.916 119.021C155.986 119.049 156.049 119.092 156.102 119.145C156.155 119.199 156.196 119.263 156.223 119.333C156.251 119.403 156.263 119.479 156.259 119.554C156.256 119.629 156.237 119.703 156.204 119.77C156.155 119.868 156.081 119.951 155.99 120.011C155.899 120.072 155.794 120.108 155.686 120.116Z" fill="white"/>
<path d="M125.178 151.461H124.976C124.837 151.409 124.723 151.305 124.658 151.171C124.594 151.037 124.584 150.883 124.631 150.741L131.257 131.583C131.269 131.538 131.27 131.491 131.26 131.446C131.25 131.401 131.229 131.359 131.199 131.324C130.248 130.402 128.635 128.558 128.606 126.628C128.599 126.172 128.684 125.72 128.857 125.299C129.031 124.878 129.289 124.497 129.615 124.179C130.508 123.286 131.401 122.94 132.236 123.142C133.936 123.603 134.656 126.196 134.743 126.513C134.77 126.661 134.74 126.814 134.661 126.942C134.581 127.07 134.456 127.163 134.31 127.204C134.165 127.239 134.012 127.217 133.883 127.142C133.754 127.067 133.66 126.944 133.619 126.801C133.475 126.225 132.841 124.496 131.948 124.265C131.516 124.15 131.026 124.41 130.45 124.986C130.228 125.191 130.052 125.441 129.933 125.719C129.814 125.997 129.755 126.297 129.759 126.599C129.787 128.184 131.343 129.854 132.006 130.488C132.194 130.677 132.325 130.915 132.386 131.174C132.447 131.433 132.435 131.705 132.351 131.958L125.725 151.116C125.676 151.219 125.599 151.307 125.502 151.368C125.405 151.429 125.293 151.462 125.178 151.461Z" fill="#282928"/>
<path d="M139.725 117.868C144.133 120.028 162.196 128.354 165.106 121.296C165.174 121.148 165.195 120.982 165.164 120.821C165.133 120.661 165.052 120.515 164.933 120.403C164.098 119.596 162.11 117.407 161.994 114.67C161.937 113.489 161.908 111.011 161.447 108.533C161.062 106.48 159.997 104.617 158.424 103.243C156.851 101.868 154.862 101.063 152.775 100.957C151.429 100.883 150.08 101.01 148.771 101.331C148.342 101.446 147.887 101.404 147.486 101.214C147.085 101.024 146.764 100.698 146.581 100.294C145.487 97.7587 137.449 97.0673 131.514 101.792C123.419 108.217 129.353 132.589 116.13 129.881C111.953 129.017 115.122 135.931 119.731 139.014C122.583 140.915 125.954 141.347 127.337 141.462C127.513 141.472 127.687 141.423 127.832 141.324C127.978 141.226 128.087 141.082 128.143 140.915L131.399 131.61C131.442 131.496 131.456 131.374 131.441 131.253C131.426 131.133 131.382 131.018 131.313 130.918C130.535 129.651 127.913 124.955 131.428 123.457C131.522 123.414 131.624 123.39 131.728 123.387C131.831 123.385 131.935 123.402 132.031 123.44C132.128 123.478 132.216 123.534 132.29 123.606C132.365 123.678 132.424 123.765 132.465 123.86L133.819 126.799C133.901 126.994 134.056 127.149 134.251 127.231C135.029 127.519 137.046 127.317 138.572 118.444C138.595 118.321 138.646 118.205 138.721 118.105C138.796 118.005 138.893 117.924 139.005 117.868C139.117 117.813 139.24 117.783 139.365 117.783C139.49 117.783 139.613 117.812 139.725 117.868Z" fill="#282928"/>
<path d="M157.675 112.338C157.558 112.33 157.448 112.279 157.368 112.193C157.287 112.107 157.243 111.994 157.243 111.877C157.387 105.481 152.806 104.559 152.605 104.531C152.495 104.509 152.397 104.447 152.333 104.355C152.269 104.264 152.242 104.151 152.259 104.041C152.28 103.923 152.346 103.819 152.443 103.749C152.539 103.679 152.659 103.649 152.777 103.666C152.806 103.695 158.28 104.732 158.107 111.906C158.107 112.02 158.062 112.13 157.981 112.211C157.9 112.292 157.79 112.338 157.675 112.338Z" fill="white"/>
<path d="M159.575 120.75C159.486 120.749 159.4 120.721 159.328 120.67C159.256 120.618 159.201 120.546 159.172 120.462L158.135 117.466C158.112 117.413 158.101 117.357 158.102 117.299C158.103 117.242 158.116 117.186 158.14 117.134C158.165 117.082 158.2 117.036 158.244 116.999C158.288 116.962 158.339 116.934 158.394 116.919C158.501 116.882 158.618 116.888 158.721 116.936C158.823 116.985 158.902 117.072 158.941 117.178L159.978 120.174C160.017 120.285 160.011 120.407 159.963 120.514C159.915 120.621 159.827 120.705 159.719 120.75H159.575Z" fill="white"/>
<path d="M140.33 114.383H140.214C140.102 114.349 140.006 114.274 139.947 114.172C139.888 114.07 139.871 113.95 139.898 113.835C139.984 113.576 141.914 106.95 144.248 104.933C144.337 104.874 144.444 104.85 144.55 104.866C144.655 104.882 144.752 104.936 144.819 105.018C144.887 105.101 144.923 105.205 144.918 105.312C144.914 105.418 144.87 105.52 144.795 105.596C142.692 107.44 140.762 114.008 140.733 114.095C140.703 114.178 140.649 114.251 140.577 114.302C140.505 114.354 140.418 114.382 140.33 114.383Z" fill="white"/>
<path d="M106.251 213.171H106.194C106.136 213.143 104.811 212.999 102.996 212.538C99.6252 211.645 93.7769 209.397 92.25 204.212C90.7231 199.026 94.6412 181.827 95.8512 176.584C98.3 165.895 101.757 153.651 103.63 150.886C107.144 145.815 125.323 146.046 126.101 146.046C126.251 146.06 126.391 146.13 126.492 146.242C126.593 146.354 126.649 146.5 126.648 146.651C126.648 146.725 126.633 146.799 126.604 146.867C126.575 146.935 126.532 146.997 126.478 147.048C126.424 147.099 126.36 147.139 126.29 147.165C126.221 147.191 126.146 147.202 126.072 147.198C120.973 147.14 107.202 147.745 104.58 151.548C101.181 156.503 91.2993 196.808 93.3736 203.866C94.7276 208.533 100.173 210.607 103.284 211.414C104.277 211.684 105.288 211.886 106.309 212.019C106.385 212.026 106.458 212.048 106.526 212.084C106.593 212.12 106.652 212.169 106.7 212.228C106.749 212.287 106.785 212.355 106.807 212.428C106.828 212.501 106.835 212.577 106.828 212.653C106.813 212.795 106.746 212.928 106.64 213.024C106.533 213.119 106.395 213.172 106.251 213.171Z" fill="#282928"/>
<path d="M108.381 186.896C108.284 186.895 108.189 186.871 108.104 186.826C108.019 186.781 107.946 186.716 107.891 186.637C105.068 182.229 106.825 171.426 106.911 170.965C106.915 170.883 106.936 170.802 106.973 170.729C107.01 170.655 107.062 170.59 107.126 170.539C107.191 170.487 107.265 170.45 107.345 170.43C107.425 170.409 107.508 170.406 107.589 170.421C107.67 170.435 107.747 170.467 107.815 170.514C107.882 170.561 107.939 170.622 107.982 170.692C108.024 170.763 108.05 170.842 108.06 170.924C108.069 171.005 108.06 171.088 108.035 171.167C108.006 171.253 106.278 181.97 108.87 186.003C108.949 186.135 108.975 186.291 108.943 186.441C108.911 186.59 108.823 186.722 108.698 186.81C108.603 186.869 108.492 186.899 108.381 186.896Z" fill="#282928"/>
<path d="M170.378 174.392C170.243 174.395 170.111 174.35 170.006 174.266C169.901 174.182 169.828 174.063 169.801 173.931C168.879 169.322 165.768 156.905 162.426 154.744C158.306 152.123 146.034 151.201 145.89 151.172H145.832C145.624 151.137 145.427 151.053 145.257 150.928C145.087 150.803 144.948 150.64 144.852 150.452C144.305 149.328 145.227 147.369 145.429 146.995C145.463 146.926 145.51 146.866 145.567 146.816C145.625 146.766 145.692 146.728 145.764 146.704C145.836 146.68 145.912 146.67 145.988 146.676C146.064 146.681 146.138 146.701 146.206 146.735C146.275 146.769 146.335 146.816 146.385 146.874C146.435 146.931 146.473 146.998 146.497 147.071C146.521 147.143 146.531 147.219 146.526 147.295C146.52 147.371 146.5 147.445 146.466 147.513C146.091 148.233 145.659 149.501 145.89 149.933C145.904 149.959 145.925 149.98 145.95 149.995C145.976 150.01 146.004 150.019 146.034 150.02C146.956 150.106 158.767 151.057 163.031 153.794C167.295 156.53 170.781 173.009 170.925 173.701C170.95 173.85 170.916 174.002 170.83 174.126C170.744 174.25 170.612 174.335 170.464 174.363L170.378 174.392Z" fill="#282928"/>
<path d="M135.892 159.24C132.377 159.24 128.632 156.878 124.743 152.182C124.645 152.067 124.596 151.918 124.606 151.767C124.617 151.616 124.687 151.475 124.801 151.375C124.858 151.325 124.925 151.286 124.997 151.263C125.07 151.239 125.147 151.232 125.223 151.24C125.299 151.248 125.372 151.272 125.439 151.31C125.505 151.348 125.562 151.4 125.607 151.462C129.698 156.359 133.501 158.549 136.958 158.001C142.144 157.166 144.909 150.252 144.938 150.165C144.996 150.024 145.107 149.912 145.247 149.852C145.388 149.793 145.546 149.791 145.687 149.848C145.828 149.906 145.941 150.017 146 150.158C146.06 150.298 146.061 150.456 146.004 150.597C145.889 150.886 142.979 158.203 137.131 159.125C136.723 159.206 136.308 159.245 135.892 159.24Z" fill="#282928"/>
<path d="M155.714 188.423C155.602 188.421 155.493 188.392 155.397 188.337C155.333 188.298 155.277 188.248 155.233 188.187C155.19 188.127 155.159 188.058 155.142 187.985C155.126 187.912 155.125 187.837 155.139 187.764C155.153 187.69 155.182 187.621 155.224 187.559C159.257 180.933 156.549 176.122 156.434 175.92C156.36 175.789 156.339 175.635 156.377 175.49C156.414 175.345 156.507 175.22 156.636 175.142C156.766 175.068 156.92 175.047 157.065 175.085C157.211 175.123 157.336 175.215 157.413 175.344C157.557 175.574 160.611 180.933 156.203 188.164C156.15 188.245 156.077 188.311 155.992 188.356C155.906 188.402 155.811 188.425 155.714 188.423Z" fill="#282928"/>
<path d="M193.253 149.04L193.023 148.983C192.884 148.914 192.778 148.795 192.724 148.651C192.671 148.506 192.674 148.347 192.734 148.205C194.953 143.682 197.2 138.381 197.459 136.71C196.739 137.401 195.443 139.389 194.434 141.175C194.398 141.242 194.349 141.3 194.29 141.347C194.231 141.393 194.162 141.427 194.089 141.446C194.016 141.465 193.94 141.469 193.866 141.457C193.791 141.445 193.72 141.418 193.656 141.377C193.523 141.304 193.424 141.181 193.381 141.035C193.338 140.89 193.354 140.733 193.426 140.599C195.385 137.113 196.854 135.327 197.747 135.327H197.776C197.94 135.338 198.098 135.395 198.23 135.492C198.363 135.589 198.465 135.721 198.525 135.874C198.669 136.22 199.015 136.969 196.393 143.019C195.126 145.929 193.8 148.694 193.772 148.723C193.726 148.821 193.653 148.904 193.56 148.96C193.468 149.017 193.361 149.044 193.253 149.04Z" fill="#282928"/>
<path d="M165.165 186.897C165.013 186.895 164.868 186.833 164.762 186.725C164.663 186.627 164.604 186.495 164.599 186.356C164.594 186.217 164.642 186.081 164.733 185.975C165.453 184.823 174.672 162.582 175.911 158.232C177.15 153.882 181.817 144.346 185.505 144C185.656 143.992 185.805 144.04 185.922 144.136C186.04 144.232 186.117 144.369 186.138 144.519C186.146 144.593 186.139 144.668 186.117 144.739C186.095 144.811 186.058 144.877 186.01 144.933C185.961 144.99 185.901 145.036 185.834 145.069C185.767 145.102 185.694 145.12 185.62 145.124C182.825 145.412 178.273 154.228 177.035 158.549C176.026 162.064 166.289 186.033 165.597 186.725C165.541 186.782 165.474 186.827 165.399 186.857C165.325 186.886 165.245 186.9 165.165 186.897Z" fill="#282928"/>
<path d="M190.89 148.581L175.823 137.921C175.601 137.764 175.443 137.531 175.379 137.266C175.316 137.001 175.35 136.722 175.477 136.481L180.893 126.743C181.069 126.476 181.335 126.282 181.643 126.196C181.797 126.163 181.957 126.164 182.111 126.199C182.265 126.234 182.41 126.301 182.536 126.397L196.595 136.682L190.89 148.581ZM176.514 136.999L190.458 146.852L195.125 137.057L181.902 127.348L176.514 136.999Z" fill="#282928"/>
<path d="M179.685 137.633C180.401 137.633 180.982 137.13 180.982 136.509C180.982 135.889 180.401 135.385 179.685 135.385C178.969 135.385 178.389 135.889 178.389 136.509C178.389 137.13 178.969 137.633 179.685 137.633Z" fill="#FBBC1B"/>
<path d="M181.153 138.699C181.869 138.699 182.449 138.196 182.449 137.575C182.449 136.955 181.869 136.452 181.153 136.452C180.437 136.452 179.856 136.955 179.856 137.575C179.856 138.196 180.437 138.699 181.153 138.699Z" fill="#FBBC1B"/>
<path d="M192.964 150.912C192.964 150.912 191.725 143.422 190.371 143.134C189.017 142.845 186.713 142.817 186.108 142.356C185.503 141.895 185.531 143.278 186.136 145.121C186.741 146.965 189.449 152.122 189.449 152.122L192.964 150.912Z" fill="white"/>
<path d="M189.252 152.67L189.079 152.324C188.964 152.122 186.342 147.081 185.737 145.237C185.392 144.2 184.902 142.413 185.564 141.924C185.689 141.847 185.836 141.813 185.982 141.829C186.128 141.845 186.265 141.908 186.371 142.01C186.659 142.212 187.725 142.327 188.589 142.442C189.218 142.492 189.843 142.579 190.462 142.701C191.96 143.047 192.997 148.492 193.401 150.826L193.458 151.2L189.252 152.67ZM186.083 142.846C186.138 143.574 186.293 144.291 186.544 144.977C187.062 146.476 189.05 150.422 189.655 151.604L192.479 150.624C191.845 146.965 190.837 143.681 190.26 143.537C189.684 143.393 189.108 143.364 188.503 143.278C187.68 143.246 186.866 143.1 186.083 142.846Z" fill="white"/>
<path d="M105.04 219.912C105.04 219.912 72.9751 209.224 62.2868 212.277C51.5986 215.331 43.3591 227.23 47.6229 236.708C51.8867 246.186 61.3649 257.767 100.142 254.426H110.514L113.279 229.995L105.04 219.912Z" fill="white"/>
<path d="M87.3521 255.578C59.4647 255.578 51.1388 245.841 47.1055 236.939C45.3769 233.078 45.521 228.555 47.5664 224.147C48.9918 221.178 51.0224 218.539 53.5279 216.401C56.0335 214.262 58.9585 212.672 62.1152 211.731C72.861 208.648 103.889 218.933 105.214 219.365L105.358 219.423L113.886 229.823L111.033 255.002H100.172C95.5052 255.406 91.2414 255.578 87.3521 255.578ZM67.1856 212.307C65.5855 212.277 63.9882 212.452 62.4321 212.825C56.4973 214.525 51.1964 219.048 48.6036 224.637C46.7022 228.728 46.5581 232.934 48.1426 236.478C52.5793 246.273 62.4897 257.105 100.086 253.85H109.996L112.676 230.169L104.695 220.402C102.563 219.711 79.6601 212.307 67.1856 212.307Z" fill="#282928"/>
<path d="M105.99 234.231C105.852 234.227 105.72 234.176 105.615 234.087C99.9685 229.333 73.3775 219.336 73.1182 219.221C73.0468 219.198 72.9807 219.162 72.9242 219.112C72.8676 219.063 72.8217 219.003 72.7893 218.936C72.7569 218.868 72.7386 218.795 72.7358 218.72C72.7329 218.645 72.7454 218.571 72.7725 218.501C72.7982 218.428 72.8381 218.362 72.8899 218.305C72.9417 218.248 73.0043 218.202 73.0741 218.17C73.1439 218.138 73.2195 218.12 73.2963 218.117C73.3732 218.115 73.4497 218.128 73.5215 218.155C74.6163 218.558 100.545 228.325 106.364 233.222C106.478 233.322 106.548 233.463 106.558 233.614C106.569 233.765 106.52 233.914 106.422 234.029C106.371 234.095 106.305 234.147 106.23 234.182C106.155 234.217 106.073 234.234 105.99 234.231Z" fill="#282928"/>
<path d="M178.3 219.912C178.3 219.912 184.408 218.702 192.647 217.78C200.887 216.858 210.653 215.331 214.629 221.122C218.605 226.912 232.03 238.234 217.395 246.186C202.759 254.137 160.9 257.479 160.9 257.479L157.529 234.576L175.621 225.414L178.3 219.912Z" fill="white"/>
<path d="M160.412 258.084L156.926 234.23L175.191 224.982L177.899 219.393L178.187 219.336C178.245 219.336 184.41 218.126 192.592 217.204L194.119 217.031C202.128 216.109 211.203 215.072 215.121 220.805C215.754 221.727 216.648 222.85 217.627 224.003C220.969 228.065 225.521 233.625 224.484 238.955C223.908 241.951 221.603 244.544 217.656 246.676C203.078 254.57 162.659 257.911 160.959 258.056L160.412 258.084ZM158.165 234.893L161.391 256.846C166.318 256.413 203.626 252.956 217.109 245.667C220.738 243.708 222.842 241.375 223.36 238.724C224.311 233.942 220.105 228.843 216.734 224.752C215.754 223.542 214.833 222.418 214.17 221.468C210.626 216.311 201.926 217.29 194.263 218.183L192.707 218.356C185.591 219.134 179.973 220.171 178.706 220.431L176.055 225.847L158.165 234.893Z" fill="#282928"/>
<path d="M103.195 214.524C103.195 214.524 100.142 214.208 98.6146 214.208C97.0877 214.208 101.265 227.258 101.899 229.246C101.899 229.304 101.985 229.275 101.985 229.217L103.195 214.524Z" fill="white"/>
<path d="M101.955 229.85C101.822 229.851 101.691 229.81 101.583 229.732C101.474 229.655 101.393 229.545 101.35 229.418C101.033 228.439 99.9674 225.01 99.0743 221.64C97.2881 214.927 97.7203 214.293 97.9796 213.976C98.0494 213.872 98.1436 213.786 98.2539 213.726C98.3643 213.665 98.4877 213.633 98.6134 213.631C100.14 213.631 103.136 213.948 103.252 213.948L103.828 214.005L102.56 229.274C102.548 229.418 102.488 229.554 102.388 229.659C102.289 229.764 102.156 229.831 102.013 229.85H101.955ZM98.9015 214.812C98.7574 215.964 99.8522 220.545 101.638 226.48L102.56 215.042C101.696 214.956 99.9962 214.812 98.9015 214.812Z" fill="#282928"/>
<path d="M176.168 188.423H175.995C175.857 188.377 175.741 188.28 175.672 188.151C175.602 188.023 175.584 187.873 175.621 187.732C176.283 185.513 182.16 166.096 184.667 164.223C187.173 162.351 194.404 154.572 192.705 148.666C191.005 142.76 190.371 140.456 189.19 140.196H189.132C189.132 140.196 188.873 140.398 188.844 141.522C188.819 142.59 189.025 143.652 189.449 144.633L191.034 148.263C191.081 148.333 191.112 148.412 191.125 148.495C191.138 148.578 191.133 148.663 191.109 148.744C191.086 148.825 191.045 148.9 190.99 148.963C190.935 149.026 190.866 149.077 190.79 149.111C190.713 149.145 190.629 149.162 190.545 149.161C190.461 149.159 190.378 149.139 190.303 149.102C190.227 149.066 190.161 149.013 190.108 148.947C190.055 148.882 190.017 148.806 189.996 148.724L188.412 145.094C187.895 143.966 187.649 142.733 187.692 141.493C187.721 140.369 187.98 139.649 188.412 139.303C188.553 139.194 188.717 139.118 188.891 139.078C189.065 139.038 189.246 139.036 189.42 139.073C191.293 139.447 191.869 141.522 193.828 148.349C195.787 155.177 188.268 162.956 185.358 165.145C183.687 166.384 179.164 179.867 176.715 188.049C176.678 188.162 176.604 188.261 176.505 188.328C176.406 188.396 176.288 188.429 176.168 188.423Z" fill="#282928"/>
<path d="M186.999 155.148C186.847 155.146 186.702 155.083 186.596 154.975C186.193 154.572 182.649 149.559 183.6 148.147C183.668 148.036 183.761 147.943 183.871 147.873C183.98 147.803 184.104 147.759 184.234 147.744C184.954 147.628 185.847 148.32 187.201 149.443C186.711 148.349 186.164 146.966 185.703 145.641C184.378 141.867 184.666 141.29 185.127 140.974C186.366 140.167 188.267 142.068 188.814 142.644C188.914 142.764 188.964 142.918 188.953 143.074C188.943 143.229 188.872 143.375 188.757 143.48C188.702 143.532 188.636 143.573 188.564 143.598C188.493 143.624 188.417 143.635 188.341 143.629C188.265 143.624 188.191 143.602 188.124 143.567C188.056 143.531 187.997 143.482 187.95 143.422C187.172 142.587 186.25 141.982 185.905 141.924C185.876 143.105 187.777 148.118 188.93 150.423C188.999 150.583 189.017 150.76 188.981 150.931C188.945 151.101 188.856 151.256 188.728 151.374C188.589 151.486 188.416 151.547 188.238 151.547C188.06 151.547 187.887 151.486 187.748 151.374L186.798 150.596C186.135 150.048 185.098 149.155 184.579 148.954C184.695 150.02 186.769 153.506 187.403 154.168C187.459 154.219 187.503 154.282 187.534 154.351C187.564 154.421 187.58 154.496 187.58 154.572C187.58 154.647 187.564 154.722 187.534 154.792C187.503 154.861 187.459 154.924 187.403 154.975C187.296 155.083 187.151 155.146 186.999 155.148Z" fill="#282928"/>
<path d="M125.323 149.531C125.323 149.531 122.096 150.396 122.845 152.383C123.594 154.371 125.957 153.968 125.957 153.968C125.957 153.968 124.977 157.223 126.418 158.059C127.858 158.894 130.825 157.022 130.825 157.022C130.825 157.022 130.451 161.343 133.649 161.833C135.406 162.092 136.098 158.491 136.213 157.8C136.213 157.742 136.27 157.742 136.299 157.771C136.731 158.462 139.439 162.553 141.658 161.285C143.876 160.018 141.542 157.569 140.822 156.734C140.804 156.71 140.793 156.682 140.791 156.652C140.789 156.622 140.797 156.593 140.813 156.567C140.828 156.542 140.852 156.522 140.879 156.511C140.907 156.499 140.937 156.497 140.966 156.503C142.147 156.82 145.633 158.116 145.95 156.561C146.267 155.005 144.712 153.737 144.107 153.334C144.078 153.334 144.107 153.276 144.135 153.276C145.115 153.565 148.543 154.4 148.601 152.96C148.658 151.519 145.489 150.367 145.489 150.367C145.489 150.367 143.588 156.417 138.085 156.993C131.834 157.655 128.722 155.466 126.677 153.075C125.669 151.894 125.323 149.531 125.323 149.531Z" fill="white"/>
<path d="M133.848 162.408H133.56C131.14 162.034 130.362 159.758 130.247 158C129.152 158.548 127.337 159.268 126.127 158.576C124.917 157.885 124.975 155.667 125.205 154.543C124.312 154.457 122.872 154.082 122.324 152.584C122.213 152.308 122.16 152.011 122.17 151.714C122.18 151.416 122.252 151.124 122.382 150.856C123.074 149.559 124.975 149.041 125.177 148.983L125.81 148.81L125.897 149.444C125.897 149.473 126.214 151.662 127.107 152.699C128.893 154.774 131.745 157.078 138.026 156.416C143.067 155.868 144.911 150.251 144.94 150.193L145.113 149.674L145.631 149.818C146.006 149.934 149.29 150.913 149.175 152.987C149.173 153.184 149.125 153.378 149.035 153.553C148.945 153.728 148.815 153.879 148.656 153.996C148.051 154.428 147.014 154.428 145.919 154.255C146.183 154.594 146.371 154.985 146.47 155.402C146.57 155.82 146.578 156.254 146.496 156.675C146.47 156.868 146.399 157.051 146.289 157.212C146.179 157.372 146.032 157.504 145.862 157.597C144.997 158.115 143.557 157.856 142.059 157.424C142.635 158.26 143.154 159.383 142.981 160.363C142.929 160.666 142.809 160.953 142.629 161.203C142.449 161.453 142.215 161.658 141.944 161.803C139.869 162.955 137.651 160.622 136.499 159.095C136.124 160.535 135.317 162.408 133.848 162.408ZM131.399 157.05C131.399 157.194 131.111 160.852 133.733 161.227C134.684 161.371 135.375 159.181 135.634 157.655C134.2 157.672 132.772 157.468 131.399 157.05ZM136.902 157.655C137.968 159.297 139.985 161.573 141.396 160.795C141.513 160.734 141.615 160.648 141.694 160.544C141.774 160.439 141.83 160.318 141.857 160.19C142.001 159.354 141.166 158 140.388 157.136L140.302 157.021C139.611 157.304 138.883 157.488 138.141 157.568L136.902 157.655ZM126.588 153.852L126.502 154.14C126.214 155.062 125.926 157.107 126.704 157.568C127.481 158.029 129.296 157.28 130.362 156.617C128.919 155.98 127.631 155.036 126.588 153.852ZM141.915 156.185C142.866 156.473 144.681 156.963 145.257 156.617C145.314 156.589 145.343 156.56 145.372 156.445C145.574 155.407 144.709 154.514 144.133 154.082C143.509 154.896 142.761 155.606 141.915 156.185ZM124.889 150.308C124.341 150.539 123.679 150.913 123.419 151.403C123.358 151.523 123.324 151.654 123.319 151.789C123.314 151.923 123.338 152.057 123.39 152.181C123.909 153.564 125.81 153.391 125.897 153.391H126.156C125.465 152.469 125.061 151.115 124.889 150.308ZM144.94 152.901C146.409 153.247 147.619 153.304 147.994 153.045C148.368 152.786 148.022 153.016 148.022 152.959C148.08 152.181 146.784 151.461 145.833 151.115C145.577 151.73 145.278 152.327 144.94 152.901Z" fill="#282928"/>
<path d="M166.634 235.814C166.545 235.812 166.458 235.79 166.378 235.751C166.298 235.711 166.229 235.654 166.173 235.584C166.079 235.465 166.034 235.314 166.051 235.163C166.067 235.012 166.142 234.873 166.26 234.777C173.606 228.67 196.366 222.994 197.316 222.764C197.388 222.742 197.464 222.735 197.538 222.744C197.613 222.753 197.685 222.777 197.75 222.815C197.815 222.853 197.871 222.904 197.915 222.964C197.96 223.025 197.991 223.094 198.008 223.167C198.044 223.316 198.023 223.473 197.948 223.607C197.873 223.74 197.75 223.841 197.604 223.887C197.374 223.945 174.125 229.707 166.98 235.67C166.887 235.76 166.764 235.811 166.634 235.814Z" fill="#282928"/>
<path d="M74.2969 66.3574L67.9877 69.3824C67.8586 69.4451 67.7576 69.5536 67.7043 69.6868C67.651 69.82 67.6493 69.9683 67.6996 70.1026L70.3501 77.1033C70.3811 77.1742 70.4261 77.2382 70.4824 77.2913C70.5387 77.3445 70.6052 77.3857 70.6778 77.4126C70.7504 77.4395 70.8277 77.4515 70.905 77.4478C70.9823 77.4442 71.0582 77.425 71.1279 77.3914L75.9103 75.1443C75.9942 75.0991 76.0885 75.0766 76.1839 75.0791C76.2792 75.0816 76.3722 75.109 76.4537 75.1584C76.5352 75.2079 76.6023 75.2778 76.6485 75.3613C76.6947 75.4447 76.7183 75.5387 76.7169 75.634L77.005 91.7961C77.0188 91.9415 77.0847 92.077 77.1906 92.1777C77.2965 92.2783 77.4353 92.3372 77.5812 92.3435L96.7394 92.6315C96.8162 92.6357 96.893 92.6237 96.9647 92.5962C97.0365 92.5687 97.1017 92.5264 97.1561 92.472C97.2104 92.4177 97.2527 92.3525 97.2802 92.2807C97.3077 92.2089 97.3198 92.1321 97.3156 92.0554L96.8835 75.3459C96.8797 75.2521 96.9 75.1589 96.9426 75.0753C96.9852 74.9916 97.0486 74.9203 97.1268 74.8682C97.2049 74.8161 97.2951 74.785 97.3887 74.7779C97.4823 74.7707 97.5762 74.7878 97.6613 74.8274L101.349 76.4695C101.413 76.5045 101.483 76.5263 101.556 76.5336C101.629 76.5409 101.702 76.5336 101.772 76.5121C101.842 76.4907 101.907 76.4554 101.963 76.4085C102.019 76.3616 102.065 76.304 102.098 76.239L105.267 70.1603C105.305 70.0914 105.328 70.015 105.334 69.9365C105.34 69.858 105.329 69.7791 105.301 69.7053C105.274 69.6315 105.231 69.5644 105.175 69.5087C105.12 69.4529 105.053 69.4099 104.979 69.3824L96.9987 65.8965L93.0518 65.7524C92.9365 65.7486 92.8226 65.7795 92.725 65.8411C92.6274 65.9028 92.5506 65.9923 92.5044 66.0981C91.8706 67.481 89.1914 72.6091 85.5614 71.2262C84.4238 70.7992 83.4099 70.0967 82.6105 69.1817C81.811 68.2666 81.2511 67.1675 80.9807 65.9829C80.9438 65.8693 80.8755 65.7685 80.7837 65.6921C80.692 65.6156 80.5805 65.5666 80.4621 65.5508L79.0217 65.4355C77.3931 65.3217 75.7633 65.6397 74.2969 66.3574Z" fill="#282928"/>
<path d="M94.1786 83.9892H78.9673C78.8527 83.9892 78.7428 83.9436 78.6617 83.8626C78.5807 83.7816 78.5352 83.6716 78.5352 83.557C78.5352 83.4424 78.5807 83.3325 78.6617 83.2515C78.7428 83.1704 78.8527 83.1249 78.9673 83.1249H94.1786C94.2365 83.1206 94.2946 83.1288 94.349 83.149C94.4033 83.1692 94.4527 83.2009 94.4937 83.2419C94.5348 83.2829 94.5665 83.3323 94.5867 83.3867C94.6068 83.4411 94.6151 83.4992 94.6108 83.557C94.6108 83.6716 94.5652 83.7816 94.4842 83.8626C94.4032 83.9436 94.2932 83.9892 94.1786 83.9892Z" fill="white"/>
<path d="M94.1791 88.5702H80.4082C80.2936 88.5702 80.1837 88.5247 80.1026 88.4436C80.0216 88.3626 79.9761 88.2527 79.9761 88.1381C79.9761 88.0235 80.0216 87.9135 80.1026 87.8325C80.1837 87.7515 80.2936 87.7059 80.4082 87.7059H94.1791C94.2937 87.7059 94.4036 87.7515 94.4846 87.8325C94.5657 87.9135 94.6112 88.0235 94.6112 88.1381C94.6112 88.2527 94.5657 88.3626 94.4846 88.4436C94.4036 88.5247 94.2937 88.5702 94.1791 88.5702Z" fill="white"/>
<path d="M188.817 86.4087C188.681 86.4095 188.55 86.3598 188.449 86.2693C188.348 86.1788 188.284 86.0539 188.269 85.9189L184.467 64.0238L176.486 63.5629C176.334 63.5629 176.187 63.5022 176.079 63.3941C175.971 63.2861 175.91 63.1395 175.91 62.9867C175.91 62.8339 175.971 62.6873 176.079 62.5793C176.187 62.4712 176.334 62.4105 176.486 62.4105C177.149 62.4105 184.668 62.8715 184.985 62.9003H185.446L189.393 85.7173C189.418 85.8661 189.384 86.0189 189.298 86.1428C189.212 86.2667 189.08 86.3518 188.932 86.3799L188.817 86.4087Z" fill="#FBBC1B"/>
<path d="M197.057 90.7597C192.966 90.7597 189.422 90.6732 187.867 90.4139C185.332 90.0106 184.957 88.743 184.957 88.0228C184.957 86.7552 186.167 85.5452 187.147 85.3723C189.048 85.0554 209.301 84.9978 212.729 84.9978L216.359 68.3748C216.381 68.3152 216.385 68.2503 216.369 68.1886C216.354 68.127 216.32 68.0714 216.273 68.0291C216.239 67.9759 216.192 67.9322 216.137 67.902C216.081 67.8717 216.019 67.856 215.956 67.8562L189.826 68.1731C189.673 68.1731 189.526 68.1124 189.418 68.0044C189.31 67.8963 189.25 67.7498 189.25 67.5969C189.25 67.4441 189.31 67.2976 189.418 67.1895C189.526 67.0815 189.673 67.0208 189.826 67.0208L215.927 66.7039H215.956C216.191 66.705 216.422 66.7601 216.632 66.865C216.841 66.97 217.024 67.1218 217.166 67.3089C217.322 67.4877 217.432 67.7017 217.487 67.9325C217.542 68.1633 217.541 68.404 217.483 68.6341L213.68 86.1502H213.219C204.951 86.179 188.904 86.2654 187.348 86.4959C186.887 86.5823 186.109 87.3313 186.109 88.0228C186.109 88.7142 187.348 89.1463 188.068 89.2904C192.419 89.9818 214.861 89.2904 215.092 89.2616C215.244 89.2616 215.391 89.3223 215.499 89.4303C215.607 89.5384 215.668 89.6849 215.668 89.8378C215.672 89.912 215.66 89.9863 215.635 90.0561C215.609 90.1259 215.569 90.1897 215.518 90.2436C215.467 90.2975 215.405 90.3404 215.337 90.3697C215.268 90.399 215.195 90.4141 215.12 90.4139C214.515 90.4428 204.864 90.7597 197.057 90.7597Z" fill="#FBBC1B"/>
<path d="M196.049 86.2658C195.901 86.266 195.759 86.2092 195.651 86.1073C195.544 86.0054 195.48 85.8662 195.473 85.7184L194.032 67.8566C194.024 67.7786 194.032 67.6998 194.056 67.6251C194.08 67.5503 194.118 67.4811 194.169 67.4218C194.221 67.3625 194.283 67.3142 194.354 67.28C194.425 67.2458 194.501 67.2263 194.58 67.2228C194.655 67.2189 194.731 67.23 194.802 67.2554C194.874 67.2809 194.939 67.3201 194.996 67.371C195.052 67.4218 195.098 67.4832 195.13 67.5518C195.162 67.6203 195.181 67.6945 195.185 67.7702L196.625 85.632C196.633 85.7878 196.581 85.9408 196.479 86.0589C196.377 86.177 196.233 86.2511 196.078 86.2658H196.049Z" fill="#FBBC1B"/>
<path d="M206.103 85.5163H206.045C205.971 85.5128 205.898 85.4941 205.83 85.4613C205.763 85.4285 205.704 85.3824 205.655 85.3257C205.607 85.2691 205.57 85.2031 205.548 85.1318C205.526 85.0605 205.519 84.9855 205.527 84.9113L206.852 67.424C206.855 67.3495 206.874 67.2764 206.907 67.2094C206.94 67.1423 206.986 67.0827 207.042 67.0341C207.099 66.9856 207.165 66.9491 207.236 66.927C207.308 66.9048 207.383 66.8975 207.457 66.9054C207.532 66.9091 207.607 66.9277 207.675 66.9601C207.744 66.9926 207.805 67.0382 207.856 67.0944C207.907 67.1506 207.946 67.2163 207.972 67.2877C207.997 67.359 208.008 67.4348 208.004 67.5104L206.679 84.9977C206.665 85.1403 206.598 85.2725 206.491 85.3684C206.385 85.4643 206.246 85.517 206.103 85.5163Z" fill="#FBBC1B"/>
<path d="M215.58 73.7049H186.944C186.791 73.7049 186.644 73.6442 186.536 73.5361C186.428 73.428 186.368 73.2815 186.368 73.1287C186.368 72.9759 186.428 72.8293 186.536 72.7213C186.644 72.6132 186.791 72.5525 186.944 72.5525H215.58C215.733 72.5525 215.88 72.6132 215.988 72.7213C216.096 72.8293 216.157 72.9759 216.157 73.1287C216.157 73.2815 216.096 73.428 215.988 73.5361C215.88 73.6442 215.733 73.7049 215.58 73.7049Z" fill="#FBBC1B"/>
<path d="M214.575 79.8689L187.609 79.5232C187.535 79.5233 187.461 79.5083 187.393 79.479C187.324 79.4497 187.263 79.4068 187.212 79.3529C187.16 79.2989 187.121 79.2351 187.095 79.1654C187.069 79.0956 187.058 79.0213 187.062 78.947C187.062 78.7991 187.118 78.6567 187.22 78.5495C187.322 78.4422 187.461 78.3782 187.609 78.3708H187.638L214.575 78.7166C214.728 78.7166 214.874 78.7773 214.982 78.8853C215.09 78.9934 215.151 79.1399 215.151 79.2928C215.151 79.4456 215.09 79.5921 214.982 79.7002C214.874 79.8082 214.728 79.8689 214.575 79.8689Z" fill="#FBBC1B"/>
<path d="M192.013 96.175C191.44 96.1637 190.883 95.9834 190.412 95.6569C189.941 95.3303 189.577 94.872 189.366 94.3394C189.155 93.8068 189.105 93.2237 189.224 92.6631C189.342 92.1025 189.624 91.5894 190.033 91.1883C190.442 90.7871 190.961 90.5156 191.524 90.4079C192.086 90.3002 192.668 90.3611 193.197 90.583C193.725 90.8048 194.176 91.1777 194.493 91.6548C194.811 92.132 194.98 92.6922 194.98 93.2653C194.976 93.6512 194.897 94.0325 194.745 94.3876C194.594 94.7427 194.375 95.0645 194.099 95.3347C193.824 95.6049 193.497 95.8182 193.14 95.9624C192.782 96.1066 192.399 96.1788 192.013 96.175ZM192.013 91.5079C191.776 91.5002 191.54 91.5398 191.318 91.6243C191.097 91.7088 190.894 91.8366 190.723 92.0002C190.551 92.1637 190.414 92.3599 190.319 92.5771C190.224 92.7943 190.173 93.0282 190.169 93.2653C190.225 93.7109 190.442 94.1208 190.779 94.4179C191.115 94.7151 191.549 94.879 191.998 94.879C192.448 94.879 192.881 94.7151 193.218 94.4179C193.555 94.1208 193.772 93.7109 193.828 93.2653C193.824 93.0307 193.774 92.7991 193.681 92.5839C193.588 92.3686 193.453 92.1738 193.284 92.0106C193.116 91.8474 192.917 91.719 192.699 91.6328C192.48 91.5465 192.247 91.5041 192.013 91.5079Z" fill="#FBBC1B"/>
<path d="M208.061 96.2337C207.49 96.2167 206.936 96.0318 206.469 95.7019C206.002 95.372 205.642 94.9119 205.435 94.3789C205.228 93.846 205.183 93.2638 205.305 92.7052C205.426 92.1466 205.71 91.6362 206.12 91.2379C206.531 90.8396 207.049 90.5709 207.611 90.4654C208.173 90.36 208.753 90.4224 209.28 90.645C209.807 90.8675 210.256 91.2403 210.572 91.7168C210.888 92.1932 211.057 92.7522 211.057 93.324C211.042 94.106 210.719 94.8503 210.158 95.3952C209.597 95.9401 208.843 96.2415 208.061 96.2337ZM208.061 91.5666C207.585 91.5588 207.124 91.7387 206.779 92.0675C206.434 92.3964 206.232 92.8477 206.217 93.324C206.217 93.813 206.412 94.282 206.757 94.6278C207.103 94.9735 207.572 95.1678 208.061 95.1678C208.55 95.1678 209.019 94.9735 209.365 94.6278C209.711 94.282 209.905 93.813 209.905 93.324C209.89 92.8477 209.688 92.3964 209.343 92.0675C208.998 91.7387 208.538 91.5588 208.061 91.5666Z" fill="#FBBC1B"/>
<path d="M95.0844 185.928C95.0844 185.928 90.5778 203.923 94.3806 206.977C98.1835 210.031 103.139 211.961 103.139 211.961L102.211 186.327L95.0844 185.928Z" fill="white"/>
<path d="M101.666 186.32L187.143 186.032L177.377 227.546L101.983 229.995L101.666 186.32Z" fill="#FBBC1B"/>
<path d="M142.118 209.54C148.944 209.54 154.478 207.348 154.478 204.643C154.478 201.938 148.944 199.745 142.118 199.745C135.293 199.745 129.759 201.938 129.759 204.643C129.759 207.348 135.293 209.54 142.118 209.54Z" fill="white"/>
<path d="M151.48 271.423C143.644 271.423 135.232 271.019 126.359 270.213C100.978 267.879 80.2636 262.981 80.0331 262.924C79.9326 262.888 79.8489 262.816 79.7981 262.722C79.7474 262.628 79.7331 262.519 79.7582 262.415C79.7832 262.312 79.8457 262.221 79.9338 262.16C80.0218 262.1 80.129 262.074 80.2348 262.088C80.4365 262.146 101.122 267.044 126.445 269.348C149.781 271.48 181.961 271.797 202.675 261.195C202.726 261.169 202.781 261.153 202.839 261.148C202.896 261.143 202.954 261.149 203.009 261.167C203.063 261.184 203.114 261.212 203.158 261.249C203.202 261.286 203.239 261.331 203.265 261.383C203.292 261.434 203.308 261.489 203.313 261.547C203.318 261.604 203.311 261.662 203.294 261.717C203.276 261.771 203.248 261.822 203.211 261.866C203.174 261.91 203.129 261.947 203.078 261.973C193.83 266.698 181.615 269.694 166.749 270.846C161.938 271.25 156.839 271.423 151.48 271.423Z" fill="white"/>
<path d="M149.06 75.6057H148.83C148.624 75.554 148.44 75.4408 148.301 75.2811C148.162 75.1215 148.075 74.9231 148.052 74.7126C147.793 70.7946 144.883 65.5801 143.154 62.8144C142.757 62.1572 142.216 61.5982 141.573 61.1792C140.929 60.7602 140.2 60.4919 139.438 60.3944H139.409C131.803 59.2708 121.893 55.2951 117.802 42.5902C115.641 35.82 116.794 29.7124 121.202 24.9301C128.98 16.4313 144.364 14.2706 151.999 15.9992C157.501 17.2668 164.531 19.197 170.12 22.8558C176.602 27.062 179.8 32.8238 179.656 39.9397C179.425 50.6568 172.511 57.4846 159.691 59.703C157.732 60.0487 156.234 61.6044 155.773 63.7939C154.851 68.1153 152.344 71.63 150.846 73.7619C150.443 74.3093 150.097 74.7991 149.896 75.1448C149.807 75.2864 149.684 75.4032 149.538 75.4838C149.392 75.5645 149.227 75.6065 149.06 75.6057ZM146.41 16.5754C138.516 16.5754 127.799 19.3987 122.037 25.6791C117.888 30.2022 116.851 35.7624 118.897 42.1869C122.815 54.3444 132.293 58.1473 139.582 59.2132H139.611C140.536 59.3473 141.42 59.6825 142.201 60.1951C142.983 60.7078 143.642 61.3855 144.134 62.1806C145.834 64.9174 148.686 70.0167 149.175 74.1076L149.896 73.0417C151.336 71.025 153.756 67.5967 154.649 63.5058C155.197 60.8553 157.069 58.9539 159.489 58.5506C171.877 56.4187 178.273 50.1383 178.503 39.8821C178.791 25.1894 164.358 20.0037 151.739 17.0939C149.988 16.7244 148.2 16.5505 146.41 16.5754Z" fill="#282928"/>
<path d="M125.321 150.107H125.263C124.399 150.021 121.576 149.589 121.201 148.206C121.028 147.601 121.345 146.967 122.152 146.391C122.274 146.299 122.428 146.26 122.579 146.282C122.73 146.303 122.867 146.384 122.958 146.506C123.05 146.628 123.089 146.782 123.068 146.933C123.046 147.085 122.965 147.221 122.843 147.313C122.353 147.659 122.296 147.889 122.325 147.918C122.353 147.947 123.909 148.782 125.407 148.955C125.557 148.983 125.691 149.067 125.782 149.19C125.873 149.313 125.914 149.466 125.897 149.618C125.876 149.755 125.806 149.88 125.7 149.97C125.595 150.06 125.46 150.109 125.321 150.107Z" fill="#282928"/>
<path d="M31.7171 149.876C31.7171 149.876 53.785 154.774 54.7357 183.439L43.1544 185.052C43.1544 185.052 26.9059 171.685 32.3797 149.473" fill="white"/>
<path d="M42.9832 185.657L42.7815 185.484C42.6087 185.34 38.6042 181.998 35.2047 175.862C32.0645 170.186 28.953 160.996 31.8052 149.328H31.8628L32.7559 149.559L32.9287 149.616C36.7145 150.876 40.2179 152.862 43.2425 155.465C48.4858 159.93 54.8238 168.4 55.3136 183.41V183.928L42.9832 185.657ZM32.6694 150.74C30.3647 161.486 33.2744 169.956 36.1842 175.257C38.0393 178.687 40.454 181.783 43.3289 184.418L54.1612 182.92C53.5274 168.688 47.5063 160.65 42.5511 156.386C39.6494 153.888 36.2947 151.971 32.6694 150.74Z" fill="#282928"/>
<path d="M47.3333 179.031C47.2266 179.029 47.1224 178.998 47.0313 178.943C46.9403 178.887 46.8655 178.808 46.8147 178.714L34.3691 154.687C34.3346 154.619 34.3139 154.545 34.3082 154.469C34.3026 154.393 34.3121 154.317 34.3362 154.244C34.3603 154.172 34.3986 154.105 34.4487 154.048C34.4989 153.99 34.5599 153.943 34.6284 153.909C34.7635 153.845 34.9179 153.832 35.0617 153.875C35.2054 153.918 35.3282 154.012 35.4062 154.14L47.8519 178.167C47.8864 178.235 47.9071 178.309 47.9127 178.385C47.9184 178.461 47.9089 178.538 47.8847 178.61C47.8606 178.682 47.8224 178.749 47.7722 178.807C47.7221 178.864 47.661 178.911 47.5926 178.945C47.5169 178.999 47.4265 179.029 47.3333 179.031Z" fill="#282928"/>
<path d="M76.199 183.44H31.4869C30.1026 183.44 28.9805 184.563 28.9805 185.947V189.142C28.9805 190.526 30.1026 191.648 31.4869 191.648H76.199C77.5832 191.648 78.7054 190.526 78.7054 189.142V185.947C78.7054 184.563 77.5832 183.44 76.199 183.44Z" fill="white"/>
<path d="M76.2298 192.227H31.4888C31.084 192.227 30.6832 192.147 30.3092 191.992C29.9352 191.837 29.5954 191.61 29.3091 191.324C29.0229 191.038 28.7958 190.698 28.6409 190.324C28.486 189.95 28.4062 189.549 28.4062 189.144V185.917C28.4138 185.105 28.742 184.328 29.3192 183.756C29.8965 183.184 30.6763 182.864 31.4888 182.864H76.2298C77.0423 182.864 77.8221 183.184 78.3994 183.756C78.9766 184.328 79.3048 185.105 79.3124 185.917V189.144C79.3124 189.962 78.9876 190.746 78.4095 191.324C77.8314 191.902 77.0473 192.227 76.2298 192.227ZM31.4888 184.016C30.9819 184.016 30.4952 184.215 30.1341 184.571C29.7729 184.927 29.5662 185.411 29.5586 185.917V189.144C29.5586 189.398 29.6085 189.649 29.7056 189.883C29.8026 190.117 29.9447 190.33 30.124 190.509C30.3032 190.688 30.516 190.83 30.7502 190.927C30.9844 191.024 31.2354 191.074 31.4888 191.074H76.2298C76.7417 191.074 77.2326 190.871 77.5946 190.509C77.9566 190.147 78.16 189.656 78.16 189.144V185.917C78.1524 185.411 77.9457 184.927 77.5845 184.571C77.2234 184.215 76.7367 184.016 76.2298 184.016H31.4888Z" fill="#282928"/>
<path d="M237.561 113.058H252.513C252.733 113.066 252.947 113.134 253.13 113.256C253.313 113.378 253.459 113.549 253.55 113.75C254.817 116.717 259.974 128.558 263.316 133.801C263.412 133.959 263.469 134.137 263.482 134.321C263.495 134.506 263.463 134.69 263.39 134.86C263.316 135.029 263.203 135.178 263.06 135.295C262.917 135.412 262.748 135.492 262.567 135.53C258.447 136.365 246.693 138.065 227.852 135.357C227.673 135.33 227.504 135.261 227.356 135.157C227.209 135.052 227.089 134.914 227.005 134.754C226.921 134.594 226.875 134.417 226.872 134.237C226.869 134.056 226.909 133.877 226.988 133.715C229.004 129.768 234.622 118.532 236.495 113.779C236.581 113.566 236.728 113.384 236.918 113.256C237.108 113.128 237.331 113.059 237.561 113.058Z" fill="white"/>
<path d="M247.186 137.402C240.686 137.371 234.198 136.88 227.768 135.933C227.497 135.894 227.24 135.79 227.019 135.629C226.798 135.469 226.62 135.256 226.5 135.011C226.374 134.772 226.306 134.506 226.301 134.236C226.296 133.966 226.354 133.698 226.472 133.455C228.719 129.018 234.106 118.215 235.979 113.577C236.098 113.253 236.314 112.974 236.597 112.778C236.881 112.582 237.218 112.478 237.563 112.482H252.515C252.848 112.484 253.172 112.583 253.449 112.767C253.725 112.952 253.941 113.213 254.071 113.519C255.54 116.918 260.553 128.356 263.809 133.484C263.955 133.719 264.043 133.986 264.063 134.262C264.083 134.538 264.035 134.815 263.924 135.068C263.82 135.328 263.652 135.557 263.435 135.733C263.218 135.91 262.96 136.028 262.685 136.077C260.179 136.595 254.993 137.402 247.186 137.402ZM237.563 113.634C237.448 113.634 237.337 113.671 237.244 113.738C237.15 113.805 237.081 113.9 237.045 114.009C235.172 118.676 229.756 129.537 227.509 133.974C227.466 134.053 227.443 134.142 227.443 134.233C227.443 134.323 227.466 134.412 227.509 134.492C227.549 134.574 227.61 134.644 227.686 134.694C227.762 134.745 227.85 134.774 227.941 134.78C246.638 137.488 258.306 135.789 262.454 134.953C262.55 134.936 262.639 134.896 262.715 134.835C262.79 134.775 262.849 134.697 262.887 134.607C262.921 134.523 262.934 134.431 262.924 134.341C262.914 134.25 262.881 134.164 262.829 134.089C259.516 128.903 254.474 117.379 253.034 113.98C252.987 113.881 252.914 113.796 252.822 113.735C252.731 113.674 252.625 113.639 252.515 113.634H237.563Z" fill="#282928"/>
<path d="M241.194 164.943C229.699 151.979 238.543 144.921 240.675 143.509C240.805 143.422 240.906 143.3 240.967 143.157C241.029 143.014 241.047 142.856 241.021 142.702L240.502 139.216C240.49 139.134 240.495 139.05 240.519 138.969C240.542 138.889 240.582 138.815 240.637 138.752C240.692 138.689 240.76 138.639 240.836 138.604C240.912 138.57 240.995 138.553 241.079 138.554H250.326C250.41 138.553 250.493 138.57 250.569 138.604C250.645 138.639 250.713 138.689 250.768 138.752C250.823 138.815 250.863 138.889 250.886 138.969C250.91 139.05 250.915 139.134 250.903 139.216L250.298 143.019C250.27 143.176 250.291 143.337 250.358 143.481C250.425 143.626 250.535 143.746 250.672 143.826C252.804 145.209 261.591 152.008 250.125 164.943H241.194Z" fill="white"/>
<path d="M250.383 165.519H240.933L240.76 165.318C236.352 160.333 234.393 155.638 234.941 151.345C235.488 147.052 238.916 143.97 240.357 143.019C240.395 142.996 240.424 142.96 240.439 142.919C240.455 142.877 240.456 142.831 240.443 142.789L239.925 139.303C239.905 139.137 239.921 138.97 239.97 138.811C240.02 138.652 240.103 138.505 240.213 138.381C240.316 138.251 240.447 138.147 240.597 138.077C240.747 138.007 240.912 137.973 241.077 137.977H250.325C250.494 137.977 250.661 138.013 250.815 138.082C250.969 138.152 251.107 138.254 251.218 138.381C251.416 138.645 251.509 138.974 251.477 139.303L250.872 143.106C250.862 143.151 250.867 143.199 250.888 143.242C250.909 143.284 250.945 143.317 250.988 143.336C252.399 144.258 255.741 146.851 256.375 151.403C257.009 155.954 254.992 160.305 250.555 165.318L250.383 165.519ZM241.452 164.367H249.864C253.955 159.7 255.77 155.378 255.223 151.547C254.675 147.715 251.621 145.151 250.354 144.316C250.125 144.172 249.942 143.965 249.83 143.719C249.717 143.473 249.679 143.2 249.72 142.933L250.325 139.13H241.077L241.596 142.616C241.641 142.876 241.608 143.144 241.5 143.385C241.393 143.627 241.215 143.83 240.991 143.97C239.982 144.661 236.641 147.196 236.093 151.518C235.575 155.378 237.39 159.7 241.452 164.367Z" fill="#282928"/>
<path d="M234.396 131.67H234.223C234.079 131.623 233.958 131.522 233.888 131.387C233.818 131.252 233.804 131.095 233.849 130.949L238.862 116.718C238.887 116.645 238.927 116.579 238.979 116.522C239.031 116.465 239.094 116.419 239.163 116.387C239.233 116.355 239.309 116.337 239.386 116.334C239.462 116.332 239.539 116.344 239.611 116.372C239.75 116.424 239.864 116.528 239.929 116.662C239.993 116.797 240.003 116.951 239.956 117.092L234.944 131.295C234.902 131.406 234.827 131.502 234.729 131.569C234.631 131.636 234.515 131.671 234.396 131.67Z" fill="#FBBC1B"/>
<path d="M241.163 132.273H241.077C240.926 132.245 240.792 132.161 240.701 132.038C240.611 131.915 240.57 131.762 240.587 131.61L243.151 117.09C243.179 116.942 243.264 116.81 243.388 116.724C243.512 116.638 243.665 116.604 243.813 116.629C243.962 116.657 244.093 116.742 244.179 116.866C244.266 116.99 244.3 117.143 244.274 117.292L241.739 131.812C241.712 131.944 241.64 132.062 241.535 132.147C241.429 132.231 241.298 132.275 241.163 132.273Z" fill="#FBBC1B"/>
<path d="M256.376 131.785C256.254 131.784 256.135 131.745 256.036 131.672C255.938 131.6 255.865 131.498 255.829 131.381L250.816 117.178C250.77 117.029 250.783 116.868 250.852 116.729C250.922 116.589 251.043 116.482 251.19 116.429C251.332 116.39 251.483 116.403 251.616 116.466C251.748 116.53 251.853 116.64 251.91 116.775L256.923 131.007C256.97 131.156 256.956 131.317 256.887 131.457C256.817 131.596 256.696 131.703 256.549 131.756L256.376 131.785Z" fill="#FBBC1B"/>
<path d="M249.605 132.361C249.47 132.364 249.338 132.319 249.233 132.235C249.128 132.15 249.055 132.032 249.029 131.9L246.493 117.38C246.477 117.306 246.476 117.229 246.49 117.155C246.505 117.08 246.535 117.01 246.578 116.947C246.621 116.885 246.677 116.832 246.742 116.793C246.807 116.753 246.879 116.727 246.954 116.717C247.103 116.692 247.256 116.726 247.38 116.812C247.504 116.899 247.589 117.03 247.617 117.178L250.181 131.698C250.193 131.774 250.19 131.851 250.172 131.926C250.154 132.001 250.121 132.071 250.075 132.133C250.03 132.194 249.972 132.246 249.906 132.285C249.84 132.325 249.767 132.35 249.691 132.361H249.605Z" fill="#FBBC1B"/>
<path d="M180.262 129.624L194.58 139.621L193.601 141.609L179.196 131.497L180.262 129.624Z" fill="#282928"/>
<path d="M188.009 140.803C187.884 140.805 187.762 140.764 187.663 140.687L185.128 138.815C185.052 138.778 184.985 138.725 184.932 138.66C184.879 138.595 184.841 138.519 184.82 138.438C184.8 138.356 184.797 138.271 184.813 138.189C184.828 138.106 184.862 138.028 184.911 137.96C184.96 137.892 185.023 137.835 185.097 137.794C185.17 137.753 185.251 137.728 185.335 137.722C185.419 137.715 185.503 137.727 185.582 137.757C185.66 137.786 185.732 137.833 185.79 137.893L188.354 139.765C188.418 139.808 188.473 139.864 188.513 139.929C188.554 139.994 188.581 140.067 188.592 140.143C188.603 140.219 188.598 140.297 188.577 140.371C188.555 140.445 188.519 140.513 188.47 140.572C188.415 140.642 188.345 140.699 188.265 140.739C188.185 140.779 188.098 140.8 188.009 140.803Z" fill="#282928"/>
</svg>
