<svg width="279" height="279" viewBox="0 0 279 279" fill="none" xmlns="http://www.w3.org/2000/svg">
<path d="M147.821 134.804C145.557 134.804 142.458 134.179 140.134 131.318C140.036 131.195 139.99 131.039 140.007 130.883C140.024 130.726 140.101 130.583 140.223 130.484C140.282 130.431 140.352 130.392 140.427 130.368C140.502 130.343 140.582 130.335 140.66 130.344C140.739 130.352 140.815 130.377 140.883 130.416C140.952 130.456 141.011 130.509 141.058 130.573C144.723 135.043 150.384 133.344 150.622 133.255C150.773 133.208 150.935 133.223 151.075 133.295C151.214 133.368 151.319 133.493 151.367 133.642C151.395 133.717 151.407 133.796 151.402 133.875C151.397 133.954 151.375 134.031 151.339 134.101C151.302 134.171 151.252 134.233 151.19 134.282C151.128 134.331 151.056 134.367 150.98 134.387C149.954 134.684 148.889 134.824 147.821 134.804Z" fill="#282928"/>
<path d="M133.073 118.744C132.238 118.739 131.407 118.629 130.6 118.416C118.621 115.228 113.883 89.7513 113.675 88.6786C113.649 88.5247 113.684 88.3667 113.773 88.2385C113.862 88.1104 113.998 88.0223 114.152 87.9933C114.309 87.9664 114.471 88.0008 114.604 88.0895C114.737 88.1781 114.831 88.3143 114.867 88.4701C114.897 88.7382 119.664 114.274 130.898 117.254C135.427 118.476 140.522 115.794 146.034 109.298C146.083 109.236 146.144 109.185 146.214 109.149C146.284 109.112 146.36 109.09 146.439 109.084C146.517 109.079 146.596 109.09 146.67 109.116C146.744 109.143 146.812 109.184 146.869 109.239C146.933 109.285 146.986 109.345 147.026 109.413C147.065 109.481 147.09 109.557 147.098 109.636C147.107 109.715 147.099 109.794 147.075 109.869C147.05 109.945 147.011 110.014 146.958 110.073C142.071 115.824 137.393 118.744 133.073 118.744Z" fill="#282928"/>
<path d="M130.808 102.594C130.555 102.614 130.302 102.573 130.068 102.474C129.835 102.376 129.629 102.223 129.467 102.028C128.394 100.836 129.467 98.2137 129.705 97.7072C129.77 97.5665 129.888 97.4567 130.032 97.4011C130.177 97.3455 130.337 97.3484 130.48 97.4092C130.628 97.4748 130.745 97.5952 130.806 97.7453C130.867 97.8953 130.868 98.0633 130.808 98.2137C130.361 99.197 129.973 100.806 130.361 101.253C130.748 101.7 130.957 101.432 131.523 101.283C131.599 101.251 131.681 101.236 131.764 101.238C131.846 101.239 131.928 101.258 132.003 101.293C132.078 101.328 132.144 101.378 132.199 101.44C132.253 101.502 132.294 101.575 132.319 101.654C132.344 101.733 132.352 101.816 132.343 101.898C132.334 101.98 132.308 102.059 132.267 102.131C132.226 102.203 132.17 102.265 132.104 102.314C132.037 102.363 131.961 102.397 131.88 102.415C131.533 102.523 131.172 102.583 130.808 102.594Z" fill="#282928"/>
<path d="M169.633 123.809C165.998 123.809 162.065 123.273 160.307 121.157L160.247 121.098V121.008L149.61 96.3363L149.908 96.0681C149.937 96.0383 152.917 93.1182 152.858 90.4961C152.855 90.0747 152.76 89.6591 152.58 89.2782C152.4 88.8973 152.139 88.5604 151.815 88.2911C150.98 87.576 150.265 87.3078 149.699 87.4866C148.537 87.9037 147.882 90.1385 147.733 90.943C147.697 91.0988 147.603 91.235 147.47 91.3236C147.337 91.4123 147.175 91.4467 147.017 91.4198C146.864 91.3908 146.728 91.3027 146.639 91.1745C146.55 91.0464 146.515 90.8884 146.541 90.7345C146.63 90.3769 147.256 87.0694 149.312 86.3841C150.325 86.0265 151.427 86.3841 152.589 87.3972C153.039 87.7738 153.402 88.2429 153.654 88.7726C153.906 89.3022 154.041 89.8799 154.049 90.4663C154.109 93.0884 151.874 95.7404 151.04 96.6045L161.26 120.472C163.972 123.541 173.537 122.617 177.023 121.992C177.104 121.965 177.19 121.956 177.274 121.966C177.359 121.975 177.44 122.003 177.514 122.047C177.587 122.09 177.649 122.149 177.698 122.219C177.746 122.289 177.779 122.369 177.794 122.453C177.809 122.537 177.806 122.623 177.785 122.705C177.764 122.788 177.726 122.865 177.672 122.931C177.619 122.998 177.552 123.052 177.476 123.09C177.4 123.129 177.317 123.15 177.232 123.154C174.721 123.576 172.18 123.795 169.633 123.809Z" fill="#282928"/>
<path d="M124.222 72.5584C123.06 70.8898 121.749 74.1377 120.229 75.4785C118.71 76.8194 118.65 77.8921 118.918 80.693C119.484 86.5332 119.306 84.0601 117.667 89.8407C116.028 95.6213 120.855 108.792 120.855 108.792C120.855 108.792 127.083 119.459 133.787 118.654L138.703 117.016C138.703 117.016 145.05 128.785 142.488 132.272C139.925 135.758 141.296 142.79 138.316 145.77C135.336 148.749 134.77 154.56 128.274 153.726C122.255 152.951 126.755 149.703 127.291 143.297C127.828 136.89 129.496 136.116 122.494 134.477C115.492 132.838 114.896 133.136 115.402 121.694C115.909 110.252 110.754 113.47 106.433 100.448C102.113 87.4272 106.642 93.9527 106.225 82.7192C105.808 71.4857 110.277 60.1331 122.226 58.9412C134.174 57.7493 130.777 53.7267 140.908 55.1868C151.039 56.6468 169.752 70.6514 169.484 82.9874C169.216 95.3234 165.64 98.4521 175.741 104.62C185.842 110.788 196.093 112.874 195.646 119.578L195.348 123.839C195.333 124.11 195.252 124.373 195.113 124.606C194.974 124.839 194.78 125.034 194.548 125.175C194.316 125.316 194.053 125.398 193.782 125.415C193.512 125.431 193.241 125.381 192.994 125.269C189.448 123.69 182.654 121.038 180.568 122.707C177.708 125.031 165.312 126.67 160.753 120.77C157.207 116.211 150.324 96.4855 150.324 96.4855C150.324 96.4855 157.178 85.252 148.656 87.457C141.028 89.4236 129.645 80.2461 124.222 72.5584Z" fill="#282928"/>
<path d="M119.753 93.0291H119.664C119.508 93 119.37 92.9132 119.276 92.786C119.182 92.6589 119.14 92.5009 119.157 92.3438C119.217 92.1054 120.111 87.0995 124.253 86.8909C124.332 86.8825 124.412 86.891 124.488 86.9156C124.563 86.9403 124.633 86.9807 124.692 87.0341C124.751 87.0875 124.798 87.1528 124.83 87.2257C124.862 87.2986 124.879 87.3774 124.878 87.4571C124.882 87.5354 124.871 87.6137 124.845 87.6875C124.818 87.7614 124.778 87.8293 124.725 87.8874C124.672 87.9455 124.609 87.9927 124.538 88.0262C124.467 88.0598 124.39 88.079 124.312 88.0828C121.124 88.2318 120.349 92.4928 120.349 92.5226C120.328 92.6647 120.255 92.7942 120.146 92.8873C120.036 92.9804 119.897 93.0307 119.753 93.0291Z" fill="#282928"/>
<path d="M131.016 86.8013C130.924 86.7992 130.833 86.7767 130.751 86.7355C130.669 86.6942 130.596 86.6353 130.539 86.563C130.458 86.4321 130.425 86.2767 130.447 86.1241C130.469 85.9715 130.544 85.8315 130.658 85.7286C131.88 84.8049 134.86 83.5535 137.422 85.4009C137.487 85.4459 137.542 85.5032 137.584 85.5694C137.627 85.6357 137.656 85.7097 137.67 85.7872C137.684 85.8646 137.682 85.9441 137.665 86.021C137.648 86.0978 137.616 86.1706 137.571 86.2352C137.526 86.2998 137.469 86.3548 137.403 86.3973C137.337 86.4397 137.263 86.4686 137.185 86.4825C137.108 86.4963 137.028 86.4947 136.951 86.4779C136.874 86.461 136.802 86.4292 136.737 86.3842C134.234 84.5964 131.493 86.5928 131.374 86.6821C131.325 86.7253 131.269 86.7581 131.207 86.7786C131.146 86.7991 131.081 86.8068 131.016 86.8013Z" fill="#282928"/>
<path d="M137.274 108.941C135.784 108.941 134.354 108.643 133.4 108.017C133.194 107.895 133.026 107.716 132.918 107.502C132.81 107.288 132.766 107.047 132.792 106.808C132.817 106.57 132.91 106.343 133.06 106.156C133.21 105.969 133.411 105.829 133.639 105.753C135.337 105.097 138.436 103.488 140.194 100.24C140.82 99.078 141.445 98.5119 142.131 98.5417C142.816 98.5715 143.055 98.7503 143.442 99.674C144.217 101.372 144.336 105.484 143.055 107.004C141.773 108.524 139.598 108.941 137.274 108.941ZM142.071 99.7336C142.071 99.7336 141.773 99.7932 141.237 100.806C139.3 104.412 135.903 106.14 134.056 106.855C134.026 106.885 133.996 106.915 133.996 106.944C133.996 106.974 134.026 107.004 134.026 107.004C136.142 108.375 140.939 107.689 142.161 106.229C142.846 105.395 143.055 102.654 142.578 100.747C142.369 100.002 142.131 99.7634 142.071 99.7336Z" fill="#282928"/>
<path d="M112.571 165.793C108.757 165.793 105.569 165.406 103.006 164.691C101.785 164.333 100.623 163.916 99.55 163.499C98.9012 163.234 98.368 162.746 98.0459 162.124C97.7238 161.501 97.6338 160.785 97.792 160.102C101.159 145.531 118.114 121.991 118.829 121.008C118.873 120.943 118.931 120.888 118.997 120.845C119.063 120.802 119.137 120.773 119.215 120.76C119.292 120.746 119.372 120.747 119.449 120.764C119.526 120.782 119.599 120.814 119.663 120.859C119.726 120.906 119.778 120.965 119.818 121.032C119.858 121.1 119.884 121.174 119.895 121.252C119.906 121.329 119.902 121.408 119.883 121.484C119.863 121.56 119.829 121.631 119.782 121.694C119.603 121.932 102.262 146.038 98.9541 160.37C98.8526 160.777 98.9024 161.207 99.0943 161.579C99.2861 161.952 99.607 162.242 99.997 162.396C101.086 162.841 102.2 163.219 103.334 163.529C107.178 164.661 112.601 164.899 119.454 164.244L120.021 164.184C120.099 164.18 120.177 164.192 120.251 164.218C120.325 164.244 120.393 164.285 120.451 164.337C120.509 164.39 120.556 164.453 120.59 164.524C120.623 164.595 120.643 164.672 120.646 164.75C120.655 164.827 120.647 164.905 120.624 164.978C120.601 165.052 120.563 165.12 120.513 165.179C120.463 165.237 120.401 165.285 120.332 165.319C120.263 165.353 120.187 165.372 120.11 165.376L119.544 165.436C117.041 165.674 114.717 165.793 112.571 165.793Z" fill="#282928"/>
<path d="M109.95 193.534C109.492 193.536 109.034 193.506 108.579 193.445C104.646 192.908 102.471 187.724 102.054 178.07C101.923 173.385 102.102 168.696 102.59 164.035C102.597 163.958 102.62 163.883 102.658 163.815C102.695 163.746 102.746 163.687 102.808 163.639C102.869 163.592 102.94 163.557 103.015 163.538C103.09 163.519 103.169 163.516 103.246 163.529C103.324 163.536 103.4 163.559 103.47 163.596C103.539 163.633 103.601 163.684 103.65 163.744C103.7 163.805 103.738 163.876 103.76 163.951C103.783 164.027 103.79 164.106 103.782 164.184C102.888 171.663 102.084 191.329 108.728 192.283C112.9 192.849 120.707 190.197 130.152 184.953C140.283 179.351 151.308 171.335 161.201 162.456C161.255 162.39 161.322 162.336 161.398 162.298C161.475 162.261 161.558 162.24 161.643 162.237C161.728 162.234 161.813 162.249 161.892 162.282C161.97 162.315 162.041 162.364 162.099 162.426C162.157 162.489 162.201 162.563 162.228 162.643C162.255 162.724 162.264 162.81 162.256 162.894C162.247 162.979 162.22 163.061 162.177 163.134C162.133 163.208 162.075 163.271 162.005 163.32C142.965 180.453 120.26 193.534 109.95 193.534Z" fill="#282928"/>
<path d="M114.748 173.689L114.48 173.629C114.409 173.595 114.346 173.546 114.294 173.487C114.242 173.427 114.203 173.358 114.178 173.283C114.153 173.208 114.143 173.129 114.149 173.051C114.154 172.972 114.176 172.895 114.212 172.825C114.271 172.706 115.612 169.964 120.439 169.16C120.593 169.134 120.751 169.169 120.879 169.258C121.007 169.347 121.095 169.483 121.124 169.637C121.142 169.794 121.1 169.952 121.006 170.079C120.912 170.206 120.773 170.293 120.618 170.322C116.476 171.007 115.314 173.242 115.284 173.331C115.233 173.432 115.157 173.518 115.063 173.581C114.969 173.643 114.861 173.681 114.748 173.689Z" fill="#282928"/>
<path d="M193.709 144.072C193.606 144.067 193.506 144.038 193.418 143.986C193.33 143.934 193.256 143.861 193.202 143.774C193.16 143.708 193.132 143.634 193.119 143.557C193.107 143.48 193.111 143.402 193.13 143.326C193.15 143.25 193.185 143.18 193.233 143.118C193.281 143.057 193.342 143.006 193.411 142.969C195.169 141.867 202.707 134.745 205.002 132.362C205.066 132.308 205.116 132.239 205.147 132.161C205.179 132.083 205.19 131.998 205.18 131.915C205.178 131.83 205.158 131.747 205.122 131.67C205.086 131.593 205.035 131.524 204.972 131.468L194.185 122.38C194.072 122.267 194.003 122.118 193.992 121.959C193.981 121.8 194.029 121.642 194.126 121.515C194.229 121.398 194.375 121.326 194.531 121.315C194.687 121.304 194.841 121.354 194.96 121.456L205.747 130.544C205.934 130.709 206.086 130.91 206.194 131.135C206.301 131.361 206.362 131.606 206.372 131.855C206.389 132.102 206.352 132.349 206.265 132.58C206.177 132.812 206.041 133.022 205.866 133.196C203.601 135.55 195.943 142.791 194.007 143.982C193.919 144.043 193.815 144.074 193.709 144.072Z" fill="#282928"/>
<path d="M190.253 144.071L190.044 144.012C189.973 143.985 189.908 143.945 189.852 143.893C189.797 143.841 189.753 143.778 189.722 143.709C189.692 143.639 189.675 143.564 189.674 143.488C189.673 143.412 189.688 143.337 189.716 143.267C190.431 141.389 191.921 139.959 193.411 138.648L197.583 135.102C197.639 135.04 197.708 134.99 197.786 134.956C197.863 134.922 197.947 134.905 198.031 134.905C198.116 134.906 198.199 134.925 198.275 134.961C198.352 134.996 198.42 135.047 198.476 135.111C198.531 135.175 198.572 135.25 198.596 135.331C198.62 135.411 198.627 135.497 198.616 135.58C198.605 135.664 198.576 135.744 198.531 135.816C198.487 135.888 198.428 135.949 198.357 135.996L194.186 139.572C192.815 140.764 191.445 142.075 190.819 143.684C190.772 143.796 190.694 143.893 190.594 143.962C190.493 144.031 190.374 144.069 190.253 144.071Z" fill="#282928"/>
<path d="M193.56 158.017C193.431 158.019 193.305 157.977 193.203 157.897L193.113 157.838C190.849 156.199 190.074 155.633 188.048 155.484C187.968 155.484 187.889 155.468 187.816 155.436C187.744 155.404 187.678 155.357 187.625 155.297C187.571 155.238 187.531 155.169 187.506 155.093C187.482 155.017 187.473 154.937 187.482 154.858C187.485 154.781 187.505 154.705 187.539 154.636C187.572 154.567 187.62 154.505 187.679 154.455C187.737 154.405 187.806 154.367 187.879 154.344C187.953 154.321 188.031 154.313 188.107 154.322C190.491 154.471 191.474 155.186 193.799 156.854L193.918 156.944C193.983 156.985 194.039 157.04 194.081 157.105C194.123 157.169 194.151 157.242 194.162 157.319C194.173 157.395 194.168 157.473 194.146 157.547C194.125 157.621 194.088 157.69 194.037 157.748C193.987 157.83 193.917 157.897 193.833 157.944C193.75 157.991 193.656 158.016 193.56 158.017Z" fill="#282928"/>
<path d="M190.371 195.59C190.236 195.595 190.103 195.553 189.995 195.471C189.887 195.39 189.809 195.274 189.775 195.143L183.995 169.875C183.977 169.799 183.975 169.72 183.988 169.643C184.001 169.566 184.029 169.492 184.07 169.425C184.112 169.359 184.166 169.301 184.23 169.256C184.293 169.21 184.365 169.178 184.442 169.16C184.518 169.138 184.598 169.132 184.677 169.143C184.756 169.154 184.832 169.182 184.899 169.224C184.967 169.266 185.024 169.322 185.069 169.388C185.113 169.454 185.143 169.529 185.157 169.607L190.938 194.875C190.955 194.951 190.958 195.03 190.945 195.108C190.932 195.185 190.904 195.259 190.862 195.325C190.821 195.392 190.767 195.449 190.703 195.495C190.639 195.54 190.567 195.573 190.491 195.59H190.371Z" fill="#282928"/>
<path d="M121.213 96.3963H120.945C120.79 96.3815 120.645 96.309 120.541 96.1933C120.436 96.0775 120.378 95.9267 120.379 95.7706C120.383 95.6923 120.402 95.6155 120.435 95.5447C120.469 95.4738 120.516 95.4103 120.574 95.3577C120.632 95.3051 120.7 95.2645 120.774 95.2382C120.848 95.2119 120.926 95.2004 121.005 95.2045C123.746 95.3236 125.981 92.8207 126.011 92.8207C126.119 92.7233 126.258 92.6687 126.404 92.6673C126.549 92.6659 126.69 92.7176 126.8 92.8129C126.91 92.9081 126.981 93.0402 127 93.1844C127.02 93.3285 126.986 93.4747 126.904 93.5954C126.785 93.7146 124.372 96.3963 121.213 96.3963Z" fill="#282928"/>
<path d="M134.829 91.8673C134.491 91.882 134.151 91.862 133.816 91.8077C133.739 91.8005 133.664 91.7775 133.596 91.7401C133.528 91.7027 133.468 91.6516 133.42 91.5901C133.373 91.5286 133.339 91.458 133.32 91.3827C133.3 91.3073 133.297 91.2289 133.31 91.1522C133.321 91.0735 133.347 90.9979 133.388 90.9296C133.428 90.8613 133.482 90.8019 133.546 90.7547C133.61 90.7075 133.682 90.6735 133.759 90.6548C133.837 90.6361 133.917 90.633 133.995 90.6456C134.025 90.6456 136.975 91.033 139.18 89.3941C139.241 89.3431 139.312 89.3054 139.388 89.2836C139.465 89.2618 139.545 89.2563 139.624 89.2676C139.702 89.2788 139.778 89.3065 139.845 89.3488C139.912 89.3912 139.97 89.4472 140.014 89.5133C140.061 89.5759 140.095 89.6472 140.115 89.723C140.134 89.7988 140.138 89.8777 140.127 89.9552C140.116 90.0326 140.09 90.1072 140.05 90.1745C140.01 90.2419 139.957 90.3007 139.895 90.3476C138.137 91.6587 136.051 91.8673 134.829 91.8673Z" fill="#282928"/>
<path d="M128.245 183.821L197.732 183.434L218.113 203.04L209.651 255.691L117.488 256.466L109.801 203.04L128.245 183.821Z" fill="#282928"/>
<path d="M209.532 203.099H118.383C118.264 203.099 118.151 203.052 118.067 202.969C117.983 202.885 117.936 202.771 117.936 202.653C117.936 202.534 117.983 202.42 118.067 202.336C118.151 202.253 118.264 202.206 118.383 202.206H209.532C209.651 202.206 209.764 202.253 209.848 202.336C209.932 202.42 209.979 202.534 209.979 202.653C209.979 202.771 209.932 202.885 209.848 202.969C209.764 203.052 209.651 203.099 209.532 203.099Z" fill="white"/>
<path d="M132.685 203.158C132.576 203.159 132.47 203.12 132.388 203.049C132.306 202.978 132.252 202.879 132.238 202.771L130.569 192.342C130.559 192.221 130.592 192.1 130.663 192.002C130.734 191.903 130.838 191.834 130.957 191.806C131.074 191.796 131.191 191.831 131.284 191.902C131.378 191.974 131.441 192.077 131.463 192.193L133.132 202.622C133.149 202.744 133.119 202.868 133.046 202.968C132.974 203.068 132.866 203.136 132.744 203.158H132.685Z" fill="white"/>
<path d="M196.599 203.04H196.569C196.512 203.04 196.455 203.028 196.402 203.005C196.35 202.983 196.302 202.949 196.263 202.907C196.224 202.865 196.194 202.816 196.175 202.762C196.156 202.707 196.148 202.65 196.152 202.593L196.539 191.925C196.547 191.812 196.597 191.706 196.68 191.628C196.763 191.551 196.873 191.508 196.986 191.508C197.105 191.508 197.218 191.555 197.302 191.639C197.386 191.723 197.433 191.837 197.433 191.955L197.046 202.623C197.038 202.736 196.988 202.842 196.905 202.92C196.822 202.997 196.712 203.04 196.599 203.04Z" fill="white"/>
<path d="M207.415 229.053C207.299 229.055 207.185 229.024 207.087 228.963C207.021 228.924 206.963 228.871 206.918 228.809C206.873 228.746 206.841 228.675 206.824 228.6C206.807 228.524 206.806 228.446 206.821 228.37C206.835 228.295 206.865 228.223 206.908 228.159C207.117 227.771 212.659 219.071 219.87 217.462C221.168 217.158 222.514 217.123 223.826 217.358C225.138 217.594 226.387 218.096 227.498 218.832C227.628 218.923 227.719 219.059 227.752 219.214C227.785 219.369 227.758 219.531 227.677 219.667C227.592 219.794 227.46 219.884 227.31 219.917C227.161 219.951 227.004 219.925 226.872 219.845C225.888 219.191 224.78 218.746 223.617 218.536C222.453 218.326 221.26 218.356 220.108 218.624C213.404 220.143 207.951 228.695 207.921 228.784C207.864 228.866 207.789 228.933 207.701 228.98C207.613 229.027 207.515 229.052 207.415 229.053Z" fill="#FBBC1B"/>
<path d="M227.707 218.772L233.815 217.312C234.053 217.241 234.308 217.263 234.53 217.372L247.611 223.093C247.76 223.159 247.893 223.256 248.001 223.376C248.11 223.497 248.193 223.639 248.243 223.793C248.294 223.948 248.311 224.111 248.295 224.273C248.278 224.434 248.228 224.591 248.148 224.732L243.559 232.688C243.414 232.946 243.174 233.138 242.89 233.221C242.606 233.305 242.301 233.274 242.039 233.135L228.869 226.281C228.722 226.206 228.594 226.101 228.491 225.973C228.388 225.844 228.314 225.696 228.273 225.536L226.872 220.173C226.832 220.026 226.822 219.873 226.843 219.722C226.863 219.571 226.914 219.426 226.992 219.295C227.07 219.165 227.173 219.051 227.296 218.961C227.419 218.871 227.559 218.807 227.707 218.772Z" fill="white"/>
<path d="M242.547 233.85C242.269 233.847 241.995 233.787 241.742 233.671L228.572 226.788C228.358 226.676 228.17 226.52 228.021 226.33C227.872 226.14 227.765 225.92 227.708 225.685L226.307 220.322C226.247 220.097 226.232 219.864 226.262 219.633C226.293 219.403 226.369 219.181 226.486 218.981C226.604 218.778 226.763 218.601 226.953 218.463C227.143 218.325 227.359 218.227 227.588 218.176L233.667 216.716C234.035 216.627 234.421 216.658 234.77 216.806L247.85 222.527C248.075 222.63 248.275 222.779 248.44 222.963C248.604 223.148 248.728 223.364 248.804 223.599C248.883 223.835 248.911 224.084 248.885 224.331C248.86 224.578 248.781 224.816 248.655 225.03L244.066 232.985C243.915 233.254 243.694 233.476 243.426 233.628C243.158 233.78 242.854 233.857 242.547 233.85ZM227.857 219.338C227.781 219.355 227.71 219.387 227.649 219.433C227.587 219.48 227.536 219.539 227.499 219.607C227.434 219.735 227.413 219.882 227.44 220.024L228.84 225.387C228.863 225.464 228.901 225.535 228.953 225.596C229.004 225.658 229.067 225.708 229.138 225.745L242.308 232.598C242.37 232.635 242.439 232.658 242.511 232.668C242.583 232.677 242.656 232.672 242.725 232.652C242.795 232.633 242.86 232.6 242.916 232.554C242.972 232.509 243.019 232.453 243.053 232.39L247.642 224.434C247.711 224.284 247.722 224.114 247.672 223.957C247.648 223.884 247.61 223.817 247.558 223.761C247.507 223.704 247.444 223.659 247.374 223.629L234.293 217.908C234.178 217.869 234.055 217.859 233.935 217.878L227.857 219.338Z" fill="#282928"/>
<path d="M174.55 245.739L135.904 246.126C134.955 246.126 134.046 245.75 133.375 245.079C132.705 244.408 132.328 243.499 132.328 242.551L130.123 221.395C130.123 220.446 130.5 219.537 131.17 218.866C131.841 218.196 132.75 217.819 133.699 217.819H177.053C178.002 217.819 178.911 218.196 179.582 218.866C180.252 219.537 180.629 220.446 180.629 221.395L178.126 242.163C178.126 243.112 177.749 244.021 177.079 244.692C176.408 245.362 175.499 245.739 174.55 245.739Z" fill="white"/>
<path d="M135.903 246.722C134.802 246.722 133.745 246.287 132.964 245.511C132.182 244.735 131.739 243.682 131.731 242.58L129.526 221.395C129.526 220.288 129.966 219.227 130.748 218.445C131.531 217.663 132.592 217.223 133.698 217.223H177.053C178.159 217.223 179.22 217.663 180.002 218.445C180.785 219.227 181.224 220.288 181.224 221.395V221.454L178.721 242.193C178.706 243.292 178.26 244.341 177.48 245.115C176.701 245.889 175.649 246.327 174.55 246.335L135.903 246.722ZM130.718 221.365L132.923 242.551C132.923 243.341 133.237 244.099 133.796 244.658C134.355 245.216 135.113 245.53 135.903 245.53L174.55 245.143C175.34 245.143 176.098 244.829 176.657 244.27C177.215 243.711 177.529 242.954 177.529 242.163V242.104L180.032 221.365C180.024 220.58 179.707 219.83 179.149 219.277C178.591 218.725 177.838 218.415 177.053 218.415H133.698C133.308 218.411 132.921 218.485 132.56 218.631C132.199 218.777 131.87 218.994 131.593 219.268C131.316 219.543 131.096 219.869 130.946 220.229C130.796 220.589 130.718 220.975 130.718 221.365Z" fill="#282928"/>
<path d="M169.365 226.013H140.462C140.304 226.013 140.153 225.95 140.041 225.839C139.929 225.727 139.866 225.575 139.866 225.417C139.866 225.259 139.929 225.108 140.041 224.996C140.153 224.884 140.304 224.821 140.462 224.821H169.365C169.523 224.821 169.675 224.884 169.787 224.996C169.898 225.108 169.961 225.259 169.961 225.417C169.961 225.575 169.898 225.727 169.787 225.839C169.675 225.95 169.523 226.013 169.365 226.013Z" fill="#282928"/>
<path d="M163.882 233.939H138.942C138.784 233.939 138.632 233.877 138.521 233.765C138.409 233.653 138.346 233.501 138.346 233.343C138.346 233.185 138.409 233.034 138.521 232.922C138.632 232.81 138.784 232.747 138.942 232.747H163.882C164.04 232.747 164.192 232.81 164.304 232.922C164.415 233.034 164.478 233.185 164.478 233.343C164.478 233.501 164.415 233.653 164.304 233.765C164.192 233.877 164.04 233.939 163.882 233.939Z" fill="#282928"/>
<path d="M155.659 240.643H142.876C142.718 240.643 142.567 240.58 142.455 240.468C142.343 240.356 142.28 240.205 142.28 240.047C142.28 239.889 142.343 239.737 142.455 239.625C142.567 239.514 142.718 239.451 142.876 239.451H155.659C155.817 239.451 155.969 239.514 156.081 239.625C156.192 239.737 156.255 239.889 156.255 240.047C156.255 240.205 156.192 240.356 156.081 240.468C155.969 240.58 155.817 240.643 155.659 240.643Z" fill="#282928"/>
<path d="M170.884 120.86L149.967 125.806C149.623 125.885 149.3 126.034 149.015 126.242C148.731 126.451 148.493 126.715 148.314 127.019C148.136 127.323 148.021 127.66 147.977 128.01C147.934 128.36 147.962 128.715 148.06 129.054L157.744 162.844C158.185 164.65 158.176 166.537 157.719 168.34C157.262 170.142 156.37 171.805 155.122 173.183C148.775 180.215 137.124 188.35 135.813 189.244C135.724 189.274 135.664 189.363 135.605 189.423C133.31 192.313 136.945 197.766 140.402 196.306C140.402 196.306 151.576 194.488 155.867 192.402C158.042 191.359 162.958 188.29 165.163 187.069L174.341 180.483C174.678 180.296 175.039 180.156 175.413 180.066L176.337 179.858C177.376 179.615 178.469 179.792 179.378 180.35C180.287 180.908 180.94 181.801 181.194 182.837L181.313 183.314C181.432 183.828 181.652 184.313 181.96 184.742C182.267 185.17 182.657 185.533 183.106 185.81C183.555 186.087 184.054 186.273 184.575 186.356C185.096 186.439 185.628 186.418 186.14 186.294C187.157 186.065 188.045 185.448 188.613 184.574C189.18 183.699 189.384 182.638 189.18 181.616L186.587 168.594H186.617L174.013 122.707C173.831 122.055 173.404 121.498 172.82 121.154C172.237 120.809 171.543 120.704 170.884 120.86Z" fill="#FBBC1B"/>
<path d="M86.3801 192.402L61.6784 193.355C61.2736 193.37 60.876 193.467 60.5099 193.64C60.1438 193.813 59.8169 194.059 59.5492 194.363C59.2815 194.667 59.0785 195.023 58.9528 195.408C58.827 195.793 58.7811 196.2 58.8179 196.603L62.2743 236.859C62.3624 238.989 61.931 241.108 61.0173 243.034C60.1037 244.96 58.7352 246.634 57.03 247.913C48.3293 254.469 33.3712 261.054 31.7025 261.769C31.5969 261.8 31.5033 261.862 31.4344 261.948C28.1865 264.689 31.0768 271.632 35.308 270.768C35.308 270.768 48.3293 271.155 53.6332 269.784C56.3149 269.099 62.5425 266.715 65.2838 265.821L77.0834 260.428C77.4934 260.275 77.927 260.194 78.3647 260.19L79.497 260.13C80.725 260.09 81.919 260.538 82.818 261.375C83.7169 262.213 84.2477 263.372 84.2943 264.6V265.136C84.3135 265.745 84.4531 266.345 84.705 266.9C84.957 267.455 85.3163 267.954 85.7622 268.37C86.2082 268.785 86.732 269.108 87.3034 269.321C87.8748 269.533 88.4826 269.63 89.0916 269.606C90.2879 269.552 91.4174 269.039 92.2445 268.173C93.0716 267.307 93.5326 266.155 93.5314 264.957V249.731H93.5612L89.479 195.173C89.4181 194.401 89.062 193.682 88.4849 193.166C87.9078 192.65 87.1539 192.376 86.3801 192.402Z" fill="#FBBC1B"/>
<path d="M77.3217 247.02C77.2448 247.024 77.168 247.012 77.0958 246.986C77.0237 246.959 76.9577 246.918 76.9019 246.865C76.8462 246.812 76.8018 246.748 76.7715 246.678C76.7412 246.607 76.7256 246.531 76.7257 246.454L74.4909 202.473C74.4826 202.394 74.491 202.314 74.5156 202.238C74.5403 202.163 74.5807 202.093 74.6341 202.034C74.6876 201.975 74.7528 201.928 74.8257 201.896C74.8986 201.864 74.9774 201.847 75.0571 201.848C75.1354 201.844 75.2137 201.855 75.2875 201.881C75.3614 201.908 75.4293 201.948 75.4874 202.001C75.5455 202.053 75.5927 202.117 75.6263 202.188C75.6598 202.259 75.679 202.335 75.6828 202.414L77.9176 246.394C77.9183 246.55 77.8606 246.701 77.7559 246.817C77.6511 246.933 77.5069 247.005 77.3515 247.02H77.3217Z" fill="#282928"/>
<path d="M73.0015 202.235L72.3757 207.956C72.3491 208.186 72.3732 208.418 72.4464 208.638C72.5195 208.857 72.6399 209.058 72.799 209.225C72.9582 209.393 73.1522 209.524 73.3674 209.608C73.5826 209.693 73.8137 209.729 74.0444 209.714L76.6665 209.625C76.9034 209.619 77.1359 209.559 77.3467 209.451C77.5575 209.343 77.7412 209.189 77.8843 209C78.0274 208.811 78.1262 208.592 78.1732 208.36C78.2203 208.128 78.2146 207.888 78.1564 207.658L76.7559 201.997C76.6727 201.637 76.4662 201.318 76.1723 201.095C75.8784 200.872 75.5156 200.759 75.1469 200.775H74.5211C74.1304 200.782 73.7567 200.936 73.4749 201.207C73.1931 201.478 73.024 201.845 73.0015 202.235Z" fill="#282928"/>
<path d="M186.767 163.917C186.767 163.917 183.757 150.776 181.225 149.346C181.225 149.346 192.607 143.059 186.201 143.357C186.201 143.357 188.644 139.93 184.174 140.109C184.174 140.109 186.886 136.92 180.39 138.738L173.865 140.883C173.119 140.181 172.17 139.733 171.153 139.602C169.961 139.483 168.442 140.049 167.071 140.883C163.823 142.91 158.966 145.144 158.966 145.144C158.966 145.144 143.651 150.508 141.535 151.134C139.419 151.759 126.249 155.544 129.616 156.557C132.983 157.57 126.696 160.758 130.57 162.069H133.698C133.698 162.069 131.017 165.317 134.562 164.602C137.393 164.036 143.531 163.41 146.034 163.052C146.183 163.023 146.69 163.619 146.541 163.678C143.859 164.721 136.499 167.85 137.661 169.697C138.823 171.545 144.813 168.833 144.813 168.833C144.813 168.833 163.078 162.218 164.896 163.052C166.713 163.887 188.286 170.8 188.286 170.8L186.767 163.917Z" fill="white"/>
<path d="M177.589 144.16C177.454 144.165 177.321 144.123 177.213 144.041C177.105 143.96 177.027 143.844 176.993 143.713C176.976 143.637 176.973 143.558 176.986 143.481C176.999 143.403 177.027 143.33 177.069 143.263C177.11 143.197 177.164 143.139 177.228 143.094C177.292 143.048 177.364 143.016 177.44 142.998C177.44 142.998 178.96 142.581 181.552 140.853C184.145 139.125 183.698 138.767 183.698 138.737C183.603 138.626 183.479 138.543 183.34 138.499C182.297 138.201 174.848 141.002 168.263 143.892C168.117 143.955 167.951 143.958 167.803 143.899C167.655 143.841 167.536 143.725 167.473 143.579C167.41 143.433 167.407 143.268 167.466 143.12C167.525 142.972 167.64 142.853 167.786 142.79C171.064 141.359 181.94 136.711 183.757 137.367C184.651 137.694 184.83 138.29 184.86 138.618C184.979 139.542 184.115 140.585 182.208 141.866C179.437 143.713 177.798 144.13 177.708 144.16H177.589Z" fill="#282928"/>
<path d="M194.662 172.408C193.478 172.388 192.3 172.248 191.145 171.991C188.076 171.365 182.296 169.339 176.724 167.372C171.152 165.406 164.566 163.111 163.613 163.32L161.944 163.886C147.046 168.981 139.865 171.246 138.613 171.246C138.146 171.249 137.692 171.091 137.328 170.797C136.964 170.504 136.713 170.094 136.617 169.637C136.379 168.684 136.766 167.343 138.524 166.479C139.239 166.091 140.282 165.614 141.384 165.108L143.947 163.886C137.421 165.138 133.697 165.555 132.862 165.078C132.549 164.915 132.294 164.657 132.134 164.342C131.974 164.027 131.916 163.67 131.969 163.32C132.072 162.768 132.324 162.255 132.696 161.835C133.069 161.415 133.549 161.105 134.084 160.936C134.889 160.728 145.198 158.344 145.943 158.344C146.101 158.344 146.253 158.407 146.365 158.518C146.477 158.63 146.539 158.782 146.539 158.94C146.539 159.098 146.477 159.25 146.365 159.361C146.253 159.473 146.101 159.536 145.943 159.536C145.228 159.566 135.812 161.741 134.352 162.098C134.052 162.205 133.785 162.387 133.576 162.627C133.367 162.867 133.224 163.157 133.16 163.469C133.122 163.58 133.129 163.701 133.179 163.807C133.229 163.913 133.319 163.995 133.429 164.035C134.054 164.303 138.405 163.827 146.718 162.128C146.895 162.089 147.081 162.115 147.24 162.203C147.4 162.291 147.521 162.434 147.582 162.605C147.655 162.772 147.662 162.96 147.601 163.132C147.541 163.303 147.416 163.445 147.254 163.529C146.033 164.214 143.828 165.257 141.891 166.181L139.06 167.521C137.928 168.088 137.66 168.862 137.779 169.369C137.82 169.561 137.924 169.733 138.076 169.858C138.228 169.982 138.417 170.052 138.613 170.054C139.656 170.054 147.374 167.611 161.557 162.754L163.255 162.188C164.298 161.83 168.291 163.141 177.111 166.24C182.653 168.177 188.404 170.203 191.384 170.829C196.777 171.961 199.876 170.561 200.889 166.538C201.604 163.678 198.029 147.259 196.568 141.181C196.551 141.105 196.548 141.026 196.561 140.948C196.574 140.871 196.602 140.797 196.644 140.731C196.685 140.664 196.739 140.607 196.803 140.561C196.867 140.516 196.939 140.483 197.015 140.466C197.09 140.443 197.168 140.437 197.245 140.446C197.322 140.455 197.397 140.48 197.464 140.519C197.531 140.558 197.589 140.611 197.635 140.673C197.681 140.736 197.713 140.807 197.731 140.883C197.939 141.807 202.975 163.082 202.051 166.836C201.127 170.591 198.654 172.408 194.662 172.408Z" fill="#282928"/>
<path d="M159.234 145.173C159.13 145.175 159.028 145.148 158.939 145.095C158.849 145.043 158.776 144.967 158.727 144.876C158.653 144.737 158.636 144.575 158.681 144.424C158.725 144.273 158.828 144.147 158.966 144.071C159.83 143.594 167.577 139.423 169.544 139.035L169.871 138.976C170.825 138.767 171.033 138.737 171.987 138.916C172.94 139.095 173.715 139.929 173.805 140.615C173.841 140.773 173.822 140.938 173.752 141.085C173.681 141.231 173.563 141.349 173.417 141.419C172.315 142.015 170.765 142.82 169.752 143.266C169.606 143.325 169.442 143.324 169.297 143.263C169.152 143.201 169.037 143.085 168.977 142.939C168.943 142.869 168.924 142.792 168.92 142.715C168.917 142.637 168.929 142.559 168.957 142.486C168.985 142.414 169.028 142.347 169.083 142.292C169.137 142.237 169.203 142.193 169.275 142.164C170.364 141.692 171.428 141.165 172.464 140.585C172.265 140.373 172.021 140.209 171.749 140.108C171.004 139.959 170.944 139.959 170.11 140.138L169.782 140.197C168.262 140.495 161.856 143.833 159.532 145.114L159.234 145.173Z" fill="#282928"/>
<path d="M175.742 149.644L175.414 149.554C175.289 149.459 175.204 149.321 175.177 149.166C175.149 149.012 175.181 148.852 175.265 148.72C175.444 148.452 175.98 148.094 179.496 146.038C182.178 144.459 185.485 142.492 186.32 141.748C186.498 141.599 186.677 141.33 186.558 141.122C186.439 140.913 185.158 140.526 182.982 141.39C182.909 141.425 182.829 141.445 182.748 141.448C182.667 141.451 182.586 141.437 182.51 141.408C182.434 141.379 182.365 141.334 182.307 141.277C182.249 141.22 182.203 141.152 182.173 141.076C182.142 141.001 182.127 140.92 182.129 140.839C182.131 140.757 182.15 140.677 182.184 140.603C182.218 140.53 182.266 140.463 182.327 140.409C182.387 140.355 182.458 140.313 182.535 140.287C186.171 138.827 187.303 140.079 187.571 140.496C187.839 140.913 187.81 142.016 187.094 142.641C186.379 143.267 182.953 145.383 180.092 147.051C178.423 148.064 176.516 149.167 176.219 149.435C176.091 149.562 175.921 149.637 175.742 149.644Z" fill="#282928"/>
<path d="M178.185 152.831C178.093 152.829 178.003 152.806 177.92 152.765C177.838 152.724 177.765 152.665 177.708 152.593C177.657 152.532 177.62 152.461 177.598 152.384C177.576 152.308 177.571 152.228 177.582 152.149C177.593 152.07 177.621 151.995 177.663 151.927C177.706 151.86 177.762 151.802 177.828 151.758C181.195 149.345 186.707 145.292 187.154 144.756C187.601 144.22 187.422 144.1 187.333 143.981C187.243 143.862 186.35 143.624 184.174 144.696C184.104 144.732 184.027 144.754 183.949 144.759C183.87 144.765 183.791 144.755 183.716 144.73C183.641 144.705 183.572 144.666 183.513 144.614C183.453 144.562 183.405 144.499 183.37 144.428C183.335 144.36 183.314 144.286 183.308 144.209C183.303 144.133 183.313 144.056 183.338 143.983C183.363 143.911 183.403 143.844 183.454 143.788C183.506 143.731 183.568 143.685 183.638 143.653C186.499 142.193 187.72 142.611 188.227 143.207C188.733 143.802 188.674 144.667 188.108 145.441C187.541 146.216 180.658 151.192 178.543 152.712C178.441 152.791 178.315 152.833 178.185 152.831Z" fill="#282928"/>
<path d="M132.357 162.308C131.136 162.308 129.586 162.129 128.901 161.295C128.717 161.075 128.595 160.81 128.548 160.527C128.501 160.244 128.53 159.953 128.633 159.686C129.467 157.004 138.287 155.574 140.075 155.306C140.151 155.293 140.23 155.296 140.305 155.315C140.381 155.334 140.451 155.369 140.513 155.416C140.574 155.464 140.625 155.523 140.663 155.591C140.7 155.66 140.723 155.735 140.73 155.812C140.756 155.966 140.721 156.124 140.632 156.252C140.543 156.38 140.407 156.468 140.254 156.497C136.171 157.093 130.212 158.583 129.765 160.013C129.722 160.098 129.703 160.191 129.708 160.286C129.713 160.38 129.743 160.471 129.795 160.55C130.301 161.146 132.477 161.205 133.788 161.027C133.866 161.018 133.945 161.026 134.021 161.048C134.096 161.071 134.166 161.108 134.227 161.158C134.288 161.208 134.339 161.269 134.376 161.339C134.413 161.408 134.436 161.484 134.443 161.563C134.456 161.64 134.452 161.718 134.433 161.793C134.414 161.869 134.38 161.939 134.332 162.001C134.285 162.062 134.225 162.113 134.157 162.151C134.089 162.188 134.014 162.211 133.937 162.218C133.412 162.278 132.885 162.308 132.357 162.308Z" fill="#282928"/>
<path d="M159.025 145.203C159.025 145.203 145.617 137.367 143.799 137.277C141.982 137.188 143.71 141.121 145.438 141.747C147.166 142.373 153.245 146.723 153.245 146.723L146.63 149.256L153.245 152.384L159.025 145.203Z" fill="white"/>
<path d="M188.643 155.513H188.613C182.684 155.304 167.964 150.418 167.338 150.209C166.712 150.001 164.18 148.54 159.829 146.067C156.79 144.339 153.632 142.581 153.006 142.283C152.443 142.005 151.896 141.696 151.367 141.359C149.43 140.227 144.335 137.158 143.143 137.754C143.108 137.783 143.079 137.819 143.058 137.86C143.038 137.902 143.026 137.946 143.024 137.992C142.845 139.899 147.851 142.939 151.039 144.399C151.124 144.42 151.202 144.459 151.27 144.514C151.338 144.568 151.392 144.637 151.431 144.715C151.469 144.794 151.489 144.879 151.491 144.966C151.493 145.053 151.475 145.139 151.44 145.219C151.404 145.298 151.352 145.369 151.286 145.426C151.221 145.484 151.143 145.526 151.06 145.55C150.976 145.574 150.888 145.579 150.802 145.566C150.717 145.552 150.635 145.52 150.562 145.471C149.639 145.054 141.504 141.24 141.832 137.873C141.845 137.628 141.924 137.39 142.06 137.186C142.196 136.982 142.385 136.818 142.607 136.711C144.216 135.877 148.119 138.052 151.993 140.346L153.483 141.21C154.168 141.508 157.207 143.207 160.425 145.054C163.643 146.902 167.279 148.928 167.726 149.077C168.172 149.226 182.892 154.142 188.643 154.321C188.804 154.329 188.955 154.398 189.066 154.515C189.177 154.631 189.239 154.786 189.239 154.947C189.231 155.1 189.165 155.244 189.054 155.349C188.943 155.454 188.796 155.513 188.643 155.513Z" fill="#282928"/>
<path d="M132.983 158.105C131.97 158.105 129.109 157.986 128.543 156.705C128.364 156.317 128.305 155.662 129.05 154.887C131.255 152.533 145.259 149.017 146.868 148.63C147.018 148.593 147.177 148.616 147.31 148.694C147.443 148.772 147.541 148.898 147.583 149.047C147.601 149.123 147.603 149.202 147.591 149.279C147.578 149.357 147.55 149.431 147.508 149.497C147.467 149.563 147.412 149.621 147.349 149.666C147.285 149.712 147.213 149.744 147.136 149.762C142.905 150.835 131.582 153.934 129.943 155.692C129.616 156.019 129.616 156.198 129.616 156.198C129.616 156.198 131.493 156.943 133.102 156.913C133.26 156.913 133.412 156.976 133.523 157.088C133.635 157.2 133.698 157.351 133.698 157.509C133.698 157.667 133.635 157.819 133.523 157.931C133.412 158.042 133.26 158.105 133.102 158.105H132.983Z" fill="#282928"/>
<path d="M180.629 154.113C180.518 154.111 180.411 154.079 180.316 154.021C180.222 153.964 180.145 153.882 180.092 153.785C180.057 153.715 180.035 153.638 180.029 153.559C180.024 153.481 180.033 153.402 180.058 153.327C180.083 153.252 180.123 153.183 180.175 153.123C180.227 153.064 180.29 153.016 180.361 152.981C180.897 152.712 182.417 151.819 182.864 151.074C183.311 150.329 183.102 150.329 182.983 150.21C182.864 150.09 182.417 150.031 181.821 150.299C181.754 150.335 181.681 150.358 181.606 150.365C181.531 150.373 181.455 150.365 181.383 150.343C181.311 150.321 181.244 150.284 181.186 150.236C181.128 150.187 181.08 150.128 181.046 150.061C180.972 149.922 180.955 149.76 181 149.609C181.044 149.459 181.147 149.332 181.284 149.256C182.506 148.63 183.4 148.928 183.847 149.405C184.294 149.882 184.383 150.835 183.877 151.67C183.37 152.504 181.135 153.934 180.897 154.053L180.629 154.113Z" fill="#282928"/>
<path d="M187.869 77.595C187.712 77.5951 187.557 77.5538 187.421 77.4754C187.285 77.3969 187.172 77.284 187.094 77.1481C186.081 75.539 181.105 67.2554 182.654 61.5642C182.889 60.6666 183.314 59.8298 183.9 59.1102C184.486 58.3907 185.22 57.805 186.051 57.3926C188.315 56.2305 190.073 56.0815 191.325 56.9755C193.262 58.3163 193.292 61.743 193.053 64.0672C194.811 62.5773 197.612 60.6405 200.204 61.2066C201.784 61.5642 203.035 62.7561 203.87 64.8121C204.165 65.5049 204.302 66.2549 204.271 67.0075C204.24 67.76 204.042 68.4962 203.691 69.1624C201.069 74.2577 190.222 77.0587 188.077 77.5652L187.869 77.595ZM189.418 57.6012C188.673 57.6012 187.72 57.8694 186.587 58.4653C185.898 58.7961 185.289 59.2746 184.805 59.8667C184.321 60.4589 183.973 61.1503 183.786 61.892C182.416 66.9873 187.064 74.8537 187.988 76.3435C189.895 75.8966 200.294 73.1552 202.618 68.5963C202.899 68.0893 203.058 67.5241 203.084 66.9452C203.11 66.3662 203.001 65.7891 202.767 65.259C202.082 63.5904 201.128 62.6369 199.966 62.3687C197.523 61.8324 194.513 64.3353 193.351 65.4378C193.212 65.57 193.035 65.6554 192.844 65.6822C192.654 65.709 192.46 65.6758 192.29 65.5873C192.119 65.4988 191.981 65.3593 191.893 65.1883C191.806 65.0174 191.774 64.8233 191.802 64.6333C192.249 61.2662 191.832 58.7633 190.64 57.9588C190.28 57.7133 189.853 57.5881 189.418 57.6012Z" fill="#282928"/>
<path d="M47.1385 142.731C47.3769 142.761 47.4961 142.552 47.3471 142.373C45.9764 140.883 42.669 136.652 47.3769 135.401C52.7702 133.97 55.7797 145.234 56.1372 146.694C56.1464 146.738 56.1428 146.784 56.127 146.826C56.1112 146.868 56.0837 146.905 56.0478 146.932C54.7368 147.528 45.1123 151.819 42.1624 146.247C39.5403 141.36 45.1123 142.254 47.1385 142.731Z" fill="#FBBC1B"/>
<path d="M80.3611 36.921C80.4059 36.9396 80.4542 36.948 80.5026 36.9456C80.5509 36.9433 80.5982 36.9302 80.6409 36.9074C80.6837 36.8847 80.7208 36.8527 80.7497 36.8138C80.7786 36.7749 80.7986 36.7301 80.8081 36.6826C81.2252 34.9544 83.2216 27.8925 86.4993 33.7923C89.777 39.6921 85.8736 45.0556 85.0095 46.0687C84.9657 46.1177 84.9082 46.1525 84.8444 46.1684C84.7807 46.1843 84.7136 46.1807 84.6519 46.1581C83.1025 45.6813 74.2229 42.9102 72.9119 39.275C71.2432 34.6862 75.2956 35.2226 80.3611 36.921Z" fill="#FBBC1B"/>
<path d="M231.224 139.512C231.224 139.75 231.433 139.87 231.701 139.84C233.936 139.393 243.173 137.933 237.452 144.011C231.731 150.09 223.716 148.898 222.166 148.57C222.09 148.556 222.021 148.516 221.972 148.456C221.923 148.396 221.897 148.32 221.898 148.243C221.838 146.485 221.6 136.413 225.444 133.314C230.241 129.441 231.224 133.702 231.224 139.512Z" fill="#282928"/>
<path d="M119.991 170.441L119.485 165.048C119.306 161.651 120.498 157.42 120.557 157.241C120.605 157.092 120.71 156.967 120.85 156.894C120.989 156.822 121.152 156.807 121.302 156.854C121.375 156.874 121.443 156.909 121.503 156.957C121.562 157.004 121.611 157.063 121.647 157.129C121.683 157.196 121.706 157.269 121.713 157.345C121.72 157.42 121.712 157.497 121.69 157.569C121.69 157.629 120.527 161.77 120.647 164.989L121.064 169.041C123.388 168.624 131.672 166.925 137.124 163.886C137.193 163.84 137.271 163.808 137.353 163.794C137.434 163.78 137.518 163.782 137.599 163.802C137.679 163.822 137.755 163.858 137.821 163.909C137.886 163.96 137.941 164.024 137.98 164.097C138.02 164.169 138.044 164.25 138.05 164.333C138.057 164.415 138.047 164.498 138.019 164.577C137.992 164.655 137.949 164.727 137.892 164.788C137.835 164.848 137.767 164.896 137.691 164.929C131.135 168.594 121.034 170.263 120.617 170.322L119.991 170.441Z" fill="#282928"/>
<path d="M111.977 74.6444L111.768 74.5848C111.693 74.5589 111.625 74.5175 111.567 74.4633C111.509 74.4092 111.463 74.3434 111.432 74.2704C111.401 74.1974 111.386 74.1186 111.387 74.0394C111.389 73.9601 111.407 73.882 111.44 73.8101C111.619 73.4525 115.463 64.7518 121.959 62.3085C122.029 62.2798 122.104 62.2655 122.18 62.2665C122.256 62.2676 122.331 62.2838 122.401 62.3144C122.47 62.345 122.533 62.3893 122.585 62.4445C122.637 62.4998 122.677 62.565 122.704 62.6362C122.763 62.7825 122.761 62.9461 122.7 63.0913C122.638 63.2365 122.522 63.3514 122.376 63.4109C116.357 65.6755 112.573 74.1975 112.543 74.2869C112.495 74.3963 112.416 74.4889 112.315 74.5527C112.214 74.6164 112.096 74.6484 111.977 74.6444Z" fill="white"/>
<path d="M110.396 87.0695L110.158 87.0099C110.084 86.9778 110.018 86.9313 109.963 86.873C109.908 86.8148 109.866 86.7461 109.838 86.671C109.81 86.5959 109.798 86.5159 109.801 86.436C109.805 86.356 109.825 86.2776 109.86 86.2054C110.575 84.656 110.664 80.6036 110.635 79.1733C110.63 79.0965 110.642 79.0197 110.669 78.9475C110.695 78.8753 110.736 78.8093 110.789 78.7536C110.842 78.6978 110.906 78.6534 110.977 78.6231C111.048 78.5928 111.124 78.5773 111.201 78.5774C111.357 78.5767 111.508 78.6343 111.623 78.7391C111.739 78.8438 111.812 78.9881 111.826 79.1435C111.826 79.3819 111.946 84.5964 110.932 86.712C110.887 86.8167 110.812 86.9061 110.717 86.9695C110.622 87.0329 110.51 87.0676 110.396 87.0695Z" fill="white"/>
<path d="M154.645 79.0542H154.556C146.928 77.7134 140.492 70.6515 140.224 70.3535C140.141 70.2357 140.103 70.092 140.118 69.9489C140.133 69.8057 140.2 69.6729 140.305 69.5748C140.41 69.4767 140.548 69.4201 140.692 69.4153C140.835 69.4106 140.976 69.4581 141.088 69.549C141.177 69.6384 147.554 76.6109 154.764 77.8921C154.918 77.9212 155.054 78.0092 155.143 78.1374C155.232 78.2655 155.267 78.4235 155.241 78.5775C155.213 78.7141 155.138 78.8366 155.03 78.9237C154.921 79.0109 154.785 79.057 154.645 79.0542Z" fill="white"/>
<path d="M71.3326 109.775C68.3529 109.775 65.0157 109.387 63.4662 107.868C63.1514 107.554 62.9084 107.176 62.754 106.759C62.5997 106.343 62.5377 105.897 62.5723 105.454C62.6617 104.173 63.1385 103.219 63.9728 102.624C65.4328 101.581 67.5782 101.879 69.1575 102.296C69.2241 102.317 69.2953 102.32 69.3635 102.305C69.4317 102.289 69.4944 102.255 69.5448 102.206C69.5919 102.155 69.627 102.093 69.6476 102.026C69.6682 101.959 69.6738 101.888 69.664 101.819C69.4256 100.359 69.366 98.3029 70.4089 96.9323C70.7176 96.5385 71.1048 96.2133 71.546 95.9773C71.9872 95.7414 72.4726 95.5998 72.9715 95.5616C73.3529 95.5117 73.7406 95.5474 74.1065 95.6659C74.4724 95.7844 74.8074 95.9829 75.0871 96.247C77.2027 98.2732 77.1431 104.203 76.9047 107.54C76.8767 108.071 76.6551 108.574 76.2818 108.953C75.9084 109.331 75.4092 109.56 74.8785 109.596C73.8952 109.685 72.6437 109.775 71.3326 109.775ZM66.5353 103.1C65.8857 103.071 65.2421 103.237 64.6879 103.577C64.1218 103.964 63.8238 104.62 63.7642 105.544C63.7308 105.812 63.7621 106.085 63.8554 106.339C63.9487 106.593 64.1013 106.821 64.3005 107.004C65.6712 108.345 69.5746 108.881 74.7891 108.434C75.032 108.413 75.2592 108.305 75.4289 108.13C75.5986 107.954 75.6994 107.724 75.7128 107.48C76.0704 102.177 75.534 98.3327 74.2826 97.1111C74.1274 96.9678 73.9435 96.8592 73.7432 96.7924C73.5428 96.7256 73.3306 96.7022 73.1205 96.7237C72.3457 96.8429 71.7498 97.1111 71.3624 97.6474C70.5877 98.6903 70.6473 100.389 70.8559 101.64C70.8944 101.909 70.8656 102.183 70.772 102.438C70.6784 102.693 70.5229 102.92 70.3195 103.1C70.122 103.281 69.8815 103.409 69.6209 103.472C69.3602 103.534 69.088 103.53 68.8297 103.458C68.085 103.234 67.3129 103.113 66.5353 103.1Z" fill="#282928"/>
<path d="M170.17 13.5603C170.205 13.6381 170.261 13.7048 170.332 13.7536C170.402 13.8023 170.484 13.8313 170.569 13.8373C170.655 13.8434 170.74 13.8265 170.816 13.7882C170.893 13.75 170.958 13.6918 171.004 13.6199C172.226 12.1003 175.623 8.5544 179.288 11.5043C183.459 14.8416 170.736 22.3802 168.561 23.6317C168.471 23.6796 168.369 23.6996 168.268 23.689C168.168 23.6783 168.072 23.6376 167.995 23.5721C166.475 22.1716 158.728 14.782 162.035 9.95486C165.343 5.12775 168.978 11.4745 170.17 13.5603Z" fill="#282928"/>
<path d="M187.214 154.62C187.214 154.62 185.485 151.878 185.396 147.23L187.214 154.62Z" fill="white"/>
<path d="M187.213 155.215C187.113 155.216 187.014 155.193 186.926 155.146C186.837 155.099 186.762 155.03 186.707 154.947C186.647 154.828 184.889 151.997 184.8 147.229C184.796 147.152 184.807 147.076 184.834 147.003C184.86 146.931 184.902 146.865 184.955 146.81C185.008 146.754 185.071 146.709 185.142 146.679C185.213 146.649 185.289 146.633 185.366 146.633C185.444 146.629 185.522 146.641 185.596 146.667C185.67 146.693 185.738 146.734 185.796 146.787C185.854 146.839 185.901 146.903 185.935 146.974C185.968 147.044 185.988 147.121 185.991 147.199C186.081 151.639 187.72 154.291 187.72 154.321C187.799 154.452 187.825 154.609 187.792 154.759C187.759 154.909 187.669 155.04 187.541 155.125C187.441 155.182 187.328 155.213 187.213 155.215Z" fill="#282928"/>
<path d="M144.097 183.88C144.019 183.884 143.941 183.873 143.867 183.846C143.793 183.82 143.725 183.779 143.667 183.727C143.609 183.674 143.562 183.611 143.528 183.54C143.495 183.469 143.475 183.392 143.471 183.314C143.468 183.236 143.479 183.158 143.505 183.084C143.532 183.01 143.572 182.942 143.625 182.884C143.677 182.826 143.741 182.779 143.812 182.745C143.883 182.712 143.959 182.692 144.038 182.688L155.45 181.199L151.189 178.189C151.071 178.102 150.98 177.982 150.927 177.845C150.875 177.708 150.862 177.559 150.891 177.414C150.922 177.276 150.991 177.149 151.091 177.049C151.192 176.949 151.319 176.879 151.457 176.848L159.174 175.12L154.943 173.749C154.794 173.701 154.669 173.596 154.596 173.457C154.524 173.317 154.509 173.155 154.556 173.004C154.576 172.928 154.612 172.856 154.661 172.795C154.711 172.733 154.772 172.682 154.842 172.645C154.913 172.609 154.99 172.588 155.069 172.583C155.148 172.578 155.227 172.59 155.301 172.617L161.111 174.494C161.266 174.539 161.402 174.634 161.499 174.762C161.595 174.891 161.648 175.048 161.648 175.209C161.635 175.376 161.57 175.534 161.464 175.662C161.357 175.79 161.213 175.882 161.052 175.925L152.709 177.802L157.089 180.901C157.21 180.992 157.3 181.117 157.348 181.261C157.396 181.405 157.399 181.56 157.357 181.705C157.331 181.848 157.258 181.978 157.15 182.075C157.043 182.172 156.906 182.231 156.761 182.242L144.187 183.88H144.097Z" fill="#282928"/>
<path d="M51.0113 261.412H50.9219L38.3178 260.041C38.2404 260.034 38.1653 260.011 38.0972 259.973C38.0291 259.936 37.9694 259.885 37.9219 259.823C37.8744 259.762 37.84 259.691 37.821 259.616C37.8019 259.541 37.7986 259.462 37.8112 259.385C37.8186 259.307 37.8416 259.231 37.8786 259.161C37.9157 259.092 37.9661 259.03 38.0271 258.981C38.0881 258.931 38.1583 258.893 38.2338 258.871C38.3092 258.848 38.3884 258.841 38.4667 258.849L49.9088 260.101L46.4821 256.167C46.3864 256.059 46.3242 255.926 46.3031 255.783C46.2819 255.64 46.3027 255.494 46.3629 255.363C46.419 255.234 46.5103 255.124 46.6263 255.045C46.7422 254.966 46.8782 254.921 47.0185 254.916H47.0483L54.9743 255.065L51.1603 252.741C51.0304 252.65 50.9398 252.514 50.9066 252.359C50.8734 252.204 50.9002 252.042 50.9815 251.906C51.021 251.84 51.0736 251.782 51.1361 251.737C51.1987 251.692 51.2698 251.66 51.3452 251.643C51.4205 251.627 51.4985 251.625 51.5743 251.64C51.6501 251.654 51.7221 251.684 51.786 251.728L57.0005 254.916C57.142 254.997 57.2517 255.124 57.3113 255.275C57.3709 255.427 57.3769 255.595 57.3283 255.75C57.2877 255.908 57.1948 256.046 57.0648 256.144C56.9348 256.241 56.7755 256.292 56.6131 256.287L48.0316 256.138L51.5774 260.19C51.6677 260.298 51.7254 260.43 51.7437 260.57C51.762 260.71 51.7403 260.852 51.6809 260.98C51.6216 261.108 51.5272 261.216 51.4087 261.293C51.2901 261.369 51.1523 261.41 51.0113 261.412Z" fill="#282928"/>
<path d="M171.887 118.491L147.596 125.227C145.693 125.755 144.578 127.726 145.105 129.629L146.033 132.974C146.561 134.877 148.531 135.991 150.434 135.464L174.726 128.727C176.629 128.199 177.744 126.229 177.216 124.326L176.288 120.981C175.76 119.078 173.79 117.963 171.887 118.491Z" fill="white"/>
<path d="M149.49 136.176C148.577 136.171 147.691 135.868 146.965 135.315C146.239 134.761 145.714 133.986 145.468 133.107L144.544 129.769C144.251 128.707 144.39 127.571 144.932 126.61C145.473 125.65 146.373 124.943 147.434 124.644L171.749 117.88C172.815 117.588 173.955 117.732 174.916 118.279C175.877 118.827 176.581 119.734 176.874 120.801L177.797 124.138C177.947 124.664 177.99 125.215 177.926 125.758C177.861 126.301 177.689 126.826 177.42 127.303C177.152 127.779 176.791 128.198 176.36 128.534C175.928 128.871 175.435 129.118 174.907 129.263L150.593 136.027C150.232 136.12 149.862 136.17 149.49 136.176ZM172.851 118.923C172.588 118.917 172.326 118.957 172.076 119.042L147.762 125.777C147.386 125.879 147.033 126.055 146.726 126.296C146.419 126.536 146.163 126.836 145.974 127.177C145.584 127.864 145.477 128.677 145.676 129.442L146.6 132.809C146.706 133.187 146.887 133.541 147.13 133.849C147.374 134.157 147.676 134.415 148.019 134.606C148.363 134.797 148.741 134.918 149.131 134.962C149.522 135.007 149.917 134.974 150.295 134.865L174.579 128.131C174.957 128.027 175.311 127.85 175.62 127.61C175.929 127.37 176.188 127.071 176.382 126.73C176.576 126.39 176.7 126.015 176.749 125.626C176.798 125.238 176.769 124.843 176.665 124.466L175.741 121.128C175.566 120.496 175.189 119.938 174.667 119.54C174.145 119.142 173.507 118.925 172.851 118.923Z" fill="#282928"/>
<path d="M87.7425 188.862L59.3135 190.103C57.3406 190.19 55.811 191.859 55.8972 193.832L56.095 198.362C56.1811 200.335 57.8503 201.865 59.8232 201.779L88.2523 200.537C90.2252 200.451 91.7547 198.782 91.6686 196.809L91.4707 192.278C91.3846 190.306 89.7154 188.776 87.7425 188.862Z" fill="white"/>
<path d="M59.8318 202.355C58.7579 202.348 57.7271 201.931 56.9513 201.189C56.1755 200.446 55.7135 199.434 55.6602 198.362L55.4814 193.833C55.4537 193.285 55.5342 192.738 55.7182 192.221C55.9023 191.705 56.1863 191.23 56.5541 190.823C56.9203 190.416 57.3652 190.087 57.8619 189.857C58.3587 189.626 58.897 189.499 59.4444 189.482L87.9006 188.201C89.0051 188.161 90.0812 188.557 90.8955 189.304C91.7098 190.052 92.1968 191.09 92.2509 192.194L92.4595 196.723C92.4915 197.83 92.0968 198.908 91.357 199.733C90.6032 200.536 89.5673 201.017 88.4667 201.073L60.0106 202.325L59.8318 202.355ZM88.0794 189.393H87.9602L59.504 190.674C59.1147 190.686 58.732 190.777 58.3787 190.941C58.0253 191.105 57.7088 191.338 57.448 191.628C57.1786 191.913 56.9708 192.251 56.8376 192.62C56.7043 192.989 56.6484 193.382 56.6733 193.773L56.8521 198.302C56.9055 199.09 57.2605 199.827 57.8432 200.359C58.4259 200.892 59.1914 201.18 59.9808 201.163L88.4071 199.882C89.1913 199.847 89.9301 199.504 90.4631 198.928C90.9982 198.344 91.2865 197.575 91.2676 196.783L91.0591 192.253C91.0211 191.487 90.6914 190.763 90.1374 190.231C89.5835 189.7 88.8472 189.4 88.0794 189.393Z" fill="#282928"/>
<path d="M181.075 181.884C180.946 181.894 180.818 181.858 180.714 181.781C180.61 181.704 180.537 181.593 180.508 181.467C180.486 181.39 180.479 181.31 180.488 181.231C180.496 181.152 180.521 181.076 180.56 181.006C180.599 180.937 180.651 180.876 180.714 180.827C180.777 180.778 180.849 180.742 180.926 180.722L187.928 178.755C188.066 178.746 188.204 178.784 188.316 178.865C188.429 178.946 188.51 179.064 188.545 179.198C188.581 179.332 188.568 179.474 188.51 179.6C188.451 179.726 188.351 179.828 188.226 179.887L181.253 181.884H181.075Z" fill="#282928"/>
<path d="M93.0545 263.23H84.3835C84.2255 263.23 84.0739 263.167 83.9621 263.055C83.8504 262.944 83.7876 262.792 83.7876 262.634C83.7876 262.476 83.8504 262.324 83.9621 262.213C84.0739 262.101 84.2255 262.038 84.3835 262.038H93.0545C93.2125 262.038 93.3641 262.101 93.4759 262.213C93.5876 262.324 93.6504 262.476 93.6504 262.634C93.6504 262.792 93.5876 262.944 93.4759 263.055C93.3641 263.167 93.2125 263.23 93.0545 263.23Z" fill="#282928"/>
</svg>
