<svg width="279" height="280" viewBox="0 0 279 280" fill="none" xmlns="http://www.w3.org/2000/svg">
<path d="M229.769 219.29H128.748C124.867 219.29 121.144 217.75 118.397 215.009C115.65 212.267 114.103 208.547 114.095 204.666V34.6829C114.095 30.7967 115.639 27.0698 118.387 24.3218C121.135 21.5739 124.862 20.0302 128.748 20.0302H229.769C233.65 20.0377 237.37 21.5849 240.111 24.332C242.853 27.0791 244.393 30.8017 244.393 34.6829V204.666C244.385 208.542 242.842 212.258 240.101 214.999C237.36 217.74 233.645 219.283 229.769 219.29ZM128.748 21.1771C125.166 21.1771 121.731 22.6001 119.198 25.1329C116.665 27.6657 115.242 31.1009 115.242 34.6829V204.666C115.25 208.243 116.676 211.671 119.208 214.198C121.74 216.724 125.171 218.143 128.748 218.143H229.769C233.341 218.136 236.764 216.713 239.29 214.188C241.816 211.662 243.238 208.238 243.246 204.666V34.6829C243.246 31.1059 241.827 27.675 239.3 25.143C236.774 22.611 233.346 21.1847 229.769 21.1771H128.748Z" fill="#282928"/>
<path d="M182.628 212.725H175.889C174.195 212.725 172.821 214.098 172.821 215.793V232.791C172.821 234.486 174.195 235.859 175.889 235.859H182.628C184.323 235.859 185.696 234.486 185.696 232.791V215.793C185.696 214.098 184.323 212.725 182.628 212.725Z" fill="white"/>
<path d="M182.628 236.439H175.889C174.923 236.439 173.997 236.056 173.314 235.373C172.631 234.69 172.248 233.763 172.248 232.798V215.794C172.248 214.828 172.631 213.901 173.314 213.218C173.997 212.536 174.923 212.152 175.889 212.152H182.628C183.594 212.152 184.52 212.536 185.203 213.218C185.886 213.901 186.269 214.828 186.269 215.794V232.798C186.269 233.763 185.886 234.69 185.203 235.373C184.52 236.056 183.594 236.439 182.628 236.439ZM175.889 213.299C175.562 213.299 175.237 213.363 174.935 213.489C174.632 213.614 174.357 213.798 174.125 214.03C173.894 214.261 173.71 214.536 173.584 214.839C173.459 215.142 173.395 215.466 173.395 215.794V232.798C173.395 233.459 173.657 234.094 174.125 234.562C174.593 235.029 175.228 235.292 175.889 235.292H182.628C182.955 235.292 183.28 235.228 183.582 235.102C183.885 234.977 184.16 234.793 184.392 234.562C184.623 234.33 184.807 234.055 184.933 233.752C185.058 233.45 185.122 233.125 185.122 232.798V215.794C185.122 215.466 185.058 215.142 184.933 214.839C184.807 214.536 184.623 214.261 184.392 214.03C184.16 213.798 183.885 213.614 183.582 213.489C183.28 213.363 182.955 213.299 182.628 213.299H175.889Z" fill="#282928"/>
<path d="M169.581 59.7158H131.816C129.631 59.7158 127.859 61.4874 127.859 63.6729V107.594C127.859 109.779 129.631 111.551 131.816 111.551H169.581C171.766 111.551 173.538 109.779 173.538 107.594V63.6729C173.538 61.4874 171.766 59.7158 169.581 59.7158Z" fill="#FBBC1B"/>
<path d="M135.315 79.1563C136.405 78.0667 140.649 74.0809 145.437 73.8802C145.579 73.8776 145.717 73.9251 145.827 74.0142C145.938 74.1034 146.013 74.2285 146.04 74.3676C146.24 75.658 147.072 78.9269 150.37 78.2387C151.424 78.047 152.404 77.5681 153.204 76.8547C154.003 76.1414 154.59 75.2212 154.9 74.1956C154.945 74.0674 155.031 73.958 155.146 73.8851C155.26 73.8122 155.396 73.7802 155.531 73.7942C156.678 73.9089 159.545 74.3103 160.692 75.6293C161.839 76.9484 164.391 78.8696 165.366 79.5864C165.48 79.6625 165.562 79.7765 165.599 79.9079C165.636 80.0393 165.624 80.1795 165.567 80.3033L163.818 83.945C163.751 84.0692 163.643 84.166 163.512 84.2184C163.38 84.2708 163.235 84.2755 163.101 84.2317L159.918 83.3428C159.825 83.3123 159.726 83.3062 159.63 83.325C159.534 83.3437 159.444 83.3868 159.369 83.45C159.294 83.5133 159.237 83.5946 159.203 83.6863C159.168 83.7779 159.158 83.8769 159.173 83.9737L160.406 101.666C160.414 101.747 160.405 101.829 160.38 101.907C160.355 101.985 160.314 102.057 160.261 102.119C160.207 102.181 160.141 102.231 160.068 102.266C159.994 102.302 159.914 102.322 159.832 102.325H141.853C141.772 102.326 141.691 102.309 141.616 102.277C141.541 102.245 141.473 102.198 141.417 102.139C141.361 102.08 141.317 102.01 141.288 101.934C141.26 101.857 141.247 101.776 141.251 101.695L141.71 83.4002C141.71 83.2985 141.684 83.1985 141.635 83.1094C141.586 83.0203 141.516 82.9451 141.43 82.8907C141.344 82.8363 141.246 82.8045 141.144 82.7984C141.043 82.7922 140.941 82.8118 140.85 82.8553L137.667 84.4325C137.595 84.4752 137.515 84.501 137.432 84.5079C137.349 84.5148 137.265 84.5025 137.188 84.472C137.11 84.4416 137.041 84.3937 136.984 84.3322C136.928 84.2706 136.887 84.197 136.864 84.117L135.201 79.7872C135.155 79.6825 135.141 79.5666 135.162 79.4542C135.182 79.3418 135.236 79.2381 135.315 79.1563Z" fill="#282928"/>
<path d="M123.902 95.7318C123.902 95.7318 127.859 89.1367 130.354 88.2764C132.848 87.4162 138.985 81.0791 136.347 79.9034C136.347 79.9034 135.63 78.441 135.171 78.1543C134.712 77.8675 132.791 76.0037 132.791 76.0037C132.791 76.0037 134.598 71.2723 133.709 71.5591C132.82 71.8458 127.286 79.76 127.286 79.76L125.823 76.1184C125.823 76.1184 123.472 82.3981 124.332 86.0685L121.407 91.7747L123.902 95.7318Z" fill="white"/>
<path d="M209.066 101.925C203.59 101.925 197.826 101.61 194.93 101.18C194.366 101.11 193.825 100.917 193.344 100.615C192.864 100.313 192.455 99.9084 192.148 99.4307C189.396 95.5023 190.944 86.2404 191.718 82.4266C191.794 82.0664 191.987 81.7415 192.267 81.5028C192.547 81.2641 192.899 81.1251 193.267 81.1076L216.092 80.19C216.488 80.1771 216.879 80.2819 217.216 80.4912C217.553 80.7004 217.82 81.0047 217.984 81.3657C218.787 83.1435 220.852 87.5021 222.515 89.7387C223.633 91.2298 224.207 93.323 224.092 95.4736C223.977 97.6242 223.203 99.5167 221.913 100.463C220.622 101.409 214.916 101.925 209.066 101.925ZM193.324 82.2546C193.21 82.2581 193.1 82.2994 193.012 82.3721C192.923 82.4447 192.862 82.5446 192.837 82.656C191.632 88.5343 191.03 95.8751 193.066 98.7712C193.299 99.1137 193.6 99.4049 193.95 99.6268C194.301 99.8487 194.692 99.9967 195.102 100.062C202.156 101.065 219.074 101.151 221.224 99.5454C222.228 98.7999 222.859 97.2514 222.945 95.4163C223.031 93.5811 222.543 91.6886 221.597 90.4269C219.848 88.1042 217.755 83.6597 216.923 81.8245C216.856 81.6764 216.747 81.5513 216.609 81.4647C216.472 81.3781 216.312 81.3337 216.149 81.337L193.324 82.2546Z" fill="#282928"/>
<path d="M199.145 82.0245C199.012 82.0193 198.884 81.9678 198.785 81.8788C198.685 81.7898 198.62 81.669 198.6 81.537C198.571 81.4797 197.596 75.5154 203.131 73.0493C206.314 71.6443 208.55 71.4722 210.185 72.5045C211.819 73.5368 212.995 76.3756 213.109 80.7628C213.109 80.9149 213.049 81.0608 212.941 81.1683C212.834 81.2759 212.688 81.3363 212.536 81.3363C212.462 81.3402 212.388 81.329 212.319 81.3034C212.249 81.2777 212.186 81.2382 212.132 81.1872C212.078 81.1363 212.036 81.0749 212.006 81.0068C211.977 80.9388 211.962 80.8655 211.962 80.7915C211.848 76.8631 211.045 74.397 209.582 73.4794C208.12 72.5619 206.4 72.8773 203.618 74.1103C198.887 76.2035 199.69 81.1356 199.718 81.3363C199.743 81.4844 199.71 81.6365 199.624 81.7598C199.538 81.8832 199.407 81.9679 199.26 81.9958L199.145 82.0245Z" fill="#282928"/>
<path d="M202.098 81.91L201.897 81.8527C201.757 81.7954 201.644 81.6848 201.585 81.545C201.526 81.4053 201.525 81.2478 201.582 81.1071C201.725 80.763 205.023 72.9635 210.958 73.7377C212.707 73.9671 213.94 74.684 214.657 75.8597C215.919 78.0102 214.858 80.849 214.829 80.9637C214.804 81.0359 214.764 81.1021 214.712 81.1587C214.661 81.2152 214.599 81.2609 214.529 81.2929C214.46 81.325 214.384 81.3428 214.308 81.3454C214.231 81.348 214.155 81.3352 214.084 81.3078C214.012 81.2823 213.945 81.2425 213.889 81.191C213.832 81.1394 213.787 81.0771 213.755 81.0076C213.723 80.9381 213.705 80.8629 213.702 80.7864C213.7 80.71 213.712 80.6338 213.74 80.5623C213.768 80.5336 214.657 78.0963 213.654 76.4331C213.138 75.5729 212.191 75.0568 210.815 74.8847C205.739 74.2252 202.671 81.4799 202.643 81.5372C202.598 81.6457 202.523 81.7387 202.426 81.8049C202.329 81.8711 202.215 81.9077 202.098 81.91Z" fill="#282928"/>
<path d="M196.506 86.6133C196.072 86.6062 195.658 86.4325 195.348 86.1283C195.039 85.8241 194.858 85.4126 194.843 84.9788C194.836 84.7604 194.871 84.5426 194.948 84.3378C195.024 84.1331 195.14 83.9455 195.29 83.7857C195.439 83.6259 195.618 83.4971 195.817 83.4066C196.016 83.3161 196.231 83.2657 196.449 83.2583L211.159 82.8856C211.601 82.885 212.026 83.0544 212.346 83.3587C212.667 83.663 212.858 84.0788 212.88 84.52C212.883 84.7384 212.844 84.9555 212.764 85.1587C212.684 85.3619 212.565 85.5474 212.413 85.7045C212.261 85.8616 212.08 85.9873 211.88 86.0743C211.679 86.1614 211.464 86.2081 211.245 86.2118L196.535 86.6133H196.506ZM211.188 84.0325L196.478 84.4053C196.35 84.4328 196.232 84.492 196.134 84.5774C196.045 84.6817 195.994 84.8132 195.99 84.9501C195.997 85.0848 196.054 85.2121 196.149 85.3074C196.244 85.4028 196.372 85.4594 196.506 85.4663L211.217 85.0648C211.353 85.0648 211.485 85.0105 211.582 84.9137C211.678 84.8169 211.733 84.6856 211.733 84.5487C211.725 84.4092 211.665 84.2779 211.563 84.1819C211.462 84.0858 211.328 84.0324 211.188 84.0325Z" fill="#282928"/>
<path d="M219.733 100.95C219.631 100.949 219.532 100.919 219.446 100.864C214.944 98.0252 213.596 92.577 215.431 84.6914C215.478 84.5311 215.517 84.3684 215.546 84.204C215.553 84.0541 215.616 83.9123 215.722 83.8062C215.828 83.7001 215.97 83.6375 216.12 83.6305C216.272 83.6305 216.418 83.6909 216.525 83.7985C216.633 83.906 216.693 84.0519 216.693 84.204C216.675 84.4573 216.627 84.7075 216.55 84.9495C214.829 92.2902 216.005 97.337 220.048 99.889C220.173 99.9762 220.26 100.108 220.292 100.257C220.324 100.406 220.298 100.561 220.22 100.692C220.167 100.772 220.095 100.838 220.009 100.883C219.924 100.929 219.829 100.951 219.733 100.95Z" fill="#282928"/>
<path d="M160.262 164.951C159.509 164.951 158.787 164.652 158.255 164.12C157.722 163.587 157.423 162.865 157.423 162.112V161.854C157.427 161.631 157.386 161.409 157.302 161.202C157.219 160.995 157.094 160.807 156.936 160.649C156.779 160.491 156.591 160.367 156.384 160.283C156.177 160.2 155.955 160.158 155.732 160.162H155.187C155.041 160.153 154.895 160.173 154.757 160.22L148.85 162.628L146.756 163.288C145.409 163.689 143.889 164.177 143.029 164.378C140.477 164.922 134.656 164.578 133.967 164.521C132.821 164.664 131.76 163.976 131.215 162.743C130.67 161.51 130.699 160.019 131.846 159.101L132.132 158.929C132.964 158.614 140.391 155.689 144.72 152.678C145.487 152.132 146.112 151.409 146.541 150.57C146.97 149.732 147.191 148.803 147.187 147.861V136.534C147.187 136.23 147.307 135.938 147.522 135.723C147.738 135.508 148.029 135.387 148.333 135.387H162.269C162.569 135.395 162.853 135.519 163.062 135.733C163.271 135.948 163.388 136.235 163.388 136.534V155.316H163.359L163.101 162.227C163.078 162.962 162.769 163.659 162.238 164.169C161.707 164.678 160.998 164.959 160.262 164.951ZM155.187 159.015H155.732C156.484 159.015 157.207 159.314 157.739 159.847C158.271 160.379 158.57 161.101 158.57 161.854V162.112C158.563 162.561 158.734 162.994 159.046 163.317C159.357 163.64 159.785 163.825 160.233 163.833C160.682 163.84 161.116 163.669 161.438 163.357C161.761 163.046 161.946 162.618 161.954 162.17L162.241 154.284V136.534H148.333V147.861C148.342 148.985 148.078 150.093 147.564 151.092C147.049 152.091 146.3 152.95 145.38 153.596C140.964 156.693 133.394 159.675 132.562 159.99C131.731 160.306 131.932 161.539 132.247 162.284C132.562 163.03 133.079 163.517 133.824 163.374H133.967C134.025 163.374 140.276 163.804 142.799 163.259C143.602 163.058 145.093 162.6 146.412 162.17L148.506 161.539L154.413 159.13C154.663 159.05 154.924 159.011 155.187 159.015Z" fill="#282928"/>
<path d="M154.929 149.468C154.777 149.468 154.631 149.407 154.524 149.3C154.416 149.192 154.356 149.046 154.356 148.894V136.048C154.356 135.896 154.416 135.75 154.524 135.642C154.631 135.535 154.777 135.474 154.929 135.474C155.082 135.474 155.227 135.535 155.335 135.642C155.443 135.75 155.503 135.896 155.503 136.048V148.894C155.503 149.046 155.443 149.192 155.335 149.3C155.227 149.407 155.082 149.468 154.929 149.468Z" fill="#FBBC1B"/>
<path d="M153.896 135.904L153.495 138.714C153.483 138.824 153.494 138.935 153.527 139.041C153.56 139.147 153.615 139.244 153.688 139.328C153.76 139.411 153.85 139.479 153.95 139.526C154.05 139.574 154.158 139.6 154.269 139.603H155.559C155.677 139.606 155.794 139.582 155.902 139.533C156.009 139.484 156.103 139.411 156.178 139.319C156.253 139.228 156.306 139.121 156.333 139.006C156.36 138.891 156.36 138.772 156.334 138.657L155.76 135.875C155.721 135.698 155.624 135.539 155.483 135.425C155.343 135.31 155.167 135.247 154.986 135.244H154.671C154.485 135.248 154.307 135.316 154.166 135.436C154.025 135.556 153.929 135.722 153.896 135.904Z" fill="#FBBC1B"/>
<path d="M207.403 207.448C207.301 207.448 207.203 207.41 207.129 207.341C207.054 207.272 207.009 207.177 207.001 207.075L204.249 191.476C204.232 191.359 204.261 191.239 204.331 191.143C204.401 191.047 204.505 190.981 204.621 190.96C204.678 190.952 204.736 190.955 204.791 190.97C204.846 190.984 204.898 191.01 204.943 191.044C204.989 191.079 205.027 191.122 205.055 191.172C205.084 191.222 205.102 191.276 205.109 191.333L207.833 206.932C207.851 207.045 207.825 207.161 207.761 207.257C207.698 207.353 207.601 207.421 207.489 207.448H207.403Z" fill="#282928"/>
<path d="M211.99 207.447C211.883 207.441 211.781 207.398 211.702 207.325C211.624 207.251 211.573 207.152 211.56 207.046L210.556 191.189C210.548 191.131 210.552 191.073 210.569 191.017C210.585 190.962 210.613 190.911 210.652 190.867C210.69 190.823 210.737 190.789 210.79 190.765C210.843 190.741 210.9 190.729 210.958 190.73C211.014 190.726 211.071 190.733 211.125 190.751C211.178 190.769 211.228 190.798 211.271 190.835C211.313 190.873 211.348 190.918 211.373 190.969C211.398 191.02 211.413 191.075 211.417 191.131L212.42 206.988C212.424 207.045 212.417 207.102 212.399 207.155C212.381 207.209 212.352 207.259 212.315 207.301C212.278 207.344 212.232 207.379 212.181 207.404C212.131 207.429 212.075 207.444 212.019 207.447H211.99Z" fill="#282928"/>
<path d="M216.35 207.534H216.321C216.264 207.53 216.209 207.515 216.158 207.49C216.108 207.465 216.062 207.43 216.025 207.388C215.988 207.345 215.959 207.295 215.941 207.242C215.923 207.188 215.916 207.131 215.919 207.075L216.694 191.074C216.697 191.018 216.712 190.963 216.737 190.912C216.762 190.861 216.797 190.816 216.84 190.778C216.882 190.741 216.932 190.712 216.986 190.694C217.039 190.676 217.096 190.669 217.152 190.673C217.21 190.672 217.268 190.684 217.321 190.708C217.373 190.732 217.421 190.766 217.459 190.81C217.497 190.854 217.525 190.905 217.542 190.96C217.558 191.016 217.562 191.074 217.554 191.132L216.78 207.132C216.772 207.241 216.724 207.343 216.644 207.418C216.564 207.492 216.459 207.534 216.35 207.534Z" fill="#282928"/>
<path d="M220.536 207.446H220.478C220.367 207.419 220.27 207.351 220.206 207.255C220.142 207.16 220.117 207.044 220.134 206.93C220.22 206.328 222.686 191.79 222.801 191.245C222.828 191.135 222.898 191.04 222.994 190.981C223.091 190.922 223.207 190.904 223.317 190.93C223.429 190.957 223.526 191.025 223.59 191.121C223.653 191.216 223.679 191.332 223.661 191.446C223.547 191.847 221.855 201.855 220.966 207.073C220.962 207.126 220.948 207.178 220.925 207.225C220.901 207.272 220.868 207.315 220.828 207.349C220.788 207.384 220.742 207.41 220.692 207.427C220.642 207.444 220.589 207.45 220.536 207.446Z" fill="#282928"/>
<path d="M201.666 196.753C201.552 196.753 201.443 196.707 201.362 196.627C201.282 196.546 201.236 196.437 201.236 196.323C201.236 196.208 201.282 196.099 201.362 196.018C201.443 195.938 201.552 195.892 201.666 195.892L225.868 195.835C225.982 195.835 226.091 195.88 226.172 195.961C226.253 196.042 226.298 196.151 226.298 196.265C226.298 196.379 226.253 196.489 226.172 196.569C226.091 196.65 225.982 196.695 225.868 196.695L201.666 196.753Z" fill="#282928"/>
<path d="M224.665 202.287H202.844C202.73 202.287 202.62 202.241 202.54 202.161C202.459 202.08 202.414 201.971 202.414 201.857C202.414 201.742 202.459 201.633 202.54 201.552C202.62 201.472 202.73 201.426 202.844 201.426H224.665C224.779 201.426 224.889 201.472 224.969 201.552C225.05 201.633 225.095 201.742 225.095 201.857C225.095 201.971 225.05 202.08 224.969 202.161C224.889 202.241 224.779 202.287 224.665 202.287Z" fill="#282928"/>
<path d="M223.318 191.532C223.218 191.529 223.123 191.494 223.045 191.432C222.968 191.37 222.912 191.284 222.888 191.188L221.827 185.281C221.77 184.999 221.62 184.745 221.402 184.558C221.184 184.371 220.909 184.262 220.622 184.249H206.801C206.523 184.248 206.253 184.34 206.034 184.512C205.816 184.684 205.661 184.925 205.597 185.195L204.134 191.102C204.121 191.16 204.096 191.214 204.061 191.261C204.026 191.309 203.982 191.349 203.931 191.378C203.88 191.408 203.823 191.427 203.764 191.433C203.706 191.44 203.646 191.435 203.59 191.417C203.48 191.39 203.385 191.321 203.326 191.224C203.267 191.128 203.248 191.012 203.274 190.901L204.765 184.937C204.88 184.485 205.143 184.084 205.512 183.798C205.881 183.513 206.335 183.358 206.801 183.36H220.622C221.113 183.376 221.584 183.558 221.959 183.875C222.334 184.193 222.59 184.627 222.687 185.109L223.748 191.016C223.765 191.126 223.738 191.238 223.674 191.329C223.61 191.42 223.513 191.483 223.404 191.503L223.318 191.532Z" fill="#282928"/>
<path d="M216.866 182.701H210.558C209.893 182.701 209.354 183.235 209.354 183.894C209.354 184.553 209.893 185.087 210.558 185.087H216.866C217.531 185.087 218.071 184.553 218.071 183.894C218.071 183.235 217.531 182.701 216.866 182.701Z" fill="#282928"/>
<path d="M200.35 131.89C200.35 131.89 212.078 135.445 216.322 131.058C216.322 131.058 223.663 145.281 220.365 166.213C220.365 166.213 207.347 172.005 197.884 167.159C197.884 167.159 191.146 141.84 200.35 131.89Z" fill="#FBBC1B"/>
<path d="M218.472 167.505L217.153 153.655L216.207 168.336L218.472 167.505Z" fill="white"/>
<path d="M89.8367 56.5319H89.6073C89.3205 56.3885 86.7111 55.2128 86.1663 53.3777C86.0541 53.0328 86.0241 52.6664 86.0789 52.3079C86.1337 51.9494 86.2716 51.6087 86.4817 51.3131C87.0266 50.4815 87.6861 50.0801 88.4316 50.0801C89.894 50.1088 91.0123 51.8866 91.1557 52.0873C91.2228 52.2186 91.2394 52.3699 91.2025 52.5125C91.1655 52.6552 91.0774 52.7794 90.955 52.8615C90.8895 52.9026 90.8164 52.9301 90.7401 52.9423C90.6638 52.9545 90.5857 52.9511 90.5108 52.9323C90.4358 52.9136 90.3653 52.8798 90.3037 52.8332C90.2421 52.7865 90.1905 52.7279 90.1521 52.6608C89.9227 52.3167 89.1198 51.2557 88.4029 51.2271C88.0875 51.2271 87.7434 51.4851 87.4567 51.9439C87.3362 52.0951 87.2549 52.2736 87.2199 52.4636C87.1849 52.6537 87.1973 52.8494 87.256 53.0336C87.6001 54.1806 89.4066 55.1842 90.0661 55.4709C90.2087 55.534 90.3212 55.65 90.38 55.7944C90.4389 55.9388 90.4394 56.1004 90.3815 56.2451C90.3249 56.3375 90.2444 56.4129 90.1485 56.4634C90.0526 56.5139 89.9449 56.5375 89.8367 56.5319Z" fill="#282928"/>
<path d="M96.4337 48.067C96.4547 47.5448 96.2023 47.1107 95.87 47.0973C95.5377 47.084 95.2513 47.4965 95.2304 48.0187C95.2094 48.5409 95.4618 48.975 95.7941 48.9883C96.1264 49.0017 96.4127 48.5892 96.4337 48.067Z" fill="#282928"/>
<path d="M93.1346 46.3823C92.988 46.3783 92.8462 46.3294 92.7283 46.2422C92.6103 46.155 92.522 46.0338 92.4751 45.8948C92.4438 45.8045 92.4309 45.7089 92.4371 45.6135C92.4433 45.5181 92.4685 45.4249 92.5112 45.3394C92.554 45.2539 92.6134 45.1778 92.686 45.1156C92.7586 45.0534 92.8429 45.0064 92.9339 44.9773L95.9734 44.031C96.0618 44 96.1556 43.9874 96.249 43.9939C96.3424 44.0004 96.4335 44.0259 96.5167 44.0689C96.5999 44.1118 96.6735 44.1713 96.7329 44.2437C96.7923 44.3161 96.8364 44.3998 96.8623 44.4898C96.9168 44.6685 96.8993 44.8615 96.8136 45.0275C96.7279 45.1935 96.5808 45.3195 96.4035 45.3787L93.364 46.3536L93.1346 46.3823Z" fill="#282928"/>
<path d="M96.3177 58.7698L96.0596 58.7125C94.9413 58.139 94.1671 56.2465 94.0811 56.0457C94.0346 55.9073 94.0427 55.7564 94.1037 55.6237C94.1647 55.491 94.274 55.3866 94.4093 55.3317C94.5446 55.2769 94.6958 55.2757 94.8319 55.3285C94.9681 55.3812 95.079 55.4839 95.142 55.6156C95.4001 56.2751 96.031 57.3935 96.5758 57.6802C96.6439 57.7137 96.7047 57.7604 96.7546 57.8176C96.8045 57.8748 96.8426 57.9414 96.8666 58.0134C96.8906 58.0854 96.9001 58.1615 96.8944 58.2372C96.8888 58.3129 96.8682 58.3867 96.8338 58.4544C96.7833 58.5478 96.7089 58.6262 96.6183 58.6816C96.5276 58.737 96.4239 58.7675 96.3177 58.7698Z" fill="#282928"/>
<path d="M93.6224 64.4469C92.59 64.4145 91.5831 64.1184 90.6976 63.5867C90.563 63.5085 90.4639 63.3812 90.4211 63.2315C90.3783 63.0818 90.3952 62.9213 90.4682 62.7838C90.5554 62.6592 90.6846 62.5703 90.8321 62.5334C90.9796 62.4965 91.1355 62.5141 91.2711 62.5831C92.7048 63.386 93.9091 63.5293 94.9988 62.9845C98.2103 61.3787 99.0706 54.4682 99.0706 54.4108L99.1566 53.9233H99.6441C100.189 53.9233 100.906 53.8086 101.078 53.4072C101.25 53.0057 100.304 50.9698 99.4147 49.9949L99.3287 49.8802V49.7082C98.8125 47.1274 96.2318 41.5932 96.2031 41.5359C96.1687 41.4682 96.1481 41.3944 96.1425 41.3187C96.1369 41.2429 96.1464 41.1669 96.1704 41.0949C96.1944 41.0228 96.2325 40.9563 96.2824 40.8991C96.3323 40.8419 96.3931 40.7952 96.4612 40.7617C96.6025 40.7018 96.7613 40.6982 96.9052 40.7515C97.0491 40.8048 97.1672 40.911 97.2354 41.0484C97.3501 41.2778 99.8161 46.554 100.418 49.3354C100.992 50.0236 102.827 52.2889 102.167 53.866C101.881 54.5255 101.193 54.9269 100.189 55.0416C99.9021 56.7335 98.7838 62.411 95.5436 64.0455C94.942 64.3236 94.285 64.4609 93.6224 64.4469Z" fill="#282928"/>
<path d="M92.9339 37.4638C92.9339 37.4638 96.6616 36.5749 97.3211 39.8725C97.9806 43.1701 89.2062 47.1272 88.9768 49.966C88.9768 49.966 85.0197 51.9445 88.1165 55.0127C91.2134 58.0809 90.2958 61.3785 89.6363 62.9269C88.5208 65.5012 87.5725 68.1447 86.7975 70.8411C85.4785 75.2283 78.2238 72.3609 75.1556 79.1854C72.0874 86.01 53.3055 83.1999 61.7358 73.4792C73.3778 60.0881 61.4778 57.9662 66.5819 50.6255C71.686 43.2848 73.177 47.5573 74.2667 40.3026C75.471 32.4458 90.9553 28.46 92.9339 37.4638Z" fill="#282928"/>
<path d="M76.5893 41.6791L76.3599 41.6218C76.2903 41.5939 76.2272 41.5519 76.1745 41.4986C76.1219 41.4452 76.0808 41.3815 76.0539 41.3115C76.027 41.2416 76.0148 41.1668 76.0181 41.0919C76.0214 41.017 76.0402 40.9435 76.0732 40.8762C76.1879 40.6181 79.0266 34.4244 84.2168 34.109C84.3689 34.1014 84.5178 34.1545 84.6307 34.2567C84.7436 34.3589 84.8113 34.5017 84.8189 34.6538C84.8265 34.8059 84.7734 34.9548 84.6712 35.0677C84.5691 35.1807 84.4262 35.2484 84.2741 35.256C79.8009 35.5141 77.1341 41.2777 77.1055 41.335C77.0683 41.4406 76.9979 41.5312 76.9048 41.5932C76.8117 41.6553 76.701 41.6854 76.5893 41.6791Z" fill="white"/>
<path d="M71.801 48.2167C71.6941 48.2174 71.5891 48.1883 71.4979 48.1326C71.4067 48.0768 71.3329 47.9967 71.2848 47.9013C71.2514 47.8318 71.2323 47.7564 71.2287 47.6794C71.225 47.6024 71.237 47.5255 71.2637 47.4533C71.2905 47.381 71.3315 47.3149 71.3844 47.2588C71.4373 47.2028 71.501 47.158 71.5716 47.1271C73.6935 46.1521 74.8978 44.0302 74.9265 44.0015C75.0042 43.8742 75.1264 43.7802 75.2695 43.7378C75.4125 43.6954 75.5662 43.7077 75.7007 43.7721C75.8302 43.855 75.925 43.9823 75.9673 44.1302C76.0095 44.278 75.9963 44.4362 75.9301 44.575C75.8728 44.661 74.5251 47.041 72.0304 48.188L71.801 48.2167Z" fill="white"/>
<path d="M86.8835 47.0694C86.7671 47.0637 86.6546 47.0258 86.5584 46.96C86.4622 46.8942 86.3862 46.8031 86.3387 46.6967C86.3113 46.6252 86.2985 46.549 86.3011 46.4725C86.3037 46.396 86.3215 46.3208 86.3536 46.2514C86.3856 46.1819 86.4313 46.1195 86.4878 46.068C86.5443 46.0164 86.6106 45.9767 86.6828 45.9511C89.0914 44.9762 91.6148 41.2485 91.6435 41.1911C91.6838 41.1296 91.7362 41.0769 91.7974 41.0361C91.8587 40.9954 91.9276 40.9675 91.9999 40.9541C92.0723 40.9407 92.1466 40.9421 92.2184 40.9582C92.2902 40.9743 92.358 41.0047 92.4177 41.0478C92.4815 41.0858 92.5369 41.1364 92.5804 41.1966C92.624 41.2568 92.6547 41.3252 92.6709 41.3977C92.687 41.4702 92.6881 41.5453 92.6741 41.6182C92.6602 41.6912 92.6315 41.7605 92.5897 41.822C92.475 41.994 89.837 45.9225 87.0842 47.0121L86.8835 47.0694Z" fill="white"/>
<path d="M73.8357 71.472C73.6836 71.472 73.5377 71.4116 73.4302 71.304C73.3226 71.1965 73.2622 71.0506 73.2622 70.8985C73.2622 69.8375 75.8142 67.4002 78.3089 65.5363C80.8036 63.6725 79.8 60.3749 79.5133 59.0272C79.3986 58.5397 79.3699 58.3677 79.4559 58.167C79.5128 58.0495 79.608 57.9549 79.7259 57.8989C79.8438 57.8428 79.9773 57.8287 80.1043 57.8588C80.2313 57.8888 80.3443 57.9614 80.4245 58.0643C80.5047 58.1673 80.5474 58.2945 80.5456 58.425C80.5806 58.5477 80.6093 58.6722 80.6316 58.7978C80.947 60.3176 81.8359 64.3607 78.9971 66.4539C76.1583 68.5472 74.5239 70.4971 74.4092 70.9272C74.3955 71.0719 74.3299 71.2068 74.2245 71.307C74.119 71.4071 73.981 71.4657 73.8357 71.472Z" fill="white"/>
<path d="M93.1636 70.9848C93.0164 70.985 92.8747 70.9285 92.7679 70.8271C92.6612 70.7256 92.5975 70.587 92.5902 70.44L92.2174 64.2176C92.2093 64.1413 92.2174 64.0643 92.2412 63.9914C92.2649 63.9186 92.3037 63.8515 92.3552 63.7947C92.4066 63.7378 92.4694 63.6925 92.5396 63.6616C92.6097 63.6307 92.6856 63.615 92.7622 63.6154C92.8361 63.6075 92.9107 63.6148 92.9817 63.6368C93.0526 63.6588 93.1183 63.6951 93.1747 63.7435C93.2311 63.7918 93.277 63.8512 93.3096 63.9179C93.3423 63.9846 93.3609 64.0573 93.3644 64.1315L93.7371 70.3539C93.741 70.4293 93.73 70.5046 93.7047 70.5757C93.6793 70.6468 93.6403 70.7121 93.5897 70.7681C93.539 70.824 93.4779 70.8694 93.4097 70.9017C93.3415 70.9339 93.2677 70.9524 93.1923 70.9561C93.1923 70.9637 93.1893 70.971 93.1839 70.9764C93.1785 70.9818 93.1712 70.9848 93.1636 70.9848Z" fill="#282928"/>
<path d="M81.7217 70.8982C81.7217 70.8982 96.6612 68.2601 102.826 73.995C108.991 79.73 109.421 102.526 110.941 101.666C112.461 100.806 119.658 92.863 121.035 91.3719C121.06 91.345 121.092 91.3246 121.127 91.3126C121.162 91.3006 121.199 91.2973 121.236 91.3029C121.273 91.3086 121.307 91.323 121.337 91.345C121.367 91.367 121.391 91.3959 121.407 91.4292L124.791 97.623C124.877 100.576 112.948 115 109.421 114.627C107.529 114.426 102.625 108.806 101.995 108.089C101.995 108.089 101.937 108.089 101.966 108.118L103.314 119.645C103.326 119.731 103.32 119.819 103.295 119.902C103.27 119.985 103.228 120.062 103.171 120.128C103.114 120.193 103.043 120.245 102.964 120.281C102.884 120.316 102.798 120.334 102.712 120.333L77.0764 120.964C76.9323 120.962 76.7906 120.927 76.6628 120.86C76.5351 120.793 76.4249 120.697 76.3411 120.58C76.2573 120.463 76.2023 120.327 76.1806 120.185C76.1589 120.042 76.1711 119.897 76.2161 119.76L78.166 113.939C78.166 113.853 78.1087 113.795 78.0513 113.824C76.3308 114.684 63.1692 121.222 61.3053 118.125C59.4415 115.028 58.0077 103.186 68.3306 80.5902C68.474 80.4182 76.7323 70.9842 81.7217 70.8982Z" fill="white"/>
<path d="M77.076 121.538C76.8399 121.542 76.6062 121.489 76.395 121.383C76.1837 121.277 76.0013 121.122 75.8632 120.93C75.7251 120.739 75.6355 120.517 75.602 120.283C75.5685 120.049 75.5922 119.81 75.671 119.588L77.2481 114.856C72.2013 117.322 62.6527 121.48 60.8175 118.441C58.6382 114.77 57.6346 102.641 67.8141 80.3321V80.2461L67.9001 80.1888C68.3589 79.6439 76.4452 70.468 81.664 70.3247C82.7249 70.1526 97.0049 67.83 103.17 73.5649C107.27 77.35 108.876 88.103 109.937 95.2143C110.281 97.5943 110.654 100.032 110.969 100.921C112.403 99.7449 116.704 95.2429 120.604 90.9704C120.689 90.8737 120.796 90.7996 120.916 90.7545C121.036 90.7095 121.165 90.695 121.292 90.7123C121.42 90.7398 121.541 90.7951 121.645 90.8744C121.749 90.9537 121.834 91.0551 121.895 91.1711C125.335 97.4796 125.335 97.4796 125.335 97.6229C125.393 99.9743 119.572 107.544 114.927 111.846C112.375 114.226 110.539 115.315 109.306 115.2C108.848 115.143 107.5 115 102.683 109.752L103.858 119.588C103.882 119.752 103.868 119.92 103.818 120.079C103.769 120.238 103.684 120.383 103.571 120.505C103.469 120.634 103.338 120.738 103.189 120.808C103.039 120.877 102.876 120.911 102.711 120.907L77.1047 121.538H77.076ZM78.0796 113.251C78.1816 113.256 78.2812 113.284 78.3711 113.332C78.461 113.381 78.5389 113.449 78.5993 113.531C78.6597 113.613 78.701 113.708 78.7203 113.808C78.7395 113.909 78.7362 114.012 78.7105 114.111L76.7606 119.96C76.7423 120.007 76.7353 120.057 76.7403 120.107C76.7453 120.157 76.7621 120.205 76.7893 120.247C76.8247 120.29 76.8684 120.324 76.9177 120.349C76.9671 120.373 77.021 120.388 77.076 120.391L102.711 119.76H102.74C102.769 119.731 102.769 119.731 102.769 119.702L101.392 108.204C101.378 108.076 101.404 107.947 101.466 107.835C101.527 107.722 101.621 107.631 101.736 107.573C101.851 107.517 101.98 107.501 102.105 107.527C102.229 107.553 102.342 107.62 102.424 107.716L102.596 107.917C107.529 113.451 109.106 113.996 109.478 114.054C109.851 114.111 110.998 113.967 114.181 111.014C118.97 106.569 124.045 99.6015 124.217 97.7663C123.844 97.0781 122.067 93.8379 121.149 92.1174C118.769 94.6981 112.575 101.379 111.228 102.154C111.124 102.216 111.007 102.251 110.887 102.256C110.767 102.261 110.647 102.236 110.539 102.182C109.851 101.838 109.622 100.605 108.819 95.3863C107.787 88.4471 106.209 77.9235 102.424 74.3965C96.5748 68.9483 81.9794 71.443 81.836 71.4717H81.75C77.2194 71.5577 69.5346 80.1027 68.8177 80.8769C58.8676 102.727 59.7279 114.369 61.7924 117.839C62.8821 119.616 70.6529 116.921 77.7929 113.308L78.0796 113.251Z" fill="#282928"/>
<path d="M70.5674 108.375L74.2664 96.5614C74.3133 96.4224 74.4016 96.3012 74.5196 96.214C74.6375 96.1269 74.7793 96.078 74.9259 96.0739C75.0701 96.0717 75.2113 96.1148 75.3296 96.1971C75.4479 96.2794 75.5374 96.3968 75.5854 96.5327L78.4529 105.594C78.4948 105.701 78.5114 105.816 78.5015 105.93C78.4915 106.045 78.4553 106.155 78.3956 106.253C78.2682 106.466 78.0622 106.621 77.8221 106.684L70.5674 108.375ZM74.9259 98.2819L72.2592 106.798L77.2773 105.623L74.9259 98.2819Z" fill="#282928"/>
<path d="M75.2127 97.7667C75.0955 97.7643 74.9815 97.7278 74.8847 97.6616C74.7879 97.5954 74.7125 97.5023 74.6679 97.3939C73.2233 93.3161 72.1672 89.1109 71.5137 84.8344C71.5015 84.759 71.5045 84.6819 71.5225 84.6076C71.5406 84.5334 71.5732 84.4635 71.6187 84.4021C71.6641 84.3406 71.7213 84.2889 71.787 84.2499C71.8527 84.2109 71.9255 84.1854 72.0012 84.1749C72.075 84.1627 72.1505 84.1659 72.223 84.1843C72.2955 84.2026 72.3634 84.2356 72.4226 84.2814C72.4818 84.3271 72.5309 84.3845 72.567 84.4501C72.603 84.5156 72.6251 84.5879 72.632 84.6623C73.3148 88.8551 74.3606 92.9807 75.7575 96.9924C75.7849 97.0639 75.7977 97.1401 75.7951 97.2166C75.7925 97.2931 75.7747 97.3683 75.7426 97.4377C75.7106 97.5072 75.6649 97.5696 75.6084 97.6211C75.5518 97.6727 75.4856 97.7124 75.4134 97.738L75.2127 97.7667Z" fill="#282928"/>
<path d="M102.282 109.525C102.16 109.524 102.042 109.485 101.944 109.413C101.846 109.341 101.774 109.239 101.737 109.123C92.9915 81.5381 99.0992 75.3444 99.3573 75.115C99.4103 75.0611 99.4739 75.0189 99.5441 74.991C99.6143 74.963 99.6895 74.95 99.765 74.9527C99.8405 74.9554 99.9147 74.9737 99.9827 75.0066C100.051 75.0395 100.111 75.0862 100.16 75.1437C100.214 75.1967 100.256 75.2603 100.284 75.3305C100.312 75.4007 100.325 75.4759 100.322 75.5514C100.32 75.6269 100.301 75.7011 100.269 75.7691C100.236 75.8371 100.189 75.8975 100.131 75.9466C100.074 76.0326 94.3966 82.1403 102.827 108.779C102.853 108.85 102.865 108.927 102.86 109.003C102.855 109.078 102.835 109.153 102.8 109.22C102.764 109.288 102.716 109.347 102.656 109.395C102.597 109.442 102.528 109.477 102.454 109.496L102.282 109.525Z" fill="#282928"/>
<path d="M124.504 97.6234L124.217 97.566C124.085 97.4933 123.986 97.3711 123.943 97.2261C123.9 97.0811 123.916 96.925 123.988 96.7918C127.572 89.9959 128.432 89.5371 128.719 89.4798C129.006 89.4224 131.07 87.5586 133.135 85.3506C136.002 82.2824 136.605 80.906 136.547 80.5906C136.512 80.4345 136.443 80.2879 136.346 80.1605C136.146 80.1031 135.429 80.6766 134.855 81.4222C134.818 81.4983 134.764 81.5652 134.697 81.6179C134.63 81.6706 134.553 81.7078 134.47 81.7269C134.387 81.746 134.301 81.7464 134.218 81.7282C134.135 81.71 134.057 81.6736 133.99 81.6215C133.923 81.5695 133.868 81.5032 133.83 81.4275C133.791 81.3517 133.77 81.2683 133.768 81.1834C133.766 81.0985 133.782 81.0141 133.817 80.9364C133.851 80.8586 133.902 80.7895 133.966 80.734C134.311 80.2752 135.515 78.8128 136.605 79.0422C136.977 79.1282 137.465 79.415 137.666 80.3325C137.752 80.7053 138.01 81.8523 133.852 86.2682C132.705 87.5012 129.952 90.2253 129.092 90.5407C128.232 90.8561 126.568 94.3544 124.991 97.3079C124.951 97.4033 124.883 97.4844 124.796 97.5407C124.709 97.5969 124.607 97.6257 124.504 97.6234Z" fill="#282928"/>
<path d="M121.665 91.6306C121.554 91.6289 121.446 91.5993 121.35 91.5446C121.225 91.4573 121.138 91.326 121.106 91.177C121.074 91.028 121.099 90.8724 121.178 90.7417L123.701 86.6125C123.242 82.8275 124.361 75.7162 125.536 75.028C125.649 74.9569 125.78 74.9216 125.913 74.9268C126.047 74.9319 126.175 74.9772 126.282 75.0567C126.483 75.2 126.999 75.5728 127.285 78.9564C132.934 70.4114 133.823 70.4114 134.139 70.4114C134.257 70.41 134.374 70.4381 134.479 70.4932C134.585 70.5482 134.674 70.6285 134.741 70.7268C135.314 71.6157 134.368 73.9957 133.594 75.6875C133.982 75.8718 134.302 76.1725 134.511 76.5477C134.622 76.8003 134.681 77.0722 134.686 77.3478C134.691 77.6233 134.641 77.8972 134.54 78.1535C134.477 78.2889 134.365 78.3945 134.225 78.448C134.086 78.5016 133.932 78.4988 133.795 78.4403C133.722 78.4153 133.656 78.3755 133.601 78.3233C133.545 78.2712 133.501 78.208 133.471 78.1377C133.441 78.0674 133.427 77.9916 133.428 77.9153C133.429 77.839 133.447 77.7639 133.479 77.6947C133.556 77.4915 133.556 77.2671 133.479 77.0639C133.384 76.9272 133.261 76.8127 133.117 76.7286C132.973 76.6444 132.813 76.5925 132.648 76.5764L131.959 76.4044L132.275 75.7448C132.963 74.3685 133.536 72.9061 133.709 72.0171C132.562 73.2788 130.124 76.6911 127.371 80.9063C127.306 81.0169 127.206 81.1025 127.086 81.1493C126.967 81.1961 126.835 81.2014 126.712 81.1644C126.587 81.1341 126.476 81.065 126.393 80.9671C126.311 80.8691 126.262 80.7473 126.253 80.6195C126.207 79.3107 126.063 78.0072 125.823 76.7198C125.221 78.5836 124.447 83.3436 124.848 86.5265C124.873 86.7561 124.823 86.9877 124.705 87.186L122.153 91.3439C122.101 91.4279 122.03 91.498 121.945 91.548C121.86 91.598 121.764 91.6264 121.665 91.6306Z" fill="#282928"/>
<path d="M130.642 79.129C130.505 79.125 130.373 79.0745 130.269 78.9856C130.156 78.8862 130.086 78.7462 130.076 78.596C130.065 78.4457 130.114 78.2973 130.212 78.1828L132.391 75.5734C132.495 75.4796 132.629 75.4271 132.769 75.4257C132.909 75.4244 133.045 75.4742 133.151 75.5658C133.256 75.6575 133.325 75.7846 133.343 75.9233C133.362 76.062 133.329 76.2027 133.251 76.3189L131.072 78.9283C131.017 78.9891 130.951 79.0383 130.877 79.0728C130.803 79.1073 130.723 79.1264 130.642 79.129Z" fill="#282928"/>
<path d="M132.246 80.4762C132.173 80.4805 132.1 80.4701 132.031 80.4454C131.962 80.4208 131.898 80.3825 131.844 80.3328C131.789 80.2818 131.744 80.2198 131.714 80.1507C131.684 80.0816 131.668 80.0069 131.668 79.9314C131.668 79.8559 131.684 79.7812 131.714 79.7121C131.744 79.643 131.789 79.581 131.844 79.53L133.651 77.6374H133.794C134.655 77.4367 135.314 77.5514 135.744 77.9815C136.174 78.4116 136.088 79.8454 136.06 79.9601C136.04 80.034 136.005 80.1033 135.958 80.1637C135.911 80.2242 135.853 80.2746 135.786 80.312C135.719 80.3494 135.645 80.3731 135.569 80.3816C135.493 80.3901 135.416 80.3833 135.343 80.3615C135.199 80.3154 135.079 80.2142 135.009 80.0799C134.939 79.9456 134.925 79.7891 134.97 79.6447C135.027 79.3866 135.056 78.9278 134.913 78.7844C134.769 78.641 134.569 78.641 134.224 78.6984L132.676 80.3328C132.555 80.4323 132.402 80.4834 132.246 80.4762Z" fill="#282928"/>
<path d="M96.5464 249.198L86.9404 248.71L86.883 248.251C86.7397 247.305 83.2413 224.882 85.564 215.935C87.2558 209.541 86.7397 184.565 86.7397 184.336V183.619L100.331 186.372L96.5464 249.198ZM87.944 247.621L95.4854 247.993L99.1271 187.289L87.8866 185.024C87.9727 189.268 88.2594 210.229 86.6823 216.222C84.5891 224.251 87.4565 244.323 87.944 247.621Z" fill="#282928"/>
<path d="M52.5312 250.402L42.3804 248.768L42.5237 248.195C42.7818 247.019 48.7175 219.348 51.929 210.918C52.6459 208.996 55.4273 203.72 58.1228 198.616C60.8182 193.512 63.3415 188.752 63.915 187.204L64.0584 186.831L77.3061 186.515L52.5312 250.402ZM43.7568 247.822L51.7857 249.141L75.6143 187.691L64.8613 187.949C64.0584 189.87 61.6784 194.372 59.155 199.161C56.6317 203.95 53.6782 209.455 52.99 211.319C50.0652 219.004 44.6743 243.693 43.7568 247.822Z" fill="#282928"/>
<path d="M76.1874 117.725C76.1874 117.725 104.088 115.603 104.088 118.011C104.088 120.42 115.214 178.027 117.594 183.131C119.974 188.236 100.188 190.644 94.195 187.318C88.202 183.992 78.3093 189.44 73.8074 188.838C69.3054 188.236 59.0973 193.024 53.6778 191.218C48.2582 189.411 76.1874 117.725 76.1874 117.725Z" fill="#FBBC1B"/>
<path d="M52.3304 249.657C52.7713 249.767 53.1734 249.997 53.4922 250.32C53.811 250.644 54.0341 251.05 54.1369 251.492C54.6817 253.672 55.8 257.944 55.0258 258.231C51.5848 259.521 42.2369 258.862 36.3586 258.805C36.042 258.802 35.7319 258.715 35.4602 258.553C35.1885 258.39 34.9651 258.158 34.8131 257.88C34.6611 257.603 34.586 257.289 34.5955 256.973C34.6051 256.657 34.699 256.348 34.8675 256.08C36.8747 252.812 40.2583 247.65 41.4627 247.535C42.667 247.421 49.3769 248.94 52.3304 249.657Z" fill="#282928"/>
<path d="M92.1311 254.848L101.106 257.744C102.913 258.318 104.633 259.494 106.526 259.494H112.547C114.612 259.895 115.902 256.053 114.182 254.705C114.182 254.705 106.526 247.794 99.9306 247.421L85.7653 247.192C84.8191 247.192 84.0449 248.052 84.0735 249.113L84.3889 258.203C84.381 258.657 84.5501 259.097 84.8605 259.429C85.1709 259.761 85.5982 259.959 86.0521 259.981H87.1417C88.0593 259.981 88.8048 259.149 88.8048 258.146V256.626C88.7892 256.159 88.958 255.705 89.2745 255.362C89.5911 255.018 90.0301 254.813 90.4967 254.791H91.6723L92.1311 254.848Z" fill="#282928"/>
<path d="M108.389 254.848C105.809 254.848 101.421 254.36 101.421 252.496C101.421 250.632 104.776 250.231 107.644 250.145C107.832 250.141 108.018 250.18 108.189 250.26C109.479 250.948 110.827 251.722 112.174 252.611C112.355 252.736 112.495 252.911 112.577 253.115C112.658 253.319 112.678 253.543 112.633 253.758C112.592 253.973 112.484 254.169 112.324 254.319C112.165 254.468 111.961 254.563 111.744 254.589C110.635 254.768 109.513 254.854 108.389 254.848ZM102.597 252.496C102.74 252.84 104.633 253.701 108.389 253.701C109.397 253.71 110.403 253.643 111.4 253.5C110.189 252.696 108.935 251.959 107.644 251.292C104.346 251.407 102.712 252.181 102.597 252.496Z" fill="#FBBC1B"/>
<path d="M78.2239 114.313H78.1665C78.0911 114.306 78.0178 114.284 77.9509 114.248C77.884 114.212 77.8249 114.164 77.7769 114.105C77.7289 114.046 77.693 113.979 77.6713 113.906C77.6495 113.834 77.6424 113.757 77.6504 113.682L77.7937 112.191C77.9419 110.701 77.9034 109.198 77.679 107.718L77.421 106.141C77.4097 106.065 77.4133 105.988 77.4317 105.915C77.4501 105.841 77.4828 105.771 77.5281 105.71C77.5734 105.649 77.6303 105.597 77.6955 105.558C77.7608 105.518 77.8331 105.492 77.9084 105.481C77.9837 105.47 78.0605 105.473 78.1344 105.492C78.2083 105.51 78.2779 105.543 78.3392 105.588C78.4628 105.68 78.5451 105.816 78.568 105.969L78.7973 107.546C79.0454 109.12 79.0935 110.719 78.9407 112.306L78.7973 113.797C78.7831 113.939 78.7164 114.07 78.6104 114.166C78.5043 114.261 78.3665 114.314 78.2239 114.313Z" fill="#282928"/>
<path d="M227.13 112.105H189.366C188.772 112.109 188.183 111.995 187.634 111.77C187.084 111.546 186.585 111.215 186.164 110.797C185.743 110.378 185.408 109.881 185.18 109.332C184.952 108.784 184.835 108.197 184.835 107.603V63.6734C184.835 62.4718 185.312 61.3195 186.162 60.4698C187.012 59.6202 188.164 59.1428 189.366 59.1428H227.13C228.332 59.1428 229.484 59.6202 230.334 60.4698C231.183 61.3195 231.661 62.4718 231.661 63.6734V107.603C231.661 108.197 231.543 108.784 231.315 109.332C231.087 109.881 230.753 110.378 230.332 110.797C229.911 111.215 229.411 111.546 228.862 111.77C228.312 111.995 227.724 112.109 227.13 112.105ZM189.366 60.2898C188.468 60.2898 187.608 60.6463 186.973 61.2808C186.338 61.9154 185.982 62.776 185.982 63.6734V107.603C185.982 108.046 186.07 108.485 186.24 108.894C186.41 109.302 186.66 109.674 186.975 109.985C187.289 110.297 187.663 110.544 188.073 110.711C188.483 110.878 188.923 110.962 189.366 110.958H227.13C227.573 110.962 228.012 110.878 228.423 110.711C228.833 110.544 229.206 110.297 229.521 109.985C229.835 109.674 230.085 109.302 230.256 108.894C230.426 108.485 230.514 108.046 230.514 107.603V63.6734C230.514 63.2291 230.426 62.7891 230.256 62.3786C230.086 61.9681 229.837 61.595 229.523 61.2808C229.208 60.9666 228.835 60.7174 228.425 60.5474C228.014 60.3773 227.574 60.2898 227.13 60.2898H189.366Z" fill="#282928"/>
<path d="M168.262 175.36H130.497C129.904 175.364 129.315 175.25 128.766 175.026C128.216 174.801 127.717 174.47 127.296 174.052C126.874 173.633 126.54 173.136 126.312 172.588C126.084 172.04 125.967 171.452 125.967 170.858V126.929C125.967 125.727 126.444 124.575 127.294 123.725C128.143 122.876 129.296 122.398 130.497 122.398H168.262C169.463 122.398 170.616 122.876 171.466 123.725C172.315 124.575 172.792 125.727 172.792 126.929V170.858C172.793 171.452 172.675 172.04 172.447 172.588C172.219 173.136 171.885 173.633 171.464 174.052C171.043 174.47 170.543 174.801 169.994 175.026C169.444 175.25 168.856 175.364 168.262 175.36ZM130.497 123.545C129.6 123.545 128.739 123.902 128.105 124.536C127.47 125.171 127.114 126.031 127.114 126.929V170.858C127.121 171.751 127.481 172.604 128.115 173.232C128.749 173.861 129.605 174.213 130.497 174.213H168.262C169.154 174.213 170.011 173.861 170.644 173.232C171.278 172.604 171.638 171.751 171.646 170.858V126.929C171.646 126.031 171.289 125.171 170.654 124.536C170.02 123.902 169.159 123.545 168.262 123.545H130.497Z" fill="#282928"/>
<path d="M225.812 175.36H188.048C187.454 175.364 186.866 175.25 186.316 175.026C185.767 174.801 185.267 174.47 184.846 174.052C184.425 173.633 184.091 173.136 183.863 172.588C183.634 172.04 183.517 171.452 183.517 170.858V126.929C183.517 125.727 183.994 124.575 184.844 123.725C185.694 122.876 186.846 122.398 188.048 122.398H225.812C227.014 122.398 228.166 122.876 229.016 123.725C229.865 124.575 230.343 125.727 230.343 126.929V170.858C230.343 171.452 230.225 172.04 229.997 172.588C229.769 173.136 229.435 173.633 229.014 174.052C228.593 174.47 228.093 174.801 227.544 175.026C226.994 175.25 226.406 175.364 225.812 175.36ZM188.048 123.545C187.15 123.545 186.29 123.902 185.655 124.536C185.021 125.171 184.664 126.031 184.664 126.929V170.858C184.672 171.751 185.031 172.604 185.665 173.232C186.299 173.861 187.155 174.213 188.048 174.213H225.812C226.705 174.213 227.561 173.861 228.195 173.232C228.828 172.604 229.188 171.751 229.196 170.858V126.929C229.196 126.031 228.839 125.171 228.205 124.536C227.57 123.902 226.71 123.545 225.812 123.545H188.048Z" fill="#282928"/>
<path d="M57.1484 187.806C57.0362 187.804 56.9269 187.77 56.834 187.707C56.7412 187.643 56.6689 187.554 56.6262 187.451C56.5835 187.347 56.5721 187.233 56.5936 187.123C56.6151 187.012 56.6684 186.911 56.747 186.831C57.4065 186.2 73.0055 171.289 79.7154 173.153L82.2961 173.927C87.1421 175.418 90.0669 176.307 94.4542 171.719C99.931 165.984 108.476 165.038 108.849 165.009C109 165.001 109.148 165.049 109.265 165.144C109.382 165.24 109.458 165.376 109.48 165.526C109.488 165.676 109.44 165.825 109.345 165.942C109.249 166.058 109.113 166.135 108.964 166.156C108.878 166.156 100.476 167.103 95.2857 172.522C90.0956 177.942 86.8554 176.537 81.952 175.017L79.4 174.243C74.3532 172.838 61.9084 183.447 57.5212 187.662C57.4753 187.715 57.4174 187.755 57.3525 187.78C57.2876 187.805 57.2175 187.814 57.1484 187.806Z" fill="white"/>
<path d="M77.4789 186.143C77.3803 186.139 77.2844 186.111 77.1994 186.061C77.1144 186.011 77.043 185.941 76.9914 185.857C76.9225 185.721 76.9048 185.565 76.9417 185.418C76.9786 185.27 77.0675 185.141 77.1921 185.054C77.4789 184.91 83.6152 181.412 86.1386 181.412C87.3516 181.486 88.5586 181.639 89.7516 181.871C94.0241 182.53 102.942 183.936 103.974 181.728C105.666 178.143 111.086 175.907 111.315 175.792C111.456 175.735 111.613 175.737 111.753 175.796C111.893 175.855 112.003 175.967 112.06 176.107C112.118 176.252 112.118 176.414 112.059 176.558C112 176.702 111.888 176.818 111.745 176.882C111.688 176.882 106.498 179.061 105.007 182.215C103.515 185.369 96.9776 184.165 89.5796 182.989C88.0311 182.76 86.6834 182.559 86.1386 182.559C84.3034 182.559 79.4861 185.083 77.7656 186.057C77.6814 186.115 77.5811 186.146 77.4789 186.143Z" fill="white"/>
<path d="M60.7324 173.037C60.6079 173.039 60.4865 172.998 60.3883 172.922C60.2726 172.826 60.1967 172.691 60.1755 172.543C60.1543 172.394 60.1893 172.243 60.2736 172.119C60.8757 171.345 72.2309 161.595 77.0483 161.595C78.3653 161.64 79.6779 161.774 80.9767 161.997C84.9625 162.57 89.4931 163.259 92.5039 159.646C96.8911 154.369 105.58 153.05 105.952 152.993C106.103 152.976 106.256 153.017 106.378 153.107C106.5 153.198 106.584 153.331 106.612 153.48C106.624 153.556 106.621 153.633 106.603 153.707C106.585 153.781 106.552 153.851 106.507 153.913C106.461 153.974 106.404 154.026 106.339 154.065C106.273 154.104 106.2 154.13 106.124 154.14C106.038 154.14 97.4933 155.459 93.3928 160.391C89.9805 164.492 84.9051 163.717 80.8046 163.115C79.5628 162.903 78.3076 162.778 77.0483 162.742C72.8618 162.742 61.7933 172.033 61.1912 172.807C61.1413 172.882 61.0728 172.943 60.9923 172.983C60.9118 173.023 60.8222 173.042 60.7324 173.037Z" fill="white"/>
<path d="M216.579 34.6832H145.437C144.218 34.6832 143.229 35.6666 143.229 36.8796C143.229 38.0927 144.218 39.0761 145.437 39.0761H216.579C217.799 39.0761 218.787 38.0927 218.787 36.8796C218.787 35.6666 217.799 34.6832 216.579 34.6832Z" fill="#282928"/>
<path d="M200.779 47.0986H159.918C159.766 47.0986 159.62 47.0382 159.512 46.9307C159.405 46.8231 159.344 46.6773 159.344 46.5252C159.344 46.3731 159.405 46.2272 159.512 46.1196C159.62 46.0121 159.766 45.9517 159.918 45.9517H200.779C200.931 45.9517 201.077 46.0121 201.185 46.1196C201.292 46.2272 201.353 46.3731 201.353 46.5252C201.353 46.6773 201.292 46.8231 201.185 46.9307C201.077 47.0382 200.931 47.0986 200.779 47.0986Z" fill="#282928"/>
<path d="M164.305 65.8528C164.305 65.8528 166.369 61.3222 168.262 64.3904C170.154 67.4586 164.62 70.9856 164.62 70.9856" fill="white"/>
<path d="M164.534 65.8528C164.534 65.8528 162.498 61.3222 160.577 64.3904C158.655 67.4586 164.62 70.9856 164.62 70.9856" fill="white"/>
<path d="M200.205 131.603C202.557 132.177 209.324 133.467 215.948 131.087C216.048 131.052 216.155 131.04 216.26 131.052C216.366 131.065 216.467 131.102 216.556 131.16C216.645 131.219 216.719 131.297 216.773 131.389C216.826 131.48 216.858 131.583 216.865 131.689V132.177C216.874 132.311 216.844 132.445 216.778 132.563C216.711 132.68 216.612 132.775 216.492 132.836C213.908 134.155 211.065 134.887 208.166 134.982C205.266 135.076 202.382 134.529 199.718 133.381C199.589 133.325 199.48 133.233 199.404 133.116C199.328 132.999 199.287 132.862 199.288 132.722V132.292C199.288 132.18 199.314 132.071 199.363 131.971C199.413 131.871 199.485 131.785 199.574 131.718C199.663 131.651 199.767 131.606 199.876 131.586C199.986 131.566 200.098 131.572 200.205 131.603Z" fill="#282928"/>
<path d="M221.74 207.734H221.711L205.682 207.677C205.087 207.659 204.513 207.447 204.048 207.075C203.582 206.703 203.25 206.189 203.102 205.612L200.206 193.999C200.103 193.589 200.097 193.162 200.186 192.749C200.276 192.336 200.459 191.95 200.722 191.619C200.964 191.3 201.276 191.041 201.634 190.862C201.992 190.683 202.386 190.589 202.786 190.587H224.464C224.861 190.59 225.253 190.682 225.61 190.855C225.967 191.029 226.281 191.28 226.529 191.59C226.786 191.924 226.966 192.311 227.055 192.722C227.144 193.134 227.141 193.56 227.045 193.97L224.321 205.641C224.191 206.231 223.865 206.759 223.396 207.139C222.928 207.519 222.344 207.729 221.74 207.734ZM202.786 191.447C202.515 191.449 202.249 191.512 202.005 191.631C201.762 191.75 201.549 191.923 201.381 192.135C201.207 192.371 201.087 192.642 201.027 192.929C200.968 193.216 200.971 193.513 201.037 193.798L203.933 205.412C204.028 205.806 204.252 206.158 204.568 206.413C204.885 206.667 205.276 206.809 205.682 206.817L221.74 206.874C222.151 206.87 222.549 206.725 222.867 206.465C223.185 206.204 223.404 205.843 223.489 205.44L226.213 193.77C226.283 193.487 226.286 193.192 226.221 192.908C226.156 192.624 226.026 192.36 225.841 192.135C225.679 191.923 225.471 191.751 225.232 191.632C224.994 191.512 224.731 191.449 224.464 191.447H202.786Z" fill="#282928"/>
<path d="M195.503 191.045C199.209 191.045 202.213 188.208 202.213 184.708C202.213 181.208 199.209 178.371 195.503 178.371C191.797 178.371 188.793 181.208 188.793 184.708C188.793 188.208 191.797 191.045 195.503 191.045Z" fill="#FBBC1B"/>
<path d="M196.162 188.551C196.01 188.551 195.864 188.491 195.757 188.383C195.649 188.275 195.589 188.13 195.589 187.977V182.787L193.811 184.881C193.766 184.948 193.706 185.005 193.637 185.048C193.568 185.091 193.491 185.119 193.411 185.129C193.33 185.14 193.248 185.134 193.17 185.11C193.093 185.087 193.021 185.048 192.959 184.994C192.898 184.941 192.848 184.875 192.814 184.802C192.78 184.728 192.762 184.648 192.761 184.567C192.76 184.485 192.777 184.405 192.81 184.331C192.842 184.256 192.89 184.19 192.951 184.135L195.331 181.354C195.438 181.229 195.58 181.14 195.739 181.099C195.898 181.058 196.066 181.067 196.22 181.124C196.373 181.178 196.505 181.28 196.598 181.414C196.691 181.547 196.739 181.707 196.736 181.87V187.977C196.736 188.13 196.675 188.275 196.568 188.383C196.46 188.491 196.314 188.551 196.162 188.551Z" fill="white"/>
<path d="M198.026 188.779H194.47C194.318 188.779 194.172 188.719 194.064 188.611C193.957 188.504 193.896 188.358 193.896 188.206C193.896 188.054 193.957 187.908 194.064 187.8C194.172 187.693 194.318 187.632 194.47 187.632H198.026C198.178 187.632 198.324 187.693 198.431 187.8C198.539 187.908 198.599 188.054 198.599 188.206C198.599 188.358 198.539 188.504 198.431 188.611C198.324 188.719 198.178 188.779 198.026 188.779Z" fill="white"/>
<path d="M180.793 191.85H137.953C137.801 191.85 137.655 191.789 137.547 191.682C137.44 191.574 137.379 191.428 137.379 191.276C137.379 191.124 137.44 190.978 137.547 190.871C137.655 190.763 137.801 190.703 137.953 190.703H180.793C180.945 190.703 181.091 190.763 181.198 190.871C181.306 190.978 181.366 191.124 181.366 191.276C181.366 191.428 181.306 191.574 181.198 191.682C181.091 191.789 180.945 191.85 180.793 191.85Z" fill="#282928"/>
<path d="M176.837 199.764H140.391C140.239 199.764 140.093 199.703 139.986 199.596C139.878 199.488 139.818 199.342 139.818 199.19C139.818 199.038 139.878 198.892 139.986 198.785C140.093 198.677 140.239 198.617 140.391 198.617H176.837C176.989 198.617 177.135 198.677 177.242 198.785C177.35 198.892 177.41 199.038 177.41 199.19C177.41 199.342 177.35 199.488 177.242 199.596C177.135 199.703 176.989 199.764 176.837 199.764Z" fill="#282928"/>
<path d="M201.295 232.94H157.222C155.322 232.94 153.781 234.481 153.781 236.381V240.628C153.781 242.528 155.322 244.069 157.222 244.069H201.295C203.196 244.069 204.736 242.528 204.736 240.628V236.381C204.736 234.481 203.196 232.94 201.295 232.94Z" fill="white"/>
<path d="M201.295 244.639H157.222C156.158 244.639 155.137 244.216 154.384 243.463C153.631 242.71 153.208 241.689 153.208 240.624V236.381C153.208 235.316 153.631 234.295 154.384 233.542C155.137 232.789 156.158 232.366 157.222 232.366H201.295C202.36 232.366 203.381 232.789 204.134 233.542C204.887 234.295 205.31 235.316 205.31 236.381V240.624C205.31 241.152 205.206 241.674 205.004 242.161C204.803 242.648 204.507 243.09 204.134 243.463C203.761 243.836 203.319 244.132 202.832 244.333C202.345 244.535 201.823 244.639 201.295 244.639ZM157.222 233.513C156.462 233.513 155.733 233.815 155.195 234.353C154.657 234.891 154.355 235.62 154.355 236.381V240.624C154.355 241.385 154.657 242.114 155.195 242.652C155.733 243.19 156.462 243.492 157.222 243.492H201.295C202.056 243.492 202.785 243.19 203.323 242.652C203.861 242.114 204.163 241.385 204.163 240.624V236.381C204.163 235.62 203.861 234.891 203.323 234.353C202.785 233.815 202.056 233.513 201.295 233.513H157.222Z" fill="#282928"/>
</svg>
