<svg width="290" height="233" viewBox="0 0 290 233" fill="none" xmlns="http://www.w3.org/2000/svg">
<path d="M114.74 114.804H114.584C111.436 114.741 109.908 112.559 109.254 111.126C108.412 111.967 106.698 113.027 103.58 112.435C99.2477 111.655 98.6866 107.572 98.6555 105.702C97.6268 105.92 95.7877 105.951 93.9174 104.206C91.0809 101.525 92.1719 98.6571 92.203 98.5324C92.2716 98.3892 92.3921 98.2776 92.5401 98.2202C92.6882 98.1629 92.8525 98.1642 92.9996 98.2238C93.1467 98.2834 93.2655 98.397 93.3318 98.5412C93.3981 98.6854 93.4069 98.8495 93.3564 99C93.3252 99.0935 92.5771 101.213 94.7902 103.302C96.5358 104.922 98.1567 104.58 98.7801 104.361C98.9083 104.315 99.0456 104.299 99.1809 104.316C99.3162 104.332 99.4458 104.38 99.5594 104.455C99.6717 104.544 99.7613 104.658 99.8209 104.788C99.8805 104.918 99.9084 105.06 99.9023 105.203C99.84 106.419 99.9646 110.502 103.799 111.219C106.822 111.78 108.131 110.627 108.661 109.879C108.752 109.752 108.875 109.653 109.018 109.593C109.161 109.532 109.318 109.513 109.472 109.536C109.622 109.557 109.765 109.617 109.885 109.71C110.005 109.803 110.099 109.925 110.158 110.066C110.532 111.094 111.716 113.526 114.615 113.557C117.514 113.588 118.262 111.998 118.574 111.032C118.616 110.884 118.7 110.753 118.816 110.653C118.933 110.553 119.076 110.49 119.228 110.471C119.384 110.442 119.544 110.455 119.692 110.51C119.841 110.565 119.971 110.659 120.07 110.783C120.943 111.967 123.405 114.523 126.678 112.902C129.453 111.562 129.359 109.66 128.798 108.289C128.732 108.125 128.718 107.944 128.757 107.772C128.796 107.599 128.886 107.443 129.016 107.323C129.139 107.207 129.296 107.133 129.464 107.11C129.631 107.088 129.802 107.119 129.951 107.198C131.447 107.915 134.97 108.757 136.061 107.666C137.152 106.575 135.998 103.364 135.375 102.335C135.288 102.191 135.262 102.017 135.303 101.854C135.344 101.69 135.449 101.549 135.593 101.462C135.738 101.376 135.911 101.35 136.075 101.391C136.239 101.432 136.379 101.536 136.466 101.681C136.56 101.868 139.147 106.325 136.934 108.569C135.375 110.128 131.946 109.255 130.232 108.632C130.544 110.035 130.512 112.466 127.239 114.024C123.966 115.583 120.725 113.432 119.509 112.061C118.948 113.214 117.639 114.804 114.74 114.804Z" fill="#FBBC1B"/>
<path d="M131.666 83.1963C127.801 83.1963 123.25 81.3884 118.076 77.7413C117.945 77.6419 117.856 77.497 117.828 77.3353C117.799 77.1737 117.832 77.0071 117.92 76.8685C117.967 76.8006 118.026 76.7427 118.096 76.698C118.165 76.6534 118.243 76.6229 118.324 76.6084C118.405 76.5939 118.488 76.5957 118.569 76.6136C118.649 76.6315 118.725 76.6652 118.793 76.7127C126.087 81.8559 131.947 83.2275 136.217 80.7961C146.816 74.8112 144.914 47.6924 144.914 47.443C144.905 47.3611 144.913 47.2782 144.937 47.1993C144.96 47.1203 144.999 47.0469 145.052 46.9831C145.104 46.9193 145.168 46.8665 145.241 46.8278C145.313 46.789 145.393 46.765 145.475 46.7572C145.644 46.7484 145.809 46.8052 145.937 46.9155C146.065 47.0259 146.145 47.1814 146.161 47.3495C146.223 48.4716 148.094 75.497 136.841 81.8871C135.26 82.7671 133.476 83.2184 131.666 83.1963Z" fill="#282928"/>
<path d="M138.357 56.7897C138.456 55.8308 138.022 55.0003 137.389 54.9348C136.755 54.8694 136.161 55.5937 136.062 56.5526C135.963 57.5116 136.396 58.342 137.03 58.4075C137.664 58.473 138.258 57.7487 138.357 56.7897Z" fill="#282928"/>
<path d="M125.646 55.9156C125.745 54.9567 125.312 54.1262 124.678 54.0607C124.044 53.9953 123.45 54.7196 123.351 55.6785C123.252 56.6375 123.685 57.4679 124.319 57.5334C124.953 57.5989 125.547 56.8746 125.646 55.9156Z" fill="#282928"/>
<path d="M141.548 54.8926L141.267 54.8302L135.656 52.7106C135.465 52.6277 135.311 52.4765 135.224 52.2864C135.138 52.0963 135.125 51.8809 135.189 51.682C135.272 51.4911 135.424 51.3394 135.616 51.2581C135.807 51.1769 136.023 51.1724 136.218 51.2456L141.828 53.3652C141.925 53.4029 142.014 53.4597 142.089 53.5322C142.164 53.6047 142.223 53.6915 142.264 53.7874C142.304 53.8833 142.326 53.9863 142.326 54.0905C142.326 54.1947 142.305 54.2978 142.265 54.3939C142.212 54.5416 142.115 54.6692 141.987 54.7587C141.858 54.8482 141.704 54.895 141.548 54.8926Z" fill="#282928"/>
<path d="M122.346 50.6528C122.172 50.6566 122.002 50.5995 121.865 50.4914C121.729 50.3833 121.634 50.2309 121.598 50.0605C121.551 49.8622 121.583 49.6533 121.688 49.4785C121.793 49.3036 121.962 49.1769 122.159 49.1254L126.741 47.9721C126.944 47.9225 127.158 47.9553 127.336 48.0635C127.514 48.1716 127.642 48.3462 127.692 48.5487C127.742 48.7513 127.709 48.9652 127.601 49.1435C127.492 49.3218 127.318 49.4498 127.115 49.4994L122.533 50.6528H122.346Z" fill="#282928"/>
<path d="M131.511 66.0212H131.355C131.187 66.0131 131.029 65.9406 130.913 65.8187C130.796 65.6968 130.732 65.5349 130.732 65.3666C130.736 65.2847 130.756 65.2043 130.791 65.1302C130.826 65.0561 130.876 64.9896 130.936 64.9346C130.997 64.8796 131.068 64.8371 131.145 64.8096C131.223 64.7821 131.305 64.7701 131.387 64.7743C132.01 64.8055 132.446 64.6808 132.571 64.4626C132.696 64.2444 132.01 62.3741 131.324 61.4702C131.269 61.4084 131.228 61.3359 131.202 61.2571C131.177 61.1784 131.169 61.0953 131.177 61.013C131.186 60.9308 131.212 60.8514 131.254 60.7798C131.295 60.7082 131.351 60.6461 131.418 60.5974C131.546 60.4947 131.71 60.447 131.873 60.4645C132.037 60.482 132.187 60.5634 132.29 60.6909C132.665 61.1585 134.441 63.5275 133.693 64.9925C133.35 65.6783 132.602 66.0212 131.511 66.0212Z" fill="#282928"/>
<path d="M130.544 73.9694C128.237 73.9382 123.717 72.7848 123.188 68.6703C123.174 68.59 123.178 68.508 123.198 68.4291C123.218 68.3503 123.254 68.2764 123.303 68.2121C123.353 68.1478 123.415 68.0944 123.487 68.0552C123.558 68.016 123.636 67.992 123.717 67.9845C123.798 67.9713 123.88 67.9748 123.959 67.9947C124.037 68.0146 124.111 68.0506 124.176 68.1003C124.24 68.15 124.293 68.2124 124.332 68.2837C124.372 68.3549 124.396 68.4334 124.403 68.5144C124.964 72.5978 130.482 72.7225 130.544 72.7225C130.709 72.7225 130.868 72.7882 130.985 72.9051C131.102 73.022 131.167 73.1806 131.167 73.3459C131.167 73.5113 131.102 73.6698 130.985 73.7868C130.868 73.9037 130.709 73.9694 130.544 73.9694Z" fill="#282928"/>
<path d="M169.135 151.49C168.98 151.491 168.83 151.434 168.715 151.33C168.6 151.227 168.527 151.084 168.512 150.929C165.239 123.062 143.294 105.856 130.857 100.058C129.95 99.639 129.161 99.0008 128.563 98.2008C127.964 97.4008 127.574 96.4643 127.428 95.4758C126.772 91.151 126.846 86.7468 127.646 82.4463C127.661 82.3677 127.692 82.2929 127.736 82.2264C127.78 82.1599 127.838 82.1031 127.905 82.0594C127.972 82.0157 128.047 81.986 128.126 81.9721C128.205 81.9583 128.285 81.9605 128.363 81.9788C128.526 82.0162 128.669 82.1145 128.761 82.2536C128.854 82.3927 128.89 82.5621 128.862 82.7269C128.088 86.8726 128.014 91.1187 128.644 95.2888C128.763 96.0766 129.075 96.8224 129.554 97.4591C130.033 98.0958 130.663 98.6033 131.387 98.9358C133.226 99.8086 142.858 104.547 152.147 114.241C162.215 124.777 168.138 137.089 169.759 150.805C169.768 150.968 169.716 151.13 169.612 151.257C169.508 151.384 169.36 151.467 169.197 151.49H169.135Z" fill="#282928"/>
<path d="M109.629 64.3677C109.629 64.3677 105.608 58.7881 106.793 56.7931C107.322 55.9827 108.85 54.5488 111.312 56.3879C116.736 60.4401 120.82 48.3146 123.5 44.4805C125.152 42.0803 127.771 44.1376 128.519 44.6987C133.007 48.1587 141.081 46.756 145.788 47.3794C146.098 47.4191 146.414 47.3924 146.714 47.3011C147.013 47.2098 147.29 47.0559 147.526 46.8497C147.761 46.6434 147.951 46.3895 148.081 46.1047C148.211 45.8199 148.279 45.5106 148.281 45.1974C148.25 41.114 145.944 33.9758 141.985 29.6742C136 23.1906 118.887 16.1148 105.826 33.4771C95.9762 46.6313 100.06 56.3255 102.616 60.2531C103.38 61.4573 104.519 62.3771 105.857 62.8715L109.629 64.3677Z" fill="#282928"/>
<path d="M90.8017 98.9369C90.6466 98.9377 90.4968 98.8807 90.3815 98.7769C90.2662 98.6732 90.1938 98.5302 90.1783 98.3759C90.1767 98.2091 90.236 98.0475 90.345 97.9212C90.454 97.795 90.6053 97.7128 90.7705 97.6901C94.4487 97.4096 104.392 95.8198 106.294 92.017L110.408 65.1786C109.348 64.524 106.356 62.4044 105.733 59.7548C105.589 59.1578 105.576 58.5369 105.695 57.9344C105.813 57.332 106.06 56.7621 106.418 56.2637C107.322 54.9233 108.351 54.2687 109.473 54.3622C111.718 54.5493 113.245 57.6975 113.401 58.0404C113.445 58.1151 113.474 58.1983 113.484 58.2846C113.495 58.3709 113.487 58.4585 113.462 58.5417C113.436 58.6248 113.394 58.7018 113.337 58.7676C113.28 58.8334 113.21 58.8866 113.132 58.9237C113.053 58.9608 112.967 58.9811 112.881 58.9832C112.794 58.9853 112.707 58.9692 112.627 58.9359C112.547 58.9027 112.474 58.8529 112.414 58.79C112.354 58.727 112.308 58.6522 112.279 58.5703C111.905 57.7911 110.658 55.7026 109.38 55.6091C108.725 55.5467 108.102 56.0143 107.447 56.9494C107.188 57.3039 107.009 57.7107 106.923 58.1413C106.837 58.5719 106.845 59.0162 106.948 59.4431C107.572 62.1238 111.343 64.3058 111.406 64.337L111.78 64.524L107.509 92.391V92.4845C105.016 97.7836 91.4563 98.9058 90.8952 98.9369H90.8017Z" fill="#282928"/>
<path d="M118.201 109.442C105.764 109.442 94.9788 98.6566 94.5424 98.1891C94.482 98.1336 94.4337 98.0661 94.4007 97.991C94.3676 97.9159 94.3506 97.8347 94.3506 97.7527C94.3506 97.6706 94.3676 97.5894 94.4007 97.5143C94.4337 97.4392 94.482 97.3718 94.5424 97.3163C94.659 97.202 94.8156 97.1381 94.9788 97.1381C95.142 97.1381 95.2987 97.202 95.4152 97.3163C95.5399 97.441 106.668 108.538 118.825 108.195C124.342 108.008 129.298 105.483 133.538 100.652C133.65 100.55 133.797 100.493 133.949 100.491C134.101 100.49 134.248 100.544 134.363 100.643C134.478 100.743 134.553 100.881 134.573 101.032C134.593 101.183 134.557 101.336 134.473 101.462C130.015 106.574 124.747 109.255 118.856 109.442H118.201Z" fill="#282928"/>
<path d="M91.4252 189.272C80.8893 189.272 72.3484 184.783 65.4596 175.681C58.0409 165.925 57.698 155.077 58.4149 144.822C59.3501 131.013 64.1193 119.729 74.3122 107.105C80.64 99.2498 90.303 97.7536 90.7082 97.6912C90.7901 97.679 90.8736 97.6829 90.9539 97.7029C91.0343 97.7229 91.1099 97.7585 91.1764 97.8077C91.243 97.8569 91.2992 97.9188 91.3419 97.9897C91.3846 98.0606 91.4129 98.1393 91.4252 98.2211C91.4375 98.303 91.4335 98.3865 91.4135 98.4668C91.3935 98.5472 91.3579 98.6228 91.3087 98.6894C91.2595 98.7559 91.1976 98.8122 91.1267 98.8548C91.0558 98.8975 90.9771 98.9258 90.8953 98.9381C90.8017 98.9381 81.2945 100.434 75.2785 107.884C65.1167 120.477 60.5969 131.169 59.6618 144.916C58.9448 154.921 59.2877 165.52 66.4571 174.933C73.6264 184.347 82.3544 188.056 91.4252 188.056C103.364 188.056 116.144 182.072 128.02 176.523C138.587 171.598 148.562 166.922 156.043 167.764C161.404 168.356 162.651 167.889 162.901 167.733C162.464 166.86 157.882 164.553 152.147 163.338C147.502 162.371 144.136 162.621 143.076 163.992C143.027 164.058 142.965 164.113 142.895 164.155C142.824 164.196 142.746 164.224 142.665 164.235C142.584 164.247 142.502 164.242 142.422 164.222C142.343 164.202 142.268 164.166 142.203 164.117C142.083 164.009 142.005 163.863 141.982 163.703C141.959 163.544 141.993 163.381 142.078 163.244C144.821 159.597 156.168 162.527 161.217 165.083C163.462 166.205 164.397 167.172 164.116 168.107C163.836 169.042 162.682 169.759 155.887 169.011C149.092 168.263 138.93 172.814 128.55 177.676C118.17 182.539 106.855 187.807 95.9138 189.023C94.4228 189.182 92.9246 189.265 91.4252 189.272Z" fill="#282928"/>
<path d="M158.38 164.833C157.603 164.809 156.835 164.662 156.105 164.397C155.954 164.341 155.83 164.228 155.761 164.083C155.691 163.937 155.68 163.771 155.731 163.618C155.781 163.461 155.891 163.331 156.037 163.255C156.183 163.179 156.353 163.164 156.51 163.213C157.476 163.555 158.567 163.68 158.848 163.524C159.128 163.368 158.785 162.745 157.04 160.875C152.427 155.794 140.675 158.693 139.709 159.316C139.607 159.427 139.47 159.497 139.321 159.514C139.172 159.531 139.022 159.494 138.898 159.41C138.83 159.363 138.772 159.303 138.728 159.234C138.683 159.164 138.653 159.087 138.638 159.006C138.624 158.925 138.625 158.841 138.643 158.761C138.661 158.68 138.695 158.604 138.742 158.537C139.241 157.789 142.982 156.978 146.005 156.76C149.839 156.48 155.045 156.791 157.975 160.033C159.876 162.122 160.469 163.368 159.908 164.21C159.347 165.052 159.004 164.833 158.38 164.833Z" fill="#282928"/>
<path d="M102.771 168.229C94.6353 168.229 85.5334 165.829 84.9411 158.909C84.9148 158.82 84.9087 158.726 84.9233 158.634C84.9379 158.542 84.9728 158.455 85.0256 158.378C85.0783 158.302 85.1475 158.238 85.228 158.192C85.3086 158.145 85.3985 158.118 85.4911 158.111C85.5838 158.103 85.6769 158.117 85.7636 158.151C85.8503 158.184 85.9284 158.237 85.9922 158.304C86.056 158.372 86.1039 158.453 86.1324 158.541C86.1609 158.63 86.1692 158.723 86.1568 158.815C86.6867 164.831 95.5393 167.232 104.049 166.982C112.559 166.733 121.817 163.585 121.91 158.815C122.159 148.124 135.719 147.064 135.875 147.064C135.955 147.055 136.036 147.063 136.113 147.087C136.19 147.111 136.262 147.151 136.323 147.203C136.384 147.256 136.434 147.32 136.47 147.393C136.505 147.465 136.526 147.544 136.529 147.625C136.538 147.794 136.481 147.959 136.371 148.087C136.261 148.215 136.105 148.295 135.937 148.311C135.438 148.342 123.375 149.277 123.157 158.847C123.032 164.613 113.463 167.917 104.08 168.229H102.771Z" fill="#282928"/>
<path d="M85.534 159.472C85.3871 159.472 85.2452 159.419 85.1358 159.321C85.0264 159.223 84.9572 159.088 84.9417 158.942C84.0066 151.648 85.9704 137.714 86.0639 137.122C86.0714 137.041 86.0955 136.962 86.1346 136.891C86.1738 136.82 86.2272 136.757 86.2915 136.708C86.3558 136.658 86.4297 136.622 86.5085 136.602C86.5874 136.582 86.6694 136.579 86.7497 136.592C86.8306 136.599 86.9092 136.624 86.9804 136.663C87.0517 136.702 87.1141 136.755 87.1638 136.82C87.2135 136.884 87.2494 136.958 87.2694 137.037C87.2893 137.115 87.2928 137.198 87.2796 137.278C87.2796 137.434 85.2534 151.648 86.1574 158.786C86.1706 158.866 86.1671 158.948 86.1472 159.027C86.1273 159.106 86.0914 159.18 86.0416 159.244C85.9919 159.308 85.9295 159.362 85.8583 159.401C85.787 159.44 85.7085 159.464 85.6275 159.472H85.534Z" fill="#282928"/>
<path d="M140.207 153.673C139.615 153.673 139.241 152.987 139.023 152.551C138.917 152.325 138.781 152.115 138.617 151.927L138.555 151.865L130.731 140.675C130.42 140.238 130.292 139.697 130.373 139.168C130.455 138.638 130.74 138.161 131.168 137.838L132.695 136.685C132.914 136.516 133.166 136.396 133.434 136.331C133.703 136.267 133.982 136.26 134.253 136.311C134.528 136.348 134.792 136.442 135.028 136.587C135.264 136.732 135.467 136.924 135.625 137.152L146.41 152.083C146.457 152.151 146.491 152.227 146.508 152.307C146.526 152.388 146.528 152.471 146.513 152.552C146.499 152.633 146.468 152.71 146.424 152.78C146.38 152.849 146.322 152.909 146.254 152.956C146.187 153.003 146.111 153.036 146.03 153.054C145.95 153.072 145.867 153.073 145.786 153.059C145.705 153.044 145.627 153.014 145.558 152.97C145.489 152.925 145.429 152.868 145.382 152.8L134.628 137.869C134.563 137.778 134.48 137.702 134.385 137.643C134.29 137.584 134.185 137.545 134.074 137.528C133.964 137.51 133.852 137.515 133.743 137.542C133.635 137.568 133.533 137.616 133.443 137.682L131.947 138.835C131.775 138.96 131.658 139.148 131.623 139.358C131.588 139.568 131.637 139.784 131.76 139.958L139.553 151.086C139.775 151.352 139.964 151.645 140.114 151.959C140.185 152.11 140.268 152.256 140.363 152.395C140.476 152.392 140.586 152.424 140.681 152.485C140.775 152.546 140.849 152.634 140.893 152.738C140.929 152.813 140.95 152.895 140.954 152.979C140.958 153.063 140.945 153.146 140.916 153.225C140.887 153.303 140.842 153.375 140.785 153.436C140.727 153.497 140.658 153.546 140.581 153.579C140.465 153.639 140.337 153.671 140.207 153.673Z" fill="#282928"/>
<path d="M136.373 138.837L131.978 141.611C131.877 141.68 131.763 141.727 131.642 141.75C131.522 141.772 131.399 141.771 131.279 141.745C131.16 141.718 131.047 141.668 130.947 141.597C130.848 141.526 130.764 141.435 130.7 141.331L129.859 139.959C129.5 139.385 129.377 138.694 129.517 138.032C129.656 137.369 130.047 136.786 130.607 136.406L131.947 135.47C132.512 135.092 133.201 134.942 133.872 135.052C134.543 135.162 135.148 135.524 135.563 136.063L136.592 137.465C136.669 137.569 136.726 137.687 136.757 137.813C136.788 137.939 136.794 138.069 136.773 138.197C136.753 138.325 136.707 138.448 136.638 138.558C136.57 138.668 136.48 138.763 136.373 138.837Z" fill="#FBBC1B"/>
<path d="M161.809 178.267C161.144 178.269 160.493 178.074 159.939 177.706L152.364 172.532C152.234 172.432 152.145 172.288 152.116 172.126C152.087 171.964 152.12 171.798 152.208 171.659C152.255 171.591 152.315 171.533 152.384 171.489C152.454 171.444 152.531 171.413 152.612 171.399C152.694 171.384 152.777 171.386 152.857 171.404C152.938 171.422 153.014 171.456 153.081 171.503L160.625 176.678C161.088 176.969 161.647 177.07 162.183 176.958L200.867 170.101C200.914 170.094 200.958 170.072 200.992 170.039C201.025 170.005 201.047 169.961 201.054 169.913C201.054 169.851 201.085 169.726 200.96 169.664L176.896 155.201C176.362 154.882 175.73 154.771 175.119 154.889L160.375 157.913C160.214 157.94 160.049 157.903 159.915 157.81C159.781 157.716 159.689 157.574 159.658 157.414C159.635 157.336 159.629 157.254 159.641 157.173C159.653 157.092 159.682 157.015 159.726 156.947C159.771 156.879 159.829 156.821 159.898 156.778C159.968 156.735 160.045 156.707 160.126 156.697L174.87 153.673C175.777 153.486 176.721 153.641 177.519 154.11L201.584 168.573C201.843 168.732 202.047 168.967 202.17 169.245C202.292 169.524 202.327 169.833 202.269 170.132C202.221 170.428 202.081 170.702 201.868 170.915C201.655 171.127 201.382 171.268 201.085 171.316L162.401 178.205L161.809 178.267Z" fill="#282928"/>
<path d="M183.317 170.537C182.932 170.537 182.557 170.405 182.257 170.163L179.078 167.607C178.85 167.43 178.674 167.194 178.57 166.925C178.466 166.656 178.436 166.364 178.486 166.079C178.532 165.787 178.654 165.512 178.84 165.283C179.026 165.053 179.269 164.876 179.546 164.77L184.533 162.9C184.784 162.807 185.054 162.776 185.319 162.809C185.585 162.841 185.839 162.937 186.06 163.087L190.861 166.422C191.13 166.608 191.337 166.872 191.454 167.178C191.571 167.484 191.592 167.818 191.515 168.137C191.453 168.463 191.291 168.762 191.05 168.991C190.81 169.22 190.504 169.368 190.175 169.415L183.567 170.506L183.317 170.537ZM185.094 164.053H184.969L179.982 165.955C179.918 165.982 179.863 166.026 179.821 166.082C179.779 166.137 179.752 166.202 179.743 166.271C179.733 166.34 179.742 166.41 179.767 166.475C179.793 166.54 179.834 166.597 179.888 166.64L183.068 169.196C183.104 169.242 183.153 169.276 183.209 169.293C183.265 169.31 183.324 169.309 183.38 169.29L189.988 168.199C190.063 168.179 190.131 168.14 190.186 168.085C190.241 168.031 190.28 167.962 190.3 167.887C190.321 167.807 190.318 167.723 190.29 167.645C190.262 167.567 190.211 167.499 190.144 167.451L185.343 164.116C185.271 164.063 185.182 164.041 185.094 164.053Z" fill="#282928"/>
<path d="M163.181 161.809C163.036 161.806 162.897 161.756 162.784 161.666C162.671 161.576 162.592 161.451 162.557 161.31C162.529 161.146 162.565 160.976 162.658 160.837C162.751 160.698 162.893 160.6 163.056 160.562L176.522 157.757C176.602 157.738 176.684 157.736 176.765 157.749C176.846 157.763 176.923 157.792 176.993 157.836C177.062 157.879 177.123 157.936 177.17 158.002C177.218 158.069 177.252 158.145 177.27 158.224C177.298 158.389 177.262 158.559 177.169 158.698C177.077 158.837 176.934 158.935 176.771 158.973L163.305 161.778L163.181 161.809Z" fill="#282928"/>
<path d="M167.95 167.451C167.804 167.454 167.662 167.406 167.548 167.315C167.434 167.223 167.356 167.095 167.327 166.952C167.299 166.791 167.336 166.626 167.43 166.492C167.523 166.358 167.665 166.266 167.825 166.235L173.966 164.926C174.046 164.903 174.13 164.897 174.212 164.909C174.295 164.92 174.374 164.949 174.445 164.993C174.515 165.037 174.576 165.095 174.622 165.165C174.669 165.234 174.7 165.312 174.714 165.394C174.744 165.554 174.712 165.72 174.625 165.858C174.539 165.997 174.404 166.098 174.247 166.142L168.075 167.451H167.95Z" fill="#282928"/>
<path d="M183.504 173.001C183.344 173.001 183.19 172.94 183.074 172.83C182.958 172.719 182.888 172.569 182.88 172.409L182.319 164.709L193.136 169.26C193.224 169.282 193.306 169.324 193.377 169.381C193.448 169.438 193.505 169.51 193.545 169.592C193.585 169.674 193.607 169.763 193.608 169.854C193.61 169.945 193.592 170.035 193.555 170.119C193.518 170.202 193.463 170.276 193.394 170.336C193.326 170.395 193.245 170.439 193.157 170.465C193.07 170.49 192.978 170.495 192.888 170.481C192.798 170.467 192.712 170.433 192.637 170.383L183.722 166.642L184.127 172.315C184.136 172.484 184.079 172.649 183.969 172.777C183.859 172.905 183.703 172.985 183.535 173.001H183.504Z" fill="#FBBC1B"/>
<path d="M54.892 165.674H18.6088C18.4434 165.674 18.2849 165.609 18.1679 165.492C18.051 165.375 17.9854 165.216 17.9854 165.051C17.9854 164.886 18.051 164.727 18.1679 164.61C18.2849 164.493 18.4434 164.428 18.6088 164.428H54.892C55.0573 164.428 55.2159 164.493 55.3328 164.61C55.4497 164.727 55.5154 164.886 55.5154 165.051C55.5154 165.216 55.4497 165.375 55.3328 165.492C55.2159 165.609 55.0573 165.674 54.892 165.674Z" fill="#282928"/>
<path d="M216.296 162.495H189.427C189.261 162.495 189.103 162.43 188.986 162.313C188.869 162.196 188.803 162.037 188.803 161.872C188.803 161.707 188.869 161.548 188.986 161.431C189.103 161.314 189.261 161.249 189.427 161.249H216.296C216.462 161.249 216.62 161.314 216.737 161.431C216.854 161.548 216.92 161.707 216.92 161.872C216.92 162.037 216.854 162.196 216.737 162.313C216.62 162.43 216.462 162.495 216.296 162.495Z" fill="#282928"/>
<path d="M286.213 201.739C287.462 201.092 288.455 200.039 289.027 198.753C289.599 197.467 289.717 196.025 289.361 194.663C287.709 188.211 284.716 175.992 282.036 162.494C278.732 145.911 273.9 126.523 267.385 124.933C257.068 122.408 247.405 128.019 235.559 131.604C218.571 136.747 204.669 139.584 204.981 146.909L215.174 185.748C215.174 185.748 163.928 206.103 161.996 209.937C160.063 213.771 159.159 216.919 163.274 217.574C167.388 218.228 222.499 234.749 226.645 232.848C230.073 231.258 272.341 209.033 286.213 201.739Z" fill="#FBBC1B"/>
<path d="M229.576 223.062C229.438 223.065 229.304 223.02 229.196 222.934C229.087 222.849 229.012 222.729 228.984 222.594L208.598 152.272C208.379 151.524 208.099 150.558 207.85 149.591C207.195 146.862 207.572 143.986 208.909 141.518L209.315 140.77C209.394 140.626 209.526 140.519 209.684 140.472C209.842 140.425 210.011 140.443 210.156 140.521C210.231 140.556 210.297 140.607 210.351 140.67C210.404 140.733 210.444 140.807 210.467 140.886C210.491 140.965 210.498 141.049 210.487 141.131C210.476 141.213 210.449 141.292 210.406 141.362L210 142.11C208.815 144.303 208.481 146.856 209.065 149.28C209.315 150.246 209.564 151.181 209.782 151.929L209.844 152.085L230.168 222.251C230.217 222.408 230.202 222.578 230.126 222.724C230.05 222.87 229.92 222.98 229.763 223.031L229.576 223.062Z" fill="#282928"/>
<path d="M236.09 223.154L235.373 223.061C234.666 222.874 234.061 222.414 233.69 221.783C233.508 221.47 233.389 221.125 233.341 220.767C233.293 220.408 233.316 220.044 233.41 219.694C233.502 219.336 233.666 218.999 233.891 218.705C234.116 218.41 234.397 218.164 234.719 217.98L241.732 213.928C242.374 213.558 243.136 213.457 243.852 213.647C244.562 213.848 245.166 214.318 245.535 214.956C245.888 215.595 245.978 216.347 245.786 217.051C245.594 217.755 245.135 218.357 244.507 218.728L237.493 222.811C237.059 223.034 236.578 223.151 236.09 223.154ZM243.104 214.8C242.841 214.815 242.585 214.889 242.356 215.019L235.342 219.071C235.163 219.167 235.007 219.3 234.883 219.461C234.76 219.623 234.672 219.808 234.625 220.006C234.565 220.198 234.548 220.401 234.575 220.6C234.602 220.799 234.672 220.99 234.781 221.159C234.982 221.503 235.305 221.759 235.685 221.876C236.086 221.965 236.505 221.91 236.87 221.72L243.883 217.668C244.229 217.455 244.484 217.122 244.6 216.733C244.693 216.343 244.637 215.932 244.444 215.58C244.231 215.234 243.898 214.979 243.509 214.863L243.104 214.8Z" fill="#282928"/>
<path d="M275.958 203.36C275.471 203.355 274.993 203.223 274.572 202.977C274.151 202.731 273.802 202.38 273.558 201.957C273.197 201.32 273.102 200.566 273.295 199.859C273.488 199.153 273.952 198.551 274.587 198.186L281.6 194.133C282.075 193.854 282.623 193.723 283.173 193.756C283.723 193.789 284.251 193.985 284.689 194.32C285.127 194.654 285.456 195.112 285.633 195.634C285.81 196.156 285.828 196.718 285.684 197.25C285.483 197.96 285.013 198.564 284.374 198.934L277.361 202.986C276.933 203.229 276.45 203.358 275.958 203.36ZM283.003 195.006C282.732 195.005 282.464 195.069 282.224 195.193L275.21 199.245C274.859 199.448 274.602 199.782 274.497 200.173C274.392 200.565 274.446 200.983 274.649 201.334C274.851 201.685 275.185 201.942 275.577 202.047C275.969 202.152 276.386 202.098 276.737 201.895L283.751 197.843C284.103 197.637 284.36 197.301 284.468 196.908C284.52 196.715 284.533 196.513 284.507 196.315C284.48 196.117 284.414 195.926 284.312 195.754C284.182 195.523 283.992 195.331 283.761 195.199C283.53 195.067 283.268 195 283.003 195.006Z" fill="#282928"/>
<path d="M249.307 214.52C249.165 214.522 249.026 214.475 248.915 214.388C248.803 214.301 248.724 214.178 248.691 214.04C248.658 213.902 248.674 213.757 248.735 213.629C248.796 213.501 248.898 213.397 249.026 213.335L269.724 203.142C269.873 203.068 270.045 203.056 270.203 203.108C270.36 203.161 270.491 203.274 270.565 203.423C270.64 203.572 270.652 203.744 270.599 203.902C270.547 204.06 270.434 204.19 270.285 204.264L249.587 214.457L249.307 214.52Z" fill="#282928"/>
<path d="M184.938 215.892C184.823 215.889 184.71 215.856 184.611 215.796C184.513 215.735 184.432 215.65 184.377 215.549C184.34 215.475 184.317 215.395 184.311 215.313C184.305 215.23 184.315 215.148 184.342 215.069C184.368 214.991 184.409 214.919 184.463 214.856C184.518 214.794 184.584 214.744 184.658 214.707L217.824 197.532C217.969 197.454 218.138 197.437 218.296 197.483C218.454 197.53 218.586 197.637 218.665 197.781C218.735 197.927 218.749 198.094 218.703 198.25C218.657 198.405 218.554 198.538 218.416 198.623L185.219 215.829L184.938 215.892Z" fill="#282928"/>
<path d="M224.869 225.96H224.464L164.927 211.216C164.769 211.166 164.636 211.057 164.555 210.913C164.474 210.768 164.451 210.598 164.49 210.437C164.508 210.358 164.542 210.283 164.591 210.218C164.639 210.152 164.7 210.097 164.77 210.056C164.84 210.015 164.918 209.989 164.998 209.98C165.079 209.97 165.161 209.977 165.239 210.001L224.744 224.745C224.834 224.764 224.927 224.76 225.014 224.733C225.102 224.705 225.18 224.656 225.243 224.589C225.299 224.526 225.337 224.45 225.354 224.368C225.37 224.286 225.364 224.2 225.337 224.121L214.458 186.56C214.434 186.48 214.427 186.397 214.436 186.314C214.445 186.231 214.471 186.151 214.512 186.078C214.552 186.006 214.607 185.942 214.673 185.891C214.739 185.84 214.814 185.802 214.894 185.781C215.051 185.732 215.221 185.747 215.367 185.823C215.513 185.899 215.623 186.029 215.673 186.186L226.552 223.747C226.633 224.041 226.635 224.352 226.559 224.647C226.482 224.942 226.329 225.213 226.116 225.43C225.956 225.6 225.763 225.735 225.548 225.826C225.333 225.918 225.102 225.963 224.869 225.96Z" fill="#282928"/>
<path d="M223.996 218.416H223.871L193.167 211.839C193.004 211.802 192.862 211.703 192.769 211.564C192.676 211.425 192.64 211.256 192.669 211.091C192.712 210.934 192.814 210.799 192.952 210.712C193.09 210.626 193.256 210.594 193.417 210.623L224.12 217.2C224.202 217.215 224.28 217.246 224.349 217.293C224.418 217.339 224.477 217.399 224.521 217.47C224.565 217.541 224.594 217.62 224.605 217.702C224.617 217.785 224.611 217.869 224.588 217.949C224.554 218.081 224.477 218.198 224.37 218.282C224.263 218.367 224.132 218.414 223.996 218.416Z" fill="#282928"/>
<path d="M195.132 218.416C194.995 218.419 194.861 218.377 194.75 218.297C194.64 218.216 194.559 218.102 194.52 217.971C194.481 217.839 194.486 217.699 194.534 217.571C194.583 217.443 194.673 217.335 194.789 217.263L218.448 202.612L213.18 201.303C213.019 201.262 212.881 201.158 212.796 201.015C212.711 200.872 212.687 200.701 212.728 200.539C212.769 200.378 212.873 200.24 213.016 200.155C213.159 200.071 213.33 200.046 213.492 200.087L219.352 201.553C219.544 201.595 219.719 201.696 219.853 201.841C219.987 201.985 220.073 202.168 220.1 202.363C220.131 202.553 220.102 202.747 220.019 202.92C219.935 203.093 219.8 203.236 219.632 203.329L195.444 218.323C195.35 218.382 195.242 218.415 195.132 218.416Z" fill="#282928"/>
<path d="M204.264 220.911C204.152 220.914 204.041 220.882 203.946 220.821C203.852 220.76 203.778 220.672 203.734 220.568C203.654 220.427 203.632 220.26 203.672 220.103C203.713 219.946 203.814 219.811 203.952 219.727L219.694 210.999L201.864 207.289C201.707 207.245 201.572 207.144 201.485 207.006C201.399 206.868 201.367 206.702 201.396 206.541C201.411 206.459 201.442 206.381 201.488 206.312C201.535 206.243 201.595 206.185 201.666 206.14C201.737 206.096 201.816 206.068 201.898 206.056C201.981 206.045 202.065 206.051 202.145 206.074L221.252 210.032C221.4 210.07 221.533 210.149 221.638 210.259C221.743 210.369 221.814 210.507 221.845 210.656C221.866 210.808 221.842 210.963 221.776 211.102C221.709 211.241 221.603 211.357 221.471 211.435L204.576 220.818C204.483 220.877 204.375 220.91 204.264 220.911Z" fill="#282928"/>
<path d="M216.546 223.716C216.445 223.718 216.346 223.694 216.258 223.644C216.17 223.595 216.097 223.523 216.047 223.436C216 223.368 215.966 223.292 215.948 223.212C215.93 223.131 215.928 223.048 215.943 222.967C215.957 222.885 215.988 222.808 216.032 222.739C216.077 222.669 216.135 222.61 216.203 222.563L223.248 217.856C223.384 217.761 223.553 217.724 223.716 217.753C223.88 217.782 224.025 217.875 224.12 218.012C224.215 218.148 224.252 218.317 224.223 218.48C224.194 218.644 224.101 218.79 223.965 218.885L216.889 223.623C216.786 223.686 216.667 223.719 216.546 223.716Z" fill="#282928"/>
<path d="M179.795 218.853H179.639L176.304 217.949C176.225 217.931 176.15 217.897 176.084 217.849C176.019 217.801 175.964 217.74 175.923 217.67C175.882 217.6 175.856 217.522 175.846 217.441C175.837 217.36 175.844 217.279 175.867 217.201C175.911 217.044 176.012 216.909 176.151 216.822C176.289 216.736 176.455 216.704 176.615 216.733L179.951 217.606C180.109 217.657 180.242 217.765 180.323 217.91C180.404 218.054 180.427 218.224 180.387 218.385C180.353 218.517 180.277 218.634 180.17 218.719C180.063 218.803 179.931 218.85 179.795 218.853Z" fill="#282928"/>
<path d="M211.185 226.863H211.029L184.066 220.162C183.986 220.143 183.91 220.109 183.844 220.062C183.777 220.014 183.72 219.954 183.677 219.885C183.633 219.815 183.604 219.738 183.591 219.657C183.577 219.576 183.58 219.493 183.598 219.414C183.642 219.25 183.748 219.11 183.893 219.022C184.039 218.935 184.212 218.908 184.377 218.946L211.34 225.648C211.42 225.666 211.496 225.7 211.562 225.748C211.629 225.795 211.686 225.855 211.729 225.925C211.773 225.994 211.802 226.072 211.815 226.153C211.829 226.233 211.826 226.316 211.808 226.396C211.768 226.53 211.686 226.648 211.573 226.733C211.461 226.817 211.325 226.863 211.185 226.863Z" fill="#282928"/>
<path d="M253.662 178.712C258.291 176.795 260.814 172.275 259.299 168.617C257.784 164.959 252.804 163.547 248.175 165.465C243.547 167.382 241.023 171.901 242.539 175.559C244.054 179.218 249.034 180.629 253.662 178.712Z" fill="white"/>
<path d="M114.897 28.4902C114.897 28.4902 103.426 23.6899 106.792 8.88358C110.159 -5.92271 129.953 -0.187222 133.755 11.2838C136.031 18.0791 131.137 26.5576 127.802 28.4902C124.466 30.4228 114.897 28.4902 114.897 28.4902Z" fill="#282928"/>
<path d="M117.328 28.6152C113.868 28.6152 112.278 27.6489 112.153 27.5554C112.086 27.5116 112.029 27.4546 111.985 27.388C111.941 27.3214 111.91 27.2465 111.896 27.1679C111.881 27.0893 111.883 27.0085 111.9 26.9304C111.918 26.8524 111.951 26.7787 111.998 26.7138C112.039 26.6444 112.094 26.5842 112.159 26.5369C112.225 26.4895 112.299 26.4561 112.378 26.4386C112.457 26.4211 112.538 26.4199 112.618 26.435C112.697 26.4502 112.772 26.4814 112.839 26.5268C112.901 26.5579 118.325 29.7686 131.822 23.3785C131.896 23.3411 131.976 23.3187 132.059 23.3126C132.141 23.3065 132.223 23.3168 132.302 23.3429C132.38 23.369 132.452 23.4104 132.515 23.4646C132.577 23.5189 132.628 23.585 132.664 23.659C132.729 23.8126 132.733 23.9852 132.675 24.1417C132.617 24.2981 132.502 24.4265 132.352 24.5006C125.463 27.7736 120.57 28.6152 117.328 28.6152Z" fill="#FBBC1B"/>
<path d="M116.455 27.961C116.455 27.961 120.663 22.9736 122.783 23.7529C124.902 24.5322 121.972 31.6392 120.944 31.8886C119.915 32.1379 116.455 27.961 116.455 27.961Z" fill="#FBBC1B"/>
<path d="M116.332 27.8988C116.332 27.8988 113.464 22.0074 111.251 22.2568C109.037 22.5062 110.066 30.0807 111.032 30.6106C111.999 31.1406 116.332 27.8988 116.332 27.8988Z" fill="#FBBC1B"/>
<path d="M110.907 18.421C110.741 18.421 110.583 18.3553 110.466 18.2384C110.349 18.1215 110.283 17.9629 110.283 17.7975V14.9298C110.283 14.7645 110.349 14.6059 110.466 14.489C110.583 14.3721 110.741 14.3064 110.907 14.3064C111.072 14.3064 111.231 14.3721 111.347 14.489C111.464 14.6059 111.53 14.7645 111.53 14.9298V17.7975C111.53 17.9629 111.464 18.1215 111.347 18.2384C111.231 18.3553 111.072 18.421 110.907 18.421Z" fill="white"/>
<path d="M155.544 159.472C154.92 159.472 154.141 159.067 153.518 158.661C153.438 158.622 153.368 158.566 153.311 158.498C153.255 158.429 153.214 158.35 153.191 158.264C153.168 158.178 153.163 158.089 153.178 158.001C153.192 157.914 153.225 157.83 153.274 157.756C153.324 157.683 153.388 157.62 153.463 157.573C153.538 157.526 153.623 157.496 153.711 157.484C153.799 157.472 153.888 157.48 153.973 157.505C154.058 157.531 154.136 157.574 154.203 157.633C154.516 157.836 154.851 158.003 155.201 158.132C154.854 157.439 154.458 156.772 154.016 156.137C151.585 152.583 141.61 153.331 137.994 153.923C137.912 153.937 137.829 153.933 137.748 153.914C137.667 153.894 137.591 153.859 137.524 153.809C137.458 153.76 137.401 153.698 137.359 153.626C137.316 153.555 137.289 153.476 137.277 153.393C137.25 153.232 137.287 153.067 137.38 152.933C137.473 152.799 137.616 152.707 137.776 152.677C138.337 152.583 151.647 150.495 155.045 155.42C156.51 157.57 156.853 158.599 156.261 159.191C156.17 159.29 156.059 159.366 155.935 159.415C155.81 159.464 155.677 159.483 155.544 159.472Z" fill="#282928"/>
<path d="M154.608 151.275C154.458 151.276 154.312 151.224 154.198 151.126C154.083 151.029 154.007 150.894 153.985 150.745C153.081 142.142 147.813 133.944 147.751 133.881C147.706 133.812 147.675 133.734 147.66 133.652C147.645 133.571 147.646 133.487 147.663 133.406C147.681 133.325 147.714 133.248 147.761 133.18C147.808 133.112 147.868 133.054 147.938 133.008C148.007 132.963 148.085 132.933 148.167 132.918C148.248 132.903 148.332 132.904 148.413 132.921C148.494 132.939 148.571 132.972 148.639 133.019C148.707 133.066 148.765 133.126 148.81 133.196C149.029 133.538 154.265 141.705 155.232 150.589C155.24 150.671 155.233 150.754 155.209 150.833C155.185 150.912 155.146 150.985 155.094 151.049C155.042 151.113 154.978 151.165 154.905 151.204C154.832 151.243 154.753 151.267 154.671 151.275H154.608Z" fill="#282928"/>
<path d="M75.0599 148.344C72.3048 148.321 69.5741 147.825 66.9866 146.879C64.0299 145.826 61.2853 144.253 58.8821 142.234C58.7581 142.123 58.6835 141.966 58.6747 141.8C58.6659 141.633 58.7237 141.47 58.8353 141.346C58.9469 141.222 59.1032 141.147 59.2698 141.138C59.4364 141.13 59.5997 141.187 59.7237 141.299C62.0291 143.205 64.6437 144.702 67.4541 145.725C73.6572 147.97 79.7356 147.502 85.5022 144.323C85.5709 144.279 85.648 144.249 85.7286 144.236C85.8093 144.223 85.8917 144.227 85.9707 144.248C86.0497 144.268 86.1237 144.305 86.1879 144.355C86.2521 144.406 86.3052 144.469 86.3438 144.541C86.4232 144.69 86.4415 144.865 86.395 145.027C86.3485 145.19 86.2408 145.329 86.0945 145.414C82.7261 147.315 78.9277 148.323 75.0599 148.344Z" fill="#282928"/>
<path d="M152.333 140.831C152.214 140.829 152.097 140.792 151.998 140.726C151.898 140.66 151.82 140.566 151.772 140.457C151.707 140.303 151.703 140.13 151.761 139.974C151.819 139.818 151.934 139.689 152.084 139.615C156.323 137.838 160.375 127.053 160.406 126.928C160.475 126.779 160.594 126.66 160.742 126.591C160.891 126.523 161.059 126.51 161.217 126.554C161.37 126.617 161.494 126.735 161.563 126.886C161.633 127.036 161.643 127.207 161.591 127.365C161.404 127.832 157.321 138.773 152.582 140.768L152.333 140.831Z" fill="#282928"/>
<path d="M26.2463 155.637V151.273C26.2463 151.273 14.339 155.232 11.9699 141.454C9.60094 127.676 10.5672 119.603 15.5235 123.811C19.8874 127.552 19.3575 139.116 24.002 139.584C24.2793 139.606 24.558 139.565 24.8171 139.464C25.0763 139.363 25.3092 139.205 25.4982 139C25.6873 138.796 25.8276 138.552 25.9086 138.286C25.9895 138.02 26.0091 137.739 25.9658 137.464C24.9995 131.542 22.3188 111.499 29.4258 109.909C37.7485 108.007 38.4342 119.634 39.2447 127.271C40.0551 134.908 37.4679 137.994 40.6162 136.498C43.7645 135.002 39.7434 119.323 45.2919 120.912C50.8403 122.502 51.4326 131.76 51.3391 139.085C51.2456 146.41 39.5252 147.532 39.5252 147.532L39.12 155.949L26.2463 155.637Z" fill="#FBBC1B"/>
<path d="M21.9755 181.417L16.77 161.841C16.5407 160.99 16.658 160.082 17.0961 159.317C17.5342 158.552 18.2575 157.991 19.1078 157.758C24.4069 156.231 35.6908 153.924 46.3825 157.633C47.1764 157.905 47.8372 158.468 48.2308 159.209C48.6245 159.95 48.7215 160.813 48.5022 161.623L43.4524 181.105C43.3211 181.627 43.0654 182.11 42.7071 182.511C42.3489 182.913 41.8987 183.222 41.3952 183.412C38.5274 184.472 32.1685 186.124 24.2199 183.755C23.6807 183.583 23.1929 183.279 22.801 182.871C22.4091 182.462 22.1253 181.963 21.9755 181.417Z" fill="white"/>
<path d="M32.4489 185.593C29.6085 185.583 26.7845 185.163 24.0639 184.347C23.419 184.149 22.8348 183.79 22.366 183.305C21.8972 182.82 21.559 182.224 21.3832 181.572L16.1776 161.997C15.9172 160.993 16.058 159.927 16.57 159.025C17.0821 158.123 17.9252 157.456 18.9207 157.165C24.6562 155.513 35.8466 153.3 46.6006 157.041C47.5298 157.381 48.2994 158.054 48.7602 158.929C49.221 159.805 49.3401 160.82 49.0943 161.779L44.0758 181.261C43.9138 181.881 43.6057 182.454 43.1774 182.931C42.749 183.408 42.2127 183.776 41.6133 184.004C38.676 185.069 35.5735 185.607 32.4489 185.593ZM22.5989 181.261C22.7147 181.705 22.9414 182.112 23.2576 182.445C23.5738 182.777 23.9692 183.024 24.4068 183.162C32.0749 185.438 38.2156 183.941 41.1769 182.819C41.5863 182.664 41.9527 182.414 42.2456 182.088C42.5384 181.763 42.7491 181.372 42.8601 180.949L47.9098 161.467C48.0745 160.81 47.9905 160.116 47.674 159.517C47.3575 158.919 46.8309 158.459 46.1954 158.225C35.7843 154.609 24.8432 156.76 19.2636 158.35C18.5835 158.56 18.0101 159.023 17.662 159.644C17.3139 160.265 17.2177 160.995 17.3933 161.685L22.5989 181.261Z" fill="#282928"/>
<path d="M34.7243 171.191C30.5372 171.161 26.3545 170.911 22.1935 170.443C22.1126 170.436 22.034 170.412 21.9628 170.372C21.8915 170.333 21.8291 170.28 21.7794 170.215C21.7297 170.151 21.6937 170.077 21.6738 169.998C21.6539 169.92 21.6504 169.838 21.6636 169.757C21.6714 169.675 21.6954 169.596 21.7341 169.523C21.7729 169.45 21.8257 169.386 21.8895 169.334C21.9532 169.282 22.0267 169.243 22.1056 169.219C22.1846 169.195 22.2674 169.188 22.3494 169.196C22.5052 169.227 36.7816 170.848 42.5483 169.227C42.6281 169.204 42.7118 169.196 42.7946 169.206C42.8773 169.215 42.9573 169.241 43.03 169.281C43.1026 169.322 43.1663 169.377 43.2175 169.442C43.2686 169.508 43.306 169.583 43.3275 169.664C43.3659 169.821 43.3419 169.986 43.2605 170.126C43.179 170.266 43.0466 170.368 42.8911 170.412C40.8338 171.004 37.8102 171.191 34.7243 171.191Z" fill="#282928"/>
<path d="M11.9698 134.939H9.13319C8.96785 134.939 8.80928 134.873 8.69236 134.756C8.57545 134.639 8.50977 134.481 8.50977 134.315C8.50977 134.15 8.57545 133.991 8.69236 133.875C8.80928 133.758 8.96785 133.692 9.13319 133.692H11.9698C12.1351 133.692 12.2937 133.758 12.4106 133.875C12.5275 133.991 12.5932 134.15 12.5932 134.315C12.5932 134.481 12.5275 134.639 12.4106 134.756C12.2937 134.873 12.1351 134.939 11.9698 134.939Z" fill="#282928"/>
<path d="M11.9694 131.947C11.8827 131.95 11.7964 131.935 11.7159 131.903C11.6354 131.871 11.5625 131.822 11.5018 131.76L8.66524 128.799C8.55986 128.67 8.50493 128.507 8.51066 128.341C8.5164 128.175 8.58241 128.016 8.69641 127.895C8.81698 127.785 8.97596 127.726 9.13917 127.732C9.30239 127.738 9.4568 127.808 9.5692 127.926L12.4058 130.919C12.4643 130.976 12.5102 131.045 12.5406 131.122C12.571 131.198 12.5851 131.28 12.5822 131.362C12.5793 131.444 12.5593 131.525 12.5236 131.599C12.4878 131.672 12.4371 131.738 12.3746 131.791C12.2612 131.888 12.1182 131.943 11.9694 131.947Z" fill="#282928"/>
<path d="M18.7965 149.31H18.5783C18.4295 149.242 18.3099 149.123 18.2413 148.974C18.1727 148.825 18.1596 148.657 18.2042 148.5L18.9523 146.442C19.0205 146.293 19.1397 146.174 19.2884 146.105C19.437 146.037 19.6053 146.024 19.7628 146.068C19.9161 146.131 20.0399 146.249 20.1094 146.4C20.1788 146.55 20.1886 146.721 20.1368 146.879L19.3887 148.936C19.3356 149.048 19.2517 149.143 19.1468 149.209C19.042 149.275 18.9205 149.31 18.7965 149.31Z" fill="#282928"/>
<path d="M10.7221 145.506C10.5777 145.503 10.4383 145.453 10.3256 145.363C10.2128 145.273 10.133 145.148 10.0987 145.007C10.0706 144.843 10.1066 144.673 10.1993 144.534C10.292 144.395 10.4345 144.297 10.5974 144.259L13.7769 143.605C13.9335 143.576 14.095 143.609 14.2283 143.696C14.3616 143.783 14.4566 143.918 14.4938 144.072C14.5123 144.152 14.5148 144.235 14.5013 144.316C14.4878 144.396 14.4585 144.474 14.4151 144.543C14.3717 144.613 14.315 144.673 14.2483 144.72C14.1815 144.768 14.1061 144.802 14.0263 144.82L10.8468 145.475L10.7221 145.506Z" fill="#282928"/>
<path d="M13.9024 148.28C13.7913 148.283 13.6822 148.25 13.5907 148.187C13.4466 148.108 13.3395 147.975 13.2928 147.817C13.2461 147.66 13.2635 147.49 13.3413 147.345L13.9336 146.317C13.9753 146.244 14.0314 146.18 14.0984 146.129C14.1654 146.078 14.2419 146.042 14.3235 146.021C14.405 146.001 14.4898 145.997 14.5728 146.011C14.6558 146.024 14.7352 146.054 14.8064 146.098C14.9452 146.183 15.0456 146.318 15.0864 146.475C15.1271 146.632 15.105 146.799 15.0246 146.94L14.4323 147.969C14.3763 148.06 14.2986 148.136 14.2062 148.191C14.1138 148.245 14.0095 148.276 13.9024 148.28Z" fill="#282928"/>
<path d="M18.7955 134.067C18.6467 134.062 18.5037 134.007 18.3903 133.911C18.2674 133.803 18.192 133.651 18.1803 133.487C18.1686 133.324 18.2217 133.163 18.328 133.038L21.0087 130.077C21.1264 129.956 21.2861 129.886 21.4544 129.88C21.6228 129.874 21.7869 129.934 21.9127 130.046C22.0311 130.158 22.1008 130.313 22.1066 130.476C22.1124 130.639 22.054 130.798 21.9438 130.919L19.2631 133.88C19.2025 133.942 19.1296 133.99 19.049 134.023C18.9685 134.055 18.8822 134.07 18.7955 134.067Z" fill="#282928"/>
<path d="M26.8378 116.018C26.6638 116.017 26.4967 115.95 26.3702 115.831L23.7207 112.994C23.6602 112.939 23.6119 112.871 23.5789 112.796C23.5459 112.721 23.5288 112.64 23.5288 112.558C23.5288 112.476 23.5459 112.395 23.5789 112.32C23.6119 112.244 23.6602 112.177 23.7207 112.121C23.8495 112.016 24.0122 111.961 24.1785 111.967C24.3448 111.973 24.5034 112.039 24.6246 112.153L27.3053 114.989C27.4155 115.11 27.474 115.269 27.4681 115.432C27.4623 115.595 27.3927 115.75 27.2742 115.862C27.2156 115.916 27.1468 115.958 27.0718 115.984C26.9969 116.011 26.9173 116.023 26.8378 116.018Z" fill="#282928"/>
<path d="M34.5689 113.212L34.2883 113.15C34.1389 113.076 34.0235 112.947 33.9656 112.791C33.9076 112.634 33.9116 112.462 33.9766 112.308L36.0963 107.851C36.1704 107.701 36.2988 107.586 36.4553 107.528C36.6117 107.47 36.7843 107.474 36.9379 107.539C37.0119 107.575 37.078 107.626 37.1323 107.688C37.1865 107.751 37.2279 107.823 37.254 107.901C37.2801 107.979 37.2904 108.062 37.2843 108.144C37.2782 108.227 37.2558 108.307 37.2184 108.381L35.13 112.838C35.0766 112.944 34.9969 113.033 34.8986 113.099C34.8003 113.164 34.6867 113.203 34.5689 113.212Z" fill="#282928"/>
<path d="M33.2287 124.436C33.128 124.438 33.0286 124.413 32.9409 124.364C32.8531 124.314 32.7802 124.242 32.7299 124.155C32.6832 124.09 32.65 124.016 32.6325 123.938C32.615 123.86 32.6135 123.78 32.6281 123.701C32.6426 123.622 32.673 123.547 32.7173 123.481C32.7616 123.414 32.8189 123.357 32.8858 123.313L35.2548 121.724C35.3969 121.639 35.566 121.611 35.728 121.645C35.89 121.68 36.0328 121.775 36.1276 121.911C36.1736 121.98 36.2054 122.058 36.2209 122.139C36.2364 122.221 36.2355 122.305 36.218 122.387C36.2006 122.468 36.1671 122.545 36.1194 122.613C36.0718 122.681 36.011 122.739 35.9406 122.783L33.5716 124.342C33.4688 124.406 33.3496 124.438 33.2287 124.436Z" fill="#282928"/>
<path d="M27.5864 136.123H27.4617L24.0641 135.531C23.8954 135.501 23.7454 135.405 23.6463 135.265C23.5472 135.125 23.507 134.952 23.5342 134.783C23.5713 134.626 23.665 134.488 23.7973 134.396C23.9296 134.304 24.0912 134.264 24.2511 134.284L27.6799 134.876C27.8392 134.913 27.9801 135.006 28.0773 135.137C28.1745 135.268 28.2215 135.43 28.2099 135.593C28.1816 135.739 28.1045 135.871 27.9911 135.968C27.8778 136.064 27.7351 136.119 27.5864 136.123Z" fill="#282928"/>
<path d="M46.7879 137.028C46.6379 137.03 46.4931 136.974 46.3826 136.872C46.3171 136.819 46.2633 136.752 46.2245 136.677C46.1856 136.601 46.1626 136.519 46.1568 136.434C46.1509 136.349 46.1624 136.264 46.1905 136.184C46.2187 136.104 46.2628 136.031 46.3203 135.969L48.1282 133.911C48.1821 133.846 48.2488 133.792 48.3242 133.753C48.3996 133.714 48.4822 133.691 48.5668 133.685C48.6514 133.68 48.7363 133.691 48.8163 133.719C48.8964 133.747 48.9698 133.791 49.0322 133.849C49.0947 133.902 49.1454 133.968 49.1812 134.042C49.2169 134.116 49.2369 134.196 49.2398 134.278C49.2427 134.361 49.2286 134.442 49.1982 134.519C49.1678 134.595 49.1219 134.664 49.0634 134.722L47.2554 136.81C47.1321 136.938 46.9654 137.016 46.7879 137.028Z" fill="#282928"/>
<path d="M44.2626 122.129C44.0972 122.129 43.9387 122.063 43.8218 121.946C43.7048 121.829 43.6392 121.67 43.6392 121.505V118.388C43.6392 118.223 43.7048 118.064 43.8218 117.947C43.9387 117.83 44.0972 117.765 44.2626 117.765C44.4279 117.765 44.5865 117.83 44.7034 117.947C44.8203 118.064 44.886 118.223 44.886 118.388V121.505C44.886 121.67 44.8203 121.829 44.7034 121.946C44.5865 122.063 44.4279 122.129 44.2626 122.129Z" fill="#282928"/>
<path d="M46.7879 122.877C46.6647 122.873 46.5446 122.837 46.4404 122.771C46.3362 122.705 46.2516 122.612 46.1956 122.503C46.1339 122.35 46.1354 122.178 46.1997 122.027C46.2639 121.875 46.3858 121.754 46.5385 121.692L48.3776 120.913C48.4544 120.876 48.5378 120.856 48.6228 120.852C48.7078 120.849 48.7926 120.863 48.872 120.894C48.9513 120.925 49.0235 120.971 49.0841 121.031C49.1448 121.091 49.1926 121.162 49.2245 121.241C49.2565 121.32 49.272 121.404 49.27 121.489C49.2681 121.575 49.2487 121.658 49.2132 121.736C49.1777 121.813 49.1267 121.882 49.0634 121.939C49.0001 121.996 48.9258 122.039 48.8452 122.066L47.0061 122.814C46.9438 122.862 46.8659 122.884 46.7879 122.877Z" fill="#282928"/>
<path d="M45.8842 147.75C45.7865 147.755 45.6891 147.735 45.6016 147.691C45.5141 147.648 45.4396 147.582 45.3854 147.5L43.7333 145.225C43.6866 145.16 43.6535 145.086 43.6359 145.008C43.6184 144.93 43.6169 144.849 43.6315 144.771C43.646 144.692 43.6764 144.617 43.7207 144.551C43.765 144.484 43.8223 144.427 43.8892 144.383C44.0215 144.284 44.1877 144.241 44.3514 144.265C44.5151 144.288 44.6628 144.376 44.762 144.508L46.3829 146.783C46.4821 146.916 46.5247 147.082 46.5013 147.246C46.4779 147.409 46.3905 147.557 46.2582 147.656C46.1424 147.716 46.0144 147.748 45.8842 147.75Z" fill="#282928"/>
<path d="M17.3935 165.674H0.623423C0.458081 165.674 0.299511 165.609 0.182596 165.492C0.065682 165.375 0 165.216 0 165.051C0 164.886 0.065682 164.727 0.182596 164.61C0.299511 164.493 0.458081 164.428 0.623423 164.428H17.3935C17.5588 164.428 17.7174 164.493 17.8343 164.61C17.9512 164.727 18.0169 164.886 18.0169 165.051C18.0169 165.216 17.9512 165.375 17.8343 165.492C17.7174 165.609 17.5588 165.674 17.3935 165.674Z" fill="#282928"/>
<path d="M18.2036 167.109L22.1623 162.589C22.2348 162.506 22.3247 162.44 22.4257 162.396C22.5267 162.352 22.6362 162.33 22.7464 162.333C22.8566 162.336 22.9647 162.363 23.0632 162.413C23.1616 162.463 23.2478 162.534 23.3157 162.62L26.9627 166.953C27.0313 167.038 27.1168 167.107 27.2137 167.156C27.3107 167.206 27.4169 167.234 27.5255 167.24C27.6342 167.246 27.7429 167.229 27.8446 167.19C27.9463 167.152 28.0387 167.092 28.116 167.016L32.4488 162.558C32.5235 162.477 32.6153 162.413 32.7175 162.371C32.8197 162.33 32.9299 162.311 33.0402 162.317C33.1504 162.323 33.258 162.353 33.3552 162.406C33.4523 162.458 33.5367 162.532 33.6021 162.62L36.9686 166.891C37.0395 166.978 37.1285 167.049 37.2295 167.099C37.3305 167.149 37.4411 167.176 37.5537 167.179C37.6663 167.182 37.7782 167.161 37.8816 167.116C37.9851 167.072 38.0777 167.006 38.1531 166.922L41.4261 163.275C41.4986 163.192 41.5885 163.126 41.6895 163.082C41.7904 163.037 41.8999 163.016 42.0101 163.019C42.1203 163.022 42.2285 163.049 42.3269 163.099C42.4253 163.148 42.5116 163.219 42.5794 163.306L46.7875 168.262" fill="white"/>
<path d="M46.7874 168.885C46.6932 168.888 46.5993 168.871 46.513 168.833C46.4266 168.795 46.3499 168.738 46.2887 168.667L42.1117 163.71C42.0494 163.648 42.0182 163.648 41.9871 163.648C41.9559 163.648 41.9247 163.648 41.8935 163.71L38.6206 167.357C38.4874 167.51 38.3219 167.632 38.1361 167.713C37.9503 167.794 37.7487 167.833 37.546 167.828C37.3433 167.822 37.1444 167.771 36.9637 167.679C36.783 167.587 36.6249 167.456 36.5009 167.295L33.1033 162.993L33.0098 162.931L32.8851 162.993L28.5523 167.451C28.416 167.592 28.2505 167.701 28.0674 167.771C27.8843 167.841 27.688 167.87 27.4925 167.856C27.2997 167.852 27.1104 167.804 26.938 167.718C26.7655 167.632 26.6143 167.509 26.495 167.357L22.848 163.025C22.8358 163.003 22.8174 162.985 22.7952 162.974C22.7729 162.963 22.7479 162.959 22.7233 162.962C22.6921 162.962 22.6609 162.962 22.6298 163.025L18.671 167.544C18.5533 167.665 18.3937 167.735 18.2253 167.741C18.0569 167.747 17.8928 167.688 17.7671 167.576C17.7046 167.522 17.6538 167.457 17.6181 167.383C17.5824 167.309 17.5624 167.228 17.5595 167.146C17.5565 167.064 17.5707 166.982 17.6011 166.906C17.6315 166.83 17.6774 166.76 17.7359 166.703L21.6946 162.183C21.8243 162.038 21.9827 161.921 22.1598 161.841C22.3369 161.761 22.5288 161.718 22.7233 161.715H22.7545C22.9525 161.715 23.1479 161.76 23.3261 161.847C23.5043 161.933 23.6605 162.059 23.7831 162.214L27.4613 166.578H27.6483L31.9811 162.121C32.1234 161.979 32.2944 161.869 32.4826 161.8C32.6708 161.73 32.8718 161.701 33.0721 161.715C33.2648 161.72 33.4542 161.767 33.6266 161.853C33.799 161.939 33.9503 162.063 34.0696 162.214L37.4672 166.516L37.5919 166.578L37.6854 166.516L40.9584 162.869C41.0888 162.716 41.2518 162.595 41.4352 162.515C41.6186 162.434 41.8178 162.395 42.0182 162.401C42.2162 162.401 42.4117 162.446 42.5899 162.532C42.768 162.619 42.9243 162.744 43.0469 162.9L47.255 167.856C47.3563 167.989 47.4058 168.153 47.3944 168.32C47.3829 168.486 47.3112 168.643 47.1926 168.76C47.0741 168.843 46.9323 168.887 46.7874 168.885Z" fill="#282928"/>
<path d="M110.907 11.4401H110.845C110.763 11.4324 110.683 11.4084 110.61 11.3696C110.538 11.3309 110.473 11.2781 110.421 11.2143C110.369 11.1505 110.33 11.077 110.306 10.9981C110.283 10.9192 110.275 10.8363 110.284 10.7544C110.627 7.20087 113.525 4.11493 113.65 3.99025C113.767 3.89514 113.914 3.84549 114.065 3.85045C114.215 3.85542 114.359 3.91467 114.469 4.01726C114.579 4.11985 114.648 4.25885 114.664 4.40858C114.68 4.55831 114.641 4.70867 114.554 4.83187C114.523 4.86304 111.842 7.76196 111.531 10.8791C111.515 11.0334 111.443 11.1764 111.327 11.2801C111.212 11.3839 111.062 11.4409 110.907 11.4401Z" fill="white"/>
<path d="M105.764 45.5093H105.67C105.589 45.5018 105.511 45.4777 105.439 45.4385C105.368 45.3994 105.306 45.346 105.256 45.2817C105.206 45.2173 105.17 45.1434 105.15 45.0646C105.13 44.9858 105.127 44.9037 105.14 44.8235C105.857 39.8361 110.47 34.3188 110.657 34.1006C110.7 34.0177 110.761 33.9454 110.836 33.8892C110.91 33.8329 110.996 33.7941 111.088 33.7756C111.179 33.757 111.274 33.7593 111.364 33.7821C111.455 33.805 111.539 33.8479 111.611 33.9076C111.682 33.9674 111.74 34.0425 111.778 34.1274C111.817 34.2123 111.836 34.3048 111.835 34.3981C111.833 34.4914 111.81 34.5831 111.768 34.6665C111.727 34.7499 111.666 34.8228 111.593 34.8799C111.561 34.9423 107.042 40.366 106.387 44.9794C106.364 45.128 106.289 45.2635 106.174 45.3609C106.06 45.4583 105.914 45.511 105.764 45.5093Z" fill="white"/>
<path d="M141.33 43.1717C136.156 43.1717 133.195 41.5508 131.823 40.8027L131.293 40.5221C131.215 40.495 131.143 40.4517 131.082 40.395C131.022 40.3384 130.974 40.2696 130.941 40.1932C130.909 40.1168 130.893 40.0345 130.895 39.9515C130.896 39.8686 130.915 39.7869 130.95 39.7117C131.019 39.5567 131.145 39.4343 131.302 39.3704C131.459 39.3064 131.634 39.3059 131.792 39.3688L132.415 39.7117C133.88 40.5221 137.309 42.3924 143.668 41.8313C143.748 41.8227 143.83 41.8307 143.907 41.8546C143.984 41.8785 144.055 41.918 144.116 41.9705C144.178 42.0231 144.228 42.0876 144.263 42.1602C144.299 42.2327 144.319 42.3118 144.323 42.3924C144.331 42.4744 144.324 42.5572 144.3 42.6361C144.276 42.7151 144.237 42.7886 144.185 42.8523C144.133 42.9161 144.069 42.9689 143.996 43.0076C143.923 43.0464 143.844 43.0704 143.762 43.0782L141.33 43.1717Z" fill="white"/>
</svg>
