<svg width="262" height="262" viewBox="0 0 262 262" fill="none" xmlns="http://www.w3.org/2000/svg">
<path d="M106.571 188.439L99.3064 245.526C99.2441 245.965 99.2822 246.414 99.4178 246.837C99.5534 247.26 99.7829 247.647 100.089 247.968L111.801 260.776C112.095 261.097 112.455 261.351 112.855 261.522C113.256 261.693 113.688 261.777 114.124 261.768C114.559 261.759 114.988 261.658 115.381 261.471C115.774 261.283 116.123 261.014 116.404 260.682L123.544 252.258L123.92 251.663C124.322 251.068 124.598 250.398 124.733 249.693C124.867 248.987 124.857 248.262 124.702 247.561L112.239 188.439H106.571Z" fill="#FBBC1B"/>
<path d="M125.424 144.224H125.298C125.137 144.193 124.994 144.101 124.901 143.966C124.807 143.831 124.77 143.665 124.797 143.503L129.839 117.888C129.905 117.443 130.1 117.028 130.401 116.694C130.702 116.36 131.095 116.122 131.53 116.009C133.847 115.414 138.106 113.285 139.766 110.06C140.18 109.268 140.415 108.394 140.453 107.501C140.491 106.607 140.331 105.717 139.985 104.893C139.233 102.92 138.137 101.793 136.76 101.479C133.503 100.822 129.432 104.924 129.401 104.955C129.347 105.027 129.278 105.086 129.199 105.129C129.121 105.172 129.034 105.198 128.944 105.204C128.855 105.211 128.765 105.198 128.681 105.166C128.597 105.135 128.52 105.086 128.457 105.022C128.393 104.959 128.344 104.883 128.313 104.799C128.281 104.714 128.269 104.625 128.275 104.535C128.281 104.446 128.307 104.359 128.35 104.28C128.393 104.201 128.452 104.132 128.524 104.079C128.68 103.891 133.064 99.444 137.01 100.258C138.826 100.634 140.235 102.043 141.144 104.454C141.562 105.437 141.756 106.5 141.713 107.567C141.67 108.634 141.39 109.678 140.893 110.623C139.014 114.224 134.474 116.542 131.843 117.231C131.647 117.279 131.471 117.386 131.337 117.537C131.203 117.688 131.117 117.876 131.092 118.076V118.139L126.019 143.723C125.996 143.864 125.924 143.992 125.814 144.084C125.705 144.176 125.567 144.226 125.424 144.224Z" fill="#282928"/>
<path d="M109.213 100.991C109.513 99.4457 108.931 98.0328 107.912 97.8348C106.894 97.6368 105.824 98.7286 105.524 100.274C105.224 101.818 105.806 103.231 106.825 103.429C107.843 103.627 108.913 102.535 109.213 100.991Z" fill="#282928"/>
<path d="M87.5269 93.4964C87.8272 91.9515 87.2449 90.5386 86.2263 90.3406C85.2076 90.1426 84.1385 91.2345 83.8382 92.7794C83.5379 94.3243 84.1202 95.7372 85.1388 95.9352C86.1574 96.1332 87.2266 95.0413 87.5269 93.4964Z" fill="#282928"/>
<path d="M83.9295 87.8886C83.8324 87.8928 83.7353 87.8773 83.6443 87.843C83.5533 87.8087 83.4701 87.7563 83.3999 87.689C83.3297 87.6217 83.2738 87.5409 83.2356 87.4514C83.1975 87.3619 83.1779 87.2656 83.178 87.1684C83.1694 87.0655 83.1813 86.9619 83.2129 86.8637C83.2445 86.7654 83.2953 86.6744 83.3622 86.5958C83.4291 86.5172 83.511 86.4526 83.603 86.4058C83.6949 86.359 83.7953 86.3308 83.8982 86.3229L93.7623 85.7905C93.9649 85.7818 94.1629 85.852 94.3148 85.9863C94.4666 86.1206 94.5604 86.3087 94.5765 86.5108C94.5858 86.7167 94.5166 86.9185 94.3829 87.0754C94.2492 87.2323 94.061 87.3327 93.8562 87.3562L83.9922 87.8886H83.9295Z" fill="#282928"/>
<path d="M116.903 94.3399C116.767 94.3423 116.635 94.298 116.528 94.2146L108.01 89.4235C107.827 89.3238 107.692 89.1557 107.633 88.956C107.574 88.7563 107.597 88.5415 107.697 88.3588C107.797 88.1761 107.965 88.0404 108.164 87.9817C108.364 87.923 108.579 87.946 108.762 88.0457L117.31 92.8681C117.467 92.9521 117.59 93.0867 117.66 93.25C117.73 93.4133 117.742 93.5954 117.695 93.7666C117.647 93.9377 117.543 94.0877 117.399 94.1919C117.256 94.296 117.081 94.3482 116.903 94.3399Z" fill="#282928"/>
<path d="M86.2804 104.611H86.1239C84.3702 104.173 83.3995 103.421 83.1803 102.325C82.7106 99.8511 86.7188 96.9389 87.1885 96.6257C87.3213 96.5614 87.4725 96.5461 87.6154 96.5823C87.7584 96.6186 87.884 96.7041 87.9701 96.8239C88.0561 96.9436 88.0972 97.0899 88.086 97.237C88.0748 97.3841 88.012 97.5225 87.9088 97.6278C86.437 98.6925 84.1824 100.822 84.4016 102.074C84.5581 102.795 85.5915 103.202 86.437 103.39C86.5956 103.44 86.7291 103.549 86.8105 103.695C86.8918 103.84 86.915 104.011 86.8754 104.173C86.8402 104.302 86.7622 104.416 86.6542 104.495C86.5462 104.575 86.4145 104.616 86.2804 104.611Z" fill="#282928"/>
<path d="M83.7763 162.199C83.6252 162.2 83.4787 162.147 83.3636 162.049C83.2485 161.952 83.1726 161.816 83.15 161.666C83.1367 161.586 83.1402 161.503 83.1602 161.424C83.1802 161.345 83.2163 161.271 83.2663 161.206C83.3162 161.141 83.3789 161.088 83.4505 161.048C83.5221 161.009 83.601 160.985 83.6823 160.977C86.5319 160.57 88.7553 159.349 90.2897 157.251C94.0161 152.209 92.6383 143.848 92.6069 143.754C92.5936 143.672 92.5969 143.588 92.6166 143.507C92.6363 143.426 92.672 143.349 92.7216 143.282C92.7712 143.215 92.8337 143.159 92.9054 143.116C92.9771 143.073 93.0567 143.046 93.1393 143.034C93.3044 143.015 93.4704 143.06 93.604 143.159C93.7377 143.257 93.8289 143.403 93.8595 143.566C93.9222 143.911 95.3313 152.522 91.2917 158.002C89.5694 160.351 87.0643 161.791 83.8389 162.199H83.7763Z" fill="#282928"/>
<path d="M94.9238 144.317C88.8801 144.317 84.1516 142.595 80.7696 139.088C74.6946 132.856 73.0975 121.333 75.9785 104.861C77.3864 97.1045 79.4394 89.4791 82.1161 82.0641C82.1727 81.9125 82.2859 81.7886 82.4319 81.7185C82.5778 81.6485 82.7452 81.6377 82.899 81.6884C82.9777 81.7163 83.0501 81.7597 83.1119 81.816C83.1736 81.8723 83.2235 81.9404 83.2585 82.0162C83.2935 82.0921 83.313 82.1742 83.3158 82.2577C83.3186 82.3413 83.3046 82.4245 83.2748 82.5025C83.1182 82.9096 67.8367 123.994 81.6777 138.242C87.4083 144.13 97.4602 144.631 111.583 139.777C111.661 139.747 111.744 139.733 111.828 139.736C111.911 139.739 111.993 139.758 112.069 139.793C112.145 139.828 112.213 139.878 112.27 139.94C112.326 140.001 112.369 140.074 112.397 140.153C112.446 140.31 112.431 140.481 112.355 140.628C112.279 140.775 112.148 140.885 111.99 140.935C105.477 143.19 99.7879 144.317 94.9238 144.317Z" fill="#282928"/>
<path d="M117.502 76.9595C117.502 76.9595 107.92 88.8277 93.515 83.7235L85.655 79.4647C85.5325 79.4022 85.3985 79.3656 85.2612 79.3571C85.1239 79.3486 84.9864 79.3685 84.8571 79.4155C84.7279 79.4625 84.6097 79.5356 84.5099 79.6303C84.4101 79.7249 84.3309 79.8391 84.2772 79.9657L79.9871 90.644C79.9871 90.644 71.8453 67.6904 79.6739 59.3608C87.5026 51.0311 93.5776 33.9021 127.429 48.7452C139.547 54.0686 139.203 65.9681 144.401 66.3126C150.226 66.6884 176.342 83.3477 153.388 112.94C151.484 115.417 149.043 117.43 146.249 118.827L139.798 122.115L135.821 114.756L141.082 109.777L139.265 101.729C139.265 101.729 133.472 99.3181 129.182 104.516C128.994 104.735 128.337 104.798 128.305 104.516C128.149 102.136 128.399 94.8088 133.41 90.644C133.41 90.644 121.729 84.976 117.502 76.9595Z" fill="#282928"/>
<path d="M88.7862 126.72C88.5475 126.722 88.3109 126.675 88.0903 126.584C87.8698 126.493 87.6699 126.358 87.5023 126.188C86.4376 125.154 86.1245 122.555 86.5629 118.422C86.5928 118.084 86.7094 117.759 86.9014 117.479C87.0934 117.2 87.3543 116.974 87.6589 116.825C87.9482 116.671 88.2708 116.591 88.5983 116.591C88.9259 116.591 89.2484 116.671 89.5378 116.825C91.2601 117.795 94.141 116.668 96.4583 115.76C98.7756 114.852 99.7463 114.476 100.56 115.008C103.41 116.919 104.6 118.704 104.162 120.457C103.066 124.998 90.4459 126.532 89.0054 126.72H88.7862ZM88.567 117.827L88.2226 117.921C88.1038 117.981 88.0017 118.07 87.9253 118.179C87.8488 118.288 87.8004 118.415 87.7842 118.547C87.4397 122.085 87.6589 124.591 88.3791 125.311C88.4437 125.376 88.523 125.424 88.6103 125.451C88.6976 125.478 88.7902 125.484 88.8802 125.467C94.1723 124.872 102.283 122.962 102.94 120.144C103.285 118.704 101.469 117.138 99.8716 116.073C99.4958 115.917 98.024 116.48 96.928 116.919C94.3602 117.921 91.1661 119.173 88.9115 117.921C88.8082 117.857 88.6885 117.824 88.567 117.827Z" fill="#282928"/>
<path d="M14.8497 244.242H14.7557C14.5924 244.211 14.4468 244.12 14.348 243.986C14.2493 243.853 14.2047 243.687 14.2234 243.522C14.5679 241.486 22.146 193.544 30.1312 178.325C34.3273 170.308 44.6611 164.954 60.8507 162.386C68.4455 161.24 76.1258 160.758 83.8043 160.945C83.9676 160.961 84.1192 161.037 84.2293 161.159C84.3393 161.28 84.4 161.439 84.3992 161.603C84.3952 161.685 84.375 161.766 84.3398 161.84C84.3045 161.915 84.255 161.982 84.1939 162.037C84.1328 162.092 84.0614 162.135 83.9838 162.162C83.9062 162.19 83.8239 162.202 83.7416 162.198C83.3032 162.198 40.8407 160.601 31.2272 178.92C23.3359 193.951 15.5386 243.209 15.476 243.71C15.4533 243.859 15.3775 243.995 15.2624 244.093C15.1473 244.191 15.0007 244.244 14.8497 244.242Z" fill="#282928"/>
<path d="M44.0679 244.243C43.9351 244.242 43.8058 244.2 43.6989 244.121C43.5919 244.042 43.5128 243.931 43.4729 243.805C41.782 237.98 47.0741 199.495 47.2933 197.866C47.3008 197.785 47.325 197.706 47.3643 197.634C47.4037 197.563 47.4573 197.5 47.522 197.45C47.5866 197.4 47.6608 197.364 47.74 197.344C47.8192 197.324 47.9016 197.321 47.9822 197.334C48.0635 197.341 48.1425 197.366 48.214 197.405C48.2856 197.444 48.3483 197.498 48.3983 197.562C48.4482 197.627 48.4843 197.701 48.5043 197.78C48.5243 197.86 48.5278 197.942 48.5146 198.023C48.4833 198.43 43.0345 237.886 44.6629 243.429C44.7121 243.587 44.6969 243.757 44.6206 243.904C44.5444 244.051 44.4132 244.161 44.2558 244.212L44.0679 244.243Z" fill="#282928"/>
<path d="M186.235 254.481L185.954 254.418C185.804 254.344 185.688 254.215 185.629 254.058C185.571 253.901 185.575 253.727 185.64 253.573C196.726 229.335 189.054 202.624 183.48 188.877C177.906 175.13 149.817 163.293 141.644 162.228C141.552 162.234 141.46 162.219 141.374 162.184C141.289 162.15 141.212 162.097 141.15 162.03C141.087 161.963 141.04 161.883 141.012 161.795C140.983 161.707 140.975 161.615 140.987 161.523C140.998 161.432 141.03 161.345 141.079 161.267C141.129 161.189 141.194 161.124 141.272 161.074C141.35 161.025 141.437 160.993 141.529 160.982C141.62 160.97 141.713 160.979 141.8 161.007C150.412 162.103 178.97 174.378 184.638 188.407C190.306 202.436 198.072 229.429 186.799 254.105C186.745 254.211 186.665 254.301 186.567 254.367C186.468 254.433 186.354 254.472 186.235 254.481Z" fill="#282928"/>
<path d="M59.9131 119.767H45.8216C45.6555 119.767 45.4962 119.701 45.3787 119.584C45.2613 119.466 45.1953 119.307 45.1953 119.141C45.1953 118.975 45.2613 118.816 45.3787 118.698C45.4962 118.581 45.6555 118.515 45.8216 118.515H59.9131C60.0792 118.515 60.2385 118.581 60.356 118.698C60.4734 118.816 60.5394 118.975 60.5394 119.141C60.5394 119.307 60.4734 119.466 60.356 119.584C60.2385 119.701 60.0792 119.767 59.9131 119.767Z" fill="#282928"/>
<path d="M62.5431 110.56C62.4315 110.563 62.3219 110.53 62.23 110.467C61.4471 110.028 58.2843 107.961 54.3074 105.362C48.4829 101.511 40.4664 96.2811 36.0824 93.588C35.9973 93.5555 35.9204 93.5049 35.8569 93.4396C35.7935 93.3743 35.745 93.296 35.7149 93.2101C35.6848 93.1242 35.6738 93.0327 35.6827 92.9421C35.6915 92.8515 35.72 92.7639 35.7662 92.6855C35.8123 92.607 35.875 92.5395 35.9499 92.4878C36.0248 92.436 36.1101 92.4012 36.1998 92.3858C36.2895 92.3703 36.3815 92.3747 36.4694 92.3984C36.5573 92.4222 36.6389 92.4648 36.7086 92.5233C41.1553 95.2164 49.1405 100.477 54.9963 104.298C58.9733 106.897 62.1047 108.963 62.8563 109.402C62.9285 109.441 62.992 109.494 63.0426 109.558C63.0933 109.623 63.1301 109.697 63.1507 109.777C63.1712 109.856 63.1752 109.939 63.1623 110.02C63.1493 110.101 63.1198 110.178 63.0755 110.247C63.0191 110.339 62.9412 110.416 62.8483 110.47C62.7555 110.525 62.6507 110.556 62.5431 110.56Z" fill="#282928"/>
<path d="M66.1443 104.611C66.0553 104.608 65.9677 104.587 65.887 104.55C65.8062 104.512 65.734 104.458 65.6746 104.392L50.8002 87.169C50.6915 87.0387 50.6373 86.8715 50.649 86.7023C50.6607 86.5331 50.7373 86.3749 50.8629 86.2608C50.9919 86.1577 51.1564 86.1098 51.3206 86.1273C51.4848 86.1449 51.6354 86.2267 51.7397 86.3548L66.6141 103.578C66.7208 103.703 66.7741 103.865 66.7624 104.029C66.7507 104.193 66.6749 104.346 66.5514 104.455C66.4342 104.546 66.2925 104.6 66.1443 104.611Z" fill="#282928"/>
<path d="M115.34 191.696C114.69 191.701 114.041 191.659 113.398 191.571L112.96 191.508L111.457 184.181L112.114 184.087C112.302 184.055 131.028 181.644 135.506 177.636L136.132 177.072L139.013 183.178L138.544 183.46C137.98 183.836 125.11 191.696 115.34 191.696ZM113.993 190.381C122.511 191.132 134.817 184.212 137.416 182.677L135.694 179.076C130.652 182.646 116.279 184.776 112.96 185.245L113.993 190.381Z" fill="#282928"/>
<path d="M125.172 192.386C129.6 192.386 133.189 189.19 133.189 185.247C133.189 181.303 129.6 178.107 125.172 178.107C120.745 178.107 117.156 181.303 117.156 185.247C117.156 189.19 120.745 192.386 125.172 192.386Z" fill="#FBBC1B"/>
<path d="M121.664 186.436C121.515 186.432 121.371 186.377 121.258 186.28C121.144 186.183 121.066 186.051 121.038 185.904C121.024 185.822 121.028 185.738 121.047 185.656C121.067 185.575 121.103 185.499 121.152 185.432C121.202 185.365 121.265 185.308 121.336 185.266C121.408 185.223 121.487 185.195 121.57 185.184L124.357 184.745L123.073 180.831C123.044 180.753 123.032 180.67 123.037 180.587C123.042 180.504 123.065 180.423 123.103 180.349C123.141 180.276 123.195 180.211 123.26 180.159C123.325 180.107 123.4 180.069 123.48 180.048C123.558 180.019 123.641 180.007 123.724 180.012C123.807 180.017 123.888 180.04 123.962 180.078C124.036 180.116 124.101 180.17 124.153 180.235C124.204 180.3 124.242 180.375 124.263 180.455L125.985 185.747L121.758 186.405L121.664 186.436Z" fill="#282928"/>
<path d="M203.271 52.6928C200.453 52.6928 198.386 52.5675 197.634 52.1918C195.098 51.0331 194.597 42.1711 194.252 31.5555C194.158 28.8311 194.064 26.0128 193.908 25.5431C193.908 25.5431 193.344 24.8542 188.428 25.1987C186.484 25.342 184.55 25.5929 182.635 25.9502C182.554 25.9734 182.47 25.9795 182.387 25.9679C182.304 25.9564 182.225 25.9275 182.154 25.8832C182.083 25.8389 182.022 25.7801 181.976 25.7107C181.929 25.6413 181.897 25.5629 181.883 25.4805C181.845 25.3228 181.869 25.1564 181.951 25.0162C182.032 24.876 182.165 24.773 182.322 24.7289C184.371 24.3456 186.441 24.0842 188.522 23.9461C193.783 23.5703 194.785 24.3218 195.067 25.1047C195.348 25.8876 195.38 27.6412 195.505 31.5242C195.63 35.4072 195.787 39.9791 196.225 43.8934C196.851 49.8432 197.791 50.8766 198.167 51.0644C200.547 52.1604 221.621 50.6887 235.243 49.4361C235.325 49.4274 235.409 49.4352 235.488 49.4589C235.567 49.4826 235.641 49.5218 235.705 49.5742C235.769 49.6266 235.822 49.6912 235.861 49.7643C235.9 49.8373 235.924 49.9173 235.932 49.9998C235.936 50.082 235.924 50.1643 235.897 50.2419C235.869 50.3195 235.826 50.3909 235.771 50.452C235.716 50.5131 235.649 50.5627 235.574 50.5979C235.5 50.6331 235.419 50.6533 235.337 50.6574C232.613 50.9079 213.292 52.6928 203.271 52.6928Z" fill="#282928"/>
<path d="M203.489 61.8989C202.746 61.8989 202.019 61.6785 201.401 61.2656C200.783 60.8527 200.301 60.2658 200.017 59.5792C199.733 58.8926 199.658 58.137 199.803 57.4081C199.948 56.6791 200.306 56.0096 200.832 55.484C201.357 54.9585 202.027 54.6006 202.756 54.4556C203.485 54.3106 204.24 54.3851 204.927 54.6695C205.613 54.9539 206.2 55.4355 206.613 56.0535C207.026 56.6714 207.246 57.398 207.246 58.1412C207.246 59.1378 206.851 60.0936 206.146 60.7983C205.441 61.503 204.485 61.8989 203.489 61.8989ZM203.489 55.6673C202.833 55.6673 202.203 55.928 201.739 56.3919C201.275 56.8558 201.015 57.4851 201.015 58.1412C201.009 58.6393 201.151 59.1279 201.424 59.5446C201.697 59.9614 202.088 60.2873 202.547 60.4808C203.006 60.6742 203.512 60.7265 204.001 60.6308C204.49 60.5352 204.939 60.2959 205.291 59.9437C205.643 59.5915 205.883 59.1422 205.978 58.6534C206.074 58.1645 206.022 57.6583 205.828 57.1992C205.635 56.7402 205.309 56.3493 204.892 56.0764C204.475 55.8036 203.987 55.6611 203.489 55.6673Z" fill="#282928"/>
<path d="M227.978 61.8989C227.235 61.8989 226.509 61.6785 225.891 61.2656C225.273 60.8527 224.791 60.2658 224.507 59.5792C224.222 58.8926 224.148 58.137 224.293 57.4081C224.438 56.6791 224.796 56.0096 225.321 55.484C225.847 54.9585 226.516 54.6006 227.245 54.4556C227.974 54.3106 228.73 54.3851 229.416 54.6695C230.103 54.9539 230.69 55.4355 231.103 56.0535C231.516 56.6714 231.736 57.398 231.736 58.1412C231.74 58.6358 231.646 59.1263 231.459 59.5841C231.271 60.0419 230.995 60.4578 230.645 60.8076C230.295 61.1574 229.879 61.434 229.421 61.6214C228.964 61.8087 228.473 61.9031 227.978 61.8989ZM227.978 55.6673C227.322 55.6673 226.693 55.928 226.229 56.3919C225.765 56.8558 225.505 57.4851 225.505 58.1412C225.5 58.4687 225.561 58.7937 225.684 59.0975C225.806 59.4013 225.988 59.6777 226.218 59.9107C226.448 60.1438 226.722 60.3288 227.024 60.4551C227.327 60.5813 227.651 60.6464 227.978 60.6463C228.643 60.6463 229.28 60.3824 229.75 59.9126C230.22 59.4428 230.484 58.8056 230.484 58.1412C230.484 57.8136 230.419 57.4894 230.292 57.1872C230.166 56.885 229.981 56.6109 229.748 56.3807C229.515 56.1506 229.239 55.969 228.935 55.8466C228.631 55.7241 228.306 55.6632 227.978 55.6673Z" fill="#282928"/>
<path d="M198.793 24.4759C198.793 24.4759 195.912 44.6111 203.49 48.2436H231.109C231.109 48.2436 232.362 32.1479 229.857 29.6428C227.352 27.1376 201.517 24.288 198.793 24.4759Z" fill="#FBBC1B"/>
<path d="M207.468 48.8703C207.302 48.8703 207.143 48.8043 207.025 48.6869C206.908 48.5694 206.842 48.4101 206.842 48.244V25.1652C206.842 24.9991 206.908 24.8398 207.025 24.7224C207.143 24.6049 207.302 24.5389 207.468 24.5389C207.634 24.5389 207.793 24.6049 207.911 24.7224C208.028 24.8398 208.094 24.9991 208.094 25.1652V48.244C208.094 48.4101 208.028 48.5694 207.911 48.6869C207.793 48.8043 207.634 48.8703 207.468 48.8703Z" fill="#282928"/>
<path d="M215.858 48.8718C215.692 48.8718 215.532 48.8059 215.415 48.6884C215.297 48.571 215.231 48.4117 215.231 48.2456V26.2628C215.231 26.0967 215.297 25.9374 215.415 25.8199C215.532 25.7025 215.692 25.6365 215.858 25.6365C216.024 25.6365 216.183 25.7025 216.301 25.8199C216.418 25.9374 216.484 26.0967 216.484 26.2628V48.2456C216.484 48.4117 216.418 48.571 216.301 48.6884C216.183 48.8059 216.024 48.8718 215.858 48.8718Z" fill="#282928"/>
<path d="M224.878 48.8712C224.712 48.8712 224.552 48.8052 224.435 48.6877C224.317 48.5703 224.251 48.411 224.251 48.2449V27.8905C224.251 27.7243 224.317 27.565 224.435 27.4476C224.552 27.3301 224.712 27.2642 224.878 27.2642C225.044 27.2642 225.203 27.3301 225.321 27.4476C225.438 27.565 225.504 27.7243 225.504 27.8905V48.2449C225.504 48.411 225.438 48.5703 225.321 48.6877C225.203 48.8052 225.044 48.8712 224.878 48.8712Z" fill="#282928"/>
<path d="M123.513 54.3503C123.391 54.3531 123.271 54.3205 123.168 54.2564C110.298 46.4591 102.156 49.5279 102.094 49.5592C102.015 49.5891 101.932 49.603 101.849 49.6002C101.765 49.5974 101.683 49.578 101.607 49.5429C101.531 49.5079 101.463 49.4581 101.407 49.3963C101.351 49.3346 101.307 49.2622 101.279 49.1834C101.217 49.0298 101.219 48.8578 101.283 48.7052C101.348 48.5526 101.47 48.4318 101.624 48.3693C101.968 48.244 110.361 45.0499 123.826 53.1604C123.962 53.2556 124.059 53.3967 124.099 53.5578C124.14 53.7189 124.12 53.8892 124.045 54.0372C123.987 54.1272 123.908 54.2024 123.816 54.2568C123.723 54.3111 123.62 54.3432 123.513 54.3503Z" fill="white"/>
<path d="M157.302 93.0565H157.208C157.044 93.0259 156.899 92.9346 156.8 92.801C156.701 92.6674 156.657 92.5013 156.675 92.3362C158.085 83.0985 152.73 79.466 152.479 79.3094C152.345 79.2198 152.251 79.0819 152.216 78.9244C152.181 78.7669 152.208 78.6019 152.291 78.4639C152.336 78.3932 152.394 78.3321 152.463 78.2842C152.531 78.2364 152.608 78.2027 152.69 78.1852C152.772 78.1677 152.856 78.1667 152.938 78.1823C153.02 78.1979 153.099 78.2298 153.168 78.276C153.419 78.4326 159.462 82.4409 157.928 92.5241C157.905 92.6735 157.829 92.8096 157.714 92.9074C157.599 93.0052 157.453 93.0582 157.302 93.0565Z" fill="white"/>
<path d="M133.692 104.231L94.826 132.885C93.8237 133.624 93.6102 135.036 94.3492 136.038L104.993 150.475C105.732 151.478 107.144 151.691 108.146 150.952L147.012 122.298C148.014 121.559 148.228 120.147 147.489 119.145L136.845 104.708C136.106 103.706 134.694 103.492 133.692 104.231Z" fill="#FBBC1B"/>
<path d="M106.321 145.508C106.219 145.506 106.12 145.483 106.028 145.439C105.936 145.396 105.854 145.334 105.788 145.257L98.9618 135.613C98.8966 135.549 98.8461 135.471 98.814 135.386C98.7819 135.3 98.7688 135.209 98.7757 135.118C98.7827 135.027 98.8095 134.938 98.8542 134.858C98.8989 134.779 98.9605 134.71 99.0347 134.657C99.1089 134.603 99.1938 134.567 99.2835 134.55C99.3732 134.533 99.4656 134.536 99.5541 134.558C99.6427 134.581 99.7252 134.622 99.796 134.68C99.8668 134.738 99.9241 134.81 99.9639 134.892L106.822 144.506C106.87 144.574 106.903 144.65 106.921 144.731C106.939 144.812 106.941 144.895 106.927 144.977C106.912 145.058 106.881 145.136 106.837 145.206C106.792 145.276 106.733 145.336 106.665 145.383C106.619 145.426 106.565 145.459 106.506 145.48C106.447 145.502 106.384 145.511 106.321 145.508Z" fill="white"/>
<path d="M135.771 108.958C136.62 108.332 136.967 107.362 136.546 106.791C136.126 106.22 135.096 106.265 134.247 106.891C133.398 107.517 133.051 108.488 133.471 109.058C133.892 109.629 134.922 109.584 135.771 108.958Z" fill="#282928"/>
<path d="M40.404 219.41H19.3607C19.1946 219.41 19.0353 219.344 18.9178 219.227C18.8004 219.109 18.7344 218.95 18.7344 218.784C18.7344 218.618 18.8004 218.458 18.9178 218.341C19.0353 218.223 19.1946 218.157 19.3607 218.157H40.404C40.5701 218.157 40.7294 218.223 40.8469 218.341C40.9643 218.458 41.0303 218.618 41.0303 218.784C41.0303 218.95 40.9643 219.109 40.8469 219.227C40.7294 219.344 40.5701 219.41 40.404 219.41Z" fill="#282928"/>
<path d="M156.046 215.684H155.952C155.794 215.653 155.653 215.567 155.555 215.44C155.457 215.313 155.409 215.155 155.419 214.995C156.672 205.475 153.415 195.705 153.384 195.611C153.335 195.453 153.35 195.282 153.426 195.136C153.502 194.989 153.633 194.879 153.791 194.828C153.867 194.799 153.948 194.785 154.029 194.788C154.111 194.791 154.19 194.811 154.264 194.846C154.337 194.882 154.403 194.932 154.456 194.993C154.509 195.055 154.549 195.126 154.574 195.204C154.699 195.642 157.956 205.35 156.672 215.151C156.649 215.301 156.573 215.437 156.458 215.535C156.343 215.632 156.197 215.685 156.046 215.684Z" fill="#282928"/>
<path d="M191.309 216.842H161.498C161.332 216.842 161.172 216.776 161.055 216.659C160.938 216.541 160.872 216.382 160.872 216.216C160.872 216.05 160.938 215.89 161.055 215.773C161.172 215.655 161.332 215.589 161.498 215.589H191.309C191.475 215.589 191.635 215.655 191.752 215.773C191.87 215.89 191.936 216.05 191.936 216.216C191.936 216.382 191.87 216.541 191.752 216.659C191.635 216.776 191.475 216.842 191.309 216.842Z" fill="#282928"/>
<path d="M105.819 164.893L92.0088 153.839C91.6033 153.509 91.085 153.35 90.5643 153.397C90.0437 153.444 89.5619 153.692 89.2218 154.089L85.7146 158.129C85.3997 158.489 85.2261 158.95 85.2261 159.429C85.2261 159.907 85.3997 160.368 85.7146 160.728C88.5016 163.953 95.5787 172.534 99.2738 180.268C99.4196 180.571 99.6393 180.833 99.9126 181.028C100.186 181.224 100.504 181.348 100.838 181.388C101.171 181.429 101.51 181.385 101.822 181.26C102.134 181.136 102.41 180.935 102.624 180.675L108.762 173.317C108.904 173.152 108.985 172.944 108.99 172.727C108.996 172.51 108.926 172.298 108.793 172.127V172.064C107.192 169.978 106.176 167.503 105.85 164.893H105.819Z" fill="white"/>
<path d="M101.093 182.021H100.748C100.313 181.965 99.8991 181.801 99.5436 181.544C99.1881 181.287 98.9025 180.945 98.7129 180.549C95.0804 172.909 88.0973 164.454 85.2477 161.166C84.8371 160.68 84.6118 160.064 84.6118 159.428C84.6118 158.791 84.8371 158.176 85.2477 157.69L88.7549 153.681C89.1938 153.158 89.8208 152.829 90.5005 152.765C91.1802 152.7 91.858 152.906 92.3874 153.337L106.416 164.548V164.798C106.729 167.304 107.701 169.681 109.235 171.687H109.266C109.482 171.972 109.597 172.321 109.591 172.679C109.586 173.037 109.46 173.382 109.235 173.66L103.066 181.05C102.832 181.352 102.533 181.596 102.191 181.764C101.85 181.932 101.474 182.02 101.093 182.021ZM90.7277 154.026C90.532 154.026 90.3386 154.068 90.1604 154.149C89.9822 154.23 89.8233 154.348 89.6943 154.496L86.1871 158.535C85.9753 158.784 85.859 159.101 85.859 159.428C85.859 159.755 85.9753 160.071 86.1871 160.32C89.068 163.671 96.1451 172.251 99.8402 179.986C99.9379 180.195 100.087 180.376 100.273 180.513C100.459 180.65 100.676 180.738 100.905 180.769C101.136 180.8 101.372 180.774 101.591 180.692C101.809 180.61 102.004 180.475 102.158 180.299L108.295 172.909C108.338 172.85 108.362 172.778 108.362 172.705C108.362 172.632 108.338 172.561 108.295 172.501V172.439C106.673 170.332 105.626 167.839 105.258 165.205L91.6358 154.308C91.3727 154.116 91.0533 154.017 90.7277 154.026Z" fill="#282928"/>
<path d="M110.14 189.348C108.355 189.348 106.883 188.878 106.539 188.471C106.411 188.301 106.355 188.087 106.382 187.876L102.844 180.11C102.773 179.956 102.767 179.781 102.825 179.623C102.884 179.464 103.003 179.335 103.157 179.265C103.311 179.194 103.486 179.187 103.645 179.246C103.803 179.305 103.932 179.424 104.003 179.578L107.698 187.72C109.106 188.176 110.613 188.23 112.05 187.876C112.131 187.853 112.215 187.847 112.298 187.858C112.381 187.87 112.46 187.899 112.531 187.943C112.602 187.987 112.663 188.046 112.709 188.116C112.756 188.185 112.788 188.263 112.802 188.346C112.82 188.426 112.823 188.509 112.809 188.59C112.796 188.671 112.766 188.749 112.723 188.819C112.679 188.889 112.622 188.949 112.555 188.997C112.488 189.045 112.412 189.079 112.332 189.097C111.612 189.256 110.877 189.34 110.14 189.348Z" fill="#282928"/>
<path d="M98.2725 130.163L121.664 110.341C121.664 110.341 134.754 106.615 138.073 117.011C144.211 136.238 133.47 137.46 133.47 137.46L124.451 155.685L109.264 150.142C109.264 150.142 117.594 138.18 98.2725 130.163Z" fill="white"/>
<path d="M116.434 131.384C116.367 131.39 116.298 131.381 116.234 131.36C116.169 131.338 116.11 131.304 116.059 131.259C115.965 131.196 108.261 125.497 104.504 124.432C102.155 123.743 101.122 125.935 101.09 126.029C101.06 126.105 101.014 126.174 100.956 126.231C100.898 126.289 100.828 126.334 100.752 126.363C100.675 126.393 100.594 126.406 100.512 126.402C100.43 126.399 100.35 126.378 100.276 126.342C100.2 126.312 100.131 126.266 100.074 126.208C100.016 126.149 99.9714 126.08 99.942 126.003C99.9126 125.927 99.8993 125.845 99.9029 125.763C99.9065 125.682 99.927 125.601 99.963 125.528C100.464 124.369 102.155 122.428 104.848 123.211C108.825 124.338 116.466 130.006 116.81 130.256C116.937 130.361 117.019 130.508 117.043 130.671C117.066 130.833 117.028 130.998 116.936 131.133C116.876 131.209 116.8 131.271 116.713 131.315C116.626 131.358 116.531 131.381 116.434 131.384Z" fill="#282928"/>
<path d="M124.015 128.942C123.929 128.943 123.845 128.924 123.769 128.886C123.692 128.848 123.626 128.792 123.576 128.723C123.482 128.629 115.591 120.049 110.957 119.955C106.322 119.861 105.852 123.18 105.821 123.305C105.79 123.467 105.698 123.609 105.563 123.703C105.429 123.797 105.262 123.834 105.101 123.806C104.937 123.769 104.794 123.67 104.701 123.53C104.608 123.391 104.571 123.22 104.6 123.055C104.6 123.024 105.602 118.577 110.988 118.702C116.374 118.827 124.14 127.502 124.484 127.877C124.543 127.935 124.589 128.005 124.62 128.081C124.65 128.158 124.665 128.24 124.662 128.323C124.659 128.405 124.639 128.486 124.603 128.56C124.567 128.635 124.516 128.701 124.453 128.754C124.337 128.872 124.18 128.94 124.015 128.942Z" fill="#282928"/>
<path d="M129.024 123.619C128.934 123.623 128.845 123.605 128.763 123.567C128.681 123.528 128.61 123.471 128.555 123.4C126.158 120.873 123.379 118.738 120.319 117.074C115.591 114.507 111.582 119.141 111.426 119.329C111.321 119.457 111.171 119.539 111.007 119.556C110.842 119.574 110.678 119.526 110.549 119.423C110.421 119.319 110.339 119.168 110.321 119.004C110.304 118.84 110.352 118.675 110.455 118.546C110.518 118.483 115.277 112.909 120.945 115.978C124.14 117.693 127.029 119.926 129.494 122.586C129.601 122.711 129.654 122.873 129.643 123.037C129.631 123.201 129.555 123.354 129.432 123.462C129.318 123.559 129.174 123.615 129.024 123.619Z" fill="#282928"/>
<path d="M123.513 244.243C123.366 244.246 123.223 244.197 123.109 244.106C122.994 244.014 122.916 243.886 122.886 243.742C117.813 216.498 109.922 175.382 108.795 173.128C107.448 171.75 102.72 162.543 105.538 156.406C105.851 155.686 106.227 154.934 106.634 154.12C109.609 148.17 113.68 140.028 104.661 134.893H104.63L98.2105 130.728C98.1423 130.681 98.0841 130.621 98.0392 130.551C97.9944 130.482 97.9638 130.404 97.9492 130.322C97.9346 130.241 97.9364 130.157 97.9544 130.076C97.9724 129.995 98.0062 129.919 98.054 129.851C98.1436 129.717 98.2815 129.622 98.439 129.587C98.5965 129.552 98.7615 129.58 98.8994 129.663L105.288 133.828C115.34 139.559 110.768 148.671 107.761 154.684C107.354 155.498 106.979 156.249 106.665 156.938C104.16 162.418 108.638 171.312 109.703 172.314C110.016 172.595 110.642 173.19 117.469 208.544C120.851 225.893 124.076 243.366 124.108 243.523C124.136 243.688 124.1 243.858 124.007 243.998C123.913 244.138 123.77 244.237 123.607 244.274L123.513 244.243Z" fill="#282928"/>
<path d="M166.444 238.574C166.324 238.572 166.207 238.536 166.107 238.469C166.007 238.403 165.928 238.309 165.88 238.199C165.724 237.854 150.724 202.594 139.858 186.749C134.033 178.325 132.718 170.152 132.624 164.797C132.53 158.973 133.783 155.184 133.846 155.027V154.933C140.202 141.343 141.518 125.028 137.008 116.229C135.349 112.972 133.063 111.03 130.182 110.498C122.353 108.995 118.251 112.471 118.188 112.502C118.061 112.587 117.908 112.623 117.756 112.603C117.605 112.583 117.466 112.508 117.366 112.392C117.266 112.277 117.211 112.129 117.213 111.976C117.214 111.823 117.272 111.676 117.374 111.563C117.562 111.406 121.946 107.648 130.432 109.277C133.626 109.872 136.288 112.095 138.136 115.634C142.802 124.777 141.486 141.499 135.004 155.434C134.785 156.186 130.37 170.778 140.86 186.029C151.82 201.968 166.882 237.353 167.008 237.698C167.044 237.771 167.064 237.851 167.068 237.933C167.071 238.015 167.058 238.097 167.029 238.173C166.999 238.249 166.954 238.319 166.897 238.377C166.839 238.436 166.771 238.481 166.694 238.512C166.621 238.562 166.532 238.584 166.444 238.574Z" fill="#282928"/>
<path d="M152.416 24.9464C139.483 14.2995 122.103 14.3621 109.828 16.3036C101.61 17.6482 93.579 19.9607 85.9039 23.1928L85.4028 22.0655C93.1638 18.7798 101.29 16.4354 109.609 15.0823C122.135 13.1095 139.89 13.0156 153.23 24.007L152.416 24.9464Z" fill="#FBBC1B"/>
<path d="M82.9277 23.8826C82.8336 23.8617 82.7465 23.817 82.6746 23.7529C82.6027 23.6887 82.5485 23.6072 82.5171 23.5161C82.4857 23.425 82.4782 23.3274 82.4952 23.2326C82.5123 23.1378 82.5533 23.0489 82.6145 22.9745C83.7732 21.3774 85.9025 17.0873 87.7814 14.958C89.6603 12.8286 91.6957 22.3795 92.5725 25.6049C92.5908 25.7022 92.5844 25.8024 92.5541 25.8966C92.5238 25.9908 92.4705 26.076 92.399 26.1444C92.3275 26.2128 92.24 26.2623 92.1446 26.2884C92.0491 26.3145 91.9487 26.3163 91.8523 26.2938L82.9277 23.8826Z" fill="#FBBC1B"/>
<path d="M157.269 30.1449C157.329 30.1433 157.387 30.1278 157.439 30.0995C157.491 30.0712 157.536 30.031 157.569 29.9821C157.603 29.9332 157.624 29.8771 157.632 29.8183C157.64 29.7595 157.634 29.6997 157.614 29.6438C156.956 27.765 156.455 21.1576 155.86 20.3121C155.265 19.4666 151.445 27.3266 150.286 29.5812C150.261 29.6407 150.251 29.7052 150.256 29.7696C150.26 29.8339 150.28 29.8962 150.314 29.9512C150.348 30.0063 150.394 30.0525 150.449 30.0862C150.504 30.1199 150.566 30.14 150.631 30.1449H157.269Z" fill="#FBBC1B"/>
<path d="M51.8006 49.3418H40.6213C40.4552 49.3418 40.2959 49.2759 40.1785 49.1584C40.061 49.041 39.995 48.8817 39.995 48.7156C39.995 48.5495 40.061 48.3902 40.1785 48.2727C40.2959 48.1552 40.4552 48.0893 40.6213 48.0893H51.8006C52.2759 48.0901 52.7365 47.9246 53.1025 47.6215C53.4686 47.3184 53.717 46.8967 53.8047 46.4296L55.8089 36.2211C55.8612 35.9101 55.8427 35.5913 55.7549 35.2884C55.667 34.9855 55.512 34.7064 55.3013 34.4717C55.0907 34.237 54.8299 34.0528 54.5382 33.9328C54.2466 33.8128 53.9317 33.76 53.6168 33.7785L37.7404 35.2503C37.5743 35.2669 37.4084 35.2169 37.2792 35.1112C37.15 35.0055 37.0681 34.8528 37.0515 34.6867C37.0349 34.5206 37.0849 34.3547 37.1906 34.2255C37.2963 34.0963 37.449 34.0143 37.6151 33.9977L53.4916 32.5573C54.0025 32.5024 54.5192 32.5704 54.9985 32.7556C55.4778 32.9408 55.906 33.2378 56.2473 33.622C56.5843 34.0007 56.8302 34.4517 56.9659 34.9402C57.1016 35.4288 57.1236 35.9419 57.0301 36.4403L55.026 46.6801C54.8752 47.4264 54.4724 48.0982 53.8852 48.5828C53.2979 49.0674 52.562 49.3354 51.8006 49.3418Z" fill="#282928"/>
<path d="M28.3771 35.2487C28.211 35.2487 28.0517 35.1827 27.9342 35.0653C27.8168 34.9478 27.7508 34.7885 27.7508 34.6224V18.2763C27.7405 17.6096 27.9838 16.964 28.4314 16.4698C28.8791 15.9757 29.4976 15.67 30.162 15.6145L45.0364 14.2367C45.3781 14.1976 45.7241 14.2267 46.0544 14.3223C46.3848 14.4179 46.6928 14.5782 46.9608 14.7937C47.2288 15.0092 47.4513 15.2758 47.6155 15.578C47.7797 15.8801 47.8823 16.2119 47.9173 16.554L49.9215 33.4951C49.9347 33.5757 49.9312 33.6582 49.9112 33.7373C49.8912 33.8165 49.8551 33.8907 49.8052 33.9554C49.7552 34.02 49.6925 34.0737 49.6209 34.113C49.5494 34.1523 49.4704 34.1765 49.3891 34.184C49.3068 34.1927 49.2236 34.1849 49.1443 34.1612C49.065 34.1375 48.9912 34.0983 48.9271 34.0459C48.863 33.9935 48.81 33.9289 48.7711 33.8558C48.7321 33.7828 48.708 33.7028 48.7002 33.6204L46.6961 16.7105C46.649 16.3451 46.4637 16.0116 46.1783 15.7787C45.8929 15.5457 45.5291 15.4309 45.1617 15.458L30.2873 16.8671C29.9329 16.8912 29.6015 17.0512 29.3623 17.3138C29.1231 17.5764 28.9945 17.9212 29.0034 18.2763V34.6224C29.0034 34.7885 28.9374 34.9478 28.8199 35.0653C28.7025 35.1827 28.5432 35.2487 28.3771 35.2487Z" fill="#282928"/>
<path d="M33.8617 20.1872C33.7059 20.1879 33.5554 20.1306 33.4395 20.0264C33.3237 19.9222 33.2509 19.7785 33.2354 19.6235C33.2267 19.5412 33.2345 19.458 33.2582 19.3787C33.2819 19.2994 33.3211 19.2255 33.3735 19.1615C33.4259 19.0974 33.4905 19.0444 33.5635 19.0054C33.6366 18.9665 33.7166 18.9424 33.799 18.9346L42.6297 18.2457C42.712 18.2395 42.7946 18.2496 42.873 18.2754C42.9513 18.3011 43.0238 18.3421 43.0863 18.3959C43.1488 18.4497 43.2002 18.5153 43.2373 18.5889C43.2745 18.6625 43.2968 18.7427 43.303 18.825C43.3091 18.9072 43.2991 18.9899 43.2733 19.0682C43.2475 19.1466 43.2066 19.2191 43.1528 19.2816C43.099 19.3441 43.0334 19.3954 42.9598 19.4326C42.8861 19.4698 42.8059 19.4921 42.7237 19.4982L33.893 20.1872H33.8617Z" fill="#282928"/>
<path d="M44.696 37.9421C44.5402 37.9428 44.3897 37.8855 44.2739 37.7813C44.1581 37.6771 44.0853 37.5334 44.0697 37.3784C44.0609 37.209 44.1179 37.0427 44.2288 36.9144C44.3396 36.786 44.4958 36.7054 44.6647 36.6895L51.2095 36.1571C51.2942 36.1485 51.3799 36.1573 51.4611 36.1829C51.5424 36.2086 51.6176 36.2505 51.6821 36.3062C51.7466 36.3619 51.799 36.4302 51.8362 36.5069C51.8734 36.5835 51.8945 36.667 51.8984 36.7521C51.9026 36.8344 51.8905 36.9167 51.8629 36.9943C51.8353 37.0719 51.7926 37.1433 51.7373 37.2044C51.6821 37.2654 51.6153 37.315 51.5408 37.3503C51.4664 37.3855 51.3857 37.4057 51.3034 37.4097L44.7587 37.9421H44.696Z" fill="#282928"/>
<path d="M20.6761 50.1855L18.9538 36.595C18.8912 36.1388 18.927 35.6744 19.0588 35.2332C19.1906 34.792 19.4154 34.3842 19.718 34.0371C20.0206 33.69 20.394 33.4117 20.8131 33.2209C21.2323 33.0302 21.6874 32.9314 22.1478 32.9312L38.5566 32.6807C39.4316 32.6806 40.2712 33.026 40.8928 33.6418C41.5144 34.2575 41.8677 35.0938 41.876 35.9687V48.6511C41.8779 49.4781 41.565 50.2749 41.0009 50.8797C40.4368 51.4846 39.6637 51.8521 38.8385 51.9078L24.152 53.0351C23.3191 53.09 22.4966 52.8261 21.8511 52.2969C21.2056 51.7678 20.7855 51.0129 20.6761 50.1855Z" fill="#FBBC1B"/>
<path d="M36.1128 37.5668H25.1214C24.9553 37.5668 24.796 37.5008 24.6786 37.3834C24.5611 37.2659 24.4951 37.1066 24.4951 36.9405C24.4951 36.7744 24.5611 36.6151 24.6786 36.4976C24.796 36.3802 24.9553 36.3142 25.1214 36.3142H36.1128C36.2789 36.3142 36.4382 36.3802 36.5557 36.4976C36.6731 36.6151 36.7391 36.7744 36.7391 36.9405C36.7391 37.1066 36.6731 37.2659 36.5557 37.3834C36.4382 37.5008 36.2789 37.5668 36.1128 37.5668Z" fill="#282928"/>
<path d="M59.5368 78.9643H59.3803C56.0923 78.4633 47.9192 76.3026 43.3472 66.9083C43.1826 66.5764 42.9279 66.2976 42.6122 66.1038C42.2966 65.91 41.9327 65.8089 41.5623 65.8123C38.3682 65.9375 29.9759 65.8122 21.6776 62.2737C11.3438 57.8584 4.57988 49.8732 1.57368 38.506C-0.962791 28.8298 1.10397 20.3749 7.58607 13.9867C19.0472 2.77614 40.435 0.865956 50.8314 3.84083C57.0943 5.62576 65.7998 9.19562 71.6556 15.9909C77.5114 22.7861 79.3589 31.335 77.1043 41.3556C76.2364 45.2868 74.4316 48.9502 71.8435 52.0339C68.0945 56.4953 63.4268 60.0949 58.159 62.5869C57.8044 62.7543 57.5111 63.0285 57.3201 63.3711C57.1292 63.7136 57.0502 64.1074 57.0943 64.497C57.4075 67.3467 58.3469 74.2672 60.445 77.2107C60.5756 77.385 60.6513 77.5943 60.6624 77.8118C60.6736 78.0293 60.6197 78.2452 60.5076 78.432C60.4052 78.5967 60.2621 78.7323 60.0921 78.8256C59.922 78.9188 59.7308 78.9666 59.5368 78.9643ZM41.6249 64.5597C42.2197 64.5592 42.8026 64.7264 43.3066 65.0421C43.8107 65.3578 44.2155 65.8092 44.4746 66.3446C48.6394 74.9561 55.9983 77.1168 59.255 77.6805C57.1883 74.5177 56.2488 68.1922 55.8417 64.6536C55.7762 64.0025 55.9123 63.3469 56.2315 62.7757C56.5508 62.2044 57.0378 61.745 57.6267 61.4595C62.7336 59.0492 67.2538 55.5549 70.8727 51.2197C73.3342 48.2897 75.0529 44.8094 75.883 41.0738C81.1752 17.5566 62.2299 8.38144 50.4869 5.03079C40.3724 2.14985 19.5795 3.99741 8.46288 14.8949C2.23129 21.0325 0.321104 28.8611 2.79495 38.1615C9.55889 63.7142 34.1408 64.8415 41.531 64.5597H41.6249Z" fill="#282928"/>
<path d="M177.25 91.2705C176.154 91.2705 175.026 91.2392 173.805 91.1452C173.503 91.1144 173.215 90.9978 172.977 90.8092C172.738 90.6206 172.558 90.3678 172.459 90.0805C172.354 89.7971 172.335 89.4896 172.401 89.1952C172.468 88.9007 172.618 88.6318 172.834 88.4208C175.997 85.352 183.105 77.586 181.039 71.4484L180.945 71.2918C178.721 69.2564 159.4 50.7495 162.438 31.679C164.16 21.032 172.49 12.2013 187.208 5.43739C204.556 -2.5165 219.368 -0.293172 228.731 2.99485C240.568 7.09705 250.651 15.3015 256.444 25.4787C260.765 33.0881 262.331 41.1359 260.922 48.714C259.419 56.9811 254.315 64.34 246.173 69.914C245.108 70.6655 243.918 71.4797 242.791 72.3252C239.847 74.4859 230.328 80.3417 213.7 80.3417C208.931 80.3294 204.173 79.8892 199.483 79.0265C199.408 79.0057 199.328 79.0134 199.259 79.0481C199.189 79.0828 199.135 79.1421 199.107 79.2144C197.792 82.1579 192.437 91.2705 177.25 91.2705ZM173.711 89.329C173.668 89.3736 173.638 89.4303 173.627 89.4916C173.616 89.553 173.623 89.6163 173.648 89.6734C173.648 89.7361 173.742 89.8613 173.93 89.8926C175.089 89.9866 176.185 90.0179 177.218 90.0179C191.686 90.0179 196.727 81.469 197.98 78.682C198.123 78.3606 198.372 78.098 198.686 77.9384C198.999 77.7788 199.358 77.7318 199.702 77.8052C224.754 82.2519 238.438 73.9536 242.039 71.3231L245.484 68.8806C263.584 56.4174 262.456 38.5995 255.348 26.0736C244.137 6.37682 215.798 -6.30556 187.74 6.56471C173.398 13.1408 165.319 21.6583 163.69 31.8668C160.747 50.3111 179.63 68.3796 181.79 70.3837C181.991 70.5609 182.142 70.7876 182.229 71.0413C184.515 77.8679 177.03 86.1036 173.711 89.329Z" fill="#282928"/>
</svg>
