<svg width="301" height="258" viewBox="0 0 301 258" fill="none" xmlns="http://www.w3.org/2000/svg">
<path d="M215.113 16.0414H87.7932C86.8672 16.0414 85.9791 16.4093 85.3244 17.0641C84.6696 17.7188 84.3018 18.6069 84.3018 19.5329V240.743C84.3018 241.669 84.6696 242.557 85.3244 243.212C85.9791 243.867 86.8672 244.234 87.7932 244.234H215.113C216.039 244.234 216.927 243.867 217.582 243.212C218.237 242.557 218.605 241.669 218.605 240.743V19.5329C218.605 18.6069 218.237 17.7188 217.582 17.0641C216.927 16.4093 216.039 16.0414 215.113 16.0414ZM208.625 210.601C208.625 211.526 208.257 212.415 207.603 213.069C206.948 213.724 206.06 214.092 205.134 214.092H98.3547C97.4287 214.092 96.5407 213.724 95.8859 213.069C95.2311 212.415 94.8633 211.526 94.8633 210.601V34.8951C94.8633 33.9691 95.2311 33.081 95.8859 32.4263C96.5407 31.7715 97.4287 31.4037 98.3547 31.4037H205.134C206.06 31.4037 206.948 31.7715 207.603 32.4263C208.257 33.081 208.625 33.9691 208.625 34.8951V210.601Z" fill="white"/>
<path d="M215.113 244.815H87.7926C86.7122 244.815 85.6762 244.386 84.9123 243.622C84.1484 242.859 83.7192 241.822 83.7192 240.742V19.532C83.7192 18.4517 84.1484 17.4156 84.9123 16.6517C85.6762 15.8878 86.7122 15.4587 87.7926 15.4587H215.113C215.649 15.4548 216.18 15.5575 216.676 15.7608C217.172 15.9642 217.623 16.2641 218.002 16.6431C218.381 17.0221 218.681 17.4727 218.884 17.9686C219.087 18.4646 219.19 18.996 219.186 19.532V240.742C219.186 241.822 218.757 242.859 217.993 243.622C217.229 244.386 216.193 244.815 215.113 244.815ZM87.7926 16.6225C87.0209 16.6225 86.2809 16.929 85.7352 17.4746C85.1896 18.0203 84.883 18.7603 84.883 19.532V240.742C84.883 241.514 85.1896 242.254 85.7352 242.8C86.2809 243.345 87.0209 243.652 87.7926 243.652H215.113C215.884 243.652 216.624 243.345 217.17 242.8C217.716 242.254 218.022 241.514 218.022 240.742V19.532C218.026 19.1488 217.954 18.7687 217.809 18.414C217.664 18.0592 217.45 17.7369 217.179 17.466C216.908 17.195 216.586 16.9809 216.231 16.836C215.876 16.6912 215.496 16.6186 215.113 16.6225H87.7926ZM205.133 214.673H98.3541C97.2738 214.673 96.2377 214.244 95.4738 213.48C94.7099 212.716 94.2808 211.68 94.2808 210.6V34.8942C94.2808 33.8139 94.7099 32.7778 95.4738 32.0139C96.2377 31.25 97.2738 30.8209 98.3541 30.8209H205.133C206.213 30.8209 207.25 31.25 208.013 32.0139C208.777 32.7778 209.206 33.8139 209.206 34.8942V210.6C209.206 211.68 208.777 212.716 208.013 213.48C207.25 214.244 206.213 214.673 205.133 214.673ZM98.3541 31.9847C97.5824 31.9847 96.8424 32.2912 96.2967 32.8369C95.7511 33.3825 95.4446 34.1226 95.4446 34.8942V210.6C95.4446 211.371 95.7511 212.111 96.2967 212.657C96.8424 213.203 97.5824 213.509 98.3541 213.509H205.133C205.905 213.509 206.645 213.203 207.19 212.657C207.736 212.111 208.043 211.371 208.043 210.6V34.8942C208.043 34.1226 207.736 33.3825 207.19 32.8369C206.645 32.2912 205.905 31.9847 205.133 31.9847H98.3541Z" fill="#282928"/>
<path d="M153.955 237.716C158.712 237.716 162.568 233.613 162.568 228.551C162.568 223.489 158.712 219.386 153.955 219.386C149.199 219.386 145.343 223.489 145.343 228.551C145.343 233.613 149.199 237.716 153.955 237.716Z" fill="#282928"/>
<path d="M179.413 20.7535H127.42C125.989 20.7535 124.83 21.9129 124.83 23.343V24.6668C124.83 26.097 125.989 27.2563 127.42 27.2563H179.413C180.843 27.2563 182.002 26.097 182.002 24.6668V23.343C182.002 21.9129 180.843 20.7535 179.413 20.7535Z" fill="#282928"/>
<path d="M76.3877 167.451H76.3586C76.2808 167.452 76.2039 167.436 76.1327 167.404C76.0615 167.373 75.9978 167.327 75.9456 167.269C75.8934 167.212 75.854 167.144 75.8299 167.07C75.8058 166.996 75.7976 166.917 75.8058 166.84L76.0968 161.603C76.1005 161.527 76.1193 161.452 76.152 161.382C76.1847 161.313 76.2308 161.251 76.2876 161.2C76.3443 161.148 76.4106 161.109 76.4828 161.083C76.5549 161.057 76.6313 161.046 76.7078 161.05C76.7855 161.05 76.8625 161.066 76.9337 161.097C77.0048 161.128 77.0686 161.174 77.1208 161.232C77.1729 161.29 77.2123 161.358 77.2364 161.432C77.2605 161.506 77.2687 161.584 77.2606 161.661L76.9696 166.898C76.9557 167.045 76.8891 167.182 76.7822 167.284C76.6752 167.385 76.5351 167.445 76.3877 167.451Z" fill="#282928"/>
<path d="M53.143 154.725L49.9844 158.184L98.7005 202.668L101.859 199.209L53.143 154.725Z" fill="#282928"/>
<path d="M48.2031 111.917L7.17375 158.129C6.41629 158.982 6.49386 160.288 7.34701 161.045L31.9349 182.876C32.7881 183.633 34.0937 183.555 34.8512 182.702L75.8805 136.49C76.638 135.637 76.5604 134.331 75.7073 133.574L51.1194 111.743C50.2662 110.986 48.9606 111.064 48.2031 111.917Z" fill="#FBBC1B"/>
<path d="M62.5368 161.544C62.5368 161.544 58.7544 163.755 61.4603 168.469C64.1661 173.182 63.6424 165.821 64.9517 164.046C66.261 162.272 62.5368 161.544 62.5368 161.544Z" fill="white"/>
<path d="M59.4545 166.984C59.4545 166.984 67.4847 165.791 67.9793 166.402C68.474 167.013 68.8522 167.129 70.1615 168.264C71.4708 169.399 73.4492 169.573 74.0602 170.388C74.6712 171.203 69.2595 176.585 68.2121 175.945C67.1647 175.305 67.3102 174.723 67.3102 174.723C67.3102 174.723 63.7315 175.247 63.4987 173.647C63.4987 173.647 59.92 171.726 60.7638 170.563C60.7638 170.563 57.9706 168.031 59.4545 166.984Z" fill="white"/>
<path d="M68.2408 176.734C68.0407 176.737 67.8423 176.697 67.6589 176.617C67.4143 176.512 67.1945 176.357 67.0141 176.162C66.8336 175.966 66.6964 175.735 66.6114 175.482C65.8993 175.764 65.1047 175.754 64.4002 175.453C63.411 175.046 62.8582 174.115 62.5963 173.533C62.2817 173.584 61.96 173.572 61.6502 173.497C61.3404 173.422 61.0487 173.286 60.7924 173.097C59.9487 172.457 59.6868 171.351 59.6286 170.682C59.2753 170.569 58.962 170.357 58.7267 170.071C57.8247 168.965 58.1448 166.899 58.1738 166.667C58.2022 166.517 58.2882 166.384 58.4133 166.297C58.5384 166.21 58.6927 166.176 58.843 166.201C58.9948 166.23 59.1301 166.314 59.2219 166.438C59.3136 166.563 59.355 166.717 59.3377 166.87C59.2504 167.336 59.134 168.732 59.6286 169.343C59.6974 169.423 59.7822 169.488 59.8774 169.533C59.9726 169.578 60.0761 169.602 60.1814 169.605H60.7633V170.187C60.7633 170.594 60.8797 171.729 61.4907 172.166C62.1017 172.602 62.2472 172.457 62.8 172.282L63.3528 172.136L63.5273 172.689C63.5273 172.689 63.9056 173.999 64.8657 174.406C65.3603 174.61 66.0004 174.551 66.6987 174.173L67.4261 173.824L67.5425 174.61C67.6007 174.871 67.7752 175.424 68.0953 175.541C68.4153 175.657 68.8227 175.453 69.3755 175.017C69.9283 174.58 70.4229 174.173 70.9466 173.795C72.3432 172.747 73.7688 171.7 73.4197 171.089C73.2961 170.851 73.1136 170.648 72.8895 170.5C72.6654 170.353 72.4072 170.265 72.1395 170.245C71.383 170.158 70.5975 170.624 69.8992 171.496C69.7972 171.617 69.6523 171.694 69.4949 171.71C69.3375 171.727 69.18 171.681 69.0554 171.584C68.9425 171.483 68.8711 171.344 68.855 171.193C68.8389 171.043 68.8792 170.891 68.9681 170.769C69.9283 169.576 71.0921 168.994 72.2268 169.081C72.6884 169.117 73.1334 169.269 73.5201 169.524C73.9069 169.778 74.2227 170.126 74.438 170.536C75.2818 172.02 73.5943 173.271 71.6449 174.726C71.1503 175.104 70.5975 175.482 70.1028 175.919C69.6082 176.355 68.7936 176.734 68.2408 176.734Z" fill="#282928"/>
<path d="M69.7837 171.379C69.7045 171.38 69.6261 171.362 69.5552 171.326C69.4843 171.291 69.423 171.239 69.3764 171.175C69.3218 171.121 69.2789 171.057 69.2506 170.985C69.2222 170.914 69.209 170.838 69.2117 170.761C69.2144 170.685 69.2331 170.609 69.2665 170.54C69.2998 170.471 69.3472 170.41 69.4055 170.36C69.551 170.215 69.9874 169.72 69.9292 169.313C69.871 168.905 69.9001 168.993 69.4928 168.731C68.329 168.004 66.5833 169.749 66.5833 169.749C66.4743 169.838 66.337 169.884 66.1965 169.88C66.0561 169.875 65.922 169.82 65.8192 169.724C65.7163 169.628 65.6516 169.499 65.637 169.359C65.6223 169.219 65.6587 169.079 65.7395 168.964C65.8268 168.847 68.1253 166.491 70.1329 167.771C70.3942 167.916 70.6174 168.12 70.7843 168.368C70.9512 168.616 71.057 168.9 71.093 169.196C71.2094 170.244 70.3074 171.117 70.1911 171.204C70.0836 171.314 69.9372 171.376 69.7837 171.379Z" fill="#282928"/>
<path d="M68.2108 167.974C68.0634 167.967 67.9233 167.908 67.8163 167.806C67.7094 167.705 67.6428 167.568 67.6289 167.421C67.5998 166.752 67.3379 166.606 67.2506 166.548C66.6978 166.228 65.4176 166.723 64.8939 167.014C64.7574 167.079 64.6015 167.091 64.4563 167.048C64.3112 167.005 64.1872 166.91 64.1083 166.781C64.0357 166.646 64.0194 166.487 64.063 166.34C64.1066 166.193 64.2066 166.069 64.3411 165.995C64.5739 165.85 66.5232 164.832 67.8325 165.53C68.2399 165.763 68.7345 166.257 68.7927 167.363C68.8007 167.438 68.7933 167.514 68.7709 167.585C68.7486 167.657 68.7118 167.724 68.6627 167.781C68.6137 167.839 68.5534 167.885 68.4857 167.918C68.418 167.951 68.3442 167.97 68.269 167.974H68.2108Z" fill="#282928"/>
<path d="M63.2945 170.36H63.0908C61.927 170.244 60.2686 169.138 59.5412 167.276C59.0757 166.17 58.6684 163.93 60.8214 161.428C63.8764 157.907 65.2729 157.907 67.6878 158.227C68.7744 158.403 69.8777 158.452 70.9756 158.373C71.052 158.365 71.1292 158.373 71.2027 158.395C71.2762 158.417 71.3447 158.453 71.4041 158.502C71.4635 158.551 71.5128 158.611 71.5491 158.678C71.5854 158.746 71.608 158.82 71.6157 158.897C71.6233 158.973 71.6158 159.05 71.5937 159.124C71.5715 159.197 71.535 159.266 71.4864 159.325C71.4378 159.384 71.3779 159.434 71.3102 159.47C71.2426 159.506 71.1684 159.529 71.092 159.537C69.907 159.619 68.7166 159.57 67.5424 159.391C65.5057 159.129 64.4874 158.984 61.6943 162.184C60.0358 164.134 60.1813 165.792 60.6177 166.84C61.0542 167.887 62.4798 169.138 63.2072 169.196C63.2748 169.214 63.346 169.212 63.4127 169.191C63.4795 169.171 63.5393 169.132 63.5854 169.08C64.0219 168.411 63.8473 167.8 63.6145 167.101C63.3818 166.403 63.149 165.559 63.76 164.745C64.4396 163.887 65.2673 163.158 66.204 162.592C66.3392 162.519 66.4976 162.503 66.6447 162.546C66.7918 162.59 66.9158 162.69 66.9896 162.824C67.0622 162.96 67.0785 163.118 67.0349 163.265C66.9913 163.412 66.8913 163.536 66.7568 163.61C65.9661 164.095 65.2669 164.716 64.691 165.443C64.4583 165.763 64.5456 166.112 64.7492 166.781C64.9529 167.451 65.2729 168.585 64.5456 169.72C64.4081 169.924 64.2212 170.089 64.0024 170.201C63.7837 170.313 63.5401 170.368 63.2945 170.36Z" fill="#282928"/>
<path d="M148.078 81.8243C145.954 81.8243 143.51 81.3879 140.717 80.4859C140.575 80.4331 140.458 80.3295 140.388 80.1951C140.318 80.0607 140.3 79.9051 140.339 79.7585C140.358 79.6838 140.393 79.614 140.441 79.5536C140.49 79.4933 140.55 79.4437 140.619 79.408C140.687 79.3724 140.762 79.3515 140.839 79.3467C140.916 79.342 140.994 79.3534 141.066 79.3803C147.234 81.3588 151.599 81.0678 154.013 78.4784C160.065 72.0483 152.879 53.5729 152.791 53.3984C152.764 53.3259 152.751 53.2485 152.753 53.1709C152.756 53.0933 152.774 53.017 152.807 52.9465C152.839 52.876 152.885 52.8128 152.943 52.7605C153 52.7081 153.067 52.6678 153.141 52.6419C153.284 52.5917 153.441 52.5967 153.581 52.6558C153.72 52.715 153.833 52.8241 153.897 52.9619C154.188 53.7475 161.404 72.3102 154.857 79.2639C153.257 80.9805 150.988 81.8243 148.078 81.8243Z" fill="#282928"/>
<path d="M134.811 95.0621H134.752C134.676 95.0548 134.601 95.0324 134.534 94.9962C134.466 94.9601 134.406 94.9108 134.357 94.8513C134.308 94.7917 134.272 94.7231 134.25 94.6495C134.228 94.5758 134.221 94.4985 134.229 94.422L134.578 90.6978C134.743 89.1476 134.703 87.5826 134.461 86.0426L132.541 73.3571C131.581 73.0953 129.108 72.2515 128.119 70.5349C127.879 70.1367 127.727 69.6922 127.672 69.2308C127.617 68.7694 127.66 68.3016 127.799 67.8581C128.167 66.6749 128.778 65.9767 129.632 65.7633C131.319 65.3851 133.094 67.3053 133.298 67.5381C133.378 67.6531 133.415 67.7934 133.4 67.9332C133.386 68.073 133.321 68.2027 133.218 68.2984C133.115 68.3942 132.981 68.4495 132.841 68.4541C132.7 68.4588 132.563 68.4124 132.454 68.3237C132.047 67.8872 130.737 66.7234 129.893 66.898C129.486 67.0144 129.166 67.4217 128.933 68.2073C128.831 68.4929 128.793 68.7978 128.823 69.0999C128.853 69.4019 128.951 69.6934 129.108 69.953C130.097 71.6405 133.152 72.3097 133.181 72.3097L133.589 72.397L135.625 85.868C135.868 87.5056 135.907 89.167 135.742 90.8142L135.363 94.5384C135.356 94.6799 135.294 94.8131 135.192 94.9106C135.089 95.008 134.952 95.0623 134.811 95.0621Z" fill="#282928"/>
<path d="M149.809 62.7247C150.266 62.6326 150.523 61.996 150.383 61.303C150.244 60.6099 149.76 60.1227 149.303 60.2148C148.846 60.3069 148.589 60.9434 148.729 61.6365C148.869 62.3296 149.352 62.8168 149.809 62.7247Z" fill="#282928"/>
<path d="M140.753 64.8812C141.21 64.7891 141.467 64.1526 141.327 63.4595C141.187 62.7664 140.704 62.2793 140.247 62.3714C139.79 62.4635 139.533 63.1 139.673 63.7931C139.813 64.4862 140.296 64.9733 140.753 64.8812Z" fill="#282928"/>
<path d="M147.351 69.4293C147.224 69.427 147.101 69.3831 147.001 69.3043C146.901 69.2254 146.83 69.1161 146.798 68.9929C146.777 68.9203 146.77 68.844 146.779 68.7687C146.788 68.6934 146.812 68.6207 146.85 68.5553C146.889 68.4898 146.94 68.4328 147.001 68.388C147.062 68.3432 147.132 68.3114 147.206 68.2946C147.671 68.1492 147.846 68.0037 147.875 67.9164C147.904 67.8291 147.148 66.7235 146.391 66.2289C146.269 66.1361 146.186 66.0008 146.159 65.8499C146.132 65.699 146.163 65.5435 146.246 65.4142C146.289 65.3508 146.345 65.2967 146.41 65.2551C146.474 65.2134 146.547 65.1849 146.623 65.1714C146.698 65.1579 146.776 65.1595 146.851 65.1762C146.926 65.1929 146.997 65.2244 147.06 65.2687C147.438 65.5015 149.242 66.8108 149.01 68.091C148.922 68.702 148.399 69.1675 147.526 69.4003L147.351 69.4293Z" fill="#282928"/>
<path d="M152.647 93.1136C152.549 93.1179 152.451 93.0959 152.364 93.0498C152.277 93.0038 152.204 92.9354 152.152 92.8517C150.173 89.5365 148.887 85.8546 148.37 82.0283C148.355 81.874 148.401 81.7198 148.499 81.5998C148.598 81.4798 148.739 81.4037 148.894 81.3882C149.048 81.3728 149.202 81.4193 149.322 81.5175C149.442 81.6157 149.518 81.7576 149.534 81.9119C150.026 85.5633 151.253 89.0769 153.142 92.2407C153.218 92.3768 153.24 92.5371 153.202 92.6886C153.164 92.8401 153.07 92.9713 152.938 93.0554C152.849 93.1024 152.748 93.1226 152.647 93.1136Z" fill="#282928"/>
<path d="M146.274 52.7293C146.199 52.7332 146.124 52.7219 146.054 52.6959C145.983 52.6699 145.919 52.6298 145.864 52.578C145.81 52.5263 145.766 52.464 145.737 52.395C145.707 52.3259 145.692 52.2516 145.692 52.1765C145.688 52.1 145.699 52.0236 145.725 51.9515C145.751 51.8794 145.79 51.813 145.842 51.7563C145.893 51.6995 145.955 51.6535 146.024 51.6207C146.094 51.588 146.169 51.5692 146.245 51.5655L148.165 51.5073C148.242 51.5034 148.318 51.5146 148.39 51.5403C148.462 51.5659 148.529 51.6056 148.585 51.6569C148.642 51.7083 148.688 51.7703 148.721 51.8395C148.754 51.9087 148.773 51.9837 148.776 52.0601C148.78 52.1365 148.769 52.213 148.743 52.2851C148.718 52.3572 148.678 52.4235 148.627 52.4803C148.575 52.5371 148.513 52.5831 148.444 52.6159C148.375 52.6486 148.3 52.6674 148.223 52.6711L146.274 52.7293Z" fill="white"/>
<path d="M141.182 56.5978C176.125 57.4706 163.76 38.2387 151.743 43.4177C151.67 43.4554 151.589 43.4754 151.507 43.4759C151.424 43.4764 151.343 43.4575 151.269 43.4206C151.195 43.3838 151.132 43.33 151.082 43.2638C151.033 43.1976 151.001 43.1207 150.987 43.0394C150.609 40.7991 148.863 34.6891 141.386 40.2754C141.298 40.3438 141.191 40.381 141.08 40.381C140.969 40.381 140.862 40.3438 140.775 40.2754C139.145 39.0534 131.668 33.9617 129.718 41.6429C129.664 41.8701 129.565 42.0841 129.427 42.2722C129.288 42.4603 129.113 42.6188 128.913 42.7382C128.712 42.8575 128.489 42.9354 128.258 42.9672C128.026 42.9989 127.791 42.9839 127.565 42.923C124.307 42.0502 117.848 41.381 117.935 50.1095C118.022 58.8381 124.947 67.3338 127.944 70.5343C128.293 70.9125 128.031 69.7778 128.002 69.2832C127.962 68.8904 128.024 68.494 128.182 68.1322C128.34 67.7704 128.589 67.4553 128.904 67.2175C134.025 63.086 133.821 59.9728 133.734 57.8779C133.588 53.9792 134.81 55.4048 136.265 55.7831C136.469 55.8413 140.978 56.5978 141.182 56.5978Z" fill="#282928"/>
<path d="M158.815 51.2168C158.732 51.2175 158.651 51.1964 158.58 51.1555C158.508 51.1146 158.449 51.0554 158.408 50.984C158.356 50.8756 158.349 50.7515 158.387 50.6376C158.425 50.5238 158.505 50.429 158.611 50.373C159.164 50.1112 160.59 49.1801 160.561 48.2491C160.532 47.3181 159.513 46.8816 158.669 46.5034C158.571 46.45 158.496 46.3607 158.462 46.254C158.427 46.1472 158.435 46.0313 158.484 45.9302C158.533 45.8291 158.618 45.7507 158.723 45.7111C158.828 45.6716 158.944 45.674 159.048 45.7178C160.59 46.4161 161.404 47.2599 161.433 48.22C161.463 49.8493 159.251 51.0422 159.019 51.1586L158.815 51.2168Z" fill="white"/>
<path d="M149.999 53.3401C149.33 53.3401 148.544 53.2819 147.584 53.1946C147.471 53.1734 147.37 53.1112 147.3 53.0198C147.23 52.9285 147.196 52.8146 147.206 52.7C147.22 52.5894 147.276 52.4886 147.363 52.4182C147.45 52.3479 147.56 52.3134 147.671 52.3217C150.522 52.6418 151.803 52.3508 152.937 52.1181C153.257 52.0599 153.519 51.9726 153.839 51.9435C153.899 51.9204 153.964 51.9109 154.028 51.9158C154.093 51.9206 154.155 51.9397 154.211 51.9716C154.267 52.0034 154.316 52.0473 154.353 52.1001C154.39 52.1529 154.415 52.2133 154.426 52.2768C154.437 52.3404 154.433 52.4056 154.416 52.4678C154.399 52.5299 154.368 52.5875 154.326 52.6363C154.284 52.6851 154.231 52.7239 154.172 52.7501C154.113 52.7762 154.049 52.7889 153.985 52.7873L153.141 52.9618C152.112 53.212 151.057 53.339 149.999 53.3401Z" fill="white"/>
<path d="M141.852 43.7679C141.73 43.7631 141.615 43.7109 141.532 43.6224C141.456 43.5371 141.416 43.4253 141.421 43.311C141.427 43.1967 141.477 43.0891 141.561 43.0114C143.307 41.4112 146.332 41.0039 146.449 41.0039C146.506 40.9957 146.565 40.999 146.621 41.0137C146.677 41.0284 146.729 41.054 146.776 41.0893C146.822 41.1245 146.86 41.1685 146.889 41.2188C146.918 41.2691 146.936 41.3246 146.943 41.3821C146.952 41.4933 146.917 41.6036 146.847 41.6901C146.777 41.7767 146.676 41.8331 146.565 41.8476C146.536 41.8767 143.685 42.2259 142.143 43.6515C142.06 43.7191 141.958 43.7597 141.852 43.7679Z" fill="white"/>
<path d="M122.008 56.0182C121.911 56.017 121.816 55.9855 121.738 55.9281C121.66 55.8707 121.602 55.7903 121.571 55.6981L120.902 53.2832C120.884 53.2278 120.877 53.1694 120.882 53.1114C120.887 53.0534 120.904 52.997 120.931 52.9455C120.958 52.894 120.995 52.8484 121.04 52.8115C121.085 52.7746 121.137 52.747 121.193 52.7304C121.246 52.7127 121.303 52.7064 121.359 52.7116C121.415 52.7169 121.469 52.7338 121.519 52.7611C121.568 52.7884 121.611 52.8257 121.645 52.8705C121.679 52.9153 121.704 52.9666 121.717 53.0214L122.415 55.4653C122.433 55.5188 122.439 55.5753 122.434 55.6314C122.429 55.6874 122.412 55.7418 122.384 55.791C122.357 55.8402 122.32 55.8832 122.275 55.9173C122.23 55.9514 122.179 55.9758 122.124 55.9891L122.008 56.0182Z" fill="white"/>
<path d="M144.557 78.071C144.262 78.0754 143.968 78.0362 143.684 77.9546C141.124 77.2563 139.815 73.6776 139.669 71.9028C139.611 71.0591 139.815 70.5354 140.309 70.3317C140.804 70.128 141.037 70.128 141.59 70.739C143.219 72.4556 147.467 72.4848 148.747 72.4557C148.96 72.4576 149.168 72.5149 149.352 72.6221C149.536 72.7292 149.688 72.8825 149.794 73.0666C149.895 73.2583 149.94 73.4742 149.925 73.6901C149.909 73.9059 149.834 74.1132 149.707 74.2886C147.961 76.7908 146.245 78.071 144.557 78.071ZM141.182 72.3102C141.444 73.5904 142.288 75.7434 143.714 76.4126C145.139 77.0818 146.943 75.5979 148.194 73.9395H148.136C146.07 73.9395 143.044 73.6486 141.182 72.3102Z" fill="#282928"/>
<path d="M146.391 59.4785C146.208 59.4682 146.033 59.3965 145.896 59.2749C145.759 59.1427 145.679 58.9621 145.674 58.7716C145.668 58.5812 145.738 58.3963 145.867 58.2565C147.933 56.0162 150.581 57.1509 151.715 58.0529C151.79 58.114 151.851 58.1892 151.897 58.2742C151.942 58.3592 151.971 58.4523 151.98 58.5482C151.99 58.6441 151.98 58.741 151.952 58.8332C151.924 58.9254 151.878 59.0112 151.817 59.0857C151.756 59.1602 151.681 59.222 151.596 59.2674C151.511 59.3129 151.418 59.3411 151.322 59.3506C151.226 59.36 151.129 59.3505 151.037 59.3225C150.945 59.2946 150.859 59.2487 150.784 59.1876C150.581 59.013 148.544 57.5 146.944 59.2458C146.797 59.3934 146.599 59.4771 146.391 59.4785Z" fill="#282928"/>
<path d="M136.672 62.3883C136.524 62.3842 136.382 62.3332 136.265 62.2429C136.185 62.1928 136.116 62.127 136.062 62.0494C136.008 61.9719 135.97 61.8843 135.951 61.7918C135.932 61.6993 135.932 61.604 135.951 61.5115C135.97 61.419 136.007 61.3312 136.061 61.2536C138.098 58.1404 141.036 58.8969 141.182 58.926C141.282 58.9423 141.378 58.9795 141.464 59.0353C141.549 59.091 141.622 59.1641 141.677 59.2497C141.732 59.3353 141.769 59.4316 141.784 59.5323C141.8 59.633 141.794 59.7358 141.768 59.8342C141.741 59.9325 141.694 60.0242 141.63 60.1032C141.565 60.1823 141.485 60.2469 141.394 60.2929C141.303 60.339 141.204 60.3654 141.102 60.3705C141 60.3756 140.899 60.3593 140.804 60.3226C140.716 60.3226 138.709 59.857 137.283 62.0392C137.219 62.1443 137.129 62.2315 137.023 62.2926C136.916 62.3536 136.795 62.3866 136.672 62.3883Z" fill="#282928"/>
<path d="M76.6789 161.633C76.6789 161.633 95.7362 145.166 99.8968 138.706C100.626 137.595 101.565 136.636 102.661 135.884C106.967 132.887 116.976 125.788 120.7 121.802L112.786 110.746C112.786 110.746 97.8602 126.021 94.747 130.443C92.2448 133.964 84.4182 135.797 73.1875 156.396L71.3545 158.811" fill="white"/>
<path d="M76.6783 162.213C76.5955 162.21 76.5142 162.191 76.4392 162.156C76.3641 162.121 76.297 162.071 76.2419 162.009C76.1426 161.893 76.0931 161.743 76.104 161.59C76.1149 161.438 76.1853 161.296 76.3 161.195C76.5037 161.02 95.3283 144.698 99.4016 138.384C100.179 137.215 101.165 136.199 102.311 135.387C106.355 132.594 116.015 125.786 119.943 121.742L112.698 111.646C110.109 114.323 97.9759 126.892 95.2119 130.79C94.4845 131.809 93.3789 132.652 92.0114 133.758C88.229 136.726 81.8863 141.672 73.7106 156.685L73.6524 156.772L71.8194 159.158C71.774 159.22 71.716 159.273 71.6491 159.311C71.5823 159.35 71.5082 159.374 71.4314 159.382C71.3547 159.391 71.2771 159.383 71.2036 159.359C71.1301 159.335 71.0624 159.297 71.0047 159.245C70.8813 159.153 70.7996 159.015 70.7778 158.862C70.756 158.709 70.7958 158.554 70.8884 158.431L72.7213 156.074C80.9844 140.886 87.4435 135.853 91.284 132.827C92.6515 131.75 93.6407 130.994 94.2517 130.121C97.394 125.699 111.738 110.977 112.349 110.336L112.844 109.842L121.427 121.858L121.107 122.207C117.353 126.252 107.17 133.438 102.98 136.348C101.955 137.067 101.076 137.976 100.391 139.024C96.2302 145.483 77.8421 161.398 77.0565 162.068C76.9507 162.158 76.8172 162.209 76.6783 162.213Z" fill="#282928"/>
<path d="M30.7386 174.58C30.1823 174.586 29.6329 174.456 29.1384 174.201C29.0868 174.175 29.041 174.138 29.0036 174.094C28.9662 174.049 28.9379 173.998 28.9203 173.942C28.9028 173.887 28.8963 173.829 28.9013 173.771C28.9062 173.713 28.9225 173.656 28.9493 173.605C28.976 173.553 29.0127 173.508 29.0571 173.47C29.1016 173.433 29.153 173.404 29.2084 173.387C29.2637 173.369 29.322 173.363 29.3799 173.368C29.4378 173.373 29.4942 173.389 29.5457 173.416C31.2624 174.347 33.6191 172.921 34.8992 170.972C36.1794 169.022 36.7322 165.793 33.8227 163.465C30.9132 161.138 27.0145 161.109 23.814 161.021C21.3409 160.963 19.4206 160.934 18.6642 159.887C18.315 159.392 18.2568 158.752 18.5187 157.937C19.0133 156.337 19.8571 155.29 21.0209 154.795C22.8248 154.038 24.6869 154.97 24.7741 154.999C24.8286 155.02 24.8777 155.053 24.9183 155.095C24.9588 155.137 24.9898 155.188 25.0091 155.243C25.0284 155.298 25.0357 155.357 25.0302 155.415C25.0248 155.473 25.007 155.53 24.9778 155.581C24.9223 155.68 24.8326 155.755 24.7254 155.792C24.6182 155.83 24.5011 155.827 24.3959 155.784C24.3668 155.755 22.7666 154.999 21.3409 155.61C20.439 155.988 19.7698 156.861 19.3624 158.199C19.1879 158.723 19.1879 159.101 19.3624 159.363C19.8862 160.061 21.7192 160.09 23.814 160.148C27.1599 160.236 31.2914 160.323 34.3755 162.767C37.4596 165.211 37.1687 169.139 35.6266 171.466C34.4919 173.183 32.5716 174.58 30.7386 174.58Z" fill="white"/>
<path d="M40.6309 168.005C40.5521 168.006 40.4744 167.986 40.4073 167.944C40.3401 167.903 40.2864 167.843 40.2527 167.772L28.0327 144.583L50.8142 155.901C50.8686 155.922 50.9178 155.955 50.9583 155.998C50.9989 156.04 51.0298 156.09 51.0492 156.145C51.0685 156.201 51.0757 156.259 51.0703 156.317C51.0649 156.376 51.047 156.432 51.0179 156.483C50.9935 156.535 50.9585 156.581 50.9151 156.619C50.8717 156.656 50.8209 156.684 50.766 156.7C50.711 156.717 50.6532 156.722 50.5964 156.714C50.5395 156.707 50.4848 156.687 50.436 156.657L30.0403 146.561L41.0091 167.364C41.0613 167.465 41.0723 167.582 41.0397 167.691C41.0071 167.799 40.9336 167.891 40.8346 167.946C40.7764 167.991 40.7037 168.011 40.6309 168.005Z" fill="white"/>
<path d="M36.1778 157.705H35.9742C35.8729 157.644 35.7966 157.549 35.7593 157.437C35.7219 157.325 35.7259 157.203 35.7705 157.094C35.9742 156.716 39.1455 153.021 40.4839 151.479C40.5627 151.389 40.6731 151.332 40.7923 151.321C40.9115 151.311 41.0303 151.346 41.124 151.421C41.208 151.498 41.2581 151.606 41.2635 151.72C41.269 151.834 41.2293 151.946 41.1531 152.032C39.4947 153.981 36.7597 157.152 36.5561 157.501C36.514 157.563 36.4577 157.614 36.3919 157.649C36.326 157.685 36.2526 157.704 36.1778 157.705Z" fill="white"/>
<path d="M53.3436 154.329L52.9945 154.009C46.3608 147.608 36.2648 137.919 35.7411 137.512C35.6879 137.489 35.6408 137.454 35.6033 137.409C35.5658 137.365 35.539 137.313 35.525 137.257C35.5109 137.201 35.51 137.142 35.5222 137.085C35.5344 137.028 35.5596 136.975 35.5956 136.93C35.6609 136.834 35.7598 136.766 35.8728 136.739C35.9859 136.712 36.105 136.728 36.2066 136.784C36.6721 137.075 48.9793 148.917 53.2854 153.078L58.9299 146.59C58.9595 146.53 59.0024 146.478 59.0552 146.438C59.1081 146.397 59.1694 146.369 59.2346 146.356C59.2998 146.343 59.3671 146.345 59.4314 146.362C59.4958 146.379 59.5554 146.411 59.6057 146.454C59.656 146.497 59.6957 146.552 59.7218 146.613C59.7479 146.674 59.7597 146.741 59.7563 146.807C59.7528 146.873 59.7342 146.938 59.702 146.996C59.6697 147.054 59.6245 147.104 59.57 147.142L53.3436 154.329Z" fill="white"/>
<path d="M61.0555 145.397L42.8711 129.162L49.1265 122.702C49.2043 122.619 49.3118 122.568 49.4261 122.563C49.5404 122.558 49.6522 122.597 49.7375 122.673C49.8176 122.759 49.8644 122.871 49.8698 122.988C49.8751 123.105 49.8385 123.221 49.7666 123.313L44.1222 129.103L60.9974 144.175L68.242 136.552C68.3236 136.472 68.4333 136.427 68.5475 136.427C68.6618 136.427 68.7715 136.472 68.853 136.552C68.937 136.629 68.9871 136.737 68.9925 136.851C68.998 136.966 68.9583 137.077 68.8821 137.163L61.0555 145.397Z" fill="white"/>
<path d="M52.7039 137.309C52.5984 137.296 52.4982 137.256 52.4129 137.192C52.329 137.115 52.2789 137.007 52.2734 136.893C52.268 136.779 52.3077 136.667 52.3839 136.581L56.6317 131.81C56.7176 131.73 56.8292 131.683 56.9464 131.678C57.0637 131.672 57.179 131.709 57.2718 131.781C57.3558 131.858 57.4059 131.966 57.4113 132.08C57.4168 132.195 57.3771 132.306 57.3009 132.392L53.0239 137.163C52.9404 137.252 52.8255 137.304 52.7039 137.309Z" fill="white"/>
<path d="M74.1456 171.524C74.0733 171.526 74.0015 171.511 73.9359 171.481C73.8702 171.451 73.8125 171.406 73.7674 171.349C73.709 171.299 73.6617 171.238 73.6283 171.169C73.595 171.1 73.5763 171.025 73.5736 170.948C73.5709 170.872 73.5841 170.795 73.6124 170.724C73.6408 170.653 73.6836 170.588 73.7383 170.535C74.6371 169.503 75.3286 168.307 75.7749 167.014C75.7951 166.939 75.83 166.869 75.8777 166.807C75.9254 166.746 75.9849 166.695 76.0527 166.657C76.1205 166.619 76.1952 166.595 76.2724 166.586C76.3497 166.578 76.4278 166.585 76.5023 166.607C76.6486 166.653 76.7704 166.756 76.8413 166.892C76.9121 167.029 76.9263 167.187 76.8806 167.334C76.4008 168.809 75.6179 170.166 74.582 171.32C74.5309 171.386 74.4646 171.44 74.3886 171.475C74.3127 171.51 74.2294 171.527 74.1456 171.524Z" fill="#282928"/>
<path d="M236.96 155.076L241.507 156.201L257.355 92.1629L252.808 91.0376L236.96 155.076Z" fill="white"/>
<path d="M241.822 157.035L236.149 155.638L252.239 90.465L257.883 91.8615L241.822 157.035ZM237.545 154.794L240.95 155.638L256.486 92.7053L253.082 91.8615L237.545 154.794Z" fill="#282928"/>
<path d="M223.937 89.6274L281.962 104.582C283.599 105.004 285.267 104.019 285.689 102.383L293.415 72.4079C293.836 70.7713 292.852 69.1026 291.215 68.6808L233.19 53.7259C231.553 53.3041 229.885 54.2889 229.463 55.9255L221.737 85.9004C221.316 87.537 222.3 89.2056 223.937 89.6274Z" fill="#282928"/>
<path d="M248.543 101.987C248.543 101.987 252.908 101.725 253.257 107.166C253.606 112.607 249.969 106.148 247.903 105.42C245.837 104.693 248.543 101.987 248.543 101.987Z" fill="white"/>
<path d="M254.1 104.78C254.1 104.78 246.768 108.242 246.681 109.028C246.594 109.813 246.361 110.134 245.924 111.792C245.488 113.45 243.917 114.731 243.859 115.72C243.801 116.709 251.278 118.251 251.802 117.116C252.325 115.982 251.86 115.574 251.86 115.574C251.86 115.574 255.119 114.032 254.449 112.578C254.449 112.578 256.37 108.999 255.002 108.504C255.002 108.504 255.933 104.838 254.1 104.78Z" fill="white"/>
<path d="M250.725 118.164H250.202L248.252 118.019C245.837 117.902 243.742 117.786 243.597 116.098C243.562 115.637 243.639 115.174 243.822 114.748C244.004 114.323 244.286 113.948 244.644 113.654C245.546 112.956 246.827 112.811 248.281 113.247C248.428 113.294 248.549 113.396 248.62 113.533C248.691 113.669 248.705 113.828 248.659 113.974C248.639 114.049 248.604 114.12 248.557 114.181C248.509 114.242 248.45 114.293 248.382 114.331C248.314 114.369 248.239 114.393 248.162 114.402C248.085 114.411 248.007 114.404 247.932 114.382C246.856 114.033 245.954 114.091 245.372 114.556C245.159 114.731 244.992 114.954 244.886 115.208C244.779 115.461 244.736 115.737 244.761 116.011C244.819 116.68 246.594 116.767 248.31 116.855L250.318 117C251.016 117.058 251.511 116.971 251.685 116.738C251.86 116.506 251.714 115.895 251.598 115.662L251.278 114.934L252.064 114.847C252.878 114.731 253.431 114.469 253.722 113.974C254.013 113.48 253.897 111.85 253.897 111.821L253.722 111.268L254.275 111.094C254.828 110.919 255.148 110.657 255.293 110.279C255.439 109.901 255.031 108.534 254.799 108.214L254.479 107.748L254.944 107.399C255.039 107.348 255.118 107.272 255.175 107.18C255.231 107.088 255.262 106.983 255.264 106.875C255.351 106.119 254.479 104.984 254.158 104.664C254.103 104.608 254.059 104.543 254.029 104.47C253.999 104.398 253.984 104.32 253.984 104.242C253.984 104.164 253.999 104.086 254.029 104.014C254.059 103.941 254.103 103.876 254.158 103.82C254.214 103.765 254.28 103.721 254.352 103.691C254.424 103.661 254.502 103.645 254.58 103.645C254.659 103.645 254.736 103.661 254.809 103.691C254.881 103.721 254.947 103.765 255.002 103.82C255.148 103.995 256.573 105.537 256.428 106.962C256.397 107.326 256.255 107.672 256.021 107.952C256.312 108.563 256.748 109.639 256.399 110.628C256.29 110.928 256.12 111.202 255.899 111.432C255.679 111.663 255.413 111.845 255.119 111.967C255.235 112.607 255.293 113.683 254.711 114.585C254.283 115.222 253.627 115.669 252.878 115.836C252.94 116.098 252.949 116.369 252.904 116.634C252.859 116.899 252.761 117.152 252.616 117.378C252.267 117.902 251.627 118.164 250.725 118.164Z" fill="#282928"/>
<path d="M247.613 114.295H247.525C247.38 114.295 246.158 114.062 245.663 113.131C245.46 112.782 245.314 112.2 245.663 111.385C246.624 109.232 249.853 109.931 249.969 109.96C250.043 109.973 250.113 110.002 250.175 110.043C250.237 110.085 250.29 110.139 250.331 110.201C250.371 110.264 250.399 110.334 250.412 110.407C250.425 110.481 250.423 110.556 250.406 110.629C250.378 110.779 250.292 110.911 250.166 110.998C250.041 111.085 249.887 111.12 249.737 111.094C249.679 111.065 247.293 110.6 246.74 111.851C246.536 112.316 246.653 112.52 246.682 112.578C246.711 112.636 247.555 113.131 247.7 113.16C247.854 113.172 247.998 113.244 248.099 113.361C248.2 113.479 248.25 113.631 248.238 113.786C248.227 113.94 248.154 114.083 248.037 114.184C247.92 114.285 247.767 114.336 247.613 114.324V114.295Z" fill="#282928"/>
<path d="M247.03 110.599C246.931 110.593 246.834 110.563 246.748 110.512C246.662 110.462 246.589 110.392 246.535 110.308C245.983 109.348 246.128 108.65 246.332 108.243C247.03 106.933 249.241 106.701 249.474 106.671C249.55 106.664 249.628 106.671 249.701 106.693C249.775 106.716 249.843 106.752 249.902 106.801C249.962 106.849 250.011 106.909 250.047 106.977C250.084 107.045 250.106 107.119 250.114 107.195C250.122 107.272 250.114 107.349 250.092 107.422C250.07 107.496 250.033 107.564 249.985 107.624C249.936 107.683 249.876 107.732 249.809 107.769C249.741 107.805 249.667 107.828 249.59 107.835C248.979 107.893 247.67 108.184 247.379 108.766C247.321 108.854 247.205 109.115 247.554 109.726C247.622 109.86 247.639 110.013 247.601 110.158C247.564 110.303 247.474 110.429 247.35 110.512C247.252 110.567 247.142 110.597 247.03 110.599Z" fill="#282928"/>
<path d="M251.918 110.017C251.727 110.018 251.539 109.979 251.365 109.901C250.143 109.348 249.823 108.301 249.59 107.544C249.357 106.788 249.27 106.555 248.892 106.41C248.01 106.123 247.082 106.005 246.157 106.061C246.08 106.064 246.004 106.053 245.932 106.028C245.86 106.002 245.793 105.962 245.737 105.911C245.68 105.86 245.634 105.798 245.601 105.728C245.568 105.659 245.55 105.584 245.546 105.508C245.538 105.433 245.545 105.357 245.568 105.285C245.59 105.213 245.627 105.146 245.676 105.089C245.725 105.032 245.785 104.985 245.853 104.952C245.92 104.919 245.994 104.9 246.07 104.897C247.164 104.843 248.258 104.991 249.299 105.333C250.23 105.682 250.492 106.526 250.696 107.224C250.899 107.923 251.103 108.505 251.83 108.825C251.947 108.883 252.063 108.825 252.238 108.708C252.412 108.592 253.372 106.817 253.052 105.304C252.732 103.791 252.034 102.744 249.561 102.075C245.488 100.94 244.702 101.609 243.16 102.976C242.284 103.762 241.328 104.454 240.309 105.042C240.243 105.082 240.169 105.108 240.093 105.118C240.016 105.128 239.938 105.122 239.864 105.1C239.79 105.078 239.722 105.041 239.663 104.991C239.604 104.941 239.557 104.879 239.523 104.809C239.448 104.678 239.427 104.522 239.465 104.375C239.503 104.229 239.597 104.103 239.727 104.024C240.686 103.482 241.583 102.838 242.404 102.104C244.237 100.474 245.4 99.6887 249.881 100.94C253.081 101.813 253.954 103.908 254.187 105.071C254.623 107.021 253.867 108.883 252.965 109.61C252.673 109.862 252.303 110.005 251.918 110.017Z" fill="#282928"/>
<path d="M239.669 104.577L236.817 103.616C216.014 92.7058 208.508 95.528 204.493 93.986C199.43 92.0366 178.54 87.6141 178.54 87.6141L178.104 101.202C183.399 102.453 195.648 102.802 200.914 102.889C202.238 102.906 203.545 103.193 204.755 103.733C211.825 106.788 236.817 109.901 236.817 109.901" fill="white"/>
<path d="M236.82 110.482H236.733C235.714 110.337 211.595 107.311 204.524 104.256C203.384 103.763 202.159 103.496 200.917 103.47C195.796 103.383 183.343 103.034 177.961 101.754L177.495 101.637L177.99 86.8862L178.659 87.0317C179.532 87.2354 199.666 91.5124 204.699 93.4326C205.688 93.8109 206.939 93.9273 208.685 94.0436C213.573 94.4219 221.72 95.0329 237.024 103.092L239.846 104.052C239.921 104.072 239.99 104.107 240.051 104.155C240.111 104.203 240.161 104.264 240.196 104.332C240.232 104.401 240.253 104.476 240.258 104.553C240.263 104.63 240.251 104.707 240.224 104.78C240.198 104.853 240.158 104.92 240.106 104.978C240.053 105.035 239.99 105.081 239.92 105.114C239.849 105.146 239.773 105.164 239.695 105.167C239.618 105.17 239.54 105.157 239.468 105.129L236.529 104.14C221.4 96.1967 213.398 95.5857 208.598 95.2074C206.823 95.062 205.426 94.9747 204.292 94.5383C199.84 92.8216 182.732 89.0975 179.095 88.3119L178.688 100.736C184.187 101.899 196 102.219 200.917 102.307C202.318 102.33 203.702 102.626 204.99 103.179C211.915 106.176 236.646 109.289 236.878 109.319C236.954 109.326 237.027 109.348 237.094 109.385C237.16 109.421 237.218 109.471 237.265 109.531C237.311 109.591 237.345 109.66 237.363 109.734C237.382 109.807 237.385 109.884 237.373 109.959C237.365 110.1 237.304 110.233 237.201 110.331C237.098 110.428 236.962 110.483 236.82 110.482Z" fill="#282928"/>
<path d="M244.062 116.826H243.945C242.439 116.45 241.03 115.755 239.814 114.789C239.751 114.744 239.699 114.686 239.661 114.619C239.622 114.552 239.598 114.478 239.59 114.401C239.581 114.325 239.589 114.247 239.613 114.173C239.636 114.1 239.675 114.032 239.727 113.975C239.823 113.856 239.963 113.78 240.116 113.763C240.268 113.747 240.421 113.792 240.541 113.887C241.628 114.731 242.876 115.345 244.207 115.691C244.354 115.732 244.48 115.827 244.561 115.956C244.641 116.085 244.671 116.24 244.644 116.39C244.616 116.52 244.542 116.637 244.435 116.717C244.328 116.797 244.195 116.836 244.062 116.826Z" fill="#282928"/>
<path d="M112.233 112.431C111.987 112.108 111.808 111.737 111.709 111.343C111.609 110.949 111.59 110.538 111.652 110.136C111.715 109.734 111.857 109.349 112.072 109.004C112.287 108.658 112.569 108.359 112.902 108.125C114.706 106.845 117.412 104.518 121.136 100.27C122.823 98.3786 128.672 95.2072 131.639 93.8397C132.097 93.6249 132.594 93.5063 133.099 93.4912C133.605 93.4762 134.108 93.5651 134.578 93.7524C137.342 94.9453 144.383 96.371 153.722 87.0024C154.537 86.2168 162.393 83.3364 179.064 85.2857C179.698 85.3571 180.287 85.6451 180.732 86.1011C181.178 86.5571 181.452 87.153 181.508 87.7879L182.527 101.113C182.576 101.788 182.38 102.458 181.973 102.998C181.566 103.539 180.977 103.913 180.315 104.052L176.853 104.692C176.48 104.765 176.144 104.964 175.901 105.256C175.657 105.547 175.521 105.913 175.515 106.292C175.282 113.77 174.525 150.401 180.141 150.779C182.352 150.924 164.051 164.104 143.888 157.471C143.888 157.471 145.459 151.07 142.957 144.436C140.746 138.559 131.843 123.575 129.835 120.258C129.788 120.178 129.722 120.11 129.644 120.059C129.565 120.008 129.477 119.975 129.384 119.964C129.291 119.953 129.197 119.963 129.109 119.994C129.021 120.025 128.941 120.075 128.875 120.142L125.238 123.779C124.932 124.079 124.566 124.312 124.164 124.461C123.761 124.61 123.332 124.673 122.904 124.646C122.476 124.619 122.058 124.501 121.678 124.302C121.298 124.102 120.965 123.825 120.699 123.488L112.233 112.431Z" fill="#FBBC1B"/>
<path d="M249.999 76.6448C249.234 76.6422 248.487 76.4201 247.846 76.0047C246.682 75.2773 245.983 73.939 245.925 72.2514C245.883 70.4957 246.381 68.7693 247.351 67.3053C248.284 65.8157 249.642 64.64 251.25 63.9302C252.821 63.2901 254.305 63.3483 255.498 64.1048C256.691 64.8613 257.36 66.1997 257.418 67.8581C257.414 69.6153 256.908 71.3348 255.959 72.8142C255.011 74.2935 253.66 75.4711 252.064 76.2084C251.411 76.4888 250.709 76.6371 249.999 76.6448ZM253.315 64.3667C252.726 64.3727 252.144 64.4912 251.599 64.7158C250.151 65.3547 248.933 66.4206 248.107 67.7708C247.208 69.0774 246.749 70.6369 246.798 72.2223C246.856 73.5898 247.38 74.6954 248.311 75.2773C249.242 75.8592 250.464 75.9174 251.744 75.3937C253.169 74.7284 254.377 73.6729 255.226 72.3494C256.076 71.026 256.533 69.4889 256.545 67.9163C256.487 66.5197 255.934 65.4432 255.003 64.8322C254.499 64.5125 253.912 64.3504 253.315 64.3667Z" fill="white"/>
<path d="M262.566 94.9187C261.867 94.9334 261.178 94.7411 260.588 94.3659C259.511 93.6676 258.9 92.4456 258.813 90.9035C258.79 89.3082 259.257 87.7443 260.151 86.4229C262.071 83.4261 265.388 82.1168 267.57 83.5134C268.618 84.1826 269.258 85.4046 269.316 86.9466C269.341 88.547 268.885 90.1179 268.007 91.4563C266.61 93.6385 264.457 94.9187 262.566 94.9187ZM265.563 83.8043C263.963 83.8043 262.101 84.9681 260.879 86.8884C260.085 88.065 259.669 89.4554 259.686 90.8744C259.744 92.1255 260.238 93.0857 261.053 93.6385C262.828 94.7441 265.621 93.5803 267.279 90.9908C268.065 89.8011 268.471 88.401 268.443 86.9757C268.385 85.7537 267.92 84.7645 267.076 84.2408C266.626 83.9485 266.099 83.7966 265.563 83.8043Z" fill="white"/>
<path d="M246.535 89.1854C246.465 89.1848 246.395 89.1657 246.334 89.13C246.273 89.0942 246.222 89.0432 246.186 88.9818C246.154 88.9365 246.131 88.8851 246.12 88.8307C246.108 88.7763 246.108 88.7202 246.119 88.6657C246.13 88.6111 246.152 88.5594 246.183 88.5137C246.215 88.468 246.256 88.4293 246.303 88.3999L270.684 71.001C270.732 70.9685 270.786 70.9458 270.842 70.934C270.899 70.9223 270.957 70.9218 271.014 70.9326C271.071 70.9434 271.125 70.9653 271.173 70.997C271.221 71.0287 271.263 71.0696 271.295 71.1174C271.328 71.1651 271.351 71.2188 271.362 71.2754C271.374 71.3319 271.375 71.3902 271.364 71.447C271.353 71.5037 271.331 71.5578 271.299 71.606C271.268 71.6543 271.227 71.6959 271.179 71.7284L246.797 89.0981C246.723 89.1568 246.63 89.1877 246.535 89.1854Z" fill="white"/>
<path d="M155.846 159.684C150.098 159.672 144.376 158.909 138.825 157.414C138.75 157.394 138.68 157.359 138.619 157.311C138.557 157.264 138.506 157.204 138.468 157.136C138.43 157.069 138.406 156.994 138.398 156.917C138.389 156.839 138.396 156.761 138.418 156.687C138.438 156.612 138.473 156.542 138.521 156.482C138.569 156.422 138.629 156.372 138.698 156.336C138.766 156.301 138.842 156.28 138.919 156.275C138.996 156.27 139.073 156.282 139.145 156.309C139.233 156.309 147.758 158.84 157.795 158.491C171.15 158.025 180.751 152.992 186.309 143.507C186.348 143.439 186.4 143.379 186.462 143.332C186.525 143.284 186.596 143.25 186.672 143.231C186.749 143.212 186.828 143.209 186.905 143.221C186.983 143.233 187.057 143.261 187.123 143.303C187.247 143.386 187.337 143.512 187.374 143.657C187.412 143.802 187.395 143.955 187.327 144.089C181.624 153.806 171.412 159.189 157.795 159.655L155.846 159.684Z" fill="#282928"/>
<path d="M173.304 48.1025C173.214 48.1004 173.126 48.0784 173.045 48.0381C172.965 47.9979 172.894 47.9404 172.839 47.8697C172.793 47.8086 172.759 47.739 172.74 47.665C172.721 47.591 172.717 47.5139 172.728 47.4383C172.739 47.3626 172.764 47.2899 172.803 47.2241C172.842 47.1583 172.894 47.1009 172.955 47.0551L204.581 22.266C204.702 22.186 204.848 22.1539 204.992 22.1761C205.135 22.1983 205.265 22.2731 205.356 22.3859C205.447 22.4987 205.492 22.6413 205.483 22.786C205.475 22.9306 205.412 23.0668 205.309 23.168L173.653 47.9861C173.556 48.0684 173.431 48.11 173.304 48.1025Z" fill="#282928"/>
<path d="M184.651 51.3613C184.513 51.3596 184.381 51.3091 184.277 51.2188C184.173 51.1284 184.104 51.0041 184.083 50.8679C184.062 50.7317 184.09 50.5925 184.162 50.4751C184.234 50.3576 184.346 50.2696 184.476 50.2266L216.132 38.9668C216.275 38.9197 216.43 38.9297 216.566 38.9948C216.702 39.0599 216.807 39.175 216.859 39.3159C216.887 39.3884 216.9 39.4658 216.897 39.5434C216.895 39.6209 216.877 39.6972 216.844 39.7677C216.812 39.8382 216.765 39.9015 216.708 39.9538C216.651 40.0061 216.583 40.0465 216.51 40.0724L184.855 51.3322L184.651 51.3613Z" fill="#282928"/>
<path d="M204.348 70.7104H204.29L178.279 68.2664C178.193 68.278 178.105 68.2702 178.023 68.2436C177.94 68.217 177.865 68.1723 177.801 68.1127C177.738 68.0532 177.689 67.9803 177.658 67.8994C177.627 67.8184 177.614 67.7316 177.621 67.6451C177.628 67.5586 177.653 67.4747 177.697 67.3995C177.74 67.3243 177.799 67.2597 177.871 67.2105C177.942 67.1613 178.024 67.1287 178.11 67.115C178.195 67.1014 178.283 67.1071 178.366 67.1317L204.406 69.5757C204.481 69.5792 204.555 69.5981 204.623 69.6312C204.691 69.6643 204.751 69.7109 204.8 69.7681C204.849 69.8253 204.886 69.892 204.908 69.9639C204.93 70.0359 204.938 70.1117 204.93 70.1867C204.926 70.2593 204.908 70.3305 204.877 70.3961C204.846 70.4618 204.802 70.5206 204.748 70.5693C204.694 70.6179 204.63 70.6554 204.562 70.6796C204.493 70.7038 204.421 70.7143 204.348 70.7104Z" fill="#282928"/>
<path d="M236.818 109.901C236.818 109.901 239.03 113.422 240.164 114.324L236.818 109.901Z" fill="white"/>
<path d="M240.164 114.905C240.034 114.902 239.909 114.85 239.815 114.76C238.651 113.829 236.556 110.57 236.323 110.221C236.244 110.088 236.218 109.93 236.25 109.779C236.283 109.628 236.371 109.495 236.498 109.406C236.56 109.364 236.631 109.335 236.705 109.321C236.779 109.306 236.855 109.308 236.929 109.324C237.002 109.34 237.072 109.372 237.133 109.416C237.194 109.46 237.245 109.516 237.284 109.581C237.895 110.541 239.669 113.16 240.542 113.858C240.661 113.955 240.737 114.095 240.754 114.247C240.77 114.4 240.725 114.553 240.63 114.672C240.574 114.743 240.503 114.801 240.423 114.841C240.342 114.881 240.254 114.903 240.164 114.905Z" fill="#282928"/>
<path d="M186.775 199.368L174.991 199.252C174.607 199.251 174.227 199.168 173.878 199.009C173.528 198.85 173.216 198.618 172.963 198.329C172.709 198.04 172.521 197.7 172.409 197.333C172.297 196.965 172.265 196.578 172.315 196.197L174.002 183.308C174.087 182.657 174.405 182.059 174.897 181.626C175.39 181.192 176.023 180.952 176.679 180.951H185.116C185.773 180.952 186.406 181.192 186.898 181.626C187.39 182.059 187.709 182.657 187.793 183.308L189.481 196.284C189.53 196.669 189.497 197.06 189.384 197.431C189.271 197.802 189.08 198.145 188.824 198.437C188.568 198.729 188.253 198.962 187.9 199.123C187.546 199.284 187.163 199.367 186.775 199.368Z" fill="white"/>
<path d="M186.775 199.95H186.746L174.991 199.834C174.521 199.838 174.056 199.739 173.628 199.543C173.201 199.346 172.822 199.059 172.518 198.699C172.214 198.346 171.987 197.933 171.852 197.488C171.717 197.042 171.676 196.572 171.733 196.11L173.42 183.25C173.519 182.455 173.905 181.724 174.505 181.194C175.105 180.663 175.878 180.37 176.679 180.369H185.117C185.919 180.364 186.695 180.655 187.297 181.186C187.898 181.718 188.282 182.453 188.375 183.25L190.063 196.226C190.12 196.695 190.076 197.171 189.936 197.623C189.796 198.074 189.561 198.491 189.248 198.845C188.938 199.194 188.557 199.474 188.131 199.664C187.704 199.855 187.242 199.952 186.775 199.95ZM186.775 198.787C187.079 198.785 187.379 198.719 187.655 198.593C187.931 198.467 188.178 198.284 188.379 198.056C188.579 197.827 188.729 197.56 188.819 197.269C188.909 196.979 188.936 196.673 188.899 196.372L187.24 183.395C187.176 182.879 186.924 182.403 186.533 182.06C186.141 181.717 185.637 181.529 185.117 181.533H176.679C176.161 181.53 175.661 181.718 175.274 182.062C174.887 182.406 174.642 182.881 174.584 183.395L172.897 196.255C172.852 196.556 172.873 196.862 172.958 197.154C173.044 197.445 173.191 197.714 173.391 197.943C173.591 198.171 173.837 198.354 174.113 198.48C174.389 198.605 174.688 198.67 174.991 198.67L186.775 198.787Z" fill="#282928"/>
<path d="M176.678 181.533H176.62C176.466 181.505 176.327 181.421 176.231 181.298C176.134 181.174 176.086 181.02 176.096 180.864C176.183 180.194 176.94 174.172 179.238 172.746C179.501 172.571 179.802 172.461 180.115 172.425C180.429 172.39 180.747 172.43 181.042 172.542C184.446 173.706 185.639 180.544 185.668 180.834C185.685 180.909 185.686 180.987 185.671 181.062C185.657 181.137 185.627 181.209 185.583 181.271C185.539 181.334 185.483 181.388 185.417 181.428C185.352 181.467 185.279 181.493 185.203 181.504C185.052 181.529 184.898 181.495 184.773 181.408C184.648 181.321 184.562 181.188 184.534 181.038C184.243 179.263 182.962 174.434 180.664 173.619C180.529 173.572 180.384 173.558 180.243 173.579C180.101 173.599 179.966 173.653 179.849 173.735C178.482 174.579 177.551 178.652 177.26 181.009C177.245 181.153 177.178 181.287 177.07 181.383C176.962 181.48 176.823 181.533 176.678 181.533Z" fill="#282928"/>
<path d="M180.955 191.339C183.076 191.339 184.795 190.532 184.795 189.535C184.795 188.539 183.076 187.732 180.955 187.732C178.834 187.732 177.114 188.539 177.114 189.535C177.114 190.532 178.834 191.339 180.955 191.339Z" fill="#FBBC1B"/>
<path d="M180.664 208.852C176.548 208.858 172.523 207.642 169.098 205.36C165.673 203.078 163.002 199.831 161.423 196.03C159.844 192.229 159.428 188.046 160.228 184.008C161.027 179.971 163.006 176.261 165.914 173.349C168.823 170.437 172.529 168.453 176.565 167.648C180.602 166.843 184.786 167.253 188.589 168.827C192.392 170.4 195.642 173.067 197.93 176.488C200.217 179.91 201.438 183.933 201.438 188.049C201.43 193.559 199.24 198.841 195.346 202.74C191.453 206.639 186.174 208.836 180.664 208.852ZM180.664 168.439C176.777 168.433 172.976 169.581 169.742 171.736C166.508 173.892 163.986 176.959 162.496 180.549C161.006 184.139 160.614 188.09 161.371 191.902C162.128 195.715 163.999 199.217 166.748 201.965C169.496 204.713 172.998 206.584 176.81 207.341C180.623 208.098 184.574 207.707 188.164 206.217C191.753 204.727 194.82 202.205 196.976 198.971C199.132 195.737 200.28 191.936 200.274 188.049C200.266 182.85 198.198 177.867 194.522 174.191C190.846 170.515 185.862 168.446 180.664 168.439Z" fill="#282928"/>
<path d="M152.355 178.858H111.04C110.886 178.858 110.738 178.797 110.628 178.688C110.519 178.579 110.458 178.431 110.458 178.277C110.458 178.122 110.519 177.974 110.628 177.865C110.738 177.756 110.886 177.695 111.04 177.695H152.355C152.509 177.695 152.657 177.756 152.766 177.865C152.876 177.974 152.937 178.122 152.937 178.277C152.937 178.431 152.876 178.579 152.766 178.688C152.657 178.797 152.509 178.858 152.355 178.858Z" fill="#282928"/>
<path d="M146.709 188.051H116.392C116.238 188.051 116.09 187.989 115.98 187.88C115.871 187.771 115.81 187.623 115.81 187.469C115.81 187.315 115.871 187.167 115.98 187.057C116.09 186.948 116.238 186.887 116.392 186.887H146.709C146.863 186.887 147.011 186.948 147.121 187.057C147.23 187.167 147.291 187.315 147.291 187.469C147.291 187.623 147.23 187.771 147.121 187.88C147.011 187.989 146.863 188.051 146.709 188.051Z" fill="#282928"/>
<path d="M152.937 198.466H112.844C112.69 198.466 112.542 198.405 112.433 198.295C112.324 198.186 112.262 198.038 112.262 197.884C112.262 197.73 112.324 197.582 112.433 197.473C112.542 197.363 112.69 197.302 112.844 197.302H152.937C153.092 197.302 153.24 197.363 153.349 197.473C153.458 197.582 153.519 197.73 153.519 197.884C153.519 198.038 153.458 198.186 153.349 198.295C153.24 198.405 153.092 198.466 152.937 198.466Z" fill="#282928"/>
</svg>
