<svg width="49" height="47" viewBox="0 0 49 47" fill="none" xmlns="http://www.w3.org/2000/svg">
<ellipse cx="24.6102" cy="23.2464" rx="23.6441" ry="22.7997" fill="#DEE2E6"/>
<path fill-rule="evenodd" clip-rule="evenodd" d="M32.3608 32.8265H17.9399C16.8017 32.8265 15.8798 31.9046 15.8798 30.7664V16.3455C15.8798 15.2073 16.8017 14.2854 17.9399 14.2854H32.3608C33.499 14.2854 34.4209 15.2073 34.4209 16.3455V30.7664C34.4209 31.9046 33.499 32.8265 32.3608 32.8265Z" stroke="#78828A" stroke-width="1.5451" stroke-linecap="round" stroke-linejoin="round"/>
<path d="M15.8798 26.6461H20.3935C20.7839 26.6461 21.1403 26.8666 21.3144 27.2157L21.7748 28.1366C21.9499 28.4858 22.3063 28.7062 22.6967 28.7062H27.6039C27.9943 28.7062 28.3507 28.4858 28.5248 28.1366L28.9853 27.2157C29.1604 26.8666 29.5168 26.6461 29.9072 26.6461H34.4209" stroke="#78828A" stroke-width="1.5451" stroke-linecap="round" stroke-linejoin="round"/>
</svg>
