<svg width="46" height="46" viewBox="0 0 46 46" fill="none" xmlns="http://www.w3.org/2000/svg">
<rect x="0.820557" y="0.494629" width="44.5845" height="44.7213" rx="22.2922" fill="#FEF0CB"/>
<path d="M17.9144 25.9782H15.8169C14.6581 25.9782 13.7195 25.0396 13.7195 23.8808V15.491C13.7195 14.3322 14.6581 13.3936 15.8169 13.3936H24.2067C25.3655 13.3936 26.3042 14.3322 26.3042 15.491V17.5884" stroke="#CF9709" stroke-width="1.54652" stroke-linecap="round" stroke-linejoin="round"/>
<path d="M24.2068 30.1735H20.0119C18.853 30.1735 17.9144 29.2349 17.9144 28.0761V19.6863C17.9144 18.5275 18.853 17.5889 20.0119 17.5889H28.4017C29.5605 17.5889 30.4991 18.5275 30.4991 19.6863V23.8812" stroke="#CF9709" stroke-width="1.54652" stroke-linecap="round" stroke-linejoin="round"/>
<path d="M30.4991 28.0762V32.2711" stroke="#CF9709" stroke-width="1.54652" stroke-linecap="round" stroke-linejoin="round"/>
<path d="M28.4016 30.1733H32.5965" stroke="#CF9709" stroke-width="1.54652" stroke-linecap="round" stroke-linejoin="round"/>
</svg>
