<svg width="42" height="42" viewBox="0 0 42 42" fill="none" xmlns="http://www.w3.org/2000/svg">
<circle cx="20.7643" cy="21.214" r="20.6676" fill="#CF9709" fill-opacity="0.66"/>
<path d="M15.687 20.5219H20.0719V15.1626" stroke="#FFFBEF" stroke-width="1.46164" stroke-linecap="round" stroke-linejoin="round"/>
<path d="M30.3038 25.8813V22.958C30.3038 22.1499 28.6668 21.4963 26.6497 21.4963C24.6326 21.4963 22.9966 22.1509 22.9956 22.958V28.8045C22.9966 29.6116 24.6316 30.2662 26.6497 30.2662C28.6678 30.2662 30.3028 29.6116 30.3038 28.8045V22.958" stroke="#FFFBEF" stroke-width="1.46164" stroke-linecap="round" stroke-linejoin="round"/>
<path d="M22.9956 22.958C22.9956 23.765 24.6318 24.4196 26.6502 24.4196C28.6686 24.4196 30.3038 23.765 30.3038 22.958" stroke="#FFFBEF" stroke-width="1.46164" stroke-linecap="round" stroke-linejoin="round"/>
<path d="M22.9956 25.8811C22.9956 26.6881 24.6316 27.3427 26.6497 27.3427C28.6678 27.3427 30.3038 26.6881 30.3038 25.8811" stroke="#FFFBEF" stroke-width="1.46164" stroke-linecap="round" stroke-linejoin="round"/>
<path d="M28.1297 18.0858C27.1085 13.6127 22.8113 10.6835 18.2744 11.3678C13.7375 12.0522 10.4956 16.1188 10.8394 20.6941C11.1832 25.2694 14.9964 28.8058 19.5846 28.8045" stroke="#FFFBEF" stroke-width="1.46164" stroke-linecap="round" stroke-linejoin="round"/>
</svg>
