<svg width="41" height="41" viewBox="0 0 41 41" fill="none" xmlns="http://www.w3.org/2000/svg">
<circle cx="20.7557" cy="20.3402" r="19.8778" fill="#CF9709" fill-opacity="0.66"/>
<path d="M19.0102 28.1021H16.8496C15.895 28.1021 15.1211 27.3282 15.1211 26.3736V15.5704" stroke="white" stroke-width="1.30147" stroke-linecap="round" stroke-linejoin="round"/>
<path d="M26.3569 15.5704V21.1881" stroke="white" stroke-width="1.30147" stroke-linecap="round" stroke-linejoin="round"/>
<path d="M22.4678 22.0521L20.7393 23.7806L22.4678 25.5091" stroke="white" stroke-width="1.30147" stroke-linecap="round" stroke-linejoin="round"/>
<path d="M20.7393 23.7806H24.6284C25.8217 23.7806 26.789 24.748 26.789 25.9413V25.9413C26.789 27.1346 25.8217 28.1019 24.6284 28.1019H22.4678" stroke="white" stroke-width="1.30147" stroke-linecap="round" stroke-linejoin="round"/>
<path d="M17.7139 15.5699V13.8414C17.7139 13.1255 18.2943 12.545 19.0102 12.545H22.4673C23.1832 12.545 23.7637 13.1255 23.7637 13.8414V15.1378" stroke="white" stroke-width="1.30147" stroke-linecap="round" stroke-linejoin="round"/>
<path d="M27.6533 15.5707H13.8252" stroke="white" stroke-width="1.30147" stroke-linecap="round" stroke-linejoin="round"/>
</svg>
