<svg width="64" height="65" viewBox="0 0 64 65" fill="none" xmlns="http://www.w3.org/2000/svg">
<rect width="64" height="64.1963" rx="32" fill="#FEF0CB"/>
<rect x="45.8434" y="45.9839" width="27.0954" height="27.1786" rx="5.49062" transform="rotate(-180 45.8434 45.9839)" stroke="#CF9709" stroke-width="2.43783" stroke-linecap="round" stroke-linejoin="round"/>
<path d="M45.6965 39.9266L37.1235 31.3265C36.8412 31.0434 36.4583 30.8843 36.059 30.8843C35.6598 30.8843 35.2769 31.0434 34.9946 31.3265L28.5325 37.8083L25.081 34.3463C24.4932 33.7567 23.5402 33.7567 22.9523 34.3462L18.7498 38.5606" stroke="#CF9709" stroke-width="2.43783" stroke-linecap="round" stroke-linejoin="round"/>
<path d="M28.2654 26.8439L28.2661 26.8433C28.4128 26.6964 28.6504 26.6967 28.7969 26.8438C28.9434 26.9909 28.9433 27.2292 28.7968 27.3763C28.6502 27.5233 28.4126 27.5234 28.2659 27.3764C28.1192 27.2295 28.119 26.9912 28.2654 26.8439" stroke="#CF9709" stroke-width="2.43783" stroke-linecap="round" stroke-linejoin="round"/>
</svg>
