<svg width="24" height="25" viewBox="0 0 24 25" fill="none" xmlns="http://www.w3.org/2000/svg">
<path fill-rule="evenodd" clip-rule="evenodd" d="M19.8529 16.2178L19.8555 16.2203C19.9911 16.3463 20.0358 16.5424 19.9681 16.7146C19.9004 16.8868 19.7342 17 19.5492 17H4.45097C4.26597 17 4.09983 16.8868 4.03217 16.7146C3.96451 16.5424 4.00912 16.3464 4.14462 16.2204V16.2204C5.64586 14.8251 6.49875 12.868 6.49875 10.8185V9C6.49875 5.96243 8.96119 3.5 11.9988 3.5V3.5C13.4574 3.5 14.8564 4.07946 15.8878 5.11091C16.9193 6.14236 17.4988 7.54131 17.4988 9V10.816C17.4988 12.8655 18.3516 14.8226 19.8529 16.2178V16.2178Z" stroke="white" stroke-width="1.5" stroke-linecap="round" stroke-linejoin="round"/>
<path d="M10 20.5H14" stroke="white" stroke-width="1.5" stroke-linecap="round" stroke-linejoin="round"/>
<path d="M18.708 3.79199C19.4888 4.79241 20.0344 5.95578 20.3042 7.19581" stroke="white" stroke-width="1.5" stroke-linecap="round" stroke-linejoin="round"/>
<path d="M5.29247 3.79199C4.51167 4.79241 3.96612 5.95578 3.69629 7.19581" stroke="white" stroke-width="1.5" stroke-linecap="round" stroke-linejoin="round"/>
</svg>
