<svg width="25" height="25" viewBox="0 0 25 25" fill="none" xmlns="http://www.w3.org/2000/svg">
<rect width="25" height="25" rx="4.28571" fill="#EE9E03"/>
<path d="M18.9382 11.1191C18.7099 10.5271 18.3966 9.99832 18.007 9.54693C17.6084 9.08537 17.1304 8.71842 16.5863 8.45625C16.0354 8.19054 15.4407 8.05614 14.8189 8.05614C14.2753 8.05614 13.7629 8.14987 13.2961 8.33511C13.2759 8.34307 13.2562 8.35103 13.236 8.35943L13.224 4.95475C13.2236 4.78233 13.0876 4.64307 12.9202 4.64307H10.329C10.2483 4.64307 10.1711 4.67622 10.1144 4.73458L7.58882 7.33727C7.53175 7.39607 7.5 7.47565 7.5 7.55833V15.3925C7.5 16.0707 7.61714 16.7175 7.84799 17.3152C8.0797 17.9151 8.40923 18.4474 8.82759 18.8966C9.24767 19.3485 9.75442 19.7083 10.3333 19.9665C10.9142 20.2256 11.5617 20.3574 12.2573 20.3574C12.9528 20.3574 13.5849 20.2256 14.1663 19.9661C14.7421 19.7083 15.2472 19.3498 15.6664 18.9002L15.9131 18.646C17.9431 16.5548 17.9491 16.5486 17.9585 16.538C18.3765 16.0879 18.706 15.5552 18.9377 14.9544C19.1686 14.3557 19.2857 13.7076 19.2857 13.0285C19.2857 12.3495 19.169 11.7177 18.9382 11.1191Z" fill="#28292A"/>
<path d="M18.5743 13.029C18.5743 13.6174 18.4752 14.1692 18.2765 14.6838C18.0778 15.1984 17.8006 15.6476 17.4445 16.0309C17.0879 16.4142 16.6631 16.7162 16.1697 16.9372C15.6758 17.1578 15.1339 17.2679 14.5439 17.2679C13.9539 17.2679 13.3965 17.1578 12.9026 16.9376C12.4087 16.7175 11.984 16.416 11.6278 16.0331C11.2717 15.6502 10.9945 15.2024 10.7958 14.6882C10.5971 14.1745 10.498 13.624 10.498 13.0365V5.37652H12.513L12.528 9.74101C12.8232 9.41341 13.1639 9.1729 13.551 9.01949C13.9376 8.86608 14.3602 8.7896 14.8181 8.7896C15.3373 8.7896 15.8256 8.90012 16.2834 9.12074C16.7412 9.34135 17.1381 9.64596 17.4741 10.0346C17.8101 10.4232 18.077 10.875 18.2756 11.3896C18.4739 11.9042 18.5734 12.4507 18.5734 13.0285L18.5743 13.029Z" fill="white"/>
</svg>
