<svg width="24" height="25" viewBox="0 0 24 25" fill="none" xmlns="http://www.w3.org/2000/svg">
<path fill-rule="evenodd" clip-rule="evenodd" d="M20 22.5H14C12.895 22.5 12 21.605 12 20.5V14.5C12 13.395 12.895 12.5 14 12.5H20C21.105 12.5 22 13.395 22 14.5V20.5C22 21.605 21.105 22.5 20 22.5Z" stroke="#FFFDF9" stroke-width="1.5" stroke-linecap="round" stroke-linejoin="round"/>
<path d="M11.996 16.739C11.356 16.889 10.69 16.98 10 16.98C9.431 16.98 8.876 16.924 8.339 16.821L5.2 18.367C5.2 17.297 5.198 16.278 5.199 15.522C3.262 14.204 2 12.114 2 9.74C2 5.723 5.598 2.5 10 2.5C14.402 2.5 18 5.723 18 9.74C18 10.721 17.782 11.653 17.394 12.504" stroke="#FFFDF9" stroke-width="1.5" stroke-linecap="round" stroke-linejoin="round"/>
<path d="M10.177 9.70983C10.275 9.80783 10.275 9.96583 10.177 10.0638C10.079 10.1618 9.921 10.1618 9.823 10.0638C9.725 9.96583 9.725 9.80783 9.823 9.70983C9.921 9.61283 10.079 9.61283 10.177 9.70983" stroke="#FFFDF9" stroke-width="1.5" stroke-linecap="round" stroke-linejoin="round"/>
<path d="M13.7317 9.70983C13.8297 9.80783 13.8297 9.96583 13.7317 10.0638C13.6337 10.1618 13.4757 10.1618 13.3777 10.0638C13.2797 9.96583 13.2797 9.80783 13.3777 9.70983C13.4757 9.61283 13.6347 9.61283 13.7317 9.70983" stroke="#FFFDF9" stroke-width="1.5" stroke-linecap="round" stroke-linejoin="round"/>
<path d="M6.62134 9.70983C6.71934 9.80783 6.71934 9.96583 6.62134 10.0638C6.52334 10.1618 6.36534 10.1618 6.26734 10.0638C6.16934 9.96583 6.16934 9.80783 6.26734 9.70983C6.36534 9.61283 6.52434 9.61283 6.62134 9.70983" stroke="#FFFDF9" stroke-width="1.5" stroke-linecap="round" stroke-linejoin="round"/>
<path d="M19.2223 16.3892L16.4443 19.1672L14.7783 17.5002" stroke="#FFFDF9" stroke-width="1.5294" stroke-linecap="round" stroke-linejoin="round"/>
</svg>
