<svg width="15" height="16" viewBox="0 0 15 16" fill="none" xmlns="http://www.w3.org/2000/svg">
<circle cx="7.60843" cy="8.00003" r="5.54593" stroke="#78828A" stroke-width="0.924322" stroke-linecap="round" stroke-linejoin="round"/>
<path fill-rule="evenodd" clip-rule="evenodd" d="M6.22169 7.99987L5.86093 7.63909C5.69748 7.47564 5.47579 7.38381 5.24463 7.38381C5.01348 7.38381 4.79179 7.47564 4.62834 7.63909V7.63909C4.33457 7.93285 4.28899 8.39312 4.51942 8.7388L5.71487 10.5322C5.94346 10.8751 6.3283 11.0811 6.74042 11.0811H9.07962C9.70117 11.0811 10.2255 10.6182 10.3025 10.0015L10.5256 8.21641C10.6077 7.55878 10.1551 6.95393 9.50101 6.84726L8.07034 6.61395V5.22706C8.07034 4.71657 7.6565 4.30273 7.14602 4.30273V4.30273C6.63553 4.30273 6.22169 4.71657 6.22169 5.22706V7.99987Z" stroke="#78828A" stroke-width="0.924322" stroke-linecap="round" stroke-linejoin="round"/>
</svg>
