<svg width="24" height="25" viewBox="0 0 24 25" fill="none" xmlns="http://www.w3.org/2000/svg">
<path d="M18.3639 6.13604C21.8787 9.65076 21.8787 15.3492 18.3639 18.8639C14.8492 22.3787 9.15074 22.3787 5.63604 18.8639C2.12132 15.3492 2.12132 9.65074 5.63604 6.13604C9.15076 2.62132 14.8492 2.62132 18.3639 6.13604" stroke="white" stroke-width="1.5" stroke-linecap="round" stroke-linejoin="round"/>
<path d="M13.5 15C11.567 15 10 13.433 10 11.5C10 9.567 11.567 8 13.5 8C15.434 8 17 9.567 17 11.5C17 13.433 15.434 15 13.5 15" stroke="white" stroke-width="1.5" stroke-linecap="round" stroke-linejoin="round"/>
<path d="M10.33 10.0176C8.478 10.1076 7 11.6256 7 13.4996C7 15.4326 8.567 16.9996 10.5 16.9996C11.897 16.9996 13.093 16.1756 13.655 14.9916" stroke="white" stroke-width="1.5" stroke-linecap="round" stroke-linejoin="round"/>
</svg>
