<svg width="145" height="145" viewBox="0 0 145 145" fill="none" xmlns="http://www.w3.org/2000/svg">
<circle cx="72.6698" cy="72.8919" r="71.91" fill="#CE605A"/>
<path fill-rule="evenodd" clip-rule="evenodd" d="M75.5645 50.6763H69.2868C67.5541 50.6763 66.1479 52.0825 66.1479 53.8151V60.0928H78.7033V53.8151C78.7033 52.0825 77.2971 50.6763 75.5645 50.6763Z" stroke="white" stroke-width="3.7666" stroke-linecap="round" stroke-linejoin="round"/>
<path d="M91.2588 60.0929H53.5928" stroke="white" stroke-width="3.7666" stroke-linecap="round" stroke-linejoin="round"/>
<path d="M88.1198 60.0928L85.2415 91.7668C85.094 93.3833 83.738 94.62 82.1152 94.62H62.736C61.1133 94.62 59.7573 93.3833 59.6098 91.7668L56.7314 60.0928" stroke="white" stroke-width="3.7666" stroke-linecap="round" stroke-linejoin="round"/>
<path d="M44.1763 94.6196V97.7585C44.1763 99.4911 45.5793 100.897 47.3151 100.897H50.4539" stroke="white" stroke-width="3.7666" stroke-linecap="round" stroke-linejoin="round"/>
<path d="M100.675 50.6761V47.5373C100.675 45.8015 99.2689 44.3984 97.5363 44.3984H94.3975" stroke="white" stroke-width="3.7666" stroke-linecap="round" stroke-linejoin="round"/>
<path d="M94.3975 100.897H97.5363C99.2689 100.897 100.675 99.4911 100.675 97.7585V94.6196" stroke="white" stroke-width="3.7666" stroke-linecap="round" stroke-linejoin="round"/>
<path d="M50.4539 44.3984H47.3151C45.5825 44.3984 44.1763 45.8015 44.1763 47.5373V50.6761" stroke="white" stroke-width="3.7666" stroke-linecap="round" stroke-linejoin="round"/>
</svg>
