<svg width="30" height="30" viewBox="0 0 30 30" fill="none" xmlns="http://www.w3.org/2000/svg">
<rect x="0.336914" y="0.943359" width="28.7915" height="28.7915" rx="4.93568" fill="#A9B4BF"/>
<path d="M22.1477 13.7487C21.8848 13.0669 21.5241 12.458 21.0754 11.9381C20.6163 11.4065 20.0658 10.9839 19.4392 10.682C18.8047 10.376 18.1198 10.2212 17.4038 10.2212C16.7777 10.2212 16.1876 10.3292 15.65 10.5425C15.6268 10.5517 15.604 10.5608 15.5808 10.5705L15.567 6.64948C15.5665 6.45091 15.4098 6.29053 15.2171 6.29053H12.2329C12.14 6.29053 12.051 6.32871 11.9858 6.39592L9.07714 9.39333C9.01142 9.46105 8.97485 9.5527 8.97485 9.64791V18.6702C8.97485 19.4512 9.10976 20.1961 9.37562 20.8845C9.64247 21.5754 10.022 22.1885 10.5038 22.7058C10.9876 23.2261 11.5712 23.6406 12.2378 23.9379C12.9069 24.2363 13.6526 24.388 14.4536 24.388C15.2547 24.388 15.9826 24.2363 16.6521 23.9374C17.3153 23.6406 17.8969 23.2276 18.3797 22.7098L18.6639 22.4171C21.0017 20.0088 21.0087 20.0016 21.0195 19.9894C21.5008 19.4711 21.8804 18.8576 22.1472 18.1656C22.4131 17.4762 22.548 16.7298 22.548 15.9477C22.548 15.1657 22.4136 14.4381 22.1477 13.7487Z" fill="#75818D"/>
<path d="M21.7287 15.9482C21.7287 16.6259 21.6145 17.2613 21.3857 17.854C21.1569 18.4467 20.8377 18.964 20.4275 19.4054C20.0169 19.8468 19.5277 20.1946 18.9594 20.4492C18.3906 20.7032 17.7665 20.83 17.087 20.83C16.4075 20.83 15.7656 20.7032 15.1968 20.4497C14.6281 20.1961 14.1388 19.8489 13.7287 19.408C13.3185 18.967 12.9993 18.4512 12.7705 17.8591C12.5417 17.2675 12.4276 16.6336 12.4276 15.9569V7.13522H14.7481L14.7654 12.1616C15.1054 11.7843 15.4978 11.5074 15.9435 11.3307C16.3888 11.154 16.8755 11.0659 17.4028 11.0659C18.0007 11.0659 18.5631 11.1932 19.0903 11.4473C19.6176 11.7013 20.0747 12.0522 20.4616 12.4997C20.8486 12.9473 21.1559 13.4676 21.3847 14.0603C21.613 14.6529 21.7277 15.2822 21.7277 15.9477L21.7287 15.9482Z" fill="white"/>
</svg>
