<svg width="24" height="25" viewBox="0 0 24 25" fill="none" xmlns="http://www.w3.org/2000/svg">
<path d="M2.99609 19.5029C2.99609 20.608 3.8919 21.5038 4.99693 21.5038" stroke="white" stroke-width="1.5" stroke-linecap="round" stroke-linejoin="round"/>
<path d="M2.9963 5.49707V19.5029" stroke="white" stroke-width="1.5" stroke-linecap="round" stroke-linejoin="round"/>
<path d="M8.99874 21.5036H4.99707" stroke="white" stroke-width="1.5" stroke-linecap="round" stroke-linejoin="round"/>
<path d="M21.0038 5.49742C21.0038 4.39239 20.108 3.49658 19.0029 3.49658" stroke="white" stroke-width="1.5" stroke-linecap="round" stroke-linejoin="round"/>
<path d="M21.0041 8.49832V5.49707" stroke="white" stroke-width="1.5" stroke-linecap="round" stroke-linejoin="round"/>
<path d="M4.99707 3.4963H19.0029" stroke="white" stroke-width="1.5" stroke-linecap="round" stroke-linejoin="round"/>
<path d="M2.99609 5.49742C2.99609 4.39239 3.8919 3.49658 4.99693 3.49658" stroke="white" stroke-width="1.5" stroke-linecap="round" stroke-linejoin="round"/>
<path fill-rule="evenodd" clip-rule="evenodd" d="M8.49867 17.5642V17.5642C7.6699 17.5642 6.99805 16.8924 6.99805 16.0636V16.0636C6.99805 15.2348 7.6699 14.563 8.49867 14.563V14.563C9.32744 14.563 9.9993 15.2348 9.9993 16.0636V16.0636C9.9993 16.8924 9.32744 17.5642 8.49867 17.5642V17.5642Z" stroke="white" stroke-width="1.5" stroke-linecap="round" stroke-linejoin="round"/>
<path d="M6.99805 7.56027H15.0014" stroke="white" stroke-width="1.5" stroke-linecap="round" stroke-linejoin="round"/>
<path d="M6.99805 11.0617H12.0001" stroke="white" stroke-width="1.5" stroke-linecap="round" stroke-linejoin="round"/>
<path fill-rule="evenodd" clip-rule="evenodd" d="M13.501 21.0035V20.5973C13.5043 19.4417 14.4403 18.5057 15.5958 18.5024H18.9092C20.0648 18.5057 21.0008 19.4417 21.0041 20.5973V21.0035C21.0041 21.2797 20.7802 21.5037 20.5039 21.5037H14.0012C13.7249 21.5037 13.501 21.2797 13.501 21.0035Z" stroke="white" stroke-width="1.5" stroke-linecap="round" stroke-linejoin="round"/>
<path fill-rule="evenodd" clip-rule="evenodd" d="M15.251 13.9928C15.2554 12.8889 16.1532 11.9971 17.2572 12C18.3611 12.003 19.2541 12.8995 19.2527 14.0035C19.2512 15.1075 18.3558 16.0017 17.2518 16.0017C16.7198 16.0017 16.2097 15.7898 15.8342 15.4128C15.4587 15.0359 15.2489 14.5249 15.251 13.9928V13.9928Z" stroke="white" stroke-width="1.5" stroke-linecap="round" stroke-linejoin="round"/>
</svg>
