<svg width="15" height="9" viewBox="0 0 15 9" fill="none" xmlns="http://www.w3.org/2000/svg">
<path d="M8.39662 0.913723C8.56424 0.754141 8.7873 0.665918 9.01873 0.667669C9.25016 0.66942 9.47186 0.761009 9.63704 0.923109C9.80223 1.08521 9.89799 1.30514 9.90411 1.5365C9.91022 1.76785 9.82622 1.99254 9.66983 2.16314L4.92204 8.10086C4.8404 8.18879 4.74187 8.25936 4.63233 8.30834C4.5228 8.35732 4.40451 8.38371 4.28454 8.38593C4.16457 8.38815 4.04539 8.36616 3.93412 8.32127C3.82284 8.27637 3.72176 8.2095 3.63692 8.12465L0.48839 4.97612C0.400708 4.89442 0.330381 4.79589 0.281604 4.68642C0.232827 4.57695 0.206599 4.45877 0.204485 4.33894C0.20237 4.21911 0.224413 4.10009 0.269298 3.98896C0.314183 3.87784 0.380991 3.77689 0.465736 3.69215C0.550481 3.6074 0.651426 3.54059 0.762551 3.49571C0.873676 3.45082 0.992702 3.42878 1.11253 3.43089C1.23236 3.43301 1.35054 3.45924 1.46001 3.50801C1.56948 3.55679 1.66801 3.62712 1.74971 3.7148L4.24141 6.20531L8.37282 0.939901C8.38023 0.930714 8.38817 0.921973 8.39662 0.913723ZM7.30189 7.02992L8.39662 8.12465C8.48143 8.20932 8.58244 8.27603 8.6936 8.32082C8.80476 8.3656 8.92381 8.38754 9.04363 8.38532C9.16345 8.38309 9.2816 8.35676 9.39103 8.30789C9.50045 8.25902 9.59892 8.18861 9.68054 8.10086L14.4307 2.16314C14.516 2.0789 14.5835 1.97832 14.6291 1.86742C14.6747 1.75651 14.6975 1.63756 14.6961 1.51766C14.6947 1.39775 14.6691 1.27936 14.621 1.16955C14.5728 1.05974 14.503 0.960768 14.4157 0.878536C14.3285 0.796304 14.2255 0.732502 14.113 0.690941C14.0006 0.64938 13.8809 0.630911 13.7611 0.636639C13.6413 0.642367 13.5239 0.672173 13.4159 0.724278C13.3079 0.776382 13.2115 0.849716 13.1325 0.939901L8.99991 6.20531L8.42279 5.62701L7.3007 7.02992H7.30189Z" fill="#75818D"/>
</svg>
