<svg width="41" height="41" viewBox="0 0 41 41" fill="none" xmlns="http://www.w3.org/2000/svg">
<circle cx="20.0805" cy="20.0805" r="20.0805" fill="#B1EEA2"/>
<path d="M15 18C15.395 17.515 15.935 17.24 16.5 17.24C17.065 17.24 17.59 17.515 18 18" stroke="#087F5B" stroke-width="1.5" stroke-linecap="round" stroke-linejoin="round"/>
<path d="M22 18C22.395 17.515 22.935 17.24 23.5 17.24C24.065 17.24 24.59 17.515 25 18" stroke="#087F5B" stroke-width="1.5" stroke-linecap="round" stroke-linejoin="round"/>
<path d="M26.3639 13.636C29.8787 17.1508 29.8787 22.8492 26.3639 26.3639C22.8492 29.8787 17.1507 29.8787 13.636 26.3639C10.1213 22.8492 10.1213 17.1507 13.636 13.636C17.1508 10.1213 22.8492 10.1213 26.3639 13.636" stroke="#087F5B" stroke-width="1.5" stroke-linecap="round" stroke-linejoin="round"/>
<path d="M23.5 22.688C23.5 22.688 22.187 24 20 24C17.812 24 16.5 22.688 16.5 22.688" stroke="#087F5B" stroke-width="1.5" stroke-linecap="round" stroke-linejoin="round"/>
</svg>
