<svg width="13" height="14" viewBox="0 0 13 14" fill="none" xmlns="http://www.w3.org/2000/svg">
<path d="M7.20244 6.05796C7.61762 6.47314 7.61762 7.14662 7.20244 7.5618C6.78725 7.97699 6.11378 7.97699 5.69859 7.5618C5.28341 7.14662 5.28341 6.47314 5.69859 6.05796C6.11378 5.64214 6.78725 5.64214 7.20244 6.05796" stroke="#FFFEFC" stroke-width="0.956245" stroke-linecap="round" stroke-linejoin="round"/>
<path fill-rule="evenodd" clip-rule="evenodd" d="M3.26123 6.80936C3.26123 6.57594 3.3148 6.34507 3.4194 6.13206V6.13206C3.95575 5.03447 5.14199 4.3291 6.45004 4.3291C7.75809 4.3291 8.94433 5.03447 9.48069 6.13206V6.13206C9.58528 6.34507 9.63885 6.57594 9.63885 6.80936C9.63885 7.04278 9.58528 7.27365 9.48069 7.48666V7.48666C8.94369 8.58361 7.75745 9.28962 6.45004 9.28962C5.14199 9.28962 3.95575 8.58425 3.4194 7.48666V7.48666C3.3148 7.27365 3.26123 7.04278 3.26123 6.80936Z" stroke="#FFFEFC" stroke-width="0.956245" stroke-linecap="round" stroke-linejoin="round"/>
<circle cx="6.45031" cy="6.8092" r="5.73986" stroke="#FFFEFC" stroke-width="0.956245" stroke-linecap="round" stroke-linejoin="round"/>
</svg>
