<svg width="32" height="32" viewBox="0 0 32 32" fill="none" xmlns="http://www.w3.org/2000/svg">
<circle cx="15.7313" cy="15.7313" r="15.7313" fill="#75818D" fill-opacity="0.66"/>
<path d="M16.3099 15.0822C16.7553 15.5276 16.7553 16.2502 16.3099 16.6956C15.8644 17.1411 15.1418 17.1411 14.6964 16.6956C14.2509 16.2502 14.2509 15.5276 14.6964 15.0822C15.1418 14.636 15.8644 14.636 16.3099 15.0822" stroke="#FFFEFC" stroke-width="1.02596" stroke-linecap="round" stroke-linejoin="round"/>
<path fill-rule="evenodd" clip-rule="evenodd" d="M12.0811 15.8886C12.0811 15.6382 12.1385 15.3905 12.2507 15.1619V15.1619C12.8262 13.9843 14.0989 13.2275 15.5023 13.2275C16.9057 13.2275 18.1785 13.9843 18.7539 15.1619V15.1619C18.8661 15.3905 18.9236 15.6382 18.9236 15.8886C18.9236 16.139 18.8661 16.3867 18.7539 16.6153V16.6153C18.1778 17.7922 16.9051 18.5497 15.5023 18.5497C14.0989 18.5497 12.8262 17.7929 12.2507 16.6153V16.6153C12.1385 16.3867 12.0811 16.139 12.0811 15.8886Z" stroke="#FFFEFC" stroke-width="1.02596" stroke-linecap="round" stroke-linejoin="round"/>
<circle cx="15.503" cy="15.8888" r="6.1583" stroke="#FFFEFC" stroke-width="1.02596" stroke-linecap="round" stroke-linejoin="round"/>
</svg>
