<svg width="24" height="24" viewBox="0 0 24 24" fill="none" xmlns="http://www.w3.org/2000/svg">
<path d="M19.25 10.625V3.774V3.774C19.25 2.794 18.456 2 17.476 2H3.774C2.794 2 2 2.794 2 3.774V17.476C2 18.456 2.794 19.25 3.774 19.25H12" stroke="white" stroke-width="1.5" stroke-linecap="round" stroke-linejoin="round"/>
<path fill-rule="evenodd" clip-rule="evenodd" d="M22.1908 20.9282H19.2988L17.4468 22.7642C16.9368 23.2692 16.0718 22.9082 16.0718 22.1912V14.8082C16.0718 14.0902 16.9408 13.7292 17.4488 14.2382L22.7618 19.5512C23.2698 20.0592 22.9108 20.9282 22.1908 20.9282V20.9282Z" stroke="white" stroke-width="1.5" stroke-linecap="round" stroke-linejoin="round"/>
<path d="M15.5149 10.625H10.2549" stroke="white" stroke-width="1.5" stroke-linecap="round" stroke-linejoin="round"/>
<path d="M6.302 10.4476C6.4 10.5456 6.4 10.7036 6.302 10.8016C6.204 10.8996 6.046 10.8996 5.948 10.8016C5.85 10.7036 5.85 10.5456 5.948 10.4476C6.046 10.3506 6.204 10.3506 6.302 10.4476" stroke="white" stroke-width="1.5" stroke-linecap="round" stroke-linejoin="round"/>
<path d="M15.5149 6.125H10.2549" stroke="white" stroke-width="1.5" stroke-linecap="round" stroke-linejoin="round"/>
<path d="M6.302 5.95074C6.4 6.04874 6.4 6.20674 6.302 6.30474C6.204 6.40274 6.046 6.40274 5.948 6.30474C5.85 6.20674 5.85 6.04874 5.948 5.95074C6.046 5.85274 6.204 5.85374 6.302 5.95074" stroke="white" stroke-width="1.5" stroke-linecap="round" stroke-linejoin="round"/>
<path d="M12.0002 15.125H10.3452" stroke="white" stroke-width="1.5" stroke-linecap="round" stroke-linejoin="round"/>
<path d="M6.38989 14.9517C6.48789 15.0497 6.48789 15.2077 6.38989 15.3057C6.29189 15.4037 6.13389 15.4037 6.03589 15.3057C5.93789 15.2077 5.93789 15.0497 6.03589 14.9517C6.13389 14.8537 6.29189 14.8547 6.38989 14.9517" stroke="white" stroke-width="1.5" stroke-linecap="round" stroke-linejoin="round"/>
</svg>
