<svg width="24" height="23" viewBox="0 0 24 23" fill="none" xmlns="http://www.w3.org/2000/svg">
<path d="M18.6738 9.625V2.774V2.774C18.6738 1.794 17.8798 1 16.8998 1H3.19783C2.21783 1 1.42383 1.794 1.42383 2.774V16.476C1.42383 17.456 2.21783 18.25 3.19783 18.25H11.4238" stroke="white" stroke-width="1.5" stroke-linecap="round" stroke-linejoin="round"/>
<path fill-rule="evenodd" clip-rule="evenodd" d="M21.6151 19.928H18.7231L16.8711 21.764C16.3611 22.269 15.4961 21.908 15.4961 21.191V13.808C15.4961 13.09 16.3651 12.729 16.8731 13.238L22.1861 18.551C22.6941 19.059 22.3351 19.928 21.6151 19.928V19.928Z" stroke="white" stroke-width="1.5" stroke-linecap="round" stroke-linejoin="round"/>
<path d="M14.9387 9.625H9.67871" stroke="white" stroke-width="1.5" stroke-linecap="round" stroke-linejoin="round"/>
<path d="M5.72583 9.44799C5.82383 9.54599 5.82383 9.70399 5.72583 9.80199C5.62783 9.89999 5.46983 9.89999 5.37183 9.80199C5.27383 9.70399 5.27383 9.54599 5.37183 9.44799C5.46983 9.35099 5.62783 9.35099 5.72583 9.44799" stroke="white" stroke-width="1.5" stroke-linecap="round" stroke-linejoin="round"/>
<path d="M14.9387 5.125H9.67871" stroke="white" stroke-width="1.5" stroke-linecap="round" stroke-linejoin="round"/>
<path d="M5.72583 4.95099C5.82383 5.04899 5.82383 5.20699 5.72583 5.30499C5.62783 5.40299 5.46983 5.40299 5.37183 5.30499C5.27383 5.20699 5.27383 5.04899 5.37183 4.95099C5.46983 4.85299 5.62783 4.85399 5.72583 4.95099" stroke="white" stroke-width="1.5" stroke-linecap="round" stroke-linejoin="round"/>
<path d="M11.4236 14.125H9.76855" stroke="white" stroke-width="1.5" stroke-linecap="round" stroke-linejoin="round"/>
<path d="M5.81372 13.952C5.91172 14.05 5.91172 14.208 5.81372 14.306C5.71572 14.404 5.55772 14.404 5.45972 14.306C5.36172 14.208 5.36172 14.05 5.45972 13.952C5.55772 13.854 5.71572 13.855 5.81372 13.952" stroke="white" stroke-width="1.5" stroke-linecap="round" stroke-linejoin="round"/>
</svg>
