<svg width="23" height="23" viewBox="0 0 23 23" fill="none" xmlns="http://www.w3.org/2000/svg">
<g opacity="0.3">
<path fill-rule="evenodd" clip-rule="evenodd" d="M6.22917 9.58333C4.37671 9.58333 2.875 8.08162 2.875 6.22917C2.875 4.37671 4.37671 2.875 6.22917 2.875C8.08162 2.875 9.58333 4.37671 9.58333 6.22917C9.58333 8.08162 8.08162 9.58333 6.22917 9.58333Z" fill="#75818D" stroke="#75818D" stroke-width="1.4375" stroke-linecap="round" stroke-linejoin="round"/>
<path fill-rule="evenodd" clip-rule="evenodd" d="M16.7712 9.58333C14.9187 9.58333 13.417 8.08162 13.417 6.22917C13.417 4.37671 14.9187 2.875 16.7712 2.875C18.6236 2.875 20.1253 4.37671 20.1253 6.22917C20.1253 8.08162 18.6236 9.58333 16.7712 9.58333Z" fill="#75818D" stroke="#75818D" stroke-width="1.4375" stroke-linecap="round" stroke-linejoin="round"/>
<path fill-rule="evenodd" clip-rule="evenodd" d="M6.22917 20.1253C4.37671 20.1253 2.875 18.6236 2.875 16.7712C2.875 14.9187 4.37671 13.417 6.22917 13.417C8.08162 13.417 9.58333 14.9187 9.58333 16.7712C9.58333 18.6236 8.08162 20.1253 6.22917 20.1253Z" fill="#75818D" stroke="#75818D" stroke-width="1.4375" stroke-linecap="round" stroke-linejoin="round"/>
<path fill-rule="evenodd" clip-rule="evenodd" d="M20.1253 16.7712C20.1253 14.9187 18.6236 13.417 16.7712 13.417C14.9187 13.417 13.417 14.9187 13.417 16.7712C13.417 18.6236 14.9187 20.1253 16.7712 20.1253C18.6236 20.1253 20.1253 18.6236 20.1253 16.7712Z" fill="#75818D" stroke="#75818D" stroke-width="1.4375" stroke-linecap="round" stroke-linejoin="round"/>
</g>
</svg>
