<svg width="24" height="25" viewBox="0 0 24 25" fill="none" xmlns="http://www.w3.org/2000/svg">
<path fill-rule="evenodd" clip-rule="evenodd" d="M19 21.5H16C14.895 21.5 14 20.605 14 19.5V14.5C14 13.395 14.895 12.5 16 12.5H19C20.105 12.5 21 13.395 21 14.5V19.5C21 20.605 20.105 21.5 19 21.5Z" stroke="white" stroke-width="1.5" stroke-linecap="round" stroke-linejoin="round"/>
<path fill-rule="evenodd" clip-rule="evenodd" d="M19 9.5H16C14.895 9.5 14 8.605 14 7.5V5.5C14 4.395 14.895 3.5 16 3.5H19C20.105 3.5 21 4.395 21 5.5V7.5C21 8.605 20.105 9.5 19 9.5Z" stroke="white" stroke-width="1.5" stroke-linecap="round" stroke-linejoin="round"/>
<path fill-rule="evenodd" clip-rule="evenodd" d="M5 3.5H8C9.105 3.5 10 4.395 10 5.5V10.5C10 11.605 9.105 12.5 8 12.5H5C3.895 12.5 3 11.605 3 10.5V5.5C3 4.395 3.895 3.5 5 3.5Z" stroke="white" stroke-width="1.5" stroke-linecap="round" stroke-linejoin="round"/>
<path fill-rule="evenodd" clip-rule="evenodd" d="M5 15.5H8C9.105 15.5 10 16.395 10 17.5V19.5C10 20.605 9.105 21.5 8 21.5H5C3.895 21.5 3 20.605 3 19.5V17.5C3 16.395 3.895 15.5 5 15.5Z" stroke="white" stroke-width="1.5" stroke-linecap="round" stroke-linejoin="round"/>
</svg>
