<svg width="30" height="30" viewBox="0 0 30 30" fill="none" xmlns="http://www.w3.org/2000/svg">
<path fill-rule="evenodd" clip-rule="evenodd" d="M24.8158 19.6473L24.8192 19.6504C24.9886 19.8078 25.0444 20.0529 24.9599 20.2682C24.8753 20.4835 24.6675 20.625 24.4362 20.625H5.56347C5.33222 20.625 5.12454 20.4835 5.03997 20.2682C4.95539 20.053 5.01116 19.8079 5.18053 19.6505V19.6505C7.05708 17.9064 8.1232 15.46 8.12319 12.8981V10.625C8.12319 6.82804 11.2012 3.75 14.9982 3.75V3.75C16.8216 3.75 18.5702 4.47433 19.8596 5.76364C21.1489 7.05295 21.8732 8.80164 21.8732 10.625V12.895C21.8732 15.4569 22.9393 17.9032 24.8158 19.6473V19.6473Z" stroke="#C46273" stroke-width="1.875" stroke-linecap="round" stroke-linejoin="round"/>
<path d="M12.5 25H17.5" stroke="#C46273" stroke-width="1.875" stroke-linecap="round" stroke-linejoin="round"/>
<path d="M23.3848 4.11523C24.3608 5.36576 25.0427 6.81997 25.38 8.37001" stroke="#C46273" stroke-width="1.875" stroke-linecap="round" stroke-linejoin="round"/>
<path d="M6.61534 4.11523C5.63934 5.36576 4.95741 6.81997 4.62012 8.37001" stroke="#C46273" stroke-width="1.875" stroke-linecap="round" stroke-linejoin="round"/>
</svg>
