<svg width="17" height="16" viewBox="0 0 17 16" fill="none" xmlns="http://www.w3.org/2000/svg">
<path d="M9.20244 7.05796C9.61762 7.47314 9.61762 8.14662 9.20244 8.5618C8.78725 8.97699 8.11378 8.97699 7.69859 8.5618C7.28341 8.14662 7.28341 7.47314 7.69859 7.05796C8.11378 6.64214 8.78725 6.64214 9.20244 7.05796" stroke="#FFFEFC" stroke-width="0.956245" stroke-linecap="round" stroke-linejoin="round"/>
<path fill-rule="evenodd" clip-rule="evenodd" d="M5.26123 7.80936C5.26123 7.57594 5.3148 7.34507 5.4194 7.13206V7.13206C5.95575 6.03447 7.14199 5.3291 8.45004 5.3291C9.75809 5.3291 10.9443 6.03447 11.4807 7.13206V7.13206C11.5853 7.34507 11.6389 7.57594 11.6389 7.80936C11.6389 8.04278 11.5853 8.27365 11.4807 8.48666V8.48666C10.9437 9.58361 9.75745 10.2896 8.45004 10.2896C7.14199 10.2896 5.95575 9.58425 5.4194 8.48666V8.48666C5.3148 8.27365 5.26123 8.04278 5.26123 7.80936Z" stroke="#FFFEFC" stroke-width="0.956245" stroke-linecap="round" stroke-linejoin="round"/>
<circle cx="8.45031" cy="7.8092" r="5.73986" stroke="#FFFEFC" stroke-width="0.956245" stroke-linecap="round" stroke-linejoin="round"/>
</svg>
