<svg width="41" height="41" viewBox="0 0 41 41" fill="none" xmlns="http://www.w3.org/2000/svg">
<circle cx="20.0805" cy="20.0805" r="20.0805" fill="#AACCFF"/>
<path d="M28.7505 19.9556C28.7505 14.9936 24.7125 10.9556 19.7505 10.9556C14.7875 10.9556 10.7505 14.9926 10.7505 19.9556" stroke="#3370BE" stroke-width="1.5" stroke-linecap="round" stroke-linejoin="round"/>
<path d="M10.7505 19.9556C10.7505 24.9186 14.7875 28.9556 19.7505 28.9556C24.7135 28.9556 28.7505 24.9176 28.7505 19.9556" stroke="#3370BE" stroke-width="1.5" stroke-linecap="round" stroke-linejoin="round"/>
<path d="M23.0786 17.4556C22.9406 17.4556 22.8286 17.5676 22.8296 17.7056C22.8296 17.8436 22.9416 17.9556 23.0796 17.9556C23.2176 17.9556 23.3296 17.8436 23.3296 17.7056C23.3296 17.5676 23.2176 17.4556 23.0786 17.4556" stroke="#3370BE" stroke-width="1.5" stroke-linecap="round" stroke-linejoin="round"/>
<path d="M16.3894 17.4556C16.2514 17.4556 16.1394 17.5676 16.1404 17.7056C16.1404 17.8436 16.2524 17.9556 16.3904 17.9556C16.5284 17.9556 16.6404 17.8436 16.6404 17.7056C16.6404 17.5676 16.5284 17.4556 16.3894 17.4556" stroke="#3370BE" stroke-width="1.5" stroke-linecap="round" stroke-linejoin="round"/>
<path fill-rule="evenodd" clip-rule="evenodd" d="M19.7505 24.9556C21.4175 24.9556 22.7505 23.6226 22.7505 21.9556H16.7505C16.7505 23.6226 18.0835 24.9556 19.7505 24.9556V24.9556Z" stroke="#3370BE" stroke-width="1.5" stroke-linecap="round" stroke-linejoin="round"/>
</svg>
