<svg width="64" height="65" viewBox="0 0 64 65" fill="none" xmlns="http://www.w3.org/2000/svg">
<rect width="64" height="64.1963" rx="32" fill="#DEE2E6"/>
<rect x="45.8438" y="45.9835" width="27.0954" height="27.1786" rx="5.49062" transform="rotate(-180 45.8438 45.9835)" stroke="#78828A" stroke-width="2.43783" stroke-linecap="round" stroke-linejoin="round"/>
<path d="M45.6967 39.9266L37.1236 31.3266C36.8413 31.0434 36.4584 30.8843 36.0592 30.8843C35.66 30.8843 35.2771 31.0434 34.9948 31.3266L28.5327 37.8084L25.0812 34.3464C24.4933 33.7568 23.5404 33.7567 22.9525 34.3463L18.75 38.5606" stroke="#78828A" stroke-width="2.43783" stroke-linecap="round" stroke-linejoin="round"/>
<path d="M28.2661 26.8435L28.2668 26.8428C28.4135 26.696 28.6511 26.6962 28.7976 26.8433C28.9441 26.9905 28.944 27.2288 28.7975 27.3758C28.6509 27.5229 28.4133 27.5229 28.2666 27.376C28.1199 27.2291 28.1197 26.9907 28.2661 26.8435" stroke="#78828A" stroke-width="2.43783" stroke-linecap="round" stroke-linejoin="round"/>
</svg>
