<svg width="24" height="25" viewBox="0 0 24 25" fill="none" xmlns="http://www.w3.org/2000/svg">
<path fill-rule="evenodd" clip-rule="evenodd" d="M19 3.5C20.105 3.5 21 4.395 21 5.5V19.5C21 20.605 20.105 21.5 19 21.5H5C3.895 21.5 3 20.605 3 19.5V5.5C3 4.395 3.895 3.5 5 3.5H19Z" stroke="white" stroke-width="1.5" stroke-linecap="round" stroke-linejoin="round"/>
<path d="M3 15.5H7.382C7.761 15.5 8.107 15.714 8.276 16.053L8.723 16.947C8.893 17.286 9.239 17.5 9.618 17.5H14.382C14.761 17.5 15.107 17.286 15.276 16.947L15.723 16.053C15.893 15.714 16.239 15.5 16.618 15.5H21" stroke="white" stroke-width="1.5" stroke-linecap="round" stroke-linejoin="round"/>
<path d="M3 9.5H7.382C7.761 9.5 8.107 9.714 8.276 10.053L8.723 10.947C8.893 11.286 9.239 11.5 9.618 11.5H14.382C14.761 11.5 15.107 11.286 15.276 10.947L15.723 10.053C15.893 9.714 16.239 9.5 16.618 9.5H21" stroke="white" stroke-width="1.5" stroke-linecap="round" stroke-linejoin="round"/>
</svg>
