<svg width="49" height="49" viewBox="0 0 49 49" fill="none" xmlns="http://www.w3.org/2000/svg">
<g opacity="0.3">
<path fill-rule="evenodd" clip-rule="evenodd" d="M36.5421 28.1862H12.3738C10.1483 28.1862 8.3457 26.3837 8.3457 24.1582V10.06C8.3457 7.83447 10.1483 6.03192 12.3738 6.03192H36.5421C38.7676 6.03192 40.5701 7.83447 40.5701 10.06V24.1582C40.5701 26.3837 38.7676 28.1862 36.5421 28.1862Z" stroke="#75818D" stroke-width="3.01978" stroke-linecap="round" stroke-linejoin="round"/>
<path fill-rule="evenodd" clip-rule="evenodd" d="M36.8283 28.1862H12.088C10.2895 28.1862 8.70844 29.3785 8.21501 31.1086L6.48899 37.1506C5.75387 39.7226 7.68532 42.2844 10.362 42.2844H38.5543C41.2309 42.2844 43.1624 39.7226 42.4273 37.1506L40.7012 31.1086C40.2058 29.3785 38.6268 28.1862 36.8283 28.1862Z" stroke="#75818D" stroke-width="3.01978" stroke-linecap="round" stroke-linejoin="round"/>
<path d="M20.4297 36.2424H28.4858" stroke="#75818D" stroke-width="3.01978" stroke-linecap="round" stroke-linejoin="round"/>
</g>
</svg>
