<svg width="23" height="23" viewBox="0 0 23 23" fill="none" xmlns="http://www.w3.org/2000/svg">
<path d="M18.36 7.3705L15.8745 4.88493C15.5501 4.58021 15.125 4.40537 14.6801 4.39366C14.2351 4.38196 13.8015 4.5342 13.4615 4.82143L5.29719 12.9857C5.00397 13.2814 4.82139 13.669 4.78011 14.0834L4.39004 17.8661C4.37782 17.999 4.39506 18.1329 4.44054 18.2584C4.48601 18.3838 4.55859 18.4977 4.65311 18.5919C4.73788 18.6759 4.8384 18.7424 4.94893 18.7876C5.05945 18.8327 5.1778 18.8556 5.29719 18.8549H5.37883L9.16161 18.5102C9.57599 18.4689 9.96356 18.2864 10.2593 17.9931L18.4235 9.82885C18.7404 9.49409 18.9117 9.04736 18.8998 8.58655C18.8879 8.12575 18.6938 7.68846 18.36 7.3705ZM15.2758 10.4004L12.8446 7.96921L14.6135 6.15493L17.09 8.63142L15.2758 10.4004Z" fill="#FEFEFE"/>
</svg>
