<svg width="16" height="16" viewBox="0 0 16 16" fill="none" xmlns="http://www.w3.org/2000/svg">
<path d="M9.67558 6.69397C10.3972 7.41556 10.3972 8.58698 9.67558 9.3098C8.95399 10.0314 7.78257 10.0314 7.05975 9.3098C6.33816 8.58821 6.33816 7.41679 7.05975 6.69397C7.78257 5.97115 8.95337 5.97115 9.67558 6.69397" stroke="#75818D" stroke-width="0.924322" stroke-linecap="round" stroke-linejoin="round"/>
<path fill-rule="evenodd" clip-rule="evenodd" d="M2.82227 8.00003C2.82227 7.59394 2.91593 7.19217 3.0971 6.82182C4.03066 4.91341 6.09375 3.68652 8.3682 3.68652C10.6426 3.68652 12.7057 4.91341 13.6393 6.82182C13.8205 7.19217 13.9141 7.59394 13.9141 8.00003C13.9141 8.40611 13.8205 8.80788 13.6393 9.17823C12.7057 11.0866 10.6426 12.3135 8.3682 12.3135C6.09375 12.3135 4.03066 11.0866 3.0971 9.17823C2.91593 8.80788 2.82227 8.40611 2.82227 8.00003Z" stroke="#75818D" stroke-width="0.924322" stroke-linecap="round" stroke-linejoin="round"/>
</svg>
