<svg width="54" height="44" viewBox="0 0 54 44" fill="none" xmlns="http://www.w3.org/2000/svg">
<rect width="54" height="44" rx="7.95122" fill="#596068"/>
<path d="M34.25 20.625V13.774V13.774C34.25 12.794 33.456 12 32.476 12H18.774C17.794 12 17 12.794 17 13.774V27.476C17 28.456 17.794 29.25 18.774 29.25H27" stroke="white" stroke-width="1.5" stroke-linecap="round" stroke-linejoin="round"/>
<path fill-rule="evenodd" clip-rule="evenodd" d="M37.1913 30.9282H34.2993L32.4473 32.7642C31.9373 33.2692 31.0723 32.9082 31.0723 32.1912V24.8082C31.0723 24.0902 31.9413 23.7292 32.4493 24.2382L37.7623 29.5512C38.2703 30.0592 37.9113 30.9282 37.1913 30.9282V30.9282Z" stroke="white" stroke-width="1.5" stroke-linecap="round" stroke-linejoin="round"/>
<path d="M30.5149 20.625H25.2549" stroke="white" stroke-width="1.5" stroke-linecap="round" stroke-linejoin="round"/>
<path d="M21.302 20.4481C21.4 20.5461 21.4 20.7041 21.302 20.8021C21.204 20.9001 21.046 20.9001 20.948 20.8021C20.85 20.7041 20.85 20.5461 20.948 20.4481C21.046 20.3511 21.204 20.3511 21.302 20.4481" stroke="white" stroke-width="1.5" stroke-linecap="round" stroke-linejoin="round"/>
<path d="M30.5149 16.125H25.2549" stroke="white" stroke-width="1.5" stroke-linecap="round" stroke-linejoin="round"/>
<path d="M21.302 15.9512C21.4 16.0492 21.4 16.2072 21.302 16.3052C21.204 16.4032 21.046 16.4032 20.948 16.3052C20.85 16.2072 20.85 16.0492 20.948 15.9512C21.046 15.8532 21.204 15.8542 21.302 15.9512" stroke="white" stroke-width="1.5" stroke-linecap="round" stroke-linejoin="round"/>
<path d="M26.9997 25.125H25.3447" stroke="white" stroke-width="1.5" stroke-linecap="round" stroke-linejoin="round"/>
<path d="M21.3899 24.9522C21.4879 25.0502 21.4879 25.2082 21.3899 25.3062C21.2919 25.4042 21.1339 25.4042 21.0359 25.3062C20.9379 25.2082 20.9379 25.0502 21.0359 24.9522C21.1339 24.8542 21.2919 24.8552 21.3899 24.9522" stroke="white" stroke-width="1.5" stroke-linecap="round" stroke-linejoin="round"/>
</svg>
