<svg width="10" height="11" viewBox="0 0 10 11" fill="none" xmlns="http://www.w3.org/2000/svg">
<path d="M8.67201 4.26671C8.26437 2.47912 6.69978 1.67432 5.32544 1.67432C5.32544 1.67432 5.32544 1.67432 5.32155 1.67432C3.95109 1.67432 2.38263 2.47525 1.97498 4.26284C1.52075 6.25937 2.74756 7.95023 3.85791 9.01428C4.26944 9.40894 4.79744 9.60627 5.32544 9.60627C5.85343 9.60627 6.38143 9.40894 6.78908 9.01428C7.89943 7.95023 9.12625 6.26324 8.67201 4.26671ZM5.32544 6.2052C4.64991 6.2052 4.1025 5.65964 4.1025 4.98639C4.1025 4.31314 4.64991 3.76758 5.32544 3.76758C6.00096 3.76758 6.54837 4.31314 6.54837 4.98639C6.54837 5.65964 6.00096 6.2052 5.32544 6.2052Z" fill="#AFAFAF"/>
</svg>
