<svg width="24" height="24" viewBox="0 0 24 24" fill="none" xmlns="http://www.w3.org/2000/svg">
<path d="M11.9985 20.75C11.9295 20.75 11.8735 20.806 11.8735 20.875C11.8745 20.944 11.9305 21 11.9995 21C12.0685 21 12.1245 20.944 12.1245 20.875C12.1245 20.806 12.0685 20.75 11.9985 20.75" stroke="#A9B4BF" stroke-width="1.5" stroke-linecap="round" stroke-linejoin="round"/>
<path d="M16.0875 20.7875C16.1365 20.8365 16.1365 20.9155 16.0875 20.9645C16.0385 21.0135 15.9595 21.0135 15.9105 20.9645C15.8615 20.9155 15.8615 20.8365 15.9105 20.7875C15.9595 20.7385 16.0395 20.7385 16.0875 20.7875Z" fill="#A9B4BF"/>
<path d="M16.0875 20.7875C16.1365 20.8365 16.1365 20.9155 16.0875 20.9645C16.0385 21.0135 15.9595 21.0135 15.9105 20.9645C15.8615 20.9155 15.8615 20.8365 15.9105 20.7875C15.9595 20.7385 16.0395 20.7385 16.0875 20.7875" stroke="#A9B4BF" stroke-width="1.5" stroke-linecap="round" stroke-linejoin="round"/>
<path d="M8.0885 20.7875C8.1375 20.8365 8.1375 20.9155 8.0885 20.9645C8.0395 21.0135 7.9605 21.0135 7.9115 20.9645C7.8625 20.9155 7.8625 20.8365 7.9115 20.7875C7.9605 20.7385 8.0405 20.7385 8.0885 20.7875Z" fill="#A9B4BF"/>
<path d="M8.0885 20.7875C8.1375 20.8365 8.1375 20.9155 8.0885 20.9645C8.0395 21.0135 7.9605 21.0135 7.9115 20.9645C7.8625 20.9155 7.8625 20.8365 7.9115 20.7875C7.9605 20.7385 8.0405 20.7385 8.0885 20.7875" stroke="#A9B4BF" stroke-width="1.5" stroke-linecap="round" stroke-linejoin="round"/>
<path d="M12 4V10" stroke="#A9B4BF" stroke-width="1.5" stroke-linecap="round" stroke-linejoin="round"/>
<path d="M16.2442 5.75488C18.5872 8.09888 18.5872 11.8989 16.2442 14.2429C13.9012 16.5869 10.1022 16.5869 7.7592 14.2429C5.4162 11.8989 5.4162 8.09888 7.7592 5.75488" stroke="#A9B4BF" stroke-width="1.5" stroke-linecap="round" stroke-linejoin="round"/>
</svg>
