<svg width="178" height="45" viewBox="0 0 178 45" fill="none" xmlns="http://www.w3.org/2000/svg">
<path d="M72.1305 31.8527C72.1305 33.6588 71.8187 35.3514 71.1952 36.9306C70.5717 38.5098 69.7003 39.8886 68.5822 41.0645C67.4629 42.2417 66.1282 43.168 64.5782 43.8448C63.0269 44.5216 61.3253 44.8607 59.471 44.8607C57.6168 44.8607 55.8664 44.5229 54.3164 43.8474C52.7651 43.1718 51.4316 42.2467 50.3123 41.0721C49.193 39.8975 48.3228 38.5224 47.6993 36.9457C47.0758 35.3691 46.764 33.6802 46.764 31.8767V8.36888H53.0944L53.1419 21.7637C54.0685 20.758 55.139 20.0207 56.3547 19.5506C57.5692 19.0805 58.8964 18.8448 60.335 18.8448C61.9651 18.8448 63.5001 19.1838 64.9387 19.8606C66.3773 20.5374 67.6244 21.4726 68.6786 22.6661C69.7341 23.8597 70.573 25.246 71.1965 26.8253C71.82 28.4045 72.1318 30.0807 72.1318 31.854L72.1305 31.8527ZM65.8001 31.9246C65.8001 30.8949 65.6311 29.9458 65.2943 29.0762C64.9575 28.2078 64.5005 27.4516 63.9221 26.8076C63.3449 26.1648 62.6713 25.6657 61.9 25.3116C61.13 24.9574 60.3112 24.781 59.446 24.781C58.5808 24.781 57.7607 24.9663 56.9907 25.3355C56.2207 25.7061 55.5471 26.2127 54.9687 26.8555C54.3915 27.4995 53.9345 28.2557 53.5964 29.1241C53.2596 29.9925 53.0919 30.9264 53.0919 31.9233C53.0919 32.9202 53.2596 33.7987 53.5964 34.6507C53.9332 35.5039 54.3902 36.2437 54.9687 36.8714C55.5459 37.499 56.2195 37.9981 56.9907 38.3674C57.7607 38.7379 58.5796 38.922 59.446 38.922C60.3124 38.922 61.13 38.7455 61.9 38.3914C62.67 38.0372 63.3436 37.5469 63.9221 36.9193C64.4993 36.2916 64.9563 35.5518 65.2943 34.6986C65.6311 33.8466 65.8001 32.9215 65.8001 31.9233V31.9246Z" fill="#272425"/>
<path d="M87.4894 24.9259C85.4749 24.5718 83.8522 24.8705 82.6227 25.8182C81.3919 26.7673 80.7759 28.1284 80.7759 29.8967V44.2809H74.4456V29.8967C74.4456 28.1272 74.7411 26.5177 75.332 25.0696C75.923 23.6215 76.7781 22.3989 77.8975 21.4008C79.0168 20.4038 80.3828 19.6791 81.9979 19.2292C83.6118 18.7793 85.4423 18.6822 87.4882 18.9393V24.9247L87.4894 24.9259Z" fill="#272425"/>
<path d="M112.871 44.2822H106.877V41.6493C105.95 42.6878 104.839 43.4743 103.544 44.0099C102.25 44.5443 100.851 44.8128 99.3488 44.8128C97.7186 44.8128 96.1836 44.475 94.745 43.8007C93.3064 43.1264 92.0519 42.2026 90.9801 41.0305C89.9084 39.8584 89.062 38.4934 88.4384 36.9357C87.8149 35.3779 87.5032 33.6991 87.5032 31.9006C87.5032 30.1021 87.8149 28.407 88.4384 26.8164C89.062 25.2271 89.9321 23.8458 91.0515 22.6737C92.1708 21.5016 93.5042 20.5702 95.0555 19.8795C96.6056 19.1889 98.3234 18.8435 100.21 18.8435C102.097 18.8435 103.766 19.1889 105.317 19.8795C106.867 20.5702 108.202 21.5016 109.321 22.6737C110.439 23.8458 111.311 25.2271 111.934 26.8164C112.558 28.4057 112.87 30.1009 112.87 31.8994V44.2809L112.871 44.2822ZM106.541 31.9006C106.541 30.9062 106.372 29.9761 106.035 29.1102C105.698 28.2444 105.241 27.4907 104.662 26.8505C104.085 26.2089 103.412 25.7036 102.64 25.3355C101.87 24.9663 101.052 24.7822 100.185 24.7822C99.3187 24.7822 98.4999 24.9587 97.7299 25.3116C96.9599 25.6645 96.2863 26.1611 95.7078 26.8026C95.1306 27.4441 94.6737 28.1978 94.3356 29.0636C93.9988 29.9295 93.831 30.876 93.831 31.9019C93.831 32.9278 93.9988 33.8189 94.3356 34.6671C94.6724 35.5165 95.1294 36.2551 95.7078 36.8802C96.285 37.5066 96.9586 37.9956 97.7299 38.3485C98.4999 38.7014 99.3187 38.8766 100.185 38.8766C101.052 38.8766 101.869 38.6926 102.64 38.3233C103.41 37.954 104.084 37.4574 104.662 36.8323C105.24 36.2072 105.697 35.4699 106.035 34.6192C106.372 33.7697 106.541 32.8635 106.541 31.9006Z" fill="#272425"/>
<path d="M139.656 36.366C138.92 38.9081 137.523 40.9599 135.46 42.5202C133.398 44.0818 130.817 44.8619 127.716 44.8619C125.957 44.8619 124.312 44.5242 122.777 43.8486C121.242 43.1731 119.9 42.248 118.749 41.0733C117.599 39.8987 116.695 38.5237 116.04 36.947C115.384 35.3703 115.057 33.6815 115.057 31.8779C115.057 30.0744 115.385 28.378 116.04 26.7849C116.695 25.1919 117.599 23.808 118.749 22.6334C119.9 21.4587 121.243 20.5261 122.777 19.8342C124.312 19.1422 125.957 18.7956 127.716 18.7956C129.186 18.7956 130.594 19.0288 131.936 19.4951C133.278 19.9615 134.485 20.6383 135.557 21.523C136.627 22.4078 137.539 23.4942 138.29 24.781C139.041 26.0678 139.561 27.5487 139.849 29.2224L122.394 36.608C123.033 37.4448 123.8 38.0964 124.695 38.5628C125.589 39.0303 126.581 39.2622 127.669 39.2622C128.692 39.2622 129.683 39.0291 130.643 38.5628C131.602 38.0964 132.353 37.3642 132.896 36.366H139.657H139.656ZM132.559 26.616C131.983 25.909 131.28 25.3607 130.45 24.9751C129.618 24.5894 128.691 24.3953 127.669 24.3953C126.741 24.3953 125.878 24.573 125.08 24.9259C124.281 25.2801 123.585 25.7703 122.994 26.398C122.402 27.0256 121.922 27.7743 121.555 28.6427C121.187 29.511 120.987 30.4764 120.955 31.5389L132.561 26.6148L132.559 26.616Z" fill="#272425"/>
<path d="M141.91 8.36888H148.24V33.8554C148.24 35.6262 148.636 36.8563 149.427 37.5482C150.218 38.2401 151.405 38.5376 152.988 38.4418V44.2343C151.166 44.4271 149.567 44.3137 148.192 43.8965C146.818 43.4781 145.667 42.8101 144.739 41.8938C143.812 40.9763 143.109 39.8344 142.63 38.467C142.15 37.0995 141.911 35.5632 141.911 33.8567V8.36888H141.91Z" fill="#272425"/>
<path d="M165.532 18.7956C167.259 18.7956 168.873 19.1259 170.375 19.785C171.877 20.4454 173.196 21.3617 174.331 22.5363C175.466 23.711 176.361 25.0948 177.017 26.6879C177.672 28.2809 178 30.0114 178 31.8767C178 33.742 177.672 35.4649 177.017 37.0415C176.361 38.6182 175.466 39.9857 174.331 41.1439C173.196 42.3022 171.877 43.2121 170.375 43.8713C168.873 44.5304 167.259 44.8607 165.532 44.8607C163.806 44.8607 162.192 44.5304 160.689 43.8713C159.187 43.2121 157.876 42.3022 156.756 41.1439C155.637 39.9857 154.749 38.6182 154.095 37.0415C153.439 35.4649 153.112 33.7432 153.112 31.8767C153.112 30.0101 153.44 28.2809 154.095 26.6879C154.749 25.0948 155.636 23.711 156.756 22.5363C157.876 21.3617 159.185 20.4454 160.689 19.785C162.192 19.1259 163.806 18.7956 165.532 18.7956ZM165.556 39.0215C166.391 39.0215 167.176 38.8526 167.915 38.5149C168.652 38.1771 169.302 37.6944 169.864 37.0667C170.426 36.4391 170.867 35.6917 171.188 34.8221C171.508 33.9537 171.67 32.9883 171.67 31.9258C171.67 30.8634 171.508 29.8828 171.188 28.9817C170.867 28.0805 170.425 27.3092 169.864 26.6639C169.302 26.0212 168.652 25.5221 167.915 25.1679C167.177 24.8138 166.391 24.6373 165.556 24.6373C164.721 24.6373 163.926 24.815 163.172 25.1679C162.418 25.5221 161.768 26.0212 161.223 26.6639C160.677 27.308 160.243 28.0805 159.923 28.9817C159.602 29.8828 159.442 30.8646 159.442 31.9258C159.442 32.987 159.602 33.9537 159.923 34.8221C160.243 35.6905 160.678 36.4391 161.223 37.0667C161.768 37.6944 162.418 38.1771 163.172 38.5149C163.926 38.8526 164.721 39.0215 165.556 39.0215Z" fill="#272425"/>
<path d="M33.3759 18.4692C32.7098 16.7816 31.7958 15.2743 30.6589 13.9875C29.4958 12.6717 28.101 11.6256 26.5134 10.8782C24.9057 10.1208 23.1704 9.73761 21.3562 9.73761C19.7698 9.73761 18.2749 10.0048 16.9127 10.5329C16.8538 10.5556 16.7962 10.5783 16.7374 10.6022L16.7023 0.89635C16.7011 0.404819 16.3042 0.0078125 15.8159 0.0078125H8.25475C8.01937 0.0078125 7.794 0.102338 7.62873 0.268702L0.259174 7.6883C0.0926516 7.85593 0 8.08279 0 8.31847V30.6516C0 32.585 0.341809 34.4289 1.01541 36.1328C1.69152 37.8431 2.65309 39.3606 3.87384 40.6411C5.09959 41.9291 6.57826 42.955 8.26727 43.6911C9.96255 44.4296 11.8519 44.8052 13.8815 44.8052C15.911 44.8052 17.7553 44.4296 19.4518 43.6898C21.1321 42.955 22.6057 41.9329 23.829 40.6511L24.5489 39.9264C30.4724 33.9651 30.4899 33.9474 30.5174 33.9172C31.7369 32.6341 32.6985 31.1154 33.3746 29.4026C34.0482 27.6961 34.39 25.8485 34.39 23.9126C34.39 21.9767 34.0482 20.1757 33.3746 18.4692H33.3759Z" fill="#272425"/>
<path d="M32.3141 23.9139C32.3141 25.5914 32.0249 27.1643 31.4452 28.6313C30.8655 30.0983 30.0567 31.3788 29.0175 32.4716C27.977 33.5643 26.7375 34.4251 25.2976 35.0552C23.8565 35.6842 22.2752 35.998 20.5536 35.998C18.8321 35.998 17.2056 35.6842 15.7645 35.0565C14.3234 34.4289 13.0839 33.5693 12.0447 32.4779C11.0055 31.3864 10.1967 30.1097 9.61698 28.6439C9.03728 27.1794 8.74806 25.6103 8.74806 23.9353V2.09871H14.6277L14.6715 14.5408C15.5329 13.6068 16.527 12.9212 17.6564 12.4839C18.7845 12.0465 20.0177 11.8285 21.3537 11.8285C22.8687 11.8285 24.2935 12.1436 25.6294 12.7725C26.9654 13.4014 28.1235 14.2698 29.1039 15.3776C30.0842 16.4855 30.863 17.7735 31.4427 19.2405C32.0211 20.7076 32.3116 22.2654 32.3116 23.9126L32.3141 23.9139Z" fill="white"/>
</svg>
