<svg width="24" height="25" viewBox="0 0 24 25" fill="none" xmlns="http://www.w3.org/2000/svg">
<path d="M6.126 14.2998L3 17.4998L5.5 18.9998L7 21.4998L10.899 17.4048" stroke="white" stroke-width="2" stroke-linecap="round" stroke-linejoin="round"/>
<path d="M13.1006 17.4048L16.9996 21.4998L18.4996 18.9998L20.9996 17.4998L17.8736 14.2998" stroke="white" stroke-width="2" stroke-linecap="round" stroke-linejoin="round"/>
<path d="M16.9497 5.55025C19.6834 8.28392 19.6834 12.7161 16.9497 15.4497C14.2161 18.1834 9.78392 18.1834 7.05025 15.4497C4.31658 12.7161 4.31658 8.28392 7.05025 5.55025C9.78392 2.81658 14.2161 2.81658 16.9497 5.55025" stroke="white" stroke-width="2" stroke-linecap="round" stroke-linejoin="round"/>
<path fill-rule="evenodd" clip-rule="evenodd" d="M11.9994 13.0838L13.7964 14.0278C14.1464 14.2118 14.5554 13.9148 14.4884 13.5248L14.1454 11.5238L15.5994 10.1078C15.8824 9.8318 15.7264 9.3508 15.3354 9.2938L13.3264 9.0018L12.4284 7.1808C12.2534 6.8258 11.7484 6.8258 11.5734 7.1808L10.6754 9.0018L8.6654 9.2948C8.2744 9.3518 8.1184 9.8328 8.4014 10.1088L9.8554 11.5248L9.5124 13.5258C9.4454 13.9158 9.8544 14.2128 10.2044 14.0288L12.0014 13.0848H11.9994V13.0838Z" stroke="white" stroke-width="2" stroke-linecap="round" stroke-linejoin="round"/>
</svg>
