<svg width="231" height="298" viewBox="0 0 231 298" fill="none" xmlns="http://www.w3.org/2000/svg">
<path fill-rule="evenodd" clip-rule="evenodd" d="M205.929 93.0074C213.542 101.561 219.659 111.587 224.123 122.819V122.807C228.623 134.172 230.915 146.153 230.915 159.026C230.915 171.899 228.635 184.193 224.123 195.546C219.598 206.935 213.156 217.033 204.988 225.575L204.943 225.621C204.624 225.94 202.186 228.389 165.017 265.546L160.191 270.372C151.999 278.901 142.143 285.694 130.886 290.58C119.521 295.503 107.179 298 93.5818 298C79.9848 298 67.3409 295.503 55.988 290.592C44.6833 285.694 34.7781 278.865 26.574 270.299C18.4062 261.782 11.9636 251.695 7.4393 240.318C2.92707 228.989 0.634766 216.72 0.634766 203.859V55.2929C0.634766 53.7124 1.26213 52.2043 2.37209 51.0943L51.7291 1.73733C52.8511 0.627368 54.3592 0 55.9276 0H106.551C109.821 0 112.487 2.64219 112.487 5.91174L112.717 70.4824C113.103 70.3256 113.501 70.1687 113.887 70.024C123.008 66.5131 133.022 64.7275 143.639 64.7275C155.788 64.7275 167.406 67.2853 178.168 72.3163C188.797 77.299 198.135 84.2604 205.929 93.0074ZM211.19 190.418C215.062 180.658 217.005 170.198 217.005 159.038V159.026C217.005 148.071 215.062 137.707 211.19 127.947C207.317 118.187 202.093 109.621 195.53 102.249C188.966 94.8774 181.221 89.0984 172.269 84.9119C163.329 80.7254 153.785 78.6382 143.639 78.6382C134.687 78.6382 126.435 80.0981 118.882 83.0057C111.329 85.9133 104.67 90.4738 98.9028 96.6871L98.6011 13.9228H59.2338V159.183C59.2338 170.318 61.1762 180.767 65.049 190.503C68.9218 200.251 74.3389 208.757 81.3003 216.008C88.2496 223.271 96.5501 228.989 106.202 233.164C115.854 237.338 126.736 239.426 138.27 239.426C149.804 239.426 160.385 237.338 170.037 233.152C179.676 228.965 187.977 223.247 194.938 215.972C201.888 208.697 207.317 200.179 211.19 190.418Z" fill="#F2B640"/>
</svg>
