<svg width="17" height="17" viewBox="0 0 17 17" fill="none" xmlns="http://www.w3.org/2000/svg">
<rect x="0.46582" y="0.482422" width="15.6883" height="15.6883" rx="7.84414" fill="#FBBC1B"/>
<path d="M12.3507 7.45989C12.2074 7.0884 12.0108 6.75659 11.7663 6.47332C11.5162 6.18368 11.2162 5.95341 10.8748 5.78889C10.5291 5.62215 10.1559 5.53781 9.76571 5.53781C9.42455 5.53781 9.10305 5.59662 8.81008 5.71287C8.79206 5.71998 8.77231 5.70684 8.77224 5.68746L8.76485 3.59159C8.76458 3.48339 8.67922 3.396 8.57421 3.396H6.94812C6.89749 3.396 6.84903 3.4168 6.81348 3.45343L5.22859 5.08669C5.19278 5.12359 5.17285 5.17353 5.17285 5.22541V10.1416C5.17285 10.5672 5.24636 10.9731 5.39123 11.3482C5.53663 11.7246 5.74342 12.0587 6.00596 12.3406C6.26957 12.6241 6.58757 12.8499 6.95081 13.0119C7.31539 13.1745 7.72172 13.2572 8.15819 13.2572C8.59467 13.2572 8.9913 13.1745 9.35615 13.0117C9.71751 12.8499 10.0344 12.6249 10.2975 12.3428L10.4523 12.1832C11.7262 10.871 11.73 10.8671 11.7359 10.8604C11.9982 10.578 12.205 10.2437 12.3504 9.86665C12.4952 9.491 12.5688 9.08428 12.5688 8.65814C12.5688 8.23199 12.4955 7.83554 12.3507 7.45989Z" fill="black"/>
<path d="M12.122 8.65828C12.1222 8.65836 12.1223 8.65853 12.1223 8.65872C12.1223 9.02787 12.0601 9.37401 11.9354 9.69686C11.8108 10.0198 11.6368 10.3017 11.4133 10.5422C11.1896 10.7827 10.923 10.9722 10.6134 11.111C10.3034 11.2494 9.96335 11.3185 9.59311 11.3185C9.22287 11.3185 8.87309 11.2494 8.56317 11.1112C8.25324 10.9731 7.98667 10.7839 7.76318 10.5436C7.53969 10.3033 7.36575 10.0223 7.24108 9.69963C7.11641 9.37725 7.05421 9.03184 7.05421 8.66313V4.48959C7.05421 4.13981 7.33775 3.85626 7.68753 3.85626C8.03645 3.85626 8.31965 4.13848 8.32085 4.48741L8.32537 5.80247C8.32634 6.08232 8.70987 6.24546 8.97003 6.14234C9.21264 6.04607 9.47786 5.99807 9.76517 5.99807C10.091 5.99807 10.3974 6.06743 10.6847 6.20587C10.972 6.34431 11.2211 6.53547 11.4319 6.77934C11.6428 7.0232 11.8102 7.30674 11.9349 7.62968C12.0593 7.95253 12.1217 8.29534 12.1218 8.65783C12.1218 8.65802 12.1219 8.65819 12.122 8.65828Z" fill="white"/>
</svg>
