<svg width="64" height="65" viewBox="0 0 64 65" fill="none" xmlns="http://www.w3.org/2000/svg">
<rect width="64" height="64.1963" rx="32" fill="#DEE2E6"/>
<rect x="45.8438" y="45.9839" width="27.0954" height="27.1786" rx="5.49062" transform="rotate(-180 45.8438 45.9839)" stroke="#78828A" stroke-width="2.43783" stroke-linecap="round" stroke-linejoin="round"/>
<path d="M45.6967 39.9271L37.1236 31.327C36.8413 31.0439 36.4584 30.8848 36.0592 30.8848C35.66 30.8848 35.2771 31.0439 34.9948 31.327L28.5327 37.8088L25.0812 34.3468C24.4933 33.7572 23.5404 33.7572 22.9525 34.3467L18.75 38.5611" stroke="#78828A" stroke-width="2.43783" stroke-linecap="round" stroke-linejoin="round"/>
<path d="M28.2661 26.8439L28.2668 26.8433C28.4135 26.6964 28.6511 26.6967 28.7976 26.8438C28.9441 26.9909 28.944 27.2292 28.7975 27.3763C28.6509 27.5233 28.4133 27.5234 28.2666 27.3764C28.1199 27.2295 28.1197 26.9912 28.2661 26.8439" stroke="#78828A" stroke-width="2.43783" stroke-linecap="round" stroke-linejoin="round"/>
</svg>
