<svg width="10" height="10" viewBox="0 0 10 10" fill="none" xmlns="http://www.w3.org/2000/svg">
<path d="M5.66307 0.471903C5.48607 0.294857 5.24601 0.195366 4.99566 0.195312H1.6105C1.36014 0.195313 1.12003 0.294769 0.942993 0.471802C0.76596 0.648835 0.666504 0.888944 0.666504 1.13931V4.52447C0.666557 4.77481 0.766049 5.01488 0.943094 5.19188L4.71907 8.96785C4.8961 9.14482 5.13616 9.24424 5.38648 9.24424C5.63679 9.24424 5.87686 9.14482 6.05388 8.96785L9.43904 5.58269C9.61602 5.40566 9.71543 5.1656 9.71543 4.91529C9.71543 4.66497 9.61602 4.42491 9.43904 4.24788L5.66307 0.471903ZM3.02649 3.49929C2.77606 3.49923 2.53592 3.39969 2.35889 3.22257C2.18185 3.04545 2.08243 2.80525 2.0825 2.55483C2.08256 2.3044 2.1821 2.06426 2.35922 1.88722C2.53634 1.71019 2.77654 1.61077 3.02696 1.61083C3.27739 1.61089 3.51753 1.71044 3.69456 1.88756C3.8716 2.06468 3.97102 2.30487 3.97096 2.5553C3.97089 2.80572 3.87135 3.04587 3.69423 3.2229C3.51711 3.39994 3.27692 3.49936 3.02649 3.49929Z" fill="#C2C2C2"/>
</svg>
