<svg width="41" height="41" viewBox="0 0 41 41" fill="none" xmlns="http://www.w3.org/2000/svg">
<circle cx="20.831" cy="20.161" r="20.0805" fill="#FFB2B2"/>
<path d="M29.7505 20.0806C29.7505 15.1186 25.7125 11.0806 20.7505 11.0806C15.7875 11.0806 11.7505 15.1176 11.7505 20.0806" stroke="#CB1C14" stroke-width="1.5" stroke-linecap="round" stroke-linejoin="round"/>
<path d="M20.7505 29.0806C25.7135 29.0806 29.7505 25.0426 29.7505 20.0806" stroke="#CB1C14" stroke-width="1.5" stroke-linecap="round" stroke-linejoin="round"/>
<path d="M11.7505 20.0806C11.7505 25.0436 15.7875 29.0806 20.7505 29.0806" stroke="#CB1C14" stroke-width="1.5" stroke-linecap="round" stroke-linejoin="round"/>
<path d="M24.0786 17.6006C23.9406 17.6006 23.8286 17.7126 23.8296 17.8506C23.8296 17.9886 23.9416 18.1006 24.0796 18.1006C24.2176 18.1006 24.3296 17.9886 24.3296 17.8506C24.3296 17.7126 24.2176 17.6006 24.0786 17.6006" stroke="#CB1C14" stroke-width="1.5" stroke-linecap="round" stroke-linejoin="round"/>
<path d="M17.3894 17.5806C17.2514 17.5806 17.1394 17.6926 17.1404 17.8306C17.1404 17.9686 17.2524 18.0806 17.3904 18.0806C17.5284 18.0806 17.6404 17.9686 17.6404 17.8306C17.6404 17.6926 17.5284 17.5806 17.3894 17.5806" stroke="#CB1C14" stroke-width="1.5" stroke-linecap="round" stroke-linejoin="round"/>
<path d="M17.2505 24.0806C17.2505 24.0806 18.5635 22.7686 20.7505 22.7686C22.9385 22.7686 24.2505 24.0806 24.2505 24.0806" stroke="#CB1C14" stroke-width="1.5" stroke-linecap="round" stroke-linejoin="round"/>
</svg>
