<svg width="16" height="16" viewBox="0 0 16 16" fill="none" xmlns="http://www.w3.org/2000/svg">
<path fill-rule="evenodd" clip-rule="evenodd" d="M3.0127 6.15186V12.9278C3.0127 13.3955 3.50998 13.6943 3.921 13.4706C4.92481 12.9228 6.40188 12.1174 6.40188 12.1174C6.40188 12.1174 7.87894 12.9234 8.88276 13.4706C9.29377 13.6943 9.79106 13.3955 9.79106 12.9278V6.15186C9.79106 5.47095 9.23954 4.91943 8.55863 4.91943H4.24512C3.56482 4.91943 3.0127 5.47095 3.0127 6.15186Z" stroke="#78828A" stroke-width="0.924322" stroke-linecap="round" stroke-linejoin="round"/>
<path d="M6.09277 4.91896V3.68653C6.09277 3.00561 6.64429 2.4541 7.3252 2.4541H11.6387C12.3196 2.4541 12.8711 3.00561 12.8711 3.68653V10.4914C12.8711 10.9591 12.3708 11.2561 11.9598 11.0324L9.79006 9.84868" stroke="#78828A" stroke-width="0.924322" stroke-linecap="round" stroke-linejoin="round"/>
</svg>
