<svg width="16" height="16" viewBox="0 0 16 16" fill="none" xmlns="http://www.w3.org/2000/svg">
<path fill-rule="evenodd" clip-rule="evenodd" d="M7.80425 0C11.8317 0 15.1078 3.276 15.1078 7.3035C15.1078 9.20366 14.3785 10.9367 13.1852 12.2374L15.5333 14.5805C15.7531 14.8003 15.7538 15.1558 15.534 15.3755C15.4246 15.4865 15.2798 15.5413 15.1358 15.5413C14.9925 15.5413 14.8485 15.4865 14.7383 15.377L12.3619 13.0073C11.1118 14.0084 9.52676 14.6077 7.80425 14.6077C3.77675 14.6077 0.5 11.331 0.5 7.3035C0.5 3.276 3.77675 0 7.80425 0ZM7.80425 1.125C4.397 1.125 1.625 3.89625 1.625 7.3035C1.625 10.7108 4.397 13.4827 7.80425 13.4827C11.2108 13.4827 13.9828 10.7108 13.9828 7.3035C13.9828 3.89625 11.2108 1.125 7.80425 1.125Z" fill="#78828A"/>
</svg>
