<svg width="28" height="28" viewBox="0 0 28 28" fill="none" xmlns="http://www.w3.org/2000/svg">
<circle cx="14" cy="14" r="14" fill="#ACB6BE" fill-opacity="0.5"/>
<path d="M12.2637 12.2634C12.4414 11.4972 13.1393 10.966 13.9251 10.9986C14.8046 10.9499 15.5586 11.6201 15.6133 12.4992C15.6133 13.6276 14.0001 13.9998 14.0001 14.7502" stroke="#75818D" stroke-width="1.125" stroke-linecap="round" stroke-linejoin="round"/>
<path d="M14.0939 16.8138C14.0939 16.8655 14.0519 16.9074 14.0001 16.9074C13.9483 16.9074 13.9064 16.8654 13.9064 16.8137C13.9063 16.7619 13.9483 16.7199 14 16.7198C14.025 16.7198 14.0489 16.7297 14.0665 16.7473C14.0841 16.7649 14.094 16.7888 14.0939 16.8138" stroke="#75818D" stroke-width="1.125" stroke-linecap="round" stroke-linejoin="round"/>
<path fill-rule="evenodd" clip-rule="evenodd" d="M8.47146 17.8704C6.45913 14.9981 6.97627 11.0641 9.66254 8.80944C12.3488 6.55479 16.3129 6.7276 18.7928 9.20748C21.2726 11.6873 21.4454 15.6514 19.1908 18.3377C16.9361 21.024 13.0021 21.5411 10.1299 19.5288L7.99766 20.0026L8.47146 17.8704Z" stroke="#75818D" stroke-width="1.125" stroke-linecap="round" stroke-linejoin="round"/>
</svg>
