<svg width="44" height="44" viewBox="0 0 44 44" fill="none" xmlns="http://www.w3.org/2000/svg">
<ellipse cx="21.9976" cy="22" rx="21.9976" ry="21.212" fill="#DEE2E6"/>
<path d="M31 20.788V28.788C31 29.893 30.105 30.788 29 30.788H15C13.895 30.788 13 29.893 13 28.788V14.788C13 13.683 13.895 12.788 15 12.788H22" stroke="#78828A" stroke-width="1.5" stroke-linecap="round" stroke-linejoin="round"/>
<path fill-rule="evenodd" clip-rule="evenodd" d="M19 24.788L22.15 24.399C22.371 24.372 22.577 24.271 22.735 24.114L30.366 16.483C31.211 15.638 31.211 14.268 30.366 13.422V13.422C29.521 12.577 28.151 12.577 27.305 13.422L19.745 20.982C19.592 21.135 19.493 21.333 19.462 21.548L19 24.788Z" stroke="#78828A" stroke-width="1.5" stroke-linecap="round" stroke-linejoin="round"/>
</svg>
