<svg width="49" height="48" viewBox="0 0 49 48" fill="none" xmlns="http://www.w3.org/2000/svg">
<ellipse cx="24.4809" cy="23.5672" rx="23.7118" ry="23.5668" fill="#75818D"/>
<path fill-rule="evenodd" clip-rule="evenodd" d="M19.6116 13.6232H29.9021C32.7372 13.6232 35.0365 15.9073 35.0365 18.7273V28.9549C35.0365 31.7726 32.7383 34.0579 29.901 34.0579H19.6116C16.7754 34.0579 14.4761 31.7737 14.4761 28.9537V18.7273C14.4761 15.9084 16.7743 13.6232 19.6116 13.6232V13.6232Z" stroke="white" stroke-width="1.70289" stroke-linecap="round" stroke-linejoin="round"/>
<path d="M30.4094 17.8384C30.197 17.8395 30.0245 18.011 30.0245 18.2221C30.0245 18.4333 30.1981 18.6047 30.4106 18.6047C30.623 18.6047 30.7955 18.4333 30.7955 18.2221C30.7966 18.0098 30.623 17.8384 30.4094 17.8384" stroke="white" stroke-width="1.70289" stroke-linecap="round" stroke-linejoin="round"/>
<path d="M27.6643 20.9506C29.2702 22.5466 29.2702 25.1343 27.6643 26.7304C26.0584 28.3264 23.4548 28.3264 21.8489 26.7304C20.2431 25.1343 20.2431 22.5466 21.8489 20.9506C23.4548 19.3545 26.0584 19.3545 27.6643 20.9506" stroke="white" stroke-width="1.70289" stroke-linecap="round" stroke-linejoin="round"/>
</svg>
