<svg width="48" height="48" viewBox="0 0 48 48" fill="none" xmlns="http://www.w3.org/2000/svg">
<ellipse cx="24.2504" cy="23.5668" rx="23.7118" ry="23.5668" fill="#75818D"/>
<path fill-rule="evenodd" clip-rule="evenodd" d="M31.611 16.7589C29.7308 14.8891 27.2304 13.8583 24.5667 13.8572C19.0759 13.8572 14.6086 18.2949 14.6075 23.7498C14.6052 25.4857 15.0632 27.1919 15.9359 28.6962L14.5229 33.823L19.8024 32.4471C21.2633 33.2372 22.899 33.6516 24.5622 33.6516H24.5667C30.0552 33.6516 34.5225 29.2127 34.5248 23.7578C34.526 21.1149 33.4911 18.6298 31.611 16.7589Z" stroke="white" stroke-width="1.70289" stroke-linecap="round" stroke-linejoin="round"/>
<path d="M25.7754 25.6117L26.2391 25.1542C26.6652 24.7342 27.3391 24.6808 27.8303 25.0237C28.3055 25.3552 28.735 25.6526 29.1347 25.9296C29.7698 26.3678 29.8464 27.2669 29.2992 27.8096L28.8892 28.2172" stroke="white" stroke-width="1.70289" stroke-linecap="round" stroke-linejoin="round"/>
<path d="M20.1211 19.5028L20.5312 19.0953C21.0772 18.5526 21.9818 18.6287 22.4227 19.2588C22.7003 19.6561 22.9996 20.083 23.3342 20.5552C23.6792 21.0434 23.6266 21.7132 23.2029 22.1366L22.7426 22.5976" stroke="white" stroke-width="1.70289" stroke-linecap="round" stroke-linejoin="round"/>
<path d="M28.8896 28.2171C27.1979 29.8905 24.3549 28.4691 22.1104 26.2372" stroke="white" stroke-width="1.70289" stroke-linecap="round" stroke-linejoin="round"/>
<path d="M22.1125 26.2407C19.868 24.0088 18.4379 21.1843 20.1216 19.5029" stroke="white" stroke-width="1.70289" stroke-linecap="round" stroke-linejoin="round"/>
<path d="M22.7432 22.5975C23.1075 23.1686 23.5747 23.7339 24.1024 24.2584L24.1047 24.2607C24.6324 24.7852 25.2013 25.2495 25.7758 25.6117" stroke="white" stroke-width="1.70289" stroke-linecap="round" stroke-linejoin="round"/>
</svg>
