<svg width="24" height="25" viewBox="0 0 24 25" fill="none" xmlns="http://www.w3.org/2000/svg">
<path d="M10.4208 14.0793C9.41181 13.0703 9.56981 11.3363 10.8958 10.5553C11.5648 10.1613 12.4348 10.1613 13.1038 10.5553C14.4288 11.3363 14.5878 13.0703 13.5788 14.0793" stroke="white" stroke-width="1.5" stroke-linecap="round" stroke-linejoin="round"/>
<path d="M13.5789 14.0793C12.7069 14.9512 11.2929 14.9512 10.4209 14.0793" stroke="white" stroke-width="1.5" stroke-linecap="round" stroke-linejoin="round"/>
<path d="M5.16061 18.3392C2.13661 14.8022 2.29061 9.48225 5.63561 6.13625C9.15061 2.62125 14.8486 2.62125 18.3636 6.13625C21.7096 9.48225 21.8626 14.8032 18.8386 18.3392" stroke="white" stroke-width="1.5" stroke-linecap="round" stroke-linejoin="round"/>
<path d="M7.66137 15.839C6.00037 13.682 6.13537 10.587 8.11137 8.611C10.2594 6.463 13.7414 6.463 15.8894 8.611C17.8664 10.588 18.0004 13.682 16.3384 15.839" stroke="white" stroke-width="1.5" stroke-linecap="round" stroke-linejoin="round"/>
<path fill-rule="evenodd" clip-rule="evenodd" d="M7.99023 20.513C8.50523 18.776 10.0952 17.5 12.0002 17.5C13.9052 17.5 15.4952 18.776 16.0102 20.513C13.4852 21.777 10.5152 21.776 7.99023 20.513Z" stroke="white" stroke-width="1.5" stroke-linecap="round" stroke-linejoin="round"/>
</svg>
