<svg width="44" height="43" viewBox="0 0 44 43" fill="none" xmlns="http://www.w3.org/2000/svg">
<ellipse cx="21.9976" cy="21.212" rx="21.9976" ry="21.212" fill="#FFE2E2"/>
<path fill-rule="evenodd" clip-rule="evenodd" d="M29.2083 30.125H15.7917C14.7327 30.125 13.875 29.2673 13.875 28.2083V14.7917C13.875 13.7327 14.7327 12.875 15.7917 12.875H29.2083C30.2673 12.875 31.125 13.7327 31.125 14.7917V28.2083C31.125 29.2673 30.2673 30.125 29.2083 30.125Z" stroke="#C46273" stroke-width="1.4375" stroke-linecap="round" stroke-linejoin="round"/>
<path d="M13.875 24.375H18.0744C18.4376 24.375 18.7692 24.5801 18.9312 24.905L19.3595 25.7617C19.5225 26.0866 19.854 26.2917 20.2172 26.2917H24.7827C25.146 26.2917 25.4775 26.0866 25.6395 25.7617L26.0679 24.905C26.2308 24.5801 26.5624 24.375 26.9256 24.375H31.125" stroke="#C46273" stroke-width="1.4375" stroke-linecap="round" stroke-linejoin="round"/>
</svg>
