<svg width="24" height="24" viewBox="0 0 24 24" fill="none" xmlns="http://www.w3.org/2000/svg">
<path fill-rule="evenodd" clip-rule="evenodd" d="M3.13477 14.998C2.95377 14.693 2.95377 14.307 3.13477 14.002C5.03977 10.779 8.51977 8 11.9998 8C15.4798 8 18.9588 10.779 20.8638 14.001C21.0448 14.307 21.0448 14.694 20.8638 15C18.9588 18.221 15.4798 21 11.9998 21C8.51977 21 5.03977 18.221 3.13477 14.998Z" stroke="#75818D" stroke-width="1.46" stroke-linecap="round" stroke-linejoin="round"/>
<path d="M14.1205 12.379C15.2925 13.551 15.2925 15.45 14.1205 16.622C12.9485 17.794 11.0495 17.794 9.87754 16.622C8.70554 15.45 8.70554 13.551 9.87754 12.379C11.0495 11.207 12.9495 11.207 14.1205 12.379" stroke="#75818D" stroke-width="1.46" stroke-linecap="round" stroke-linejoin="round"/>
<path d="M12 2.5V5" stroke="#75818D" stroke-width="1.46" stroke-linecap="round" stroke-linejoin="round"/>
<path d="M5 4.5L6.68 6.5" stroke="#75818D" stroke-width="1.46" stroke-linecap="round" stroke-linejoin="round"/>
<path d="M18.9998 4.5L17.3198 6.5" stroke="#75818D" stroke-width="1.46" stroke-linecap="round" stroke-linejoin="round"/>
</svg>
