<svg width="31" height="30" viewBox="0 0 31 30" fill="none" xmlns="http://www.w3.org/2000/svg">
<path d="M21.4138 11.5424L13.212 19.4569C12.9712 19.6893 12.6446 19.8199 12.3041 19.82H10.2674C9.55821 19.82 8.98328 19.2652 8.98328 18.5808V16.6155C8.9834 16.2866 9.11709 15.9707 9.35568 15.7357L18.3833 6.82623C19.3149 5.90666 20.5891 5.38511 21.9218 5.37789C23.2544 5.37068 24.5346 5.8784 25.4769 6.78781L25.5694 6.87703C26.5317 7.79829 27.0713 9.05328 27.0674 10.3613C27.0635 11.6694 26.5166 12.9214 25.5488 13.8374C22.5208 16.6986 18.373 20.6812 15.9973 22.9687C14.7935 24.1267 13.1628 24.7769 11.463 24.7766H7.69913C5.57148 24.7766 3.84668 23.1122 3.84668 21.0591V17.4297C3.84668 15.7867 4.52294 14.2111 5.72667 13.0493L13.7089 5.34668" stroke="#75818D" stroke-width="2.8" stroke-linecap="round" stroke-linejoin="round"/>
</svg>
