<svg width="32" height="30" viewBox="0 0 32 30" fill="none" xmlns="http://www.w3.org/2000/svg">
<path d="M16.0098 6.19305H26.2787" stroke="#75818D" stroke-width="2.8" stroke-linecap="round" stroke-linejoin="round"/>
<ellipse cx="8.30795" cy="6.19309" rx="2.56723" ry="2.47727" stroke="#75818D" stroke-width="2.8" stroke-linecap="round" stroke-linejoin="round"/>
<path d="M16.0098 14.8635H26.2787" stroke="#75818D" stroke-width="2.8" stroke-linecap="round" stroke-linejoin="round"/>
<path d="M16.0098 23.5344H26.2787" stroke="#75818D" stroke-width="2.8" stroke-linecap="round" stroke-linejoin="round"/>
<path d="M8.95061 14.8645C8.95016 15.2063 8.66278 15.4832 8.30853 15.483C7.95428 15.4829 7.66714 15.2058 7.66699 14.864C7.66684 14.5221 7.95374 14.2448 8.30799 14.2444C8.47849 14.2442 8.64207 14.3094 8.76263 14.4258C8.88319 14.5421 8.95082 14.7 8.95061 14.8645" stroke="#75818D" stroke-width="2.8" stroke-linecap="round" stroke-linejoin="round"/>
<path d="M8.95109 23.5349C8.95065 23.8767 8.66327 24.1536 8.30902 24.1534C7.95477 24.1533 7.66763 23.8762 7.66748 23.5344C7.66733 23.1925 7.95423 22.9152 8.30848 22.9148C8.47898 22.9146 8.64255 22.9799 8.76311 23.0962C8.88367 23.2125 8.95131 23.3704 8.95109 23.5349" stroke="#75818D" stroke-width="2.8" stroke-linecap="round" stroke-linejoin="round"/>
</svg>
