<svg width="31" height="30" viewBox="0 0 31 30" fill="none" xmlns="http://www.w3.org/2000/svg">
<path d="M16.8172 19.8202H11.6806C10.9714 19.8202 10.3965 19.2654 10.3965 18.581V12.3853" stroke="#75818D" stroke-width="2.8" stroke-linecap="round" stroke-linejoin="round"/>
<path d="M24.5221 19.8202H25.8063C26.5155 19.8202 27.0904 19.2654 27.0904 18.581V4.95033C27.0904 4.26597 26.5155 3.71118 25.8063 3.71118H11.6806C10.9714 3.71118 10.3965 4.26597 10.3965 4.95033V7.42864" stroke="#75818D" stroke-width="2.8" stroke-linecap="round" stroke-linejoin="round"/>
<path d="M7.82852 9.90698H5.26022C4.55101 9.90698 3.97607 10.4618 3.97607 11.1461V24.7768C3.97607 25.4612 4.55101 26.016 5.26022 26.016H19.3859C20.0951 26.016 20.67 25.4612 20.67 24.7768V11.1461C20.67 10.4618 20.0951 9.90698 19.3859 9.90698H12.9651" stroke="#75818D" stroke-width="2.8" stroke-linecap="round" stroke-linejoin="round"/>
</svg>
