<svg width="17" height="16" viewBox="0 0 17 16" fill="none" xmlns="http://www.w3.org/2000/svg">
<path d="M2.54983 12.3968L2.53684 12.4098C2.36139 12.0264 2.25093 11.5911 2.20544 11.1102C2.25093 11.5846 2.37439 12.0134 2.54983 12.3968Z" fill="#757575"/>
<path d="M6.72149 6.78913C7.57559 6.78913 8.26798 6.09674 8.26798 5.24263C8.26798 4.38853 7.57559 3.69614 6.72149 3.69614C5.86738 3.69614 5.17499 4.38853 5.17499 5.24263C5.17499 6.09674 5.86738 6.78913 6.72149 6.78913Z" fill="#757575"/>
<path d="M11.3935 1.34389H5.94825C3.58302 1.34389 2.17297 2.75393 2.17297 5.11916V10.5644C2.17297 11.2727 2.29643 11.89 2.53686 12.4098C3.09567 13.6444 4.29129 14.3397 5.94825 14.3397H11.3935C13.7587 14.3397 15.1688 12.9296 15.1688 10.5644V9.07638V5.11916C15.1688 2.75393 13.7587 1.34389 11.3935 1.34389ZM14.1096 8.16667C13.6028 7.73131 12.784 7.73131 12.2772 8.16667L9.57407 10.4864C9.06724 10.9218 8.2485 10.9218 7.74167 10.4864L7.52074 10.3045C7.05939 9.90161 6.32513 9.86262 5.80529 10.2135L3.37508 11.8445C3.23213 11.4806 3.14766 11.0582 3.14766 10.5644V5.11916C3.14766 3.28676 4.11584 2.31857 5.94825 2.31857H11.3935C13.2259 2.31857 14.1941 3.28676 14.1941 5.11916V8.23815L14.1096 8.16667Z" fill="#757575"/>
</svg>
