<svg width="25" height="24" viewBox="0 0 25 24" fill="none" xmlns="http://www.w3.org/2000/svg">
<path d="M14.5833 5C14.5833 3.9 13.6458 3 12.5 3C11.3542 3 10.4167 3.9 10.4167 5C10.4167 6.1 11.3542 7 12.5 7C13.6458 7 14.5833 6.1 14.5833 5Z" fill="#868E96"/>
<path d="M14.5833 19C14.5833 17.9 13.6458 17 12.5 17C11.3542 17 10.4167 17.9 10.4167 19C10.4167 20.1 11.3542 21 12.5 21C13.6458 21 14.5833 20.1 14.5833 19Z" fill="#868E96"/>
<path d="M14.5833 12C14.5833 10.9 13.6458 10 12.5 10C11.3542 10 10.4167 10.9 10.4167 12C10.4167 13.1 11.3542 14 12.5 14C13.6458 14 14.5833 13.1 14.5833 12Z" fill="#868E96"/>
</svg>
