<svg width="46" height="47" viewBox="0 0 46 47" fill="none" xmlns="http://www.w3.org/2000/svg">
<rect y="0.689941" width="45.693" height="45.693" rx="3.80775" fill="#75818D"/>
<path d="M26.7876 14.931L18.1916 17.7868C12.4133 19.7192 12.4133 22.8701 18.1916 24.793L20.7428 25.6403L21.59 28.1915C23.5129 33.9697 26.6734 33.9697 28.5963 28.1915L31.4616 19.605C32.7372 15.7496 30.643 13.6459 26.7876 14.931ZM27.0922 20.0524L23.4749 23.6888C23.3321 23.8316 23.1512 23.8982 22.9703 23.8982C22.7895 23.8982 22.6086 23.8316 22.4658 23.6888C22.1897 23.4127 22.1897 22.9558 22.4658 22.6797L26.0832 19.0433C26.3592 18.7673 26.8162 18.7673 27.0922 19.0433C27.3683 19.3194 27.3683 19.7763 27.0922 20.0524Z" fill="white"/>
</svg>
