<svg width="15" height="9" viewBox="0 0 15 9" fill="none" xmlns="http://www.w3.org/2000/svg">
<path d="M8.4095 1.14995C8.58113 0.986557 8.80952 0.896225 9.04648 0.898018C9.28344 0.899811 9.51043 0.993588 9.67957 1.15956C9.8487 1.32553 9.94675 1.55072 9.95301 1.78761C9.95927 2.02449 9.87327 2.25454 9.71314 2.42922L4.8519 8.50881C4.76831 8.59885 4.66743 8.6711 4.55527 8.72125C4.44312 8.7714 4.32201 8.79843 4.19917 8.8007C4.07634 8.80298 3.95431 8.78046 3.84037 8.73449C3.72644 8.68853 3.62295 8.62006 3.53608 8.53318L0.312316 5.30941C0.222539 5.22576 0.150532 5.12488 0.100589 5.01279C0.050646 4.9007 0.0237913 4.7797 0.0216266 4.65701C0.0194618 4.53432 0.0420314 4.41245 0.087989 4.29867C0.133947 4.18489 0.202351 4.08153 0.28912 3.99476C0.37589 3.90799 0.479248 3.83959 0.593027 3.79363C0.706807 3.74767 0.828678 3.7251 0.95137 3.72727C1.07406 3.72943 1.19506 3.75629 1.30715 3.80623C1.41924 3.85617 1.52012 3.92818 1.60377 4.01796L4.15501 6.56797L8.38513 1.17676C8.39272 1.16735 8.40086 1.1584 8.4095 1.14995ZM7.28861 7.41229L8.4095 8.53318C8.49635 8.61987 8.59976 8.68818 8.71358 8.73403C8.8274 8.77988 8.94929 8.80234 9.07197 8.80007C9.19466 8.7978 9.31563 8.77083 9.42767 8.72079C9.53971 8.67075 9.64053 8.59866 9.7241 8.50881L14.5878 2.42922C14.6751 2.34297 14.7442 2.23999 14.7909 2.12643C14.8376 2.01288 14.8609 1.89108 14.8595 1.76832C14.8581 1.64555 14.8319 1.52433 14.7826 1.4119C14.7333 1.29946 14.6618 1.19812 14.5724 1.11392C14.4831 1.02973 14.3777 0.9644 14.2625 0.921846C14.1473 0.879292 14.0248 0.860382 13.9021 0.866247C13.7795 0.872111 13.6593 0.90263 13.5487 0.95598C13.4382 1.00933 13.3395 1.08442 13.2585 1.17676L9.02721 6.56797L8.4363 5.97585L7.28739 7.41229H7.28861Z" fill="#75818D"/>
</svg>
