<svg width="30" height="30" viewBox="0 0 30 30" fill="none" xmlns="http://www.w3.org/2000/svg">
<circle cx="14.6624" cy="14.6624" r="14.6624" fill="#75818D" fill-opacity="0.66"/>
<path d="M15.2019 14.0577C15.6171 14.4729 15.6171 15.1464 15.2019 15.5616C14.7868 15.9767 14.1133 15.9767 13.6981 15.5616C13.2829 15.1464 13.2829 14.4729 13.6981 14.0577C14.1133 13.6419 14.7868 13.6419 15.2019 14.0577" stroke="#FFFEFC" stroke-width="0.956245" stroke-linecap="round" stroke-linejoin="round"/>
<path fill-rule="evenodd" clip-rule="evenodd" d="M11.2607 14.8092C11.2607 14.5758 11.3143 14.3449 11.4189 14.1319V14.1319C11.9553 13.0343 13.1415 12.329 14.4496 12.329C15.7576 12.329 16.9438 13.0343 17.4802 14.1319V14.1319C17.5848 14.3449 17.6384 14.5758 17.6384 14.8092C17.6384 15.0427 17.5848 15.2735 17.4802 15.4865V15.4865C16.9432 16.5835 15.757 17.2895 14.4496 17.2895C13.1415 17.2895 11.9553 16.5841 11.4189 15.4865V15.4865C11.3143 15.2735 11.2607 15.0427 11.2607 14.8092Z" stroke="#FFFEFC" stroke-width="0.956245" stroke-linecap="round" stroke-linejoin="round"/>
<circle cx="14.4498" cy="14.8091" r="5.73986" stroke="#FFFEFC" stroke-width="0.956245" stroke-linecap="round" stroke-linejoin="round"/>
</svg>
