<svg width="65" height="65" viewBox="0 0 65 65" fill="none" xmlns="http://www.w3.org/2000/svg">
<ellipse cx="32.5634" cy="32.3758" rx="32.4365" ry="32.2381" fill="#4CD964"/>
<path fill-rule="evenodd" clip-rule="evenodd" d="M42.6333 23.0639C40.0613 20.5061 36.641 19.096 32.9971 19.0945C25.4861 19.0945 19.375 25.1651 19.3734 32.6271C19.3703 35.0016 19.9969 37.3357 21.1907 39.3934L19.2578 46.4066L26.4798 44.5244C28.4783 45.6053 30.7158 46.1721 32.9909 46.1721H32.9971C40.5051 46.1721 46.6162 40.1 46.6193 32.638C46.6208 29.0226 45.2052 25.6232 42.6333 23.0639Z" stroke="#FFF9E9" stroke-width="2.32946" stroke-linecap="round" stroke-linejoin="round"/>
<path d="M34.6514 35.1742L35.2858 34.5483C35.8686 33.9737 36.7905 33.9007 37.4624 34.3697C38.1124 34.8232 38.6999 35.2301 39.2468 35.609C40.1155 36.2085 40.2202 37.4384 39.4718 38.1807L38.9108 38.7383" stroke="#FFF9E9" stroke-width="2.32946" stroke-linecap="round" stroke-linejoin="round"/>
<path d="M26.917 26.8175L27.4779 26.2599C28.2248 25.5176 29.4624 25.6217 30.0655 26.4836C30.4452 27.0271 30.8546 27.611 31.3124 28.2571C31.7843 28.9249 31.7124 29.8411 31.1327 30.4204L30.503 31.0509" stroke="#FFF9E9" stroke-width="2.32946" stroke-linecap="round" stroke-linejoin="round"/>
<path d="M38.9113 38.7379C36.5972 41.027 32.7081 39.0827 29.6377 36.0295" stroke="#FFF9E9" stroke-width="2.32946" stroke-linecap="round" stroke-linejoin="round"/>
<path d="M29.6406 36.0343C26.5702 32.9811 24.6139 29.1173 26.9171 26.8174" stroke="#FFF9E9" stroke-width="2.32946" stroke-linecap="round" stroke-linejoin="round"/>
<path d="M30.5029 31.0508C31.0014 31.8319 31.6405 32.6053 32.3623 33.3228L32.3655 33.3259C33.0874 34.0434 33.8655 34.6785 34.6514 35.1739" stroke="#FFF9E9" stroke-width="2.32946" stroke-linecap="round" stroke-linejoin="round"/>
</svg>
