<svg width="66" height="65" viewBox="0 0 66 65" fill="none" xmlns="http://www.w3.org/2000/svg">
<ellipse cx="33.0663" cy="32.3758" rx="32.4365" ry="32.2381" fill="#D5299B"/>
<path fill-rule="evenodd" clip-rule="evenodd" d="M26.404 18.7742H40.4809C44.3591 18.7742 47.5045 21.8988 47.5045 25.7563V39.7471C47.5045 43.6016 44.3606 46.7277 40.4793 46.7277H26.404C22.5243 46.7277 19.3789 43.6031 19.3789 39.7455V25.7563C19.3789 21.9003 22.5227 18.7742 26.404 18.7742V18.7742Z" stroke="#FFF9E9" stroke-width="2.32946" stroke-linecap="round" stroke-linejoin="round"/>
<path d="M41.175 24.5404C40.8844 24.542 40.6484 24.7765 40.6484 25.0653C40.6484 25.3542 40.8859 25.5887 41.1766 25.5887C41.4672 25.5887 41.7031 25.3542 41.7031 25.0653C41.7047 24.7749 41.4672 24.5404 41.175 24.5404" stroke="#FFF9E9" stroke-width="2.32946" stroke-linecap="round" stroke-linejoin="round"/>
<path d="M37.4201 28.7976C39.6168 30.9809 39.6168 34.5208 37.4201 36.7041C35.2233 38.8874 31.6617 38.8874 29.4649 36.7041C27.2682 34.5208 27.2682 30.9809 29.4649 28.7976C31.6617 26.6143 35.2233 26.6143 37.4201 28.7976" stroke="#FFF9E9" stroke-width="2.32946" stroke-linecap="round" stroke-linejoin="round"/>
</svg>
